<?xml version="1.0" encoding="UTF-8" standalone="no"?>
<!DOCTYPE svg PUBLIC "-//W3C//DTD SVG 1.1//EN" "http://www.w3.org/Graphics/SVG/1.1/DTD/svg11.dtd">
<svg width="100%" height="100%" viewBox="0 0 272 276" version="1.1" xmlns="http://www.w3.org/2000/svg" xmlns:xlink="http://www.w3.org/1999/xlink" xml:space="preserve" xmlns:serif="http://www.serif.com/" style="fill-rule:evenodd;clip-rule:evenodd;stroke-linejoin:round;stroke-miterlimit:2;">
    <g transform="matrix(1,0,0,1,-279.766,-20.5125)">
        <g transform="matrix(1,0,0,1,-846.026,-357.381)">
            <g transform="matrix(0.2848,0,0,0.2848,933.032,356.872)">
                <g transform="matrix(1,0,0,1,-6.99931,112.306)">
                    <g id="Basic-1-Room" serif:id="Basic 1 Room" transform="matrix(0.917243,0,0,0.917243,112.382,-66.9271)">
                        <g>
                            <g transform="matrix(1,-0.5,1,0.5,-220,986)">
                                <rect x="616" y="244" width="501.333" height="501.333" style="fill:rgb(86,53,23);"/>
                            </g>
                            <g transform="matrix(1,0.5,0,1,525.333,-504)">
                                <rect x="616" y="244" width="501.333" height="501.333" style="fill:rgb(141,128,124);"/>
                            </g>
                            <g transform="matrix(1,-0.5,0,1,23.1696,362.926)">
                                <g transform="matrix(1,0.5,0,1,604.551,-27.7415)">
                                    <path d="M355.037,283.543C366.144,278.068 377.797,272.417 390.17,266.536C377.377,273.881 372.5,276.192 355.037,283.543Z" style="fill:rgb(166,147,142);"/>
                                </g>
                                <g transform="matrix(1,0.5,0,1,604.551,-27.7415)">
                                    <path d="M178.585,522.81C164.343,534.849 154.433,541.041 156.92,533.88L157.118,533.603C165.231,529.447 172.293,525.906 178.585,522.81Z" style="fill:rgb(166,147,142);"/>
                                </g>
                                <g transform="matrix(1,0.5,0,1,604.551,-27.7415)">
                                    <path d="M156.92,533.88C156.944,533.809 156.97,533.738 156.997,533.665L157.118,533.603L156.92,533.88Z" style="fill:rgb(166,147,142);"/>
                                </g>
                                <g transform="matrix(1,0.5,0,1,604.551,-27.7415)">
                                    <path d="M159.008,530.963C158.383,531.836 157.752,532.716 157.118,533.603L156.997,533.665C157.083,533.43 157.182,533.182 157.294,532.92C157.491,532.456 157.687,531.994 157.88,531.535C158.257,531.344 158.633,531.153 159.008,530.963Z" style="fill:rgb(166,147,142);"/>
                                </g>
                                <g transform="matrix(1,0.5,0,1,604.551,-27.7415)">
                                    <path d="M329.969,295.341C336.735,291.935 342.968,288.776 348.127,286.125C350.605,285.087 352.869,284.138 354.953,283.26C340.83,290.222 327.589,296.898 314.872,303.402C320.016,300.677 325.057,297.978 329.969,295.341Z" style="fill:rgb(166,147,142);"/>
                                </g>
                                <g transform="matrix(1,0.5,0,1,604.551,-27.7415)">
                                    <path d="M155.421,437.955C155.546,441.916 155.686,446.466 155.841,451.879C156.028,458.426 154.638,458.464 156.022,532.478C155.949,532.514 155.877,532.551 155.805,532.588C155.117,516.912 155.202,473.853 155.421,437.955Z" style="fill:rgb(166,147,142);"/>
                                </g>
                                <g transform="matrix(1,0.5,0,1,604.551,-27.7415)">
                                    <path d="M156.053,534.148C156.043,533.587 156.032,533.031 156.022,532.478C156.153,532.411 156.283,532.345 156.414,532.279C156.404,532.87 156.393,533.435 156.382,533.98L156.053,534.148Z" style="fill:rgb(166,147,142);"/>
                                </g>
                                <g transform="matrix(1,0.5,0,1,604.551,-27.7415)">
                                    <path d="M396.209,413.583C396.109,413.549 396.009,413.516 395.91,413.482C396.017,413.396 396.12,413.307 396.218,413.216C396.215,413.344 396.212,413.466 396.209,413.583Z" style="fill:rgb(166,147,142);"/>
                                </g>
                                <g transform="matrix(1,0.5,0,1,604.551,-27.7415)">
                                    <path d="M286.807,317.887C245.033,339.607 206.266,360.281 155.861,384.493C155.862,384.377 155.863,384.268 155.864,384.167C214.087,356.016 212.249,353.385 271.117,325.524C276.386,323.03 281.623,320.474 286.807,317.887Z" style="fill:rgb(166,147,142);"/>
                                </g>
                                <g transform="matrix(1,0.5,0,1,604.551,-27.7415)">
                                    <path d="M155.586,414.563C156.819,499.333 156.619,520.86 156.414,532.279C156.283,532.345 156.153,532.411 156.022,532.478C154.638,458.464 156.028,458.426 155.841,451.879C155.686,446.466 155.546,441.916 155.421,437.955C155.471,429.628 155.529,421.687 155.586,414.563Z" style="fill:rgb(166,147,142);"/>
                                </g>
                                <g transform="matrix(1,0.5,0,1,604.551,-27.7415)">
                                    <path d="M396.218,413.216C396.329,408.575 396.58,396.398 396.786,380.551C397.93,404.964 399.331,410.333 396.218,413.216Z" style="fill:rgb(166,147,142);"/>
                                </g>
                                <g transform="matrix(1,0.5,0,1,604.551,-27.7415)">
                                    <path d="M156.382,533.98C156.393,533.435 156.404,532.87 156.414,532.279C156.905,532.03 157.393,531.782 157.88,531.535C157.687,531.994 157.491,532.456 157.294,532.92C157.182,533.182 157.083,533.43 156.997,533.665L156.382,533.98Z" style="fill:rgb(166,147,142);"/>
                                </g>
                                <g transform="matrix(1,0.5,0,1,604.551,-27.7415)">
                                    <path d="M512.698,15.068L512.698,516.401L11.365,767.068L11.365,265.735L512.698,15.068ZM155.861,384.493C155.619,384.61 155.377,384.726 155.135,384.842L155.122,384.023L155.135,384.842L154.758,385.023L155.135,384.842C155.303,395.53 155.453,405.414 155.586,414.563C155.529,421.687 155.471,429.628 155.421,437.955C154.756,416.995 154.5,412.507 154.668,383.855C154.5,412.507 154.756,416.995 155.421,437.955C155.202,473.853 155.117,516.912 155.805,532.588C155.877,532.551 155.949,532.514 156.022,532.478C156.032,533.031 156.043,533.587 156.053,534.148L155.926,534.214L156.053,534.148L156.06,534.492L156.053,534.148L156.382,533.98L156.364,534.907L156.382,533.98L156.997,533.665L156.92,533.88L156.776,534.081L156.92,533.88C154.433,541.041 164.343,534.849 178.585,522.81C219.309,502.772 227.786,501.398 280.25,473.063C336.532,442.665 339.238,447.122 393.942,415.696C395.936,415.45 397.976,415.197 400.064,414.936L400.107,414.947L400.064,414.936L400.133,414.927C398.809,414.465 397.501,414.017 396.209,413.583C396.212,413.466 396.215,413.344 396.218,413.216C399.331,410.333 397.93,404.964 396.786,380.551C397.238,345.775 397.474,293.327 395.541,264.083C397.474,293.327 397.238,345.775 396.786,380.551C396.302,370.227 395.864,356.497 395.833,338.108C395.769,300.24 395.897,300.572 395.413,263.577C395.494,263.489 395.574,263.4 395.655,263.312C395.574,263.4 395.494,263.489 395.413,263.577C395.411,263.4 395.408,263.221 395.406,263.042C380.353,268.045 357.123,280.761 329.969,295.341C301.023,309.91 262.329,328.98 256.375,331.915C205.261,357.105 206.866,359.904 155.135,384.165C206.866,359.904 205.261,357.105 256.375,331.915C262.329,328.98 301.023,309.91 329.969,295.341C325.057,297.978 320.016,300.677 314.872,303.402C305.27,308.313 295.966,313.125 286.807,317.887C281.623,320.474 276.386,323.03 271.117,325.524C212.249,353.385 214.087,356.016 155.864,384.167C155.863,384.268 155.862,384.377 155.861,384.493Z" style="fill:rgb(166,147,142);"/>
                                </g>
                            </g>
                            <g transform="matrix(0.425,0.2125,8.5694e-20,1.14683,371.4,-184.603)">
                                <rect x="592" y="304" width="40" height="468" style="fill:rgb(51,34,19);"/>
                            </g>
                            <g transform="matrix(2.09005,-1.04503,0.25,0.125,-714.194,925.763)">
                                <rect x="624" y="132" width="248" height="68" style="fill:rgb(51,34,19);"/>
                            </g>
                            <g transform="matrix(0.425,-0.2125,0,1.08875,935.8,312.742)">
                                <rect x="1664" y="312" width="40" height="492" style="fill:rgb(51,34,19);"/>
                            </g>
                            <g transform="matrix(0.425,-0.2125,1.01965,0.509824,116.003,242.535)">
                                <rect x="1664" y="312" width="40" height="492" style="fill:rgb(51,34,19);"/>
                            </g>
                            <g transform="matrix(1.09022,0,0,1.09022,586.927,-72.0747)">
                                <path d="M511.321,105.51C511.371,105.323 511.44,105.138 511.529,104.958C512.247,103.507 514.009,102.912 515.46,103.63C515.896,103.846 516.257,104.018 516.471,104.17L517.19,104.871L517.642,105.726L517.807,106.81L517.551,107.966L517.178,108.617L516.692,109.166C516.033,109.792 515.585,110.071 514.847,110.398C514.259,110.659 513.324,110.974 511.146,112.056C509.696,112.776 507.934,112.183 507.214,110.733C506.493,109.283 507.086,107.521 508.536,106.8C509.796,106.175 510.676,105.783 511.321,105.51Z" style="fill:rgb(51,34,19);"/>
                            </g>
                            <g transform="matrix(1.09022,0,0,1.09022,586.927,-72.0747)">
                                <path d="M511.856,111.69C510.484,112.55 508.672,112.135 507.812,110.763C506.951,109.391 507.367,107.579 508.738,106.718C512.038,104.649 512.055,104.701 515.619,103.177C516.143,102.954 516.124,102.943 522.145,100.351C523.633,99.711 525.36,100.399 526,101.886C526.64,103.373 525.953,105.101 524.465,105.741C518.432,108.338 518.45,108.349 517.926,108.573C514.783,109.917 514.765,109.865 511.856,111.69Z" style="fill:rgb(51,34,19);"/>
                            </g>
                            <g transform="matrix(0.859018,-0.429509,1.28941e-18,0.786084,144.872,750.236)">
                                <rect x="1160" y="1016" width="584" height="44" style="fill:rgb(51,34,19);"/>
                            </g>
                            <g transform="matrix(0.882843,0.441422,-2.70591e-18,0.670033,131.482,-43.888)">
                                <rect x="576" y="880" width="568" height="52" style="fill:rgb(51,34,19);"/>
                            </g>
                        </g>
                    </g>
                    <g transform="matrix(1,0,0,1,623,31)">
                        <path d="M79.596,639.164C80.278,640.093 80.992,640.953 82.396,642.806C83.234,643.911 83.183,645.452 82.275,646.5C81.584,647.296 80.541,647.643 79.548,647.468C79.063,653.171 79.723,663.647 79.807,665.038C79.905,666.654 78.673,668.046 77.056,668.144C75.44,668.242 74.048,667.009 73.95,665.393C73.852,663.78 73.087,650.691 73.903,645.198C73.94,644.952 73.992,644.618 74.046,644.28C73.778,644.082 73.477,643.858 73.13,643.6C72.172,642.887 71.741,641.663 72.043,640.507C72.16,640.056 72.379,639.65 72.674,639.314C72.53,639.079 72.377,638.827 72.215,638.557C71.501,637.374 71.711,635.853 72.717,634.906C73.724,633.959 75.254,633.843 76.392,634.627L78.417,636.022C79.457,636.738 79.89,638.008 79.596,639.164Z" style="fill:rgb(51,34,19);"/>
                    </g>
                    <g transform="matrix(1,0,0,1,623,31)">
                        <path d="M539.358,895.171C539.378,896.79 538.08,898.121 536.461,898.141C534.842,898.161 533.511,896.863 533.49,895.244C533.416,889.294 533.955,889.319 533.464,883.383C533.41,882.735 532.653,874.425 533.545,867.38C533.748,865.773 535.218,864.634 536.824,864.838C538.431,865.041 539.57,866.511 539.366,868.117C538.542,874.624 539.262,882.3 539.311,882.898C539.82,889.04 539.281,889.015 539.358,895.171Z" style="fill:rgb(51,34,19);"/>
                    </g>
                    <g transform="matrix(2.2466,0,0,8.00222,527.808,-4649.01)">
                        <path d="M77.082,665.641C77.107,665.759 77.173,665.899 77.294,666.082C77.922,667.035 77.85,667.057 77.879,668.216C77.884,668.418 77.303,668.583 76.582,668.585C75.862,668.586 75.272,668.423 75.267,668.221C75.239,667.132 75.316,667.112 74.726,666.216C74.165,665.365 74.531,665.319 75.077,664.457C75.19,664.279 75.752,664.15 76.398,664.155C77.044,664.16 77.58,664.297 77.659,664.477L77.997,665.246C78.076,665.425 77.678,665.591 77.082,665.641Z" style="fill:rgb(51,34,19);"/>
                    </g>
                    <g transform="matrix(1,0,0,1,623,31)">
                        <path d="M993.063,638.89C993.332,638.395 993.502,638.032 993.824,637.003C994.236,635.687 995.508,634.835 996.882,634.956C997.045,634.971 997.204,634.998 997.357,635.038C998.473,634.332 999.957,634.451 1000.95,635.392C1002.07,636.461 1002.17,638.221 1001.17,639.408C1000.63,640.048 1000.24,640.509 999.915,640.883C999.943,641.831 999.815,642.702 999.454,644.58C999.116,646.335 1000.01,646.334 999.608,666.915C999.577,668.534 998.236,669.823 996.617,669.791C994.998,669.759 993.71,668.419 993.742,666.8C993.998,653.802 993.797,648.664 993.676,646.228C993.277,646.595 992.833,647.006 992.332,647.474C991.147,648.579 989.289,648.514 988.185,647.33C987.08,646.146 987.145,644.287 988.329,643.183C990.745,640.93 991.815,639.998 993.063,638.89Z" style="fill:rgb(51,34,19);"/>
                    </g>
                    <g transform="matrix(1,0,0,1,623,31)">
                        <path d="M1000.46,178.078C1000.09,178.59 999.556,178.988 998.907,179.181L998.317,179.356C996.949,179.763 995.487,179.126 994.853,177.848C994.219,176.57 994.596,175.021 995.747,174.177C998.741,171.984 999.066,172.605 1002.34,170.828C1004.63,169.581 1004.56,169.461 1006.99,168.541C1008.57,167.943 1009.82,167.294 1009.92,167.244C1011.38,166.536 1013.13,167.144 1013.84,168.6C1014.55,170.056 1013.94,171.813 1012.49,172.521C1012.37,172.58 1010.91,173.331 1009.07,174.029C1007.01,174.808 1007.08,174.929 1005.14,175.984C1002.74,177.288 1002.09,177.102 1000.46,178.078Z" style="fill:rgb(51,34,19);"/>
                    </g>
                </g>
                <g transform="matrix(1,0,0,1,623,31)">
                    <path d="M73.191,750.519C71.791,751.333 69.993,750.857 69.179,749.458C68.365,748.058 68.841,746.261 70.24,745.446C101.069,727.516 414.815,572.574 426.191,567.247C478.163,542.909 477.387,541.76 528.777,516.495C530.23,515.781 531.99,516.381 532.705,517.834C533.419,519.287 532.819,521.047 531.366,521.761C479.926,547.05 480.702,548.199 428.679,572.561C417.319,577.881 103.979,732.612 73.191,750.519Z"/>
                </g>
                <g transform="matrix(1,0,0,1,623,31)">
                    <path d="M526.768,59.223C526.767,57.603 528.081,56.288 529.7,56.288C531.32,56.287 532.635,57.601 532.635,59.221C532.72,289.325 529.055,289.002 533.109,519.152C533.137,520.771 531.846,522.109 530.227,522.137C528.608,522.166 527.27,520.874 527.242,519.255C523.187,289.055 526.852,289.378 526.768,59.223Z"/>
                </g>
                <g transform="matrix(1,0,0,1,623,31)">
                    <path d="M529.963,522.145C528.518,521.415 527.936,519.65 528.665,518.204C529.395,516.758 531.161,516.176 532.606,516.906C569.153,535.342 951.049,727.999 990.22,745.799C991.694,746.469 992.347,748.21 991.677,749.684C991.007,751.158 989.267,751.811 987.792,751.141C948.603,733.333 566.527,540.59 529.963,522.145Z"/>
                </g>
                <g transform="matrix(1,0,0,1,623,31)">
                    <path d="M986.49,289.894C986.457,288.276 987.744,286.934 989.363,286.901C990.982,286.867 992.324,288.154 992.357,289.773C993.973,367.898 990.035,656.931 992.611,748.861C992.657,750.48 991.379,751.831 989.761,751.876C988.142,751.922 986.791,750.644 986.746,749.026C984.169,657.087 988.106,368.026 986.49,289.894Z"/>
                </g>
                <g transform="matrix(1,0,0,1,623,31)">
                    <path d="M530.67,63.702C529.154,63.132 528.386,61.439 528.956,59.923C529.526,58.407 531.219,57.639 532.734,58.209C589.212,79.436 585.637,86.549 676.958,129.85C813.355,194.524 965.587,271.872 991.364,286.978C992.761,287.797 993.231,289.596 992.412,290.993C991.594,292.39 989.795,292.859 988.398,292.041C962.658,276.956 810.643,199.732 674.444,135.152C583.399,91.982 586.976,84.864 530.67,63.702Z"/>
                </g>
                <g transform="matrix(1,0,0,1,623,31)">
                    <path d="M72.572,291.569C71.168,292.375 69.373,291.889 68.568,290.484C67.762,289.079 68.248,287.285 69.653,286.479C97.54,270.486 493.233,73.407 529.262,56.428C530.727,55.737 532.477,56.366 533.167,57.831C533.857,59.296 533.229,61.045 531.764,61.736C495.768,78.7 100.434,275.591 72.572,291.569Z"/>
                </g>
                <g transform="matrix(1,0,0,1,623,31)">
                    <path d="M67.831,288.902C67.851,287.282 69.182,285.984 70.801,286.004C72.42,286.025 73.718,287.355 73.698,288.975C71.18,490.998 73.858,717.882 73.102,748.732C73.062,750.35 71.716,751.633 70.097,751.593C68.478,751.553 67.196,750.207 67.236,748.588C67.992,717.742 65.313,490.894 67.831,288.902Z"/>
                </g>
                <g transform="matrix(1,0,0,1,623,31)">
                    <path d="M198.575,397.978C198.587,396.359 199.911,395.054 201.53,395.065C203.15,395.077 204.455,396.401 204.443,398.02C204.364,408.959 203.666,504.783 205.271,534.755C205.358,536.372 204.115,537.755 202.498,537.842C200.881,537.928 199.498,536.686 199.412,535.069C197.803,505.018 198.496,408.945 198.575,397.978Z"/>
                </g>
                <g transform="matrix(1,0,0,1,623,31)">
                    <path d="M204.898,537.02C203.437,537.716 201.684,537.095 200.988,535.633C200.291,534.172 200.912,532.419 202.374,531.723C208.764,528.677 324.181,470.351 324.427,470.23C413.317,426.689 413.416,427.115 421.05,423.158C422.487,422.413 424.259,422.975 425.005,424.413C425.75,425.85 425.188,427.623 423.75,428.368C416.107,432.329 416.009,431.905 327.008,475.5C326.762,475.62 211.291,533.972 204.898,537.02Z"/>
                </g>
                <g transform="matrix(1,0,0,1,623,31)">
                    <path d="M203.363,399.959C201.926,400.705 200.154,400.144 199.408,398.707C198.662,397.27 199.223,395.498 200.66,394.752C343.595,320.542 369.815,305.566 419.256,283.59C420.735,282.932 422.471,283.599 423.128,285.079C423.786,286.559 423.119,288.294 421.639,288.952C372.27,310.896 346.091,325.857 203.363,399.959Z"/>
                </g>
                <g transform="matrix(1,0,0,1,623,31)">
                    <path d="M418.12,287.002C418.043,285.385 419.294,284.009 420.911,283.932C422.529,283.855 423.904,285.105 423.982,286.723C424.559,298.825 424.387,298.809 426.38,425.627C426.406,427.246 425.112,428.581 423.493,428.607C421.874,428.632 420.539,427.338 420.513,425.719C418.523,299.072 418.697,299.088 418.12,287.002Z"/>
                </g>
                <g transform="matrix(1,0,0,1,623,31)">
                    <path d="M233.439,419.586C232.137,418.624 231.861,416.785 232.823,415.483C233.785,414.18 235.624,413.904 236.926,414.866C248.379,423.327 248.209,423.51 255.59,435.706C256.429,437.091 255.985,438.896 254.599,439.735C253.214,440.573 251.409,440.129 250.57,438.744C243.789,427.54 243.961,427.358 233.439,419.586Z" style="fill:white;"/>
                </g>
                <g transform="matrix(1,0,0,1,623,31)">
                    <path d="M246.546,412.82C245.171,411.965 244.748,410.155 245.603,408.78C246.458,407.405 248.269,406.982 249.644,407.837C261.274,415.068 262.331,416.248 268.763,428.375C269.521,429.806 268.976,431.583 267.545,432.342C266.115,433.1 264.337,432.555 263.579,431.124C257.848,420.318 256.909,419.264 246.546,412.82Z" style="fill:white;"/>
                </g>
                <g transform="matrix(1,0,0,1,623,31)">
                    <path d="M358.16,394.124C357.103,392.897 357.242,391.043 358.469,389.986C359.696,388.93 361.55,389.068 362.607,390.296C368.534,397.18 368.634,396.946 372.747,404.998C373.484,406.44 372.911,408.209 371.469,408.946C370.027,409.682 368.259,409.11 367.522,407.668C363.73,400.245 363.624,400.47 358.16,394.124Z" style="fill:white;"/>
                </g>
                <g transform="matrix(1,0,0,1,623,31)">
                    <path d="M368.559,387.73C367.497,386.508 367.626,384.653 368.849,383.591C370.071,382.529 371.925,382.658 372.988,383.881C380.007,391.956 380.244,391.799 383.919,401.797C384.477,403.317 383.697,405.004 382.177,405.563C380.657,406.121 378.97,405.341 378.411,403.821C375.107,394.833 374.869,394.99 368.559,387.73Z" style="fill:white;"/>
                </g>
                <g transform="matrix(1,0,0,1,623,31)">
                    <path d="M70.873,751.989C69.381,751.361 68.68,749.639 69.309,748.146C69.938,746.654 71.66,745.953 73.152,746.582C141.305,775.299 162.994,796.55 196.128,810.219C303.455,854.496 299.087,863.195 404.633,911.948C469.293,941.814 466.301,947.259 531.19,976.209C532.669,976.869 533.334,978.605 532.674,980.084C532.014,981.563 530.278,982.227 528.799,981.568C463.875,952.602 466.867,947.158 402.172,917.275C296.737,868.573 301.105,859.874 193.89,815.644C160.745,801.97 139.048,780.716 70.873,751.989Z"/>
                </g>
                <g transform="matrix(1,0,0,1,623,31)">
                    <path d="M985.807,746.951C987.214,746.149 989.007,746.641 989.809,748.048C990.61,749.455 990.118,751.248 988.711,752.049C970.785,762.261 970.964,761.945 758.783,868.831C645.226,926.036 644.689,924.311 531.372,981.583C529.927,982.314 528.161,981.734 527.43,980.288C526.7,978.843 527.28,977.077 528.725,976.346C642.046,919.073 642.583,920.797 756.143,863.591C968.077,756.828 967.901,757.15 985.807,746.951Z"/>
                </g>
            </g>
        </g>
    </g>
</svg>
