<?xml version="1.0" encoding="UTF-8" standalone="no"?>
<!DOCTYPE svg PUBLIC "-//W3C//DTD SVG 1.1//EN" "http://www.w3.org/Graphics/SVG/1.1/DTD/svg11.dtd">
<svg width="100%" height="100%" viewBox="0 0 1920 1080" version="1.1" xmlns="http://www.w3.org/2000/svg" xmlns:xlink="http://www.w3.org/1999/xlink" xml:space="preserve" xmlns:serif="http://www.serif.com/" style="fill-rule:evenodd;clip-rule:evenodd;stroke-linejoin:round;stroke-miterlimit:2;">
    <g id="COZY-background" serif:id="COZY background">
        <g id="Layer2">
            <path d="M-67.938,731.786C91.558,755.96 211.426,639.706 427.105,716.617C837.229,862.868 844.329,743.122 1269.95,648.755C1577.39,580.593 1599.15,729.028 1850.84,653.878C1952.78,623.438 1963.57,599.712 1980.12,632.538C2020.95,713.486 1945.57,717.385 1878.58,1085.19C1818.77,960.438 1884.14,861.511 1893.77,750.236C1714.98,772.253 1788.99,1101.42 1726.13,1076.4C1671.9,1054.82 1642.91,972.262 1528.88,982.325C1161.91,1014.71 846.884,1137.65 634.136,1065.36C247.403,933.966 207.88,1022.89 12.307,855.527C-14.761,832.363 -10.975,706.141 452.262,786.56C860.983,857.514 856.511,765.824 1219.06,696.175C1338.53,673.224 1351.07,632.239 1736.95,685.372C1768.46,689.711 1767.73,690.153 1797.86,702.008C1668.74,834.745 1447.01,729.739 1199.13,760.006C1111.71,770.68 686.566,829.915 501.19,838.073C221.897,850.365 220.583,798.031 68.83,830.867C382.09,1002.05 965.475,909.518 1149.59,903.498C1553.9,890.279 1554.09,846.85 1745.54,878.57C1610.24,957.741 1601.84,944.298 1003.65,964.74C57.323,997.078 52.868,877.342 -7.513,912.864C-52.324,939.226 -25.504,1094.31 70.161,1102.92C165.309,1111.49 162.371,1075.06 418.191,1064.05C830.398,1046.3 828.732,1019.4 1240.68,1025.67C1429.88,1028.56 1429.99,1019.59 1615.74,1051.42C1634.19,1054.59 1781.65,1079.86 1849.32,1065.55C1855.1,1064.32 1864.35,1060.36 1834.99,993.127C1796.39,904.752 1791.31,907.096 1766.26,813.878C1707.82,951.475 1675.72,1045.1 1583.06,1055.97C1486.02,1067.36 1565.05,886.849 1514.62,853.267C1493.56,839.235 1476.46,827.851 1198.49,839.419C994.463,847.91 855.492,916.208 597.447,885.31C522.196,876.299 346.677,844.638 134.126,904.904C32.25,933.79 9.557,974.532 60.984,990.91C143.112,1017.07 159.577,975.702 321.285,1028.79C337.878,1034.24 337.508,1032.46 395.393,1038.24" style="fill:none;"/>
            <clipPath id="_clip1">
                <path d="M-67.938,731.786C91.558,755.96 211.426,639.706 427.105,716.617C837.229,862.868 844.329,743.122 1269.95,648.755C1577.39,580.593 1599.15,729.028 1850.84,653.878C1952.78,623.438 1963.57,599.712 1980.12,632.538C2020.95,713.486 1945.57,717.385 1878.58,1085.19C1818.77,960.438 1884.14,861.511 1893.77,750.236C1714.98,772.253 1788.99,1101.42 1726.13,1076.4C1671.9,1054.82 1642.91,972.262 1528.88,982.325C1161.91,1014.71 846.884,1137.65 634.136,1065.36C247.403,933.966 207.88,1022.89 12.307,855.527C-14.761,832.363 -10.975,706.141 452.262,786.56C860.983,857.514 856.511,765.824 1219.06,696.175C1338.53,673.224 1351.07,632.239 1736.95,685.372C1768.46,689.711 1767.73,690.153 1797.86,702.008C1668.74,834.745 1447.01,729.739 1199.13,760.006C1111.71,770.68 686.566,829.915 501.19,838.073C221.897,850.365 220.583,798.031 68.83,830.867C382.09,1002.05 965.475,909.518 1149.59,903.498C1553.9,890.279 1554.09,846.85 1745.54,878.57C1610.24,957.741 1601.84,944.298 1003.65,964.74C57.323,997.078 52.868,877.342 -7.513,912.864C-52.324,939.226 -25.504,1094.31 70.161,1102.92C165.309,1111.49 162.371,1075.06 418.191,1064.05C830.398,1046.3 828.732,1019.4 1240.68,1025.67C1429.88,1028.56 1429.99,1019.59 1615.74,1051.42C1634.19,1054.59 1781.65,1079.86 1849.32,1065.55C1855.1,1064.32 1864.35,1060.36 1834.99,993.127C1796.39,904.752 1791.31,907.096 1766.26,813.878C1707.82,951.475 1675.72,1045.1 1583.06,1055.97C1486.02,1067.36 1565.05,886.849 1514.62,853.267C1493.56,839.235 1476.46,827.851 1198.49,839.419C994.463,847.91 855.492,916.208 597.447,885.31C522.196,876.299 346.677,844.638 134.126,904.904C32.25,933.79 9.557,974.532 60.984,990.91C143.112,1017.07 159.577,975.702 321.285,1028.79C337.878,1034.24 337.508,1032.46 395.393,1038.24"/>
            </clipPath>
            <g clip-path="url(#_clip1)">
                <path d="M1040.01,653.003C1049.24,637.36 1069.17,631.305 1085.66,639.551C1102.89,648.164 1109.88,669.144 1101.27,686.372L1091.18,706.545C1084.44,720.039 1069.78,727.669 1054.86,725.46C1039.18,723.138 937.499,707.871 856.898,716.585C695.942,733.986 690.625,710.85 558.772,767.358C502.962,791.277 470.791,801.037 459.545,804.126C449.119,812.209 434.529,814.011 422.059,807.541C404.962,798.67 398.283,777.588 407.154,760.491L414.34,750.379L425.818,741.98C432.36,738.707 451.164,737.539 531.277,703.205C672.109,642.848 677.48,665.777 849.396,647.192C917.103,639.872 998.474,647.821 1040.01,653.003Z" style="fill:rgb(50,135,115);"/>
            </g>
            <path d="M1836.6,1127.21C1815.86,1129.04 1791.67,1128.99 1766.88,1127.85L1753.93,1133.86L1735.59,1137.08L1718.47,1135.8L1704.16,1131.58C1696.76,1128.64 1689.63,1124.98 1682.66,1120.74C1651.39,1117.12 1625.4,1113.17 1612.46,1111.08C1605.23,1112.76 1597.75,1114.05 1589.99,1114.96C1582.75,1115.81 1576.03,1116.04 1569.81,1115.79L1549.02,1112.92L1528.5,1105.42L1513.38,1095.39C1416.57,1082.11 1386.24,1087.3 1239.77,1085.06C1237.48,1085.03 1235.21,1084.99 1232.95,1084.96C1129.39,1103.92 1032.28,1123.69 943.15,1135.56C818.263,1152.2 707.762,1153.11 615.029,1121.6C607.474,1119.03 600.055,1116.55 592.767,1114.15C544.057,1117.36 487.92,1120.5 420.746,1123.39C273.297,1129.74 215.327,1144.81 172.805,1154.13C137.382,1161.89 110.519,1166.19 64.834,1162.08C-20.694,1154.37 -75.121,1073.24 -85.893,996.977C-90.307,965.721 -87.41,936.183 -79.364,914.013L-71.775,897.293L-60.386,880.844L-48.186,870.565L-49.446,868.25L-54.866,849.339L-56.133,828.981L-52.8,807.99L-47.154,793.717C-56.929,793.079 -66.815,792.029 -76.839,790.51C-109.249,785.598 -131.575,755.296 -126.662,722.886C-121.75,690.475 -91.449,668.15 -59.038,673.062C13.289,684.024 76.391,661.242 146.101,646.343C232.235,627.933 326.209,617.58 447.055,660.673C674.096,741.637 767.091,736.409 890.128,698.737C980.132,671.18 1084.74,628.983 1257.1,590.769C1424.4,553.675 1513.98,575.49 1595.97,596.381C1662.45,613.322 1722.78,630.128 1833.85,596.966C1899.19,577.456 1929.74,561.317 1947.33,558.47L1972.05,558.047L1991.85,563.653L2015.85,580.551L2033.15,605.792C2058.14,655.329 2056.93,685.956 2037.22,740.949C2018.4,793.481 1976.18,880.821 1937.02,1095.84C1932.4,1121.16 1912,1140.63 1886.49,1144.06C1867.77,1146.57 1849.43,1140.03 1836.6,1127.21ZM1915.91,695.123C1919.68,696.636 1923.3,698.536 1926.7,700.805C1928.32,696.897 1929.66,693.289 1930.62,689.809C1926.07,691.492 1921.15,693.274 1915.91,695.123Z" style="fill:rgb(50,135,115);"/>
            <path d="M-81.467,146.975C-80.264,139.225 -77.501,131.598 -73.086,124.557C-70.608,120.606 -68.111,116.675 -65.6,112.766L-73.863,101.822L-79.853,83.364L-80.096,66.041L-76.062,49.906C-74.403,45.448 -71.431,38.926 -66.713,30.433C-36.524,-23.908 69.386,-120.457 103.95,-135.66L132.571,-142.366L158.052,-137.693L179.321,-123.225L192.689,-101.841L195.305,-87.434C236.984,-120.601 276.601,-144.547 309.796,-153.153L327.246,-155.334L346.897,-151.963L359.898,-145.692L372.228,-135.294L382.571,-119.591L387.962,-98.357L387.044,-82.193L380.76,-63.279C377.183,-55.787 368.476,-43.046 355.726,-26.282C395.862,-54.286 437.409,-80.923 479.85,-105.111C482.772,-106.775 530.517,-133.695 558.022,-143.969L579.973,-150.141L596.504,-151.072L619.495,-145.357L639.804,-130.323L651.906,-109.678L653.285,-101.551C667.633,-110.71 714.261,-140.182 741.193,-153.847C749.445,-158.034 756.547,-161.066 761.697,-162.818L776.895,-166.412L802.365,-164.486L821.439,-155.095L834.985,-141.293L843.486,-123.847L845.727,-100.101L837.465,-74.788C835.33,-71.05 830.481,-64.481 821.585,-55.039C830.176,-56.967 836.152,-57.568 839.543,-57.53L853.923,-55.758L868.911,-49.991L873.555,-46.001C880.262,-49.686 886.967,-53.321 893.667,-56.902C966.307,-95.727 1017.52,-113.339 1039.65,-117.888L1060.23,-120.121L1077.22,-117.797L1090.21,-112.614L1101.29,-104.972L1110.85,-94.472L1118.38,-80.24L1119.75,-72.216C1132.83,-78.119 1145.87,-83.75 1158.85,-89.082C1183.08,-99.036 1198.57,-103.997 1205.87,-105.413L1231.63,-105.613L1256.07,-94.888L1265.78,-85.918L1273.92,-73.86L1276.16,-67.766C1360.04,-116.496 1428.86,-147.196 1463.87,-149.255L1487.87,-146.337L1505.56,-137.316L1518.81,-123.941L1525.6,-110.221C1532.18,-111.525 1537.2,-111.998 1540.69,-111.935L1563.76,-107.475L1585.09,-93.659L1598.61,-73.642L1603.36,-52.9L1603.12,-50.656L1628.89,-55.569L1655.39,-51.172L1676.29,-37.704L1688.33,-21.093L1694.08,-2.447L1693.96,0.822C1749.89,-31.918 1796.35,-52.862 1824.07,-56.558L1842.1,-56.352L1856.64,-52.104L1869.97,-44.111L1873.95,-39.759C1900.15,-53.391 1921.1,-62.047 1934.54,-65.005L1953.85,-67.238L1972.4,-64.906L1984.87,-60.272L1998.05,-51.701L2008.45,-40.649L2015.87,-27.743L2020.32,-12.559L2020.89,5.947L2016.99,22.031L2010.77,33.806C2008.36,37.363 1998.1,48.834 1978.03,62.772C1967.28,70.242 1951.98,80.397 1933.2,92.648C1941.53,98.469 1948.44,106.479 1952.98,116.244C1953.91,118.234 1954.72,120.253 1955.41,122.292L1973.55,128.052L1986.18,136.137L1997.34,147.745L2005.91,163.717L2009.59,183.707L2004.58,209.255L1996.42,223.308L1986.01,234.456C1985.76,234.679 1985.49,234.907 1985.21,235.141L1995.83,251.171L2000.68,275.733L1997.3,296.139L1989.45,312.193C1986.18,317.224 1980.62,324.071 1972.5,331.882C1978.69,336.324 1984.08,341.026 1988.77,345.899L2001.23,361.621L2010.57,380.195L2015.79,409.978L2013.7,426.298L2008.34,441.485L1998.98,456.578L1988.25,468.02C1987.64,468.563 1987.02,469.106 1986.38,469.649C1995.66,477.066 2002.76,487.289 2006.29,499.349C2014.11,526.076 2002.32,554.65 1977.92,568.074C1935.67,591.318 1765.43,687.358 1382.37,660.809C1001.39,634.405 982.567,688.818 394.841,706.494C175.236,713.099 75.273,752.307 52.427,753.186C37.203,753.772 22.003,752.378 6.332,751.241C-13.291,749.818 -34.551,748.773 -60.446,767.854C-86.837,787.299 -124.049,781.661 -143.495,755.271C-162.94,728.88 -157.302,691.668 -130.912,672.222C-115.904,661.163 -101.626,652.985 -87.944,646.993L-94.673,642.96L-105.244,630.673L-111.385,618.763L-111.494,618.135L-118.752,614.147L-131.635,600.402L-140.781,581.4L-143.534,563.355L-141.775,546.432L-135.7,528.953C-130.858,518.675 -121.506,505.416 -109.264,491.561L-114.287,488.057L-123.983,476.62L-129.726,465.423L-133.515,449.684L-132.591,430.514C-131.416,424.543 -127.025,411.372 -116.667,391.108C-112.583,383.116 -108.002,374.781 -102.979,366.148L-106.77,366.129L-124.252,360.213L-137.685,350.749L-147.396,339.157L-155.662,319.657L-157.278,301.248C-156.627,288.222 -147.604,260.01 -128.258,224.867C-116.039,202.671 -99.658,175.686 -81.467,146.975Z" style="fill:rgb(43,137,222);"/>
            <path d="M79.578,228.787C80.708,228.419 81.855,228.149 83.01,227.975L85.853,227.302C89.031,226.878 92.27,226.812 95.453,227.099L99.882,228.01C100.089,222.213 101.488,217.046 103.557,212.506C108.167,202.396 116.846,194.659 127.742,190.08C140.869,184.563 157.188,183.974 169.19,187.471C171.898,188.26 174.42,189.242 176.714,190.375L184.202,195.206L185.031,196.05C193.629,181.255 206.277,175.925 216.465,175.591C232.12,175.076 251.036,187.081 259.534,209.124L265.14,209.32C265.763,209.441 266.389,209.578 267.018,209.732C271.039,210.104 275.412,210.944 279.645,212.269C287.889,214.849 295.384,219.241 299.51,223.357L305.026,231.038L307.409,239.607C308.453,251.097 305.95,260.348 301.328,267.922C295.113,278.106 284.411,285.686 269.687,289.919C246.171,296.679 209.187,294.502 176.169,293.841C153.241,293.383 138.877,294.542 129.685,295.979C119.028,301.796 105.773,304.572 94.139,304.429C84.972,304.317 77.092,302.57 72.594,300.679L65.459,296.414L59.368,288.78C50.3,270.644 52.146,256.982 56.618,247.721L62.382,239.216L69.761,233.057L77.761,229.217L79.578,228.787Z" style="fill:white;"/>
            <path d="M266.84,224.168C295.966,206.53 310.546,205.264 319.683,207.171C327.451,208.793 333.287,212.905 340.275,218.659L345.239,223.603L349.247,229.741L351.78,236.771L352.563,244.002L350.751,254.388L347.849,260.75L344.235,266.035C337.441,274.516 326.056,281.619 314.955,284.098C312.442,284.659 309.942,285.002 307.505,285.125L299.298,284.691L293.458,283.225L287.561,280.523C285.36,279.239 267.521,268.209 258.965,266.498C247.313,264.168 239.745,252.816 242.075,241.164C244.367,229.702 255.39,222.192 266.84,224.168Z" style="fill:white;"/>
            <path d="M49.496,249.315C50.638,244.397 51.885,241.087 51.885,241.087C51.885,241.087 51.718,241.68 51.66,241.941L54.836,232.976L59.97,225.326L67.584,218.662C71.148,216.289 75.105,214.495 79.222,213.244C92.117,209.324 106.707,211.403 107.202,211.465L115.916,214.553L120.297,218.129C122.27,220.148 130.63,229.391 132.513,231.753L135.819,237.206C139.356,245.527 137.245,254.843 131.215,260.869C138.264,260.76 146.719,260.577 157.925,260.31C175.699,259.887 175.517,261.34 192.895,258.97C196.794,258.439 200.944,257.957 205.284,257.51C203.653,251.173 204.916,244.173 209.314,238.675C217.446,228.51 246.048,200.787 256.621,195.501L266.531,192.89C269.624,192.573 274.18,192.414 279.025,192.941C285.782,193.676 292.87,195.823 298.509,199.543L307.166,207.769L308.323,209.772L309.616,209.633C314.992,209.544 320.787,210.635 326.487,212.905C338.451,217.669 349.899,227.94 355.34,238.821L357.455,244.093L358.664,250.152L358.557,256.699L356.975,263.075L352.202,271.437L343.352,279.287C335.445,284.388 321.75,288.642 304.686,291.344C273.452,296.289 228.716,297.544 198.713,301.635C178.949,304.33 179.164,302.877 158.95,303.358C119.098,304.307 113.284,304.227 83.6,303.496C81.187,303.847 78.723,303.789 76.319,303.316C72.985,303.234 69.372,303.146 65.427,303.052L55.998,301.658L46.845,297.392L39.404,290.02L35.204,280.74L34.5,271.207L36.871,262.259L42.289,254.277L49.496,249.315ZM253.771,253.556C260.55,253.022 267.275,252.457 273.773,251.819C273.535,251.562 273.303,251.297 273.076,251.026C270.324,247.734 268.673,243.769 268.204,239.658C263.709,243.538 258.445,248.697 253.771,253.556ZM100.743,260.818C99.998,260.071 99.304,259.264 98.668,258.4L95.111,254.452C94.211,254.489 93.372,254.525 92.71,254.552L92.233,256.135C91.942,256.927 91.412,258.447 90.955,259.767C91.19,260.051 91.421,260.335 91.648,260.619C94.948,260.697 97.937,260.764 100.743,260.818Z" style="fill:white;"/>
            <path d="M1545.15,136.17C1545.48,135.817 1545.82,135.466 1546.17,135.117C1548.72,132.563 1550.68,130.533 1552.35,128.861C1557.8,119.92 1566.83,112.116 1578.09,107.622C1592.33,101.933 1608.19,102.11 1620.36,108.389C1622.18,100.891 1625.79,94.92 1629.9,90.419C1639.57,79.805 1654.71,75.088 1669.01,76.879C1675.97,77.751 1682.64,80.12 1688.25,83.699L1694.48,88.992C1697.6,85.953 1701.53,82.78 1706.57,79.423C1725.07,67.091 1739.13,65.01 1748.9,67.294L1756.17,69.913L1762.5,74.022L1767.48,78.997L1771.22,84.301C1774.04,89.005 1776.47,95.336 1778.52,103.291C1815.09,85.093 1831.98,108.574 1836.12,118.97L1836.45,120.344C1837.28,120.105 1838.11,119.89 1838.94,119.703C1851.52,116.85 1865.57,117.758 1879.05,126.748L1886.34,132.842L1890.99,139.472L1893.57,147.708L1892.99,157.33L1889.81,164.617L1883.63,171.444C1879.48,174.769 1872.08,178.387 1861.51,180.894C1817.89,191.236 1695.28,191.544 1619.46,192.64C1607.73,192.809 1595.81,193.222 1586.07,193.635C1562.03,197.22 1539.22,200.721 1528.65,199.607L1520.94,197.997L1514.11,194.617L1509.91,190.97L1506.17,185.525C1503.6,180.397 1502.19,175.979 1501.49,172.264L1501.06,161.997L1503.66,152.804L1509.17,144.942L1513.89,141.079L1518.61,138.524L1530.85,135.55C1535.54,135.146 1540.68,135.547 1545.15,136.17Z" style="fill:white;"/>
            <path d="M1673.42,946.639C1671.72,944.553 1672.04,941.479 1674.12,939.779C1676.21,938.08 1679.28,938.393 1680.98,940.48C1686.04,946.688 1685.4,946.7 1694.04,962.056C1695.36,964.402 1694.52,967.377 1692.18,968.696C1689.83,970.016 1686.86,969.183 1685.54,966.837C1677.47,952.495 1678.15,952.438 1673.42,946.639Z" style="fill:rgb(38,107,91);"/>
            <path d="M1688.17,939.224C1687.42,936.64 1688.91,933.932 1691.49,933.181C1694.08,932.429 1696.79,933.917 1697.54,936.501C1700.6,947.019 1700.05,946.818 1703.12,957.551C1703.86,960.138 1702.36,962.839 1699.77,963.578C1697.18,964.318 1694.48,962.817 1693.74,960.23C1690.68,949.519 1691.23,949.72 1688.17,939.224Z" style="fill:rgb(38,107,91);"/>
            <path d="M1705.57,934.195C1706.52,931.676 1709.33,930.399 1711.85,931.345C1714.37,932.29 1715.65,935.104 1714.7,937.623C1713.98,939.544 1713.59,938.965 1704.82,961.29C1703.84,963.795 1701,965.03 1698.5,964.046C1696,963.062 1694.76,960.229 1695.75,957.725C1704.47,935.528 1704.86,936.105 1705.57,934.195Z" style="fill:rgb(38,107,91);"/>
            <path d="M1533.85,713.405C1532.36,711.166 1532.97,708.136 1535.2,706.643C1537.44,705.151 1540.47,705.756 1541.97,707.996C1547.2,715.85 1546.2,716.773 1552.85,731.543C1553.96,733.997 1552.86,736.885 1550.41,737.99C1547.95,739.094 1545.06,737.998 1543.96,735.544C1537.72,721.688 1538.77,720.773 1533.85,713.405Z" style="fill:rgb(38,107,91);"/>
            <path d="M1562.98,735.689C1562.9,738.379 1560.64,740.494 1557.96,740.41C1555.27,740.327 1553.15,738.075 1553.23,735.385L1554.03,709.931C1554.11,707.241 1556.36,705.126 1559.05,705.209C1561.74,705.293 1563.86,707.545 1563.77,710.235L1562.98,735.689Z" style="fill:rgb(38,107,91);"/>
            <path d="M337.651,923.039L337.418,923.006L335.744,922.068C334.445,920.962 333.87,919.318 334.068,917.742L334.022,916.982L334.283,915.967L334.813,914.942L336.379,913.469L337.544,912.972L338.728,912.792L340.38,913.031L342.053,913.968C344.138,915.743 344.485,916.061 358.76,928.443C357.795,926.588 356.872,924.953 356.061,923.737C354.568,921.498 355.174,918.468 357.413,916.975C359.652,915.483 362.681,916.088 364.174,918.328C368.534,924.867 376.001,942.677 376.906,944.85C377.776,946.939 377.095,949.352 375.261,950.677C373.427,952.002 370.922,951.892 369.212,950.41C345.678,930.013 340.136,925.186 337.651,923.039ZM338.698,913.485C339.884,913.434 341.091,913.813 342.065,914.643C340.783,913.551 339.589,913.412 338.698,913.485ZM334.071,917.792C334.031,918.208 334.052,918.656 334.153,919.137L334.071,917.792ZM343.726,918.244C343.767,917.828 343.745,917.38 343.645,916.899L343.726,918.244Z" style="fill:rgb(50,135,115);"/>
            <path d="M136.474,905.126C134.405,903.405 134.122,900.328 135.843,898.259C137.564,896.19 140.64,895.907 142.709,897.628C152.442,905.721 151.728,908.254 156.58,914.399C158.247,916.511 157.886,919.58 155.774,921.247C153.662,922.915 150.593,922.554 148.926,920.442C144.526,914.868 145.302,912.466 136.474,905.126Z" style="fill:rgb(38,107,91);"/>
            <path d="M370.771,985.773C370.486,985.691 370.204,985.581 369.93,985.444C367.525,984.236 366.553,981.303 367.76,978.898L368.71,977.36L369.649,976.406L371.133,975.552L372.522,975.232L374.135,975.335L375.445,975.811L376.504,976.519L377.438,977.488C378.978,979.421 382.191,987.823 392.231,1009.58C393.358,1012.02 392.29,1014.92 389.847,1016.05C387.404,1017.18 384.505,1016.11 383.377,1013.66C376.562,998.897 372.489,989.7 370.771,985.773Z" style="fill:rgb(38,107,91);"/>
            <path d="M400.447,1008.73C400.4,1011.42 398.177,1013.56 395.487,1013.52C392.796,1013.47 390.65,1011.25 390.697,1008.56L391.003,990.901C391.05,988.211 393.272,986.064 395.963,986.111C398.653,986.158 400.8,988.38 400.753,991.071L400.447,1008.73Z" style="fill:rgb(38,107,91);"/>
            <path d="M417.369,1007.98C417.145,1010.67 414.786,1012.66 412.105,1012.44C409.423,1012.21 407.428,1009.85 407.652,1007.17C407.8,1005.39 408.489,1005.59 410.769,985.065C411.067,982.39 413.479,980.46 416.154,980.757C418.828,981.054 420.758,983.467 420.461,986.142C418.208,1006.42 417.516,1006.22 417.369,1007.98Z" style="fill:rgb(38,107,91);"/>
            <path d="M327.498,756.342C327.723,756.297 327.947,756.256 328.106,756.237L329.814,756.263L331.595,756.856L333.305,758.282C334.234,759.449 334.075,759.429 343.452,773.921C344.914,776.18 344.266,779.201 342.007,780.663C339.748,782.125 336.727,781.477 335.265,779.218C330.013,771.102 327.927,767.774 326.918,766.182L326.189,766.171L324.407,765.578L322.697,764.152C321.022,762.046 321.371,758.976 323.477,757.301C324.653,756.365 326.131,756.061 327.498,756.342Z" style="fill:rgb(38,107,91);"/>
            <path d="M354.132,776.24C354.139,778.931 351.961,781.122 349.27,781.129C346.579,781.137 344.388,778.958 344.38,776.267L344.351,765.817C344.344,763.126 346.522,760.935 349.213,760.928C351.904,760.92 354.095,763.099 354.102,765.79L354.132,776.24Z" style="fill:rgb(38,107,91);"/>
            <path d="M144.892,759.285C143.748,756.849 144.797,753.943 147.233,752.8C149.669,751.656 152.575,752.705 153.719,755.141C158.816,765.998 159.088,765.196 164.336,776.276C165.488,778.708 164.449,781.618 162.017,782.77C159.585,783.922 156.676,782.883 155.524,780.451C150.268,769.355 149.996,770.157 144.892,759.285Z" style="fill:rgb(38,107,91);"/>
            <path d="M170.116,914.631C170.829,917.226 169.302,919.911 166.707,920.624C164.112,921.338 161.427,919.81 160.714,917.215C158.148,907.88 158.796,908.589 156.129,898.988C155.409,896.396 156.929,893.706 159.522,892.986C162.115,892.265 164.805,893.786 165.525,896.378C168.196,905.993 167.547,905.283 170.116,914.631Z" style="fill:rgb(38,107,91);"/>
            <path d="M181.209,916.176C180.417,918.748 177.686,920.192 175.114,919.4C172.542,918.608 171.098,915.876 171.89,913.305L177.699,894.453C178.491,891.882 181.223,890.437 183.794,891.23C186.366,892.022 187.81,894.753 187.018,897.325L181.209,916.176Z" style="fill:rgb(38,107,91);"/>
            <path d="M173.951,778.454C172.541,780.746 169.535,781.462 167.243,780.052C164.951,778.642 164.235,775.636 165.645,773.344C166.548,771.876 166.607,771.506 166.592,770.63C166.576,769.743 166.57,768.648 166.747,767.059C167.044,764.385 169.457,762.455 172.131,762.752C174.806,763.049 176.736,765.462 176.439,768.136C175.832,773.597 177.098,773.338 173.951,778.454Z" style="fill:rgb(38,107,91);"/>
            <path d="M1115.46,984.395C1113.91,982.198 1114.43,979.153 1116.63,977.599C1118.83,976.045 1121.87,976.567 1123.42,978.764L1135.89,996.383C1137.44,998.58 1136.92,1001.63 1134.72,1003.18C1132.53,1004.73 1129.48,1004.21 1127.93,1002.01L1115.46,984.395Z" style="fill:rgb(38,107,91);"/>
            <path d="M1147.92,998.929C1147.45,1001.58 1144.91,1003.35 1142.27,1002.88C1139.62,1002.41 1137.85,999.873 1138.32,997.223C1138.57,995.799 1138.08,996.163 1141.01,979.336C1141.47,976.684 1144,974.906 1146.65,975.367C1149.3,975.828 1151.08,978.355 1150.62,981.006C1147.68,997.868 1148.17,997.502 1147.92,998.929Z" style="fill:rgb(38,107,91);"/>
            <path d="M655.457,943.481C654.208,941.097 655.128,938.148 657.512,936.899C659.895,935.65 662.845,936.571 664.094,938.954L671.186,952.485C672.435,954.869 671.514,957.818 669.131,959.067C666.747,960.316 663.798,959.396 662.549,957.012L655.457,943.481Z" style="fill:rgb(38,107,91);"/>
            <path d="M686.33,964.568C685.433,967.105 682.645,968.437 680.108,967.54C677.571,966.643 676.239,963.855 677.136,961.318L682.405,946.412C683.302,943.875 686.09,942.543 688.627,943.44C691.165,944.337 692.496,947.125 691.599,949.662L686.33,964.568Z" style="fill:rgb(38,107,91);"/>
            <path d="M1367.4,1040.74C1366.24,1038.32 1367.27,1035.4 1369.7,1034.24C1372.13,1033.08 1375.04,1034.11 1376.2,1036.54L1386.16,1057.35C1387.32,1059.78 1386.29,1062.69 1383.86,1063.85C1381.43,1065.01 1378.52,1063.98 1377.36,1061.56L1367.4,1040.74Z" style="fill:rgb(38,107,91);"/>
            <path d="M1380.71,1059.07C1380.76,1057.02 1380.95,1050.82 1381.41,1039.35C1381.52,1036.66 1383.79,1034.56 1386.48,1034.67C1389.17,1034.78 1391.26,1037.05 1391.15,1039.74C1390.53,1055.48 1390.6,1060.34 1390.17,1062.13L1389.53,1063.83L1388.7,1065.02L1387.7,1065.91L1386.65,1066.53C1384.25,1067.73 1381.32,1066.76 1380.11,1064.35C1379.23,1062.57 1379.52,1060.51 1380.71,1059.07Z" style="fill:rgb(38,107,91);"/>
            <path d="M1403.91,1064.87C1403.25,1067.48 1400.59,1069.06 1397.98,1068.4C1395.38,1067.74 1393.8,1065.08 1394.46,1062.47L1399.66,1041.96C1400.32,1039.36 1402.97,1037.78 1405.58,1038.44C1408.19,1039.1 1409.77,1041.75 1409.11,1044.36L1403.91,1064.87Z" style="fill:rgb(38,107,91);"/>
            <path d="M1802.87,718.678C1802.05,716.114 1803.47,713.369 1806.03,712.552C1808.59,711.735 1811.34,713.153 1812.16,715.717L1816.19,728.362C1817,730.926 1815.59,733.671 1813.02,734.488C1810.46,735.305 1807.71,733.887 1806.9,731.323L1802.87,718.678Z" style="fill:rgb(38,107,91);"/>
            <path d="M1829.39,734.861C1828.97,737.519 1826.47,739.334 1823.82,738.913C1821.16,738.492 1819.34,735.993 1819.76,733.335L1822.62,715.306C1823.04,712.648 1825.54,710.832 1828.2,711.253C1830.86,711.674 1832.67,714.174 1832.25,716.832L1829.39,734.861Z" style="fill:rgb(38,107,91);"/>
            <path d="M1838.8,732.016C1840.13,730.215 1843.41,725.522 1847.52,717.972C1848.81,715.61 1851.78,714.738 1854.14,716.026C1856.5,717.315 1857.37,720.279 1856.09,722.642C1849.46,734.781 1846,739.133 1844.12,740.581L1842.21,741.689L1840.57,742.102L1838.67,742.024L1836.33,741.063C1834.02,739.671 1833.28,736.671 1834.68,734.368C1835.58,732.869 1837.17,732.032 1838.8,732.016Z" style="fill:rgb(38,107,91);"/>
            <path d="M1428.63,913.635C1427.21,911.35 1427.91,908.341 1430.19,906.919C1432.48,905.496 1435.49,906.197 1436.91,908.481C1437.59,909.578 1438.06,910.786 1438.45,912.032C1438.72,912.906 1438.87,913.834 1439.35,914.604C1439.95,915.583 1439.35,914.602 1447.34,926.596C1448.84,928.835 1448.23,931.864 1445.99,933.357C1443.75,934.85 1440.72,934.244 1439.23,932.005C1431.07,919.758 1431.69,920.757 1431.07,919.757C1430.38,918.66 1429.91,917.453 1429.53,916.206C1429.25,915.332 1429.11,914.404 1428.63,913.635Z" style="fill:rgb(38,107,91);"/>
            <path d="M1456.84,926.8C1456.97,929.488 1454.89,931.775 1452.21,931.905C1449.52,932.034 1447.23,929.957 1447.1,927.269C1446.62,917.271 1447.14,918.018 1447.85,908.726C1448.06,906.043 1450.4,904.033 1453.09,904.239C1455.77,904.445 1457.78,906.791 1457.58,909.474C1456.91,918.157 1456.39,917.457 1456.84,926.8Z" style="fill:rgb(38,107,91);"/>
            <path d="M965.036,727.591C963.332,727.607 948.017,727.792 936.334,729.364C890.539,735.523 826.027,752.232 802.36,756.322C799.732,756.776 709.323,761.983 646.239,806.141C630.46,817.187 608.682,813.343 597.636,797.564C586.591,781.785 590.434,760.006 606.213,748.961C680.979,696.625 787.357,688.083 790.473,687.544C814.592,683.376 880.361,666.466 927.03,660.189C954.428,656.504 977.005,657.555 988.25,661.782C1006.28,668.56 1015.41,688.7 1008.64,706.729C1002.03,724.311 982.71,733.434 965.036,727.591Z" style="fill:rgb(50,135,115);"/>
            <g>
                <path d="M432.326,768.322C413.405,771.927 395.117,759.493 391.512,740.572C387.907,721.651 400.342,703.363 419.262,699.758C645.347,656.682 645.223,660.837 874.615,655.566C1018.83,652.252 1019.1,644.369 1160.63,674.671C1179.47,678.703 1191.49,697.268 1187.45,716.102C1183.42,734.936 1164.86,746.953 1146.02,742.921C1012.53,714.341 1012.24,722.219 876.219,725.345C652.604,730.483 652.716,726.331 432.326,768.322Z" style="fill:rgb(50,135,115);"/>
            </g>
        </g>
    </g>
</svg>
