<?xml version="1.0" encoding="UTF-8" standalone="no"?>
<!DOCTYPE svg PUBLIC "-//W3C//DTD SVG 1.1//EN" "http://www.w3.org/Graphics/SVG/1.1/DTD/svg11.dtd">
<svg width="100%" height="100%" viewBox="0 0 1920 1080" version="1.1" xmlns="http://www.w3.org/2000/svg" xmlns:xlink="http://www.w3.org/1999/xlink" xml:space="preserve" xmlns:serif="http://www.serif.com/" style="fill-rule:evenodd;clip-rule:evenodd;stroke-linejoin:round;stroke-miterlimit:2;">
    <path d="M-134.5,383.282C-138.946,380.204 -143.066,376.506 -146.731,372.198C-164.436,351.388 -166.416,322.353 -153.598,299.773L-158.586,295.038L-167.492,278.589L-171.054,263.606L-171.138,248.804L-164.563,224.441C-156.453,204.976 -120.707,165.724 -68.503,123.508C-58.721,115.598 -48.019,107.093 -36.698,98.205C-51.908,92.788 -65.05,81.602 -72.582,65.95C-87.447,35.056 -75.078,-2.058 -44.651,-17.857C-40.912,-19.798 -32.246,-24.281 -20.043,-30.259C-15.336,-32.83 -11.238,-35.048 -7.547,-36.572L-6.046,-37.014C31.637,-54.929 89.925,-80.478 144.384,-95.292C187.897,-107.128 229.61,-111.579 260.925,-105.886L284.089,-96.865L301.737,-80.314L304.703,-74.338C347.712,-91.527 393.682,-107.361 442.565,-121.019C465.239,-127.355 488.818,-120.538 504.614,-104.671C567.096,-127.847 635.645,-150.269 712.697,-172.711C743.529,-181.691 776.091,-166.209 788.7,-136.899C842.663,-155.921 897.611,-173.918 955.25,-192.445C986.864,-202.607 1020.97,-186.668 1033.45,-155.896C1035.18,-151.627 1036.41,-147.274 1037.17,-142.902C1043.71,-144.79 1050.17,-146.676 1056.59,-148.58C1087.8,-157.835 1120.8,-141.967 1133.2,-112.143C1173.8,-123.471 1221.5,-136.429 1280.46,-152.707C1312.65,-161.594 1346.22,-144.004 1357.23,-112.479C1360.99,-101.734 1361.68,-90.624 1359.75,-80.128C1410.46,-96.115 1449.17,-106.463 1472.22,-110.67C1484.89,-112.982 1494.69,-113.804 1501.31,-113.785L1521.58,-111.228L1540.03,-103.258L1556.17,-89.031L1566.94,-69.93L1570.73,-48.237L1566.4,-24.708L1559.84,-14.572C1568.52,-16.628 1577.19,-18.632 1585.87,-20.582C1644.06,-33.659 1673.14,-34.742 1678.93,-33.686L1697.22,-27.458L1706.51,-21.138C1744.6,-29.09 1783.2,-36.337 1822.28,-42.79C1858.67,-48.799 1883.11,-51.03 1897.16,-50.79L1915.61,-49.002L1934.37,-42.839L1950.68,-31.79L1962.26,-17.844L1969.39,-1.99L1972.1,15.124L1969.43,35.487L1960.51,54.445L1957.72,57.66C1960.97,57.921 1963.54,58.281 1965.47,58.679L1989.01,68.128L2004.71,82.154L2012.93,95.253L2018.09,111.396L2018.92,127.73L2016.33,141.565L2014.18,145.431C2040.39,148.835 2062.45,168.453 2068.08,195.373C2074.76,227.353 2056.06,259.177 2024.87,268.906C2006.31,274.696 1989.28,279.919 1973.52,284.675L1983.27,295.442L1990.58,308.555L1994.91,324.101L1994.62,345.309L1986.44,367.538L1978.44,378.062L1990.97,381.451L2007.09,390.472L2019.7,403.077L2027.17,415.635L2032.89,442.461L2028.92,464.67L2022.17,478.149L2013.07,489.382L2009.07,492.502L2023.43,509.763L2029.15,525.22L2030.78,541.189L2028.59,556.524L2022.03,572.401L2001.59,594.857C1995.72,599.176 1982.82,605.494 1964.66,613.331L1977.61,626.781L1985.94,643.212L1989.67,660.512L1988.96,678.742L1982.84,698.788C1981.89,700.908 1980.45,703.406 1978.51,706.196L1979.89,706.804L2000.89,726.513L2007.98,739.66L2011.97,753.769L2012.79,769.478L2011.9,774.013L2027.32,782.483L2037.38,792.425L2045.95,805.718L2051.32,821.005L2052.97,835.995L2050.39,854.087L2042.29,871.697L2028.53,887.102L2026.69,888.292L2030.21,908.666L2027.46,926.793L2020.09,942.8L2010.92,954.129L2009,955.428C2020.63,963.839 2029.48,976.218 2033.29,991.167C2039.71,1016.37 2030.05,1042.02 2010.59,1057.05C2002.2,1067.9 1990.25,1076.12 1975.92,1079.73C1860.73,1108.75 1858.71,1107.99 1749.16,1140.15C1746.72,1140.87 1744.23,1141.6 1741.69,1142.35C1741.68,1142.35 1741.67,1142.35 1741.66,1142.35C1726.71,1146.74 1711.44,1145.37 1698.21,1139.54C1637.93,1150.74 1583.37,1159 1553.59,1159.02C1544.08,1159.02 1536.06,1158.35 1529.71,1157.3L1507.92,1150.82L1487.48,1136.87L1478.84,1124.74C1399.09,1145.84 1315.25,1171.88 1300.65,1176.33C1269.7,1185.77 1236.6,1170.39 1223.85,1140.65C1219.16,1129.69 1217.78,1118.08 1219.31,1106.99C1173.3,1125.23 1146.77,1138.88 1116.81,1150.65C1086.34,1162.62 1051.77,1149.44 1037,1120.23C1035.58,1117.42 1034.39,1114.56 1033.42,1111.65C1015.44,1119.44 995.938,1127.89 974.603,1137.15C944.095,1150.39 908.543,1137.82 893.136,1108.35C890.966,1104.19 889.299,1099.91 888.116,1095.56C879.901,1100.47 871.544,1105.47 863.043,1110.58C841.739,1123.36 815.925,1122.18 796.281,1109.67C781.941,1120.41 766.757,1131.75 750.574,1143.78C693.348,1186.33 661.267,1202.9 654.129,1204.81L637.236,1207.09L623.201,1205.61L606.076,1199.2L593.339,1190.01L579.007,1170.36L574.626,1157.71L572.987,1141.63L574.958,1128.71C478.772,1192.16 437.394,1228.74 426.852,1237.14L414.782,1245.27L399.153,1251.19L373.785,1251.99L350.152,1242.82L342.458,1236.48C325.953,1248.74 310.48,1260.34 296.343,1271.01C241.297,1314.12 214.377,1334.69 208.618,1338.83L189.688,1348.54L173.811,1351.44L158.878,1350.46L139.247,1343.33L124.64,1331.99L110.379,1308.54L107.37,1295L107.565,1279.57L113.397,1260.3L127.411,1241.43C128.758,1240.18 136.507,1233.75 149.688,1223.48C152.06,1221.63 154.643,1219.62 157.426,1217.46L146.85,1217.64L131.912,1214.36L116.553,1206.48L102.124,1192.53L101.898,1192.1C92.594,1199.66 83.084,1207.41 73.361,1215.37C46.942,1236.98 8.155,1233.82 -14.409,1208.2C-16.251,1206.11 -17.93,1203.94 -19.448,1201.68C-32.673,1213.23 -38.459,1218.38 -39.845,1219.26L-59.444,1227.53L-75.975,1229.2L-96.782,1225.03L-113.183,1215.76L-126.753,1201.18L-129.63,1195.28C-137.921,1192.16 -145.678,1187.26 -152.297,1180.59C-169.624,1163.13 -174.8,1137.97 -167.491,1115.91L-178.958,1101.4L-185.269,1085.67L-187.263,1070.6L-185.81,1055.91L-177.951,1035.36C-175.908,1031.67 -172.517,1026.33 -167.286,1019.29C-174.156,1015.86 -180.51,1011.11 -185.962,1005.08C-208.948,979.66 -207.585,940.577 -182.884,916.817C-140.382,875.934 -114.948,849.292 -92.949,827.098L-100.419,825.634L-114.668,818.254L-128.008,806.183L-137.489,791.193L-142.253,776.483L-141.898,747.791L-129.201,717.96C-121.958,706.228 -107.158,688.249 -85.502,665.37L-93.24,659.137C-106.111,669.737 -115.044,676.99 -119.227,679.99L-134.628,688.687L-157.616,693.425L-176.893,690.81L-194.242,682.643L-211.293,665.718L-220.331,645.778L-221.908,622.458L-218.506,608.119L-212.248,595.429C-210.71,593.01 -201.472,582.92 -182.689,563.883C-193.433,560.622 -203.433,554.474 -211.442,545.544C-233.856,520.551 -232.918,482.423 -209.301,458.563C-182.814,431.803 -158.192,406.877 -134.5,383.282Z" style="fill:rgb(0,42,62);"/>
    <path d="M-237.348,718.486C-257.698,689.995 -251.09,650.343 -222.599,629.993C-194.109,609.642 -154.457,616.251 -134.107,644.741C-129.729,650.87 -121.008,649.609 -111.605,650.171C-85.421,651.734 -53.477,646.185 -17.886,637.582C110.861,606.463 278.267,534.871 409.525,509.259C658.969,460.587 848.575,507.097 1051.81,553.631C1239.66,596.643 1440.17,639.031 1721.5,588.794C1744,584.777 1858.19,564.313 2006.87,575.326C2041.79,577.912 2068.03,608.359 2065.45,643.275C2062.86,678.192 2032.41,704.439 1997.5,701.853C1865.33,692.063 1763.8,710.121 1743.8,713.693C1441.24,767.721 1225.52,723.563 1023.49,677.305C836.844,634.569 662.909,589.085 433.823,633.785C280.506,663.7 77.891,756.128 -55.041,773.82C-140.688,785.218 -204.165,764.942 -237.348,718.486Z" style="fill:rgb(164,225,254);"/>
    <path d="M-168.344,818.176C-172.903,801.565 -170.728,783.166 -160.807,767.474L-148.084,752.451L-132.556,741.477C-123.218,736.293 -107.442,730.315 -86.104,725.022C-6.619,705.306 185.345,683.109 314.289,637.057C315.364,636.674 457.357,596.461 613.024,577.737C721.339,564.709 835.9,563.006 917.393,588.081C1189.51,671.809 1192.29,657.997 1475.86,686.835C1652.38,704.786 1811.16,678.244 1839.9,673.453C1925.68,659.157 1962.69,691.718 1977.54,715.819L1987.16,737.763L1990.44,759.501L1986.82,787.996L1977.02,811.337L1962.79,830.868L1943.4,847.336L1926.2,856.087L1904.25,861.201C1881.25,863.324 1858.05,861.069 1834.96,861.46C1776.35,862.453 1658.69,915.361 1409.85,879.813C1267.92,859.536 1267.5,873.079 1125.9,854.609C726.9,802.566 711.569,778.349 503.768,824.527C469.562,832.128 467.446,819.764 72.877,903.123C-22.81,923.339 -24.051,910.314 -119.041,933.112C-153.086,941.283 -187.36,920.276 -195.531,886.231C-201.974,859.385 -190.274,832.396 -168.344,818.176Z" style="fill:rgb(164,225,254);"/>
    <path d="M1507.19,916.795C1420.13,911.522 1420.07,906.413 1332.36,887.948C1279.95,876.913 1183.27,846.104 1170.45,842.001C1065.68,808.475 736.383,767.998 459.506,806.453C298.927,828.756 180.985,811.828 91.952,795.801C41.994,786.808 2.987,777.176 -28.774,779.101C-35.438,779.505 -89.071,780.47 -111.23,791.962C-142.31,808.081 -180.63,795.934 -196.749,764.853C-212.868,733.773 -200.721,695.453 -169.641,679.334C-133.563,660.623 -47.299,653.117 -36.449,652.459C-5.461,650.581 31.005,655.684 74.682,663.643C158.144,678.852 274.063,704.117 442.052,680.785C740.826,639.289 1096.06,684.985 1209.12,721.163C1220.95,724.95 1310.12,753.61 1358.5,763.795C1438.3,780.595 1437.04,785.578 1518.72,790.383L1535.86,792.974C1552.22,796.913 1573.57,810.854 1734.75,796.839C1929.62,779.894 1946.65,761.321 1952.27,755.706C1977.02,730.949 2017.22,730.949 2041.98,755.706C2066.74,780.463 2066.74,820.663 2041.98,845.42C2034.21,853.188 2015.36,899.791 1745.74,923.236C1568.01,938.691 1514.92,920.065 1507.19,916.795Z" style="fill:rgb(205,239,255);"/>
    <path d="M-30.757,941.622C-36.503,882.196 -49.257,833.014 -51.999,805.192C-52.909,795.963 -53.084,788.008 -52.693,781.457L-48.843,759.761L-39.8,740.694L-27.856,726.927C-1.684,703.671 38.446,706.039 61.702,732.211C69.696,741.208 74.663,751.855 76.675,762.898C82.438,761.523 88.452,760.942 94.567,761.248C231.844,768.112 243.658,752.975 333.37,764.19C371.572,768.965 570.943,758.481 675.428,740.569C788.04,721.264 1100.15,753.331 1154.01,774.611L1176.98,787.769L1193.14,806.987L1198.45,819.326C1264.5,833.805 1330.7,854.357 1383.38,868.703C1684.01,891.004 1847.13,883.708 1898.02,881.4C1932.44,879.839 1961.81,906.027 1964.18,940.393C1965.48,959.09 1966.34,975.575 1966.85,990.113C1968.59,995.977 1969.49,1002.17 1969.45,1008.53C1969.41,1013.82 1968.72,1018.97 1967.45,1023.91C1967.34,1059.3 1964.49,1078.02 1961.35,1088.15L1952.91,1107.25L1942.65,1120.72L1927.09,1133.08L1902.63,1142.3C1884.92,1146.03 1691.05,1142.99 1673.31,1140.52C1421.74,1105.58 901.6,1131.63 848.631,1131C759.472,1129.94 689.657,1120.26 591.946,1119.91C546.166,1126.64 524.583,1132.78 446.064,1134.78C320.736,1137.97 321.621,1141.65 197.875,1159.46C163.545,1164.4 131.61,1140.86 126.182,1106.6C125.331,1101.23 125.181,1095.91 125.663,1090.74C114.876,1090.19 103.713,1089.34 92.047,1088.16C91.189,1093.68 90.235,1099.2 89.18,1104.75C82.731,1138.6 50.434,1161.11 16.44,1155.45C-17.555,1149.79 -40.81,1118.02 -35.936,1083.9C-34.567,1074.32 -33.193,1065.89 -31.812,1058.4C-31.754,1057.97 -31.698,1057.54 -31.642,1057.11L-40.361,1050.32L-51.711,1034.95L-58.358,1018.15L-60.534,999.941L-57.571,980.294L-47.628,959.22C-44.244,954.154 -38.632,948.132 -30.757,941.622Z" style="fill:rgb(205,239,255);"/>
    <path d="M896.43,833.583C908.147,833.086 957.299,833.124 1078.21,857.307C1213.22,884.308 1342.4,882.463 1437.97,900.16C1487.22,909.281 1557.53,904.353 1629.49,901.801C1672.11,900.29 1715.22,899.521 1755.87,901.459C1863.54,879.311 1940.32,877.881 1990.7,878.886C2022.29,879.516 2048.61,903.31 2052.41,934.686C2056.01,964.485 2038.27,992.489 2010.32,1002.21L2012.65,1014.91L2011.24,1034.45L2005.32,1051.5L1993.16,1068.32L1977.15,1080.49L1960.73,1087.64C1960.44,1087.74 1960.14,1087.83 1959.84,1087.93L1957.3,1098.17L1947.39,1115.4L1929.79,1130.82C1909.91,1142.75 1892.63,1156.02 1816.34,1155C1761.53,1154.26 1664.68,1145.35 1482.32,1120.29C1179.68,1078.71 1030.03,1109.33 780.807,1118.31C79.608,1143.58 80.804,1166.87 19.899,1163.83L-2.811,1160.57L-21.409,1152.61L-36.148,1140.27L-46.344,1124.82L-52.47,1098.24L-50.879,1089.35C-68.075,1082.11 -81.774,1067.41 -87.242,1048.43C-95.647,1019.26 -82.202,988.301 -55.328,974.471C-59.298,973.39 -63.147,972.289 -66.866,971.172C-101.723,960.697 -127.02,947.472 -139.85,936.974C-166.947,914.804 -170.947,874.804 -148.776,847.706C-126.606,820.608 -86.606,816.608 -59.508,838.779C-51.728,845.145 -32.37,849.863 -7.969,855.624C41.635,867.336 109.325,874.695 173.376,866.689C307.472,849.927 647.847,783.67 896.43,833.583Z" style="fill:rgb(224,245,255);"/>
    <g transform="matrix(1,0,0,1,59.4838,22.187)">
        <path d="M215.15,213.503C215.135,212.712 215.765,212.057 216.557,212.042C217.348,212.027 218.003,212.657 218.018,213.449C218.339,230.295 221.582,259.464 222.025,263.453C222.113,264.239 221.545,264.949 220.758,265.036C219.972,265.124 219.262,264.556 219.175,263.77C218.729,259.76 215.473,230.438 215.15,213.503Z" style="fill:rgb(164,225,254);"/>
        <path d="M196.533,242.463C195.742,242.49 195.077,241.87 195.05,241.079C195.023,240.288 195.644,239.624 196.435,239.597C202.796,239.379 229.214,237.507 239.947,236.357C240.734,236.272 241.441,236.843 241.526,237.63C241.61,238.417 241.039,239.124 240.252,239.209C229.468,240.364 202.924,242.245 196.533,242.463Z" style="fill:rgb(164,225,254);"/>
        <path d="M230.544,219.226C231.092,218.654 232,218.635 232.572,219.182C233.144,219.73 233.163,220.638 232.616,221.21C231.083,222.811 231.653,223.217 216.092,243.446C209.788,251.642 208.888,250.9 204.265,260.147C203.911,260.855 203.048,261.143 202.341,260.789C201.633,260.435 201.345,259.573 201.699,258.865C206.447,249.369 207.346,250.113 213.819,241.698C229.553,221.243 228.994,220.845 230.544,219.226Z" style="fill:rgb(164,225,254);"/>
        <path d="M203.473,226.989C202.897,226.446 202.87,225.538 203.412,224.962C203.955,224.386 204.863,224.359 205.44,224.901C229,247.102 231.722,250.193 233.82,252.57C234.343,253.164 234.287,254.071 233.693,254.595C233.1,255.118 232.193,255.062 231.669,254.468C229.585,252.106 226.876,249.041 203.473,226.989Z" style="fill:rgb(164,225,254);"/>
    </g>
    <g transform="matrix(1,0,0,1,1614.76,226.415)">
        <path d="M215.15,213.503C215.135,212.712 215.765,212.057 216.557,212.042C217.348,212.027 218.003,212.657 218.018,213.449C218.339,230.295 221.582,259.464 222.025,263.453C222.113,264.239 221.545,264.949 220.758,265.036C219.972,265.124 219.262,264.556 219.175,263.77C218.729,259.76 215.473,230.438 215.15,213.503Z" style="fill:rgb(164,225,254);"/>
        <path d="M196.533,242.463C195.742,242.49 195.077,241.87 195.05,241.079C195.023,240.288 195.644,239.624 196.435,239.597C202.796,239.379 229.214,237.507 239.947,236.357C240.734,236.272 241.441,236.843 241.526,237.63C241.61,238.417 241.039,239.124 240.252,239.209C229.468,240.364 202.924,242.245 196.533,242.463Z" style="fill:rgb(164,225,254);"/>
        <path d="M230.544,219.226C231.092,218.654 232,218.635 232.572,219.182C233.144,219.73 233.163,220.638 232.616,221.21C231.083,222.811 231.653,223.217 216.092,243.446C209.788,251.642 208.888,250.9 204.265,260.147C203.911,260.855 203.048,261.143 202.341,260.789C201.633,260.435 201.345,259.573 201.699,258.865C206.447,249.369 207.346,250.113 213.819,241.698C229.553,221.243 228.994,220.845 230.544,219.226Z" style="fill:rgb(164,225,254);"/>
        <path d="M203.473,226.989C202.897,226.446 202.87,225.538 203.412,224.962C203.955,224.386 204.863,224.359 205.44,224.901C229,247.102 231.722,250.193 233.82,252.57C234.343,253.164 234.287,254.071 233.693,254.595C233.1,255.118 232.193,255.062 231.669,254.468C229.585,252.106 226.876,249.041 203.473,226.989Z" style="fill:rgb(164,225,254);"/>
    </g>
    <g transform="matrix(1,0,0,1,283.57,85.9849)">
        <path d="M215.15,213.503C215.135,212.712 215.765,212.057 216.557,212.042C217.348,212.027 218.003,212.657 218.018,213.449C218.339,230.295 221.582,259.464 222.025,263.453C222.113,264.239 221.545,264.949 220.758,265.036C219.972,265.124 219.262,264.556 219.175,263.77C218.729,259.76 215.473,230.438 215.15,213.503Z" style="fill:rgb(164,225,254);"/>
        <path d="M196.533,242.463C195.742,242.49 195.077,241.87 195.05,241.079C195.023,240.288 195.644,239.624 196.435,239.597C202.796,239.379 229.214,237.507 239.947,236.357C240.734,236.272 241.441,236.843 241.526,237.63C241.61,238.417 241.039,239.124 240.252,239.209C229.468,240.364 202.924,242.245 196.533,242.463Z" style="fill:rgb(164,225,254);"/>
        <path d="M230.544,219.226C231.092,218.654 232,218.635 232.572,219.182C233.144,219.73 233.163,220.638 232.616,221.21C231.083,222.811 231.653,223.217 216.092,243.446C209.788,251.642 208.888,250.9 204.265,260.147C203.911,260.855 203.048,261.143 202.341,260.789C201.633,260.435 201.345,259.573 201.699,258.865C206.447,249.369 207.346,250.113 213.819,241.698C229.553,221.243 228.994,220.845 230.544,219.226Z" style="fill:rgb(164,225,254);"/>
        <path d="M203.473,226.989C202.897,226.446 202.87,225.538 203.412,224.962C203.955,224.386 204.863,224.359 205.44,224.901C229,247.102 231.722,250.193 233.82,252.57C234.343,253.164 234.287,254.071 233.693,254.595C233.1,255.118 232.193,255.062 231.669,254.468C229.585,252.106 226.876,249.041 203.473,226.989Z" style="fill:rgb(164,225,254);"/>
    </g>
    <g transform="matrix(1,0,0,1,798.323,200.773)">
        <path d="M215.15,213.503C215.135,212.712 215.765,212.057 216.557,212.042C217.348,212.027 218.003,212.657 218.018,213.449C218.339,230.295 221.582,259.464 222.025,263.453C222.113,264.239 221.545,264.949 220.758,265.036C219.972,265.124 219.262,264.556 219.175,263.77C218.729,259.76 215.473,230.438 215.15,213.503Z" style="fill:rgb(164,225,254);"/>
        <path d="M196.533,242.463C195.742,242.49 195.077,241.87 195.05,241.079C195.023,240.288 195.644,239.624 196.435,239.597C202.796,239.379 229.214,237.507 239.947,236.357C240.734,236.272 241.441,236.843 241.526,237.63C241.61,238.417 241.039,239.124 240.252,239.209C229.468,240.364 202.924,242.245 196.533,242.463Z" style="fill:rgb(164,225,254);"/>
        <path d="M230.544,219.226C231.092,218.654 232,218.635 232.572,219.182C233.144,219.73 233.163,220.638 232.616,221.21C231.083,222.811 231.653,223.217 216.092,243.446C209.788,251.642 208.888,250.9 204.265,260.147C203.911,260.855 203.048,261.143 202.341,260.789C201.633,260.435 201.345,259.573 201.699,258.865C206.447,249.369 207.346,250.113 213.819,241.698C229.553,221.243 228.994,220.845 230.544,219.226Z" style="fill:rgb(164,225,254);"/>
        <path d="M203.473,226.989C202.897,226.446 202.87,225.538 203.412,224.962C203.955,224.386 204.863,224.359 205.44,224.901C229,247.102 231.722,250.193 233.82,252.57C234.343,253.164 234.287,254.071 233.693,254.595C233.1,255.118 232.193,255.062 231.669,254.468C229.585,252.106 226.876,249.041 203.473,226.989Z" style="fill:rgb(164,225,254);"/>
    </g>
    <g transform="matrix(1,0,0,1,1411.17,255.537)">
        <path d="M215.15,213.503C215.135,212.712 215.765,212.057 216.557,212.042C217.348,212.027 218.003,212.657 218.018,213.449C218.339,230.295 221.582,259.464 222.025,263.453C222.113,264.239 221.545,264.949 220.758,265.036C219.972,265.124 219.262,264.556 219.175,263.77C218.729,259.76 215.473,230.438 215.15,213.503Z" style="fill:rgb(164,225,254);"/>
        <path d="M196.533,242.463C195.742,242.49 195.077,241.87 195.05,241.079C195.023,240.288 195.644,239.624 196.435,239.597C202.796,239.379 229.214,237.507 239.947,236.357C240.734,236.272 241.441,236.843 241.526,237.63C241.61,238.417 241.039,239.124 240.252,239.209C229.468,240.364 202.924,242.245 196.533,242.463Z" style="fill:rgb(164,225,254);"/>
        <path d="M230.544,219.226C231.092,218.654 232,218.635 232.572,219.182C233.144,219.73 233.163,220.638 232.616,221.21C231.083,222.811 231.653,223.217 216.092,243.446C209.788,251.642 208.888,250.9 204.265,260.147C203.911,260.855 203.048,261.143 202.341,260.789C201.633,260.435 201.345,259.573 201.699,258.865C206.447,249.369 207.346,250.113 213.819,241.698C229.553,221.243 228.994,220.845 230.544,219.226Z" style="fill:rgb(164,225,254);"/>
        <path d="M203.473,226.989C202.897,226.446 202.87,225.538 203.412,224.962C203.955,224.386 204.863,224.359 205.44,224.901C229,247.102 231.722,250.193 233.82,252.57C234.343,253.164 234.287,254.071 233.693,254.595C233.1,255.118 232.193,255.062 231.669,254.468C229.585,252.106 226.876,249.041 203.473,226.989Z" style="fill:rgb(164,225,254);"/>
    </g>
    <g transform="matrix(1,0,0,1,1488.52,94.3005)">
        <path d="M215.15,213.503C215.135,212.712 215.765,212.057 216.557,212.042C217.348,212.027 218.003,212.657 218.018,213.449C218.339,230.295 221.582,259.464 222.025,263.453C222.113,264.239 221.545,264.949 220.758,265.036C219.972,265.124 219.262,264.556 219.175,263.77C218.729,259.76 215.473,230.438 215.15,213.503Z" style="fill:rgb(164,225,254);"/>
        <path d="M196.533,242.463C195.742,242.49 195.077,241.87 195.05,241.079C195.023,240.288 195.644,239.624 196.435,239.597C202.796,239.379 229.214,237.507 239.947,236.357C240.734,236.272 241.441,236.843 241.526,237.63C241.61,238.417 241.039,239.124 240.252,239.209C229.468,240.364 202.924,242.245 196.533,242.463Z" style="fill:rgb(164,225,254);"/>
        <path d="M230.544,219.226C231.092,218.654 232,218.635 232.572,219.182C233.144,219.73 233.163,220.638 232.616,221.21C231.083,222.811 231.653,223.217 216.092,243.446C209.788,251.642 208.888,250.9 204.265,260.147C203.911,260.855 203.048,261.143 202.341,260.789C201.633,260.435 201.345,259.573 201.699,258.865C206.447,249.369 207.346,250.113 213.819,241.698C229.553,221.243 228.994,220.845 230.544,219.226Z" style="fill:rgb(164,225,254);"/>
        <path d="M203.473,226.989C202.897,226.446 202.87,225.538 203.412,224.962C203.955,224.386 204.863,224.359 205.44,224.901C229,247.102 231.722,250.193 233.82,252.57C234.343,253.164 234.287,254.071 233.693,254.595C233.1,255.118 232.193,255.062 231.669,254.468C229.585,252.106 226.876,249.041 203.473,226.989Z" style="fill:rgb(164,225,254);"/>
    </g>
    <g transform="matrix(1,0,0,1,1557.8,-150.848)">
        <path d="M215.15,213.503C215.135,212.712 215.765,212.057 216.557,212.042C217.348,212.027 218.003,212.657 218.018,213.449C218.339,230.295 221.582,259.464 222.025,263.453C222.113,264.239 221.545,264.949 220.758,265.036C219.972,265.124 219.262,264.556 219.175,263.77C218.729,259.76 215.473,230.438 215.15,213.503Z" style="fill:rgb(164,225,254);"/>
        <path d="M196.533,242.463C195.742,242.49 195.077,241.87 195.05,241.079C195.023,240.288 195.644,239.624 196.435,239.597C202.796,239.379 229.214,237.507 239.947,236.357C240.734,236.272 241.441,236.843 241.526,237.63C241.61,238.417 241.039,239.124 240.252,239.209C229.468,240.364 202.924,242.245 196.533,242.463Z" style="fill:rgb(164,225,254);"/>
        <path d="M230.544,219.226C231.092,218.654 232,218.635 232.572,219.182C233.144,219.73 233.163,220.638 232.616,221.21C231.083,222.811 231.653,223.217 216.092,243.446C209.788,251.642 208.888,250.9 204.265,260.147C203.911,260.855 203.048,261.143 202.341,260.789C201.633,260.435 201.345,259.573 201.699,258.865C206.447,249.369 207.346,250.113 213.819,241.698C229.553,221.243 228.994,220.845 230.544,219.226Z" style="fill:rgb(164,225,254);"/>
        <path d="M203.473,226.989C202.897,226.446 202.87,225.538 203.412,224.962C203.955,224.386 204.863,224.359 205.44,224.901C229,247.102 231.722,250.193 233.82,252.57C234.343,253.164 234.287,254.071 233.693,254.595C233.1,255.118 232.193,255.062 231.669,254.468C229.585,252.106 226.876,249.041 203.473,226.989Z" style="fill:rgb(164,225,254);"/>
    </g>
    <g transform="matrix(1,0,0,1,964.994,-126.464)">
        <path d="M215.15,213.503C215.135,212.712 215.765,212.057 216.557,212.042C217.348,212.027 218.003,212.657 218.018,213.449C218.339,230.295 221.582,259.464 222.025,263.453C222.113,264.239 221.545,264.949 220.758,265.036C219.972,265.124 219.262,264.556 219.175,263.77C218.729,259.76 215.473,230.438 215.15,213.503Z" style="fill:rgb(164,225,254);"/>
        <path d="M196.533,242.463C195.742,242.49 195.077,241.87 195.05,241.079C195.023,240.288 195.644,239.624 196.435,239.597C202.796,239.379 229.214,237.507 239.947,236.357C240.734,236.272 241.441,236.843 241.526,237.63C241.61,238.417 241.039,239.124 240.252,239.209C229.468,240.364 202.924,242.245 196.533,242.463Z" style="fill:rgb(164,225,254);"/>
        <path d="M230.544,219.226C231.092,218.654 232,218.635 232.572,219.182C233.144,219.73 233.163,220.638 232.616,221.21C231.083,222.811 231.653,223.217 216.092,243.446C209.788,251.642 208.888,250.9 204.265,260.147C203.911,260.855 203.048,261.143 202.341,260.789C201.633,260.435 201.345,259.573 201.699,258.865C206.447,249.369 207.346,250.113 213.819,241.698C229.553,221.243 228.994,220.845 230.544,219.226Z" style="fill:rgb(164,225,254);"/>
        <path d="M203.473,226.989C202.897,226.446 202.87,225.538 203.412,224.962C203.955,224.386 204.863,224.359 205.44,224.901C229,247.102 231.722,250.193 233.82,252.57C234.343,253.164 234.287,254.071 233.693,254.595C233.1,255.118 232.193,255.062 231.669,254.468C229.585,252.106 226.876,249.041 203.473,226.989Z" style="fill:rgb(164,225,254);"/>
    </g>
    <g transform="matrix(-1,0,0,1,954.496,-166.646)">
        <path d="M218.018,213.449C218.003,212.657 217.348,212.027 216.557,212.042C215.765,212.057 215.135,212.712 215.15,213.503C215.473,230.438 218.729,259.76 219.175,263.77C219.262,264.556 219.972,265.124 220.758,265.036C221.545,264.949 222.113,264.239 222.025,263.453C221.582,259.464 218.339,230.295 218.018,213.449Z" style="fill:rgb(164,225,254);"/>
        <path d="M196.435,239.597C195.644,239.624 195.023,240.288 195.05,241.079C195.077,241.87 195.742,242.49 196.533,242.463C202.924,242.245 229.468,240.364 240.252,239.209C241.039,239.124 241.61,238.417 241.526,237.63C241.441,236.843 240.734,236.272 239.947,236.357C229.214,237.507 202.796,239.379 196.435,239.597Z" style="fill:rgb(164,225,254);"/>
        <path d="M232.616,221.21C233.163,220.638 233.144,219.73 232.572,219.182C232,218.635 231.092,218.654 230.544,219.226C228.994,220.845 229.553,221.243 213.819,241.698C207.346,250.113 206.447,249.369 201.699,258.865C201.345,259.573 201.633,260.435 202.341,260.789C203.048,261.143 203.911,260.855 204.265,260.147C208.888,250.9 209.788,251.642 216.092,243.446C231.653,223.217 231.083,222.811 232.616,221.21Z" style="fill:rgb(164,225,254);"/>
        <path d="M205.44,224.901C204.863,224.359 203.955,224.386 203.412,224.962C202.87,225.538 202.897,226.446 203.473,226.989C226.876,249.041 229.585,252.106 231.669,254.468C232.193,255.062 233.1,255.118 233.693,254.595C234.287,254.071 234.343,253.164 233.82,252.57C231.722,250.193 229,247.102 205.44,224.901Z" style="fill:rgb(164,225,254);"/>
    </g>
    <g transform="matrix(1,0,0,1,1353.76,-102.407)">
        <path d="M215.15,213.503C215.135,212.712 215.765,212.057 216.557,212.042C217.348,212.027 218.003,212.657 218.018,213.449C218.339,230.295 221.582,259.464 222.025,263.453C222.113,264.239 221.545,264.949 220.758,265.036C219.972,265.124 219.262,264.556 219.175,263.77C218.729,259.76 215.473,230.438 215.15,213.503Z" style="fill:rgb(164,225,254);"/>
        <path d="M196.533,242.463C195.742,242.49 195.077,241.87 195.05,241.079C195.023,240.288 195.644,239.624 196.435,239.597C202.796,239.379 229.214,237.507 239.947,236.357C240.734,236.272 241.441,236.843 241.526,237.63C241.61,238.417 241.039,239.124 240.252,239.209C229.468,240.364 202.924,242.245 196.533,242.463Z" style="fill:rgb(164,225,254);"/>
        <path d="M230.544,219.226C231.092,218.654 232,218.635 232.572,219.182C233.144,219.73 233.163,220.638 232.616,221.21C231.083,222.811 231.653,223.217 216.092,243.446C209.788,251.642 208.888,250.9 204.265,260.147C203.911,260.855 203.048,261.143 202.341,260.789C201.633,260.435 201.345,259.573 201.699,258.865C206.447,249.369 207.346,250.113 213.819,241.698C229.553,221.243 228.994,220.845 230.544,219.226Z" style="fill:rgb(164,225,254);"/>
        <path d="M203.473,226.989C202.897,226.446 202.87,225.538 203.412,224.962C203.955,224.386 204.863,224.359 205.44,224.901C229,247.102 231.722,250.193 233.82,252.57C234.343,253.164 234.287,254.071 233.693,254.595C233.1,255.118 232.193,255.062 231.669,254.468C229.585,252.106 226.876,249.041 203.473,226.989Z" style="fill:rgb(164,225,254);"/>
    </g>
    <g transform="matrix(1,0,0,1,571.001,164.505)">
        <path d="M215.15,213.503C215.135,212.712 215.765,212.057 216.557,212.042C217.348,212.027 218.003,212.657 218.018,213.449C218.339,230.295 221.582,259.464 222.025,263.453C222.113,264.239 221.545,264.949 220.758,265.036C219.972,265.124 219.262,264.556 219.175,263.77C218.729,259.76 215.473,230.438 215.15,213.503Z" style="fill:rgb(164,225,254);"/>
        <path d="M196.533,242.463C195.742,242.49 195.077,241.87 195.05,241.079C195.023,240.288 195.644,239.624 196.435,239.597C202.796,239.379 229.214,237.507 239.947,236.357C240.734,236.272 241.441,236.843 241.526,237.63C241.61,238.417 241.039,239.124 240.252,239.209C229.468,240.364 202.924,242.245 196.533,242.463Z" style="fill:rgb(164,225,254);"/>
        <path d="M230.544,219.226C231.092,218.654 232,218.635 232.572,219.182C233.144,219.73 233.163,220.638 232.616,221.21C231.083,222.811 231.653,223.217 216.092,243.446C209.788,251.642 208.888,250.9 204.265,260.147C203.911,260.855 203.048,261.143 202.341,260.789C201.633,260.435 201.345,259.573 201.699,258.865C206.447,249.369 207.346,250.113 213.819,241.698C229.553,221.243 228.994,220.845 230.544,219.226Z" style="fill:rgb(164,225,254);"/>
        <path d="M203.473,226.989C202.897,226.446 202.87,225.538 203.412,224.962C203.955,224.386 204.863,224.359 205.44,224.901C229,247.102 231.722,250.193 233.82,252.57C234.343,253.164 234.287,254.071 233.693,254.595C233.1,255.118 232.193,255.062 231.669,254.468C229.585,252.106 226.876,249.041 203.473,226.989Z" style="fill:rgb(164,225,254);"/>
    </g>
    <g transform="matrix(1,0,0,1,-135.442,-10.2267)">
        <path d="M215.15,213.503C215.135,212.712 215.765,212.057 216.557,212.042C217.348,212.027 218.003,212.657 218.018,213.449C218.339,230.295 221.582,259.464 222.025,263.453C222.113,264.239 221.545,264.949 220.758,265.036C219.972,265.124 219.262,264.556 219.175,263.77C218.729,259.76 215.473,230.438 215.15,213.503Z" style="fill:rgb(164,225,254);"/>
        <path d="M196.533,242.463C195.742,242.49 195.077,241.87 195.05,241.079C195.023,240.288 195.644,239.624 196.435,239.597C202.796,239.379 229.214,237.507 239.947,236.357C240.734,236.272 241.441,236.843 241.526,237.63C241.61,238.417 241.039,239.124 240.252,239.209C229.468,240.364 202.924,242.245 196.533,242.463Z" style="fill:rgb(164,225,254);"/>
        <path d="M230.544,219.226C231.092,218.654 232,218.635 232.572,219.182C233.144,219.73 233.163,220.638 232.616,221.21C231.083,222.811 231.653,223.217 216.092,243.446C209.788,251.642 208.888,250.9 204.265,260.147C203.911,260.855 203.048,261.143 202.341,260.789C201.633,260.435 201.345,259.573 201.699,258.865C206.447,249.369 207.346,250.113 213.819,241.698C229.553,221.243 228.994,220.845 230.544,219.226Z" style="fill:rgb(164,225,254);"/>
        <path d="M203.473,226.989C202.897,226.446 202.87,225.538 203.412,224.962C203.955,224.386 204.863,224.359 205.44,224.901C229,247.102 231.722,250.193 233.82,252.57C234.343,253.164 234.287,254.071 233.693,254.595C233.1,255.118 232.193,255.062 231.669,254.468C229.585,252.106 226.876,249.041 203.473,226.989Z" style="fill:rgb(164,225,254);"/>
    </g>
    <g transform="matrix(1,0,0,1,89.3512,212.872)">
        <path d="M215.15,213.503C215.135,212.712 215.765,212.057 216.557,212.042C217.348,212.027 218.003,212.657 218.018,213.449C218.339,230.295 221.582,259.464 222.025,263.453C222.113,264.239 221.545,264.949 220.758,265.036C219.972,265.124 219.262,264.556 219.175,263.77C218.729,259.76 215.473,230.438 215.15,213.503Z" style="fill:rgb(164,225,254);"/>
        <path d="M196.533,242.463C195.742,242.49 195.077,241.87 195.05,241.079C195.023,240.288 195.644,239.624 196.435,239.597C202.796,239.379 229.214,237.507 239.947,236.357C240.734,236.272 241.441,236.843 241.526,237.63C241.61,238.417 241.039,239.124 240.252,239.209C229.468,240.364 202.924,242.245 196.533,242.463Z" style="fill:rgb(164,225,254);"/>
        <path d="M230.544,219.226C231.092,218.654 232,218.635 232.572,219.182C233.144,219.73 233.163,220.638 232.616,221.21C231.083,222.811 231.653,223.217 216.092,243.446C209.788,251.642 208.888,250.9 204.265,260.147C203.911,260.855 203.048,261.143 202.341,260.789C201.633,260.435 201.345,259.573 201.699,258.865C206.447,249.369 207.346,250.113 213.819,241.698C229.553,221.243 228.994,220.845 230.544,219.226Z" style="fill:rgb(164,225,254);"/>
        <path d="M203.473,226.989C202.897,226.446 202.87,225.538 203.412,224.962C203.955,224.386 204.863,224.359 205.44,224.901C229,247.102 231.722,250.193 233.82,252.57C234.343,253.164 234.287,254.071 233.693,254.595C233.1,255.118 232.193,255.062 231.669,254.468C229.585,252.106 226.876,249.041 203.473,226.989Z" style="fill:rgb(164,225,254);"/>
    </g>
    <g transform="matrix(1,0,0,1,694.34,-75.0575)">
        <path d="M215.15,213.503C215.135,212.712 215.765,212.057 216.557,212.042C217.348,212.027 218.003,212.657 218.018,213.449C218.339,230.295 221.582,259.464 222.025,263.453C222.113,264.239 221.545,264.949 220.758,265.036C219.972,265.124 219.262,264.556 219.175,263.77C218.729,259.76 215.473,230.438 215.15,213.503Z" style="fill:rgb(164,225,254);"/>
        <path d="M196.533,242.463C195.742,242.49 195.077,241.87 195.05,241.079C195.023,240.288 195.644,239.624 196.435,239.597C202.796,239.379 229.214,237.507 239.947,236.357C240.734,236.272 241.441,236.843 241.526,237.63C241.61,238.417 241.039,239.124 240.252,239.209C229.468,240.364 202.924,242.245 196.533,242.463Z" style="fill:rgb(164,225,254);"/>
        <path d="M230.544,219.226C231.092,218.654 232,218.635 232.572,219.182C233.144,219.73 233.163,220.638 232.616,221.21C231.083,222.811 231.653,223.217 216.092,243.446C209.788,251.642 208.888,250.9 204.265,260.147C203.911,260.855 203.048,261.143 202.341,260.789C201.633,260.435 201.345,259.573 201.699,258.865C206.447,249.369 207.346,250.113 213.819,241.698C229.553,221.243 228.994,220.845 230.544,219.226Z" style="fill:rgb(164,225,254);"/>
        <path d="M203.473,226.989C202.897,226.446 202.87,225.538 203.412,224.962C203.955,224.386 204.863,224.359 205.44,224.901C229,247.102 231.722,250.193 233.82,252.57C234.343,253.164 234.287,254.071 233.693,254.595C233.1,255.118 232.193,255.062 231.669,254.468C229.585,252.106 226.876,249.041 203.473,226.989Z" style="fill:rgb(164,225,254);"/>
    </g>
    <g transform="matrix(1,0,0,1,1248.59,79.6025)">
        <path d="M215.15,213.503C215.135,212.712 215.765,212.057 216.557,212.042C217.348,212.027 218.003,212.657 218.018,213.449C218.339,230.295 221.582,259.464 222.025,263.453C222.113,264.239 221.545,264.949 220.758,265.036C219.972,265.124 219.262,264.556 219.175,263.77C218.729,259.76 215.473,230.438 215.15,213.503Z" style="fill:rgb(164,225,254);"/>
        <path d="M196.533,242.463C195.742,242.49 195.077,241.87 195.05,241.079C195.023,240.288 195.644,239.624 196.435,239.597C202.796,239.379 229.214,237.507 239.947,236.357C240.734,236.272 241.441,236.843 241.526,237.63C241.61,238.417 241.039,239.124 240.252,239.209C229.468,240.364 202.924,242.245 196.533,242.463Z" style="fill:rgb(164,225,254);"/>
        <path d="M230.544,219.226C231.092,218.654 232,218.635 232.572,219.182C233.144,219.73 233.163,220.638 232.616,221.21C231.083,222.811 231.653,223.217 216.092,243.446C209.788,251.642 208.888,250.9 204.265,260.147C203.911,260.855 203.048,261.143 202.341,260.789C201.633,260.435 201.345,259.573 201.699,258.865C206.447,249.369 207.346,250.113 213.819,241.698C229.553,221.243 228.994,220.845 230.544,219.226Z" style="fill:rgb(164,225,254);"/>
        <path d="M203.473,226.989C202.897,226.446 202.87,225.538 203.412,224.962C203.955,224.386 204.863,224.359 205.44,224.901C229,247.102 231.722,250.193 233.82,252.57C234.343,253.164 234.287,254.071 233.693,254.595C233.1,255.118 232.193,255.062 231.669,254.468C229.585,252.106 226.876,249.041 203.473,226.989Z" style="fill:rgb(164,225,254);"/>
    </g>
    <g transform="matrix(1,0,0,1,1092.72,248.55)">
        <path d="M215.15,213.503C215.135,212.712 215.765,212.057 216.557,212.042C217.348,212.027 218.003,212.657 218.018,213.449C218.339,230.295 221.582,259.464 222.025,263.453C222.113,264.239 221.545,264.949 220.758,265.036C219.972,265.124 219.262,264.556 219.175,263.77C218.729,259.76 215.473,230.438 215.15,213.503Z" style="fill:rgb(164,225,254);"/>
        <path d="M196.533,242.463C195.742,242.49 195.077,241.87 195.05,241.079C195.023,240.288 195.644,239.624 196.435,239.597C202.796,239.379 229.214,237.507 239.947,236.357C240.734,236.272 241.441,236.843 241.526,237.63C241.61,238.417 241.039,239.124 240.252,239.209C229.468,240.364 202.924,242.245 196.533,242.463Z" style="fill:rgb(164,225,254);"/>
        <path d="M230.544,219.226C231.092,218.654 232,218.635 232.572,219.182C233.144,219.73 233.163,220.638 232.616,221.21C231.083,222.811 231.653,223.217 216.092,243.446C209.788,251.642 208.888,250.9 204.265,260.147C203.911,260.855 203.048,261.143 202.341,260.789C201.633,260.435 201.345,259.573 201.699,258.865C206.447,249.369 207.346,250.113 213.819,241.698C229.553,221.243 228.994,220.845 230.544,219.226Z" style="fill:rgb(164,225,254);"/>
        <path d="M203.473,226.989C202.897,226.446 202.87,225.538 203.412,224.962C203.955,224.386 204.863,224.359 205.44,224.901C229,247.102 231.722,250.193 233.82,252.57C234.343,253.164 234.287,254.071 233.693,254.595C233.1,255.118 232.193,255.062 231.669,254.468C229.585,252.106 226.876,249.041 203.473,226.989Z" style="fill:rgb(164,225,254);"/>
    </g>
    <g transform="matrix(-1,0,0,-1,885.227,484.741)">
        <path d="M215.15,213.503C215.135,212.712 215.765,212.057 216.557,212.042C217.348,212.027 218.003,212.657 218.018,213.449C218.339,230.295 221.582,259.464 222.025,263.453C222.113,264.239 221.545,264.949 220.758,265.036C219.972,265.124 219.262,264.556 219.175,263.77C218.729,259.76 215.473,230.438 215.15,213.503Z" style="fill:rgb(164,225,254);"/>
        <path d="M196.533,242.463C195.742,242.49 195.077,241.87 195.05,241.079C195.023,240.288 195.644,239.624 196.435,239.597C202.796,239.379 229.214,237.507 239.947,236.357C240.734,236.272 241.441,236.843 241.526,237.63C241.61,238.417 241.039,239.124 240.252,239.209C229.468,240.364 202.924,242.245 196.533,242.463Z" style="fill:rgb(164,225,254);"/>
        <path d="M230.544,219.226C231.092,218.654 232,218.635 232.572,219.182C233.144,219.73 233.163,220.638 232.616,221.21C231.083,222.811 231.653,223.217 216.092,243.446C209.788,251.642 208.888,250.9 204.265,260.147C203.911,260.855 203.048,261.143 202.341,260.789C201.633,260.435 201.345,259.573 201.699,258.865C206.447,249.369 207.346,250.113 213.819,241.698C229.553,221.243 228.994,220.845 230.544,219.226Z" style="fill:rgb(164,225,254);"/>
        <path d="M203.473,226.989C202.897,226.446 202.87,225.538 203.412,224.962C203.955,224.386 204.863,224.359 205.44,224.901C229,247.102 231.722,250.193 233.82,252.57C234.343,253.164 234.287,254.071 233.693,254.595C233.1,255.118 232.193,255.062 231.669,254.468C229.585,252.106 226.876,249.041 203.473,226.989Z" style="fill:rgb(164,225,254);"/>
    </g>
    <g transform="matrix(-1,0,0,-1,1606.63,302.007)">
        <path d="M215.15,213.503C215.135,212.712 215.765,212.057 216.557,212.042C217.348,212.027 218.003,212.657 218.018,213.449C218.339,230.295 221.582,259.464 222.025,263.453C222.113,264.239 221.545,264.949 220.758,265.036C219.972,265.124 219.262,264.556 219.175,263.77C218.729,259.76 215.473,230.438 215.15,213.503Z" style="fill:rgb(164,225,254);"/>
        <path d="M196.533,242.463C195.742,242.49 195.077,241.87 195.05,241.079C195.023,240.288 195.644,239.624 196.435,239.597C202.796,239.379 229.214,237.507 239.947,236.357C240.734,236.272 241.441,236.843 241.526,237.63C241.61,238.417 241.039,239.124 240.252,239.209C229.468,240.364 202.924,242.245 196.533,242.463Z" style="fill:rgb(164,225,254);"/>
        <path d="M230.544,219.226C231.092,218.654 232,218.635 232.572,219.182C233.144,219.73 233.163,220.638 232.616,221.21C231.083,222.811 231.653,223.217 216.092,243.446C209.788,251.642 208.888,250.9 204.265,260.147C203.911,260.855 203.048,261.143 202.341,260.789C201.633,260.435 201.345,259.573 201.699,258.865C206.447,249.369 207.346,250.113 213.819,241.698C229.553,221.243 228.994,220.845 230.544,219.226Z" style="fill:rgb(164,225,254);"/>
        <path d="M203.473,226.989C202.897,226.446 202.87,225.538 203.412,224.962C203.955,224.386 204.863,224.359 205.44,224.901C229,247.102 231.722,250.193 233.82,252.57C234.343,253.164 234.287,254.071 233.693,254.595C233.1,255.118 232.193,255.062 231.669,254.468C229.585,252.106 226.876,249.041 203.473,226.989Z" style="fill:rgb(164,225,254);"/>
    </g>
    <g transform="matrix(-1,0,0,-1,699.937,322.294)">
        <path d="M215.15,213.503C215.135,212.712 215.765,212.057 216.557,212.042C217.348,212.027 218.003,212.657 218.018,213.449C218.339,230.295 221.582,259.464 222.025,263.453C222.113,264.239 221.545,264.949 220.758,265.036C219.972,265.124 219.262,264.556 219.175,263.77C218.729,259.76 215.473,230.438 215.15,213.503Z" style="fill:rgb(164,225,254);"/>
        <path d="M196.533,242.463C195.742,242.49 195.077,241.87 195.05,241.079C195.023,240.288 195.644,239.624 196.435,239.597C202.796,239.379 229.214,237.507 239.947,236.357C240.734,236.272 241.441,236.843 241.526,237.63C241.61,238.417 241.039,239.124 240.252,239.209C229.468,240.364 202.924,242.245 196.533,242.463Z" style="fill:rgb(164,225,254);"/>
        <path d="M230.544,219.226C231.092,218.654 232,218.635 232.572,219.182C233.144,219.73 233.163,220.638 232.616,221.21C231.083,222.811 231.653,223.217 216.092,243.446C209.788,251.642 208.888,250.9 204.265,260.147C203.911,260.855 203.048,261.143 202.341,260.789C201.633,260.435 201.345,259.573 201.699,258.865C206.447,249.369 207.346,250.113 213.819,241.698C229.553,221.243 228.994,220.845 230.544,219.226Z" style="fill:rgb(164,225,254);"/>
        <path d="M203.473,226.989C202.897,226.446 202.87,225.538 203.412,224.962C203.955,224.386 204.863,224.359 205.44,224.901C229,247.102 231.722,250.193 233.82,252.57C234.343,253.164 234.287,254.071 233.693,254.595C233.1,255.118 232.193,255.062 231.669,254.468C229.585,252.106 226.876,249.041 203.473,226.989Z" style="fill:rgb(164,225,254);"/>
    </g>
    <g transform="matrix(-1,0,0,-1,372.491,644.751)">
        <path d="M215.15,213.503C215.135,212.712 215.765,212.057 216.557,212.042C217.348,212.027 218.003,212.657 218.018,213.449C218.339,230.295 221.582,259.464 222.025,263.453C222.113,264.239 221.545,264.949 220.758,265.036C219.972,265.124 219.262,264.556 219.175,263.77C218.729,259.76 215.473,230.438 215.15,213.503Z" style="fill:rgb(164,225,254);"/>
        <path d="M196.533,242.463C195.742,242.49 195.077,241.87 195.05,241.079C195.023,240.288 195.644,239.624 196.435,239.597C202.796,239.379 229.214,237.507 239.947,236.357C240.734,236.272 241.441,236.843 241.526,237.63C241.61,238.417 241.039,239.124 240.252,239.209C229.468,240.364 202.924,242.245 196.533,242.463Z" style="fill:rgb(164,225,254);"/>
        <path d="M230.544,219.226C231.092,218.654 232,218.635 232.572,219.182C233.144,219.73 233.163,220.638 232.616,221.21C231.083,222.811 231.653,223.217 216.092,243.446C209.788,251.642 208.888,250.9 204.265,260.147C203.911,260.855 203.048,261.143 202.341,260.789C201.633,260.435 201.345,259.573 201.699,258.865C206.447,249.369 207.346,250.113 213.819,241.698C229.553,221.243 228.994,220.845 230.544,219.226Z" style="fill:rgb(164,225,254);"/>
        <path d="M203.473,226.989C202.897,226.446 202.87,225.538 203.412,224.962C203.955,224.386 204.863,224.359 205.44,224.901C229,247.102 231.722,250.193 233.82,252.57C234.343,253.164 234.287,254.071 233.693,254.595C233.1,255.118 232.193,255.062 231.669,254.468C229.585,252.106 226.876,249.041 203.473,226.989Z" style="fill:rgb(164,225,254);"/>
    </g>
    <g transform="matrix(-1,0,0,-1,1312.77,523.524)">
        <path d="M215.15,213.503C215.135,212.712 215.765,212.057 216.557,212.042C217.348,212.027 218.003,212.657 218.018,213.449C218.339,230.295 221.582,259.464 222.025,263.453C222.113,264.239 221.545,264.949 220.758,265.036C219.972,265.124 219.262,264.556 219.175,263.77C218.729,259.76 215.473,230.438 215.15,213.503Z" style="fill:rgb(164,225,254);"/>
        <path d="M196.533,242.463C195.742,242.49 195.077,241.87 195.05,241.079C195.023,240.288 195.644,239.624 196.435,239.597C202.796,239.379 229.214,237.507 239.947,236.357C240.734,236.272 241.441,236.843 241.526,237.63C241.61,238.417 241.039,239.124 240.252,239.209C229.468,240.364 202.924,242.245 196.533,242.463Z" style="fill:rgb(164,225,254);"/>
        <path d="M230.544,219.226C231.092,218.654 232,218.635 232.572,219.182C233.144,219.73 233.163,220.638 232.616,221.21C231.083,222.811 231.653,223.217 216.092,243.446C209.788,251.642 208.888,250.9 204.265,260.147C203.911,260.855 203.048,261.143 202.341,260.789C201.633,260.435 201.345,259.573 201.699,258.865C206.447,249.369 207.346,250.113 213.819,241.698C229.553,221.243 228.994,220.845 230.544,219.226Z" style="fill:rgb(164,225,254);"/>
        <path d="M203.473,226.989C202.897,226.446 202.87,225.538 203.412,224.962C203.955,224.386 204.863,224.359 205.44,224.901C229,247.102 231.722,250.193 233.82,252.57C234.343,253.164 234.287,254.071 233.693,254.595C233.1,255.118 232.193,255.062 231.669,254.468C229.585,252.106 226.876,249.041 203.473,226.989Z" style="fill:rgb(164,225,254);"/>
    </g>
    <g transform="matrix(-1,0,0,-1,350.121,325.226)">
        <path d="M215.15,213.503C215.135,212.712 215.765,212.057 216.557,212.042C217.348,212.027 218.003,212.657 218.018,213.449C218.339,230.295 221.582,259.464 222.025,263.453C222.113,264.239 221.545,264.949 220.758,265.036C219.972,265.124 219.262,264.556 219.175,263.77C218.729,259.76 215.473,230.438 215.15,213.503Z" style="fill:rgb(164,225,254);"/>
        <path d="M196.533,242.463C195.742,242.49 195.077,241.87 195.05,241.079C195.023,240.288 195.644,239.624 196.435,239.597C202.796,239.379 229.214,237.507 239.947,236.357C240.734,236.272 241.441,236.843 241.526,237.63C241.61,238.417 241.039,239.124 240.252,239.209C229.468,240.364 202.924,242.245 196.533,242.463Z" style="fill:rgb(164,225,254);"/>
        <path d="M230.544,219.226C231.092,218.654 232,218.635 232.572,219.182C233.144,219.73 233.163,220.638 232.616,221.21C231.083,222.811 231.653,223.217 216.092,243.446C209.788,251.642 208.888,250.9 204.265,260.147C203.911,260.855 203.048,261.143 202.341,260.789C201.633,260.435 201.345,259.573 201.699,258.865C206.447,249.369 207.346,250.113 213.819,241.698C229.553,221.243 228.994,220.845 230.544,219.226Z" style="fill:rgb(164,225,254);"/>
        <path d="M203.473,226.989C202.897,226.446 202.87,225.538 203.412,224.962C203.955,224.386 204.863,224.359 205.44,224.901C229,247.102 231.722,250.193 233.82,252.57C234.343,253.164 234.287,254.071 233.693,254.595C233.1,255.118 232.193,255.062 231.669,254.468C229.585,252.106 226.876,249.041 203.473,226.989Z" style="fill:rgb(164,225,254);"/>
    </g>
    <path d="M-317.372,54.711C-368.318,-78.786 -333.311,-235.676 -218.66,-333.949C-97.524,-437.78 74.68,-443.74 201.225,-359.271L254.676,-369.934L341.311,-363.821L427.242,-336.875L491.804,-298.597L492.352,-298.983L621.815,-341.909L770.268,-332.672L847.925,-296.059L894.852,-334.671L994.469,-376.144L1145.44,-384.631L1282.23,-336.834L1296.62,-324.447L1427.64,-334.397L1470.57,-320.619L1491.12,-338.781L1627.89,-401.24L1752.34,-410.959L1884.09,-376.43L1969.28,-322.83L2049.75,-233.359L2102.73,-125.077L2130.9,-3.226C2143.66,89.392 2137.61,237.67 2136.03,271.015C2137.44,327.37 2134.64,375.432 2129.22,416.726C2136.8,443.15 2144.08,470.06 2150.85,497.109C2152.9,505.336 2154.96,513.653 2157.02,522.049C2164.88,534.209 2171.79,546.541 2177.5,558.974L2206.97,646.978L2216.41,750.571L2210.97,784.398C2218.54,834.908 2223.59,883.714 2224.72,928.281C2226.01,979.653 2222.8,1027.4 2215.66,1070.05L2184.6,1182.76L2120.66,1295.82L2007.55,1399.28L1913.78,1437.36L1911.73,1440.27L1826.26,1511.81L1736.42,1553.05L1619.5,1570.32L1530.39,1560.24L1430.59,1525.44L1328.09,1450.95L1245.77,1463.7L1099.84,1442.95L1065.2,1425.51L1025.21,1457.36L896.979,1508.4L759.739,1513.64L613.103,1458.71L583.992,1430.71L467.657,1468.08L343.47,1467.86L246.05,1437.83L233.852,1429.73L232.081,1431.16L90.956,1479.59L5.157,1482.7L-85.426,1465.35L-216.597,1394.48L-305.786,1293.91L-360.797,1171.2L-385.37,999.834C-388.977,826.708 -313.403,435.641 -317.372,54.711ZM-314.89,61.027C-311.283,76.531 -304.769,86.698 -299.513,93.958C-305.251,83.188 -310.375,72.195 -314.89,61.027ZM-267.958,142.821C-263.547,148.631 -259.646,153.244 -256.425,157.001C-260.414,152.348 -264.258,147.62 -267.958,142.821Z" style="fill:rgb(0,42,62);fill-opacity:0.42;"/>
</svg>
