<?xml version="1.0" encoding="UTF-8" standalone="no"?>
<!DOCTYPE svg PUBLIC "-//W3C//DTD SVG 1.1//EN" "http://www.w3.org/Graphics/SVG/1.1/DTD/svg11.dtd">
<svg width="100%" height="100%" viewBox="0 0 1920 1080" version="1.1" xmlns="http://www.w3.org/2000/svg" xmlns:xlink="http://www.w3.org/1999/xlink" xml:space="preserve" xmlns:serif="http://www.serif.com/" style="fill-rule:evenodd;clip-rule:evenodd;stroke-linejoin:round;stroke-miterlimit:2;">
    <path d="M-85.859,398.79L-119.234,381.926L-164.22,326.56L-182.39,270.758L-183.725,222.927L-175.83,183.27L-148.162,130.577C-165.019,52.166 -123.334,-28.425 -47.435,-59.051C4.75,-80.108 53.108,-96.783 100.563,-109.948C132.226,-123.976 154.213,-132.506 216.343,-153.895C256.493,-167.717 298.682,-165.361 335.388,-149.91C405.335,-155.422 482.142,-157.148 572.865,-157.192C607.605,-168.695 646.783,-181.518 691.058,-195.842C752.781,-215.811 817.842,-197.896 860.8,-154.711C943.161,-153.85 1034.8,-153.094 1137.9,-153.094C1852.94,-153.094 1960.84,-49.129 2017.52,-5.788L2069.57,43.988L2099.69,92.366L2115.68,146.442L2114.86,207.437L2099.11,256.714L2063.9,307.773L2054.96,315.181L2057.84,318.851L2078.15,376.789L2080.15,426.359L2073.01,453.748C2082.59,465.028 2090.82,477.779 2097.32,491.865C2135.9,575.471 2099.35,674.676 2015.75,713.263L1962.07,728.869C1948.19,730.966 1925.91,732.746 1897.84,733.375C1786.91,735.862 1545.79,724.134 1518.1,722.766C1342.82,714.11 1143.75,717.253 1011.64,708.064C931.292,702.475 869.063,689.847 833.768,675.057L793.002,653.132L760.929,626.086L734.005,590.336L731.729,584.659C553.262,651.787 371.409,714.991 294.73,733.735C206.086,755.403 68.082,822.969 5.225,830.057L-49.779,829.893L-104.058,814.696L-157.209,778.518L-197.229,719.554L-210.797,665.133L-206.907,604.058C-200.884,576.185 -183.732,531.552 -141.016,471.125C-123.936,446.962 -105.32,422.706 -85.859,398.79Z" style="fill:rgb(65,167,215);"/>
    <path d="M-237.348,718.486C-257.698,689.995 -251.09,650.343 -222.599,629.993C-194.109,609.642 -154.457,616.251 -134.107,644.741C-129.729,650.87 -121.008,649.609 -111.605,650.171C-85.421,651.734 -53.477,646.185 -17.886,637.582C110.861,606.463 278.267,534.871 409.525,509.259C658.969,460.587 848.575,507.097 1051.81,553.631C1239.66,596.643 1440.17,639.031 1721.5,588.794C1744,584.777 1858.19,564.313 2006.87,575.326C2041.79,577.912 2068.03,608.359 2065.45,643.275C2062.86,678.192 2032.41,704.439 1997.5,701.853C1865.33,692.063 1763.8,710.121 1743.8,713.693C1441.24,767.721 1225.52,723.563 1023.49,677.305C836.844,634.569 662.909,589.085 433.823,633.785C280.506,663.7 77.891,756.128 -55.041,773.82C-140.688,785.218 -204.165,764.942 -237.348,718.486Z" style="fill:rgb(164,225,254);"/>
    <path d="M-168.344,818.176C-172.903,801.565 -170.728,783.166 -160.807,767.474L-148.084,752.451L-132.556,741.477C-123.218,736.293 -107.442,730.315 -86.104,725.022C-6.619,705.306 185.345,683.109 314.289,637.057C315.364,636.674 457.357,596.461 613.024,577.737C721.339,564.709 835.9,563.006 917.393,588.081C1189.51,671.809 1192.29,657.997 1475.86,686.835C1652.38,704.786 1811.16,678.244 1839.9,673.453C1925.68,659.157 1962.69,691.718 1977.54,715.819L1987.16,737.763L1990.44,759.501L1986.82,787.996L1977.02,811.337L1962.79,830.868L1943.4,847.336L1926.2,856.087L1904.25,861.201C1881.25,863.324 1858.05,861.069 1834.96,861.46C1776.35,862.453 1658.69,915.361 1409.85,879.813C1267.92,859.536 1267.5,873.079 1125.9,854.609C726.9,802.566 711.569,778.349 503.768,824.527C469.562,832.128 467.446,819.764 72.877,903.123C-22.81,923.339 -24.051,910.314 -119.041,933.112C-153.086,941.283 -187.36,920.276 -195.531,886.231C-201.974,859.385 -190.274,832.396 -168.344,818.176Z" style="fill:rgb(164,225,254);"/>
    <path d="M1507.19,916.795C1420.13,911.522 1420.07,906.413 1332.36,887.948C1279.95,876.913 1183.27,846.104 1170.45,842.001C1065.68,808.475 736.383,767.998 459.506,806.453C298.927,828.756 180.985,811.828 91.952,795.801C41.994,786.808 2.987,777.176 -28.774,779.101C-35.438,779.505 -89.071,780.47 -111.23,791.962C-142.31,808.081 -180.63,795.934 -196.749,764.853C-212.868,733.773 -200.721,695.453 -169.641,679.334C-133.563,660.623 -47.299,653.117 -36.449,652.459C-5.461,650.581 31.005,655.684 74.682,663.643C158.144,678.852 274.063,704.117 442.052,680.785C740.826,639.289 1096.06,684.985 1209.12,721.163C1220.95,724.95 1310.12,753.61 1358.5,763.795C1438.3,780.595 1437.04,785.578 1518.72,790.383L1535.86,792.974C1552.22,796.913 1573.57,810.854 1734.75,796.839C1929.62,779.894 1946.65,761.321 1952.27,755.706C1977.02,730.949 2017.22,730.949 2041.98,755.706C2066.74,780.463 2066.74,820.663 2041.98,845.42C2034.21,853.188 2015.36,899.791 1745.74,923.236C1568.01,938.691 1514.92,920.065 1507.19,916.795Z" style="fill:rgb(205,239,255);"/>
    <path d="M-30.757,941.622C-36.503,882.196 -49.257,833.014 -51.999,805.192C-52.909,795.963 -53.084,788.008 -52.693,781.457L-48.843,759.761L-39.8,740.694L-27.856,726.927C-1.684,703.671 38.446,706.039 61.702,732.211C69.696,741.208 74.663,751.855 76.675,762.898C82.438,761.523 88.452,760.942 94.567,761.248C231.844,768.112 243.658,752.975 333.37,764.19C371.572,768.965 570.943,758.481 675.428,740.569C788.04,721.264 1100.15,753.331 1154.01,774.611L1176.98,787.769L1193.14,806.987L1198.45,819.326C1264.5,833.805 1330.7,854.357 1383.38,868.703C1684.01,891.004 1847.13,883.708 1898.02,881.4C1932.44,879.839 1961.81,906.027 1964.18,940.393C1965.48,959.09 1966.34,975.575 1966.85,990.113C1968.59,995.977 1969.49,1002.17 1969.45,1008.53C1969.41,1013.82 1968.72,1018.97 1967.45,1023.91C1967.34,1059.3 1964.49,1078.02 1961.35,1088.15L1952.91,1107.25L1942.65,1120.72L1927.09,1133.08L1902.63,1142.3C1884.92,1146.03 1691.05,1142.99 1673.31,1140.52C1421.74,1105.58 901.6,1131.63 848.631,1131C759.472,1129.94 689.657,1120.26 591.946,1119.91C546.166,1126.64 524.583,1132.78 446.064,1134.78C320.736,1137.97 321.621,1141.65 197.875,1159.46C163.545,1164.4 131.61,1140.86 126.182,1106.6C125.331,1101.23 125.181,1095.91 125.663,1090.74C114.876,1090.19 103.713,1089.34 92.047,1088.16C91.189,1093.68 90.235,1099.2 89.18,1104.75C82.731,1138.6 50.434,1161.11 16.44,1155.45C-17.555,1149.79 -40.81,1118.02 -35.936,1083.9C-34.567,1074.32 -33.193,1065.89 -31.812,1058.4C-31.754,1057.97 -31.698,1057.54 -31.642,1057.11L-40.361,1050.32L-51.711,1034.95L-58.358,1018.15L-60.534,999.941L-57.571,980.294L-47.628,959.22C-44.244,954.154 -38.632,948.132 -30.757,941.622Z" style="fill:rgb(205,239,255);"/>
    <path d="M896.43,833.583C908.147,833.086 957.299,833.124 1078.21,857.307C1213.22,884.308 1342.4,882.463 1437.97,900.16C1487.22,909.281 1557.53,904.353 1629.49,901.801C1672.11,900.29 1715.22,899.521 1755.87,901.459C1863.54,879.311 1940.32,877.881 1990.7,878.886C2022.29,879.516 2048.61,903.31 2052.41,934.686C2056.01,964.485 2038.27,992.489 2010.32,1002.21L2012.65,1014.91L2011.24,1034.45L2005.32,1051.5L1993.16,1068.32L1977.15,1080.49L1960.73,1087.64C1960.44,1087.74 1960.14,1087.83 1959.84,1087.93L1957.3,1098.17L1947.39,1115.4L1929.79,1130.82C1909.91,1142.75 1892.63,1156.02 1816.34,1155C1761.53,1154.26 1664.68,1145.35 1482.32,1120.29C1179.68,1078.71 1030.03,1109.33 780.807,1118.31C79.608,1143.58 80.804,1166.87 19.899,1163.83L-2.811,1160.57L-21.409,1152.61L-36.148,1140.27L-46.344,1124.82L-52.47,1098.24L-50.879,1089.35C-68.075,1082.11 -81.774,1067.41 -87.242,1048.43C-95.647,1019.26 -82.202,988.301 -55.328,974.471C-59.298,973.39 -63.147,972.289 -66.866,971.172C-101.723,960.697 -127.02,947.472 -139.85,936.974C-166.947,914.804 -170.947,874.804 -148.776,847.706C-126.606,820.608 -86.606,816.608 -59.508,838.779C-51.728,845.145 -32.37,849.863 -7.969,855.624C41.635,867.336 109.325,874.695 173.376,866.689C307.472,849.927 647.847,783.67 896.43,833.583Z" style="fill:rgb(224,245,255);"/>
    <g transform="matrix(1,0,0,1,59.4838,22.187)">
        <path d="M215.15,213.503C215.135,212.712 215.765,212.057 216.557,212.042C217.348,212.027 218.003,212.657 218.018,213.449C218.339,230.295 221.582,259.464 222.025,263.453C222.113,264.239 221.545,264.949 220.758,265.036C219.972,265.124 219.262,264.556 219.175,263.77C218.729,259.76 215.473,230.438 215.15,213.503Z" style="fill:rgb(164,225,254);"/>
        <path d="M196.533,242.463C195.742,242.49 195.077,241.87 195.05,241.079C195.023,240.288 195.644,239.624 196.435,239.597C202.796,239.379 229.214,237.507 239.947,236.357C240.734,236.272 241.441,236.843 241.526,237.63C241.61,238.417 241.039,239.124 240.252,239.209C229.468,240.364 202.924,242.245 196.533,242.463Z" style="fill:rgb(164,225,254);"/>
        <path d="M230.544,219.226C231.092,218.654 232,218.635 232.572,219.182C233.144,219.73 233.163,220.638 232.616,221.21C231.083,222.811 231.653,223.217 216.092,243.446C209.788,251.642 208.888,250.9 204.265,260.147C203.911,260.855 203.048,261.143 202.341,260.789C201.633,260.435 201.345,259.573 201.699,258.865C206.447,249.369 207.346,250.113 213.819,241.698C229.553,221.243 228.994,220.845 230.544,219.226Z" style="fill:rgb(164,225,254);"/>
        <path d="M203.473,226.989C202.897,226.446 202.87,225.538 203.412,224.962C203.955,224.386 204.863,224.359 205.44,224.901C229,247.102 231.722,250.193 233.82,252.57C234.343,253.164 234.287,254.071 233.693,254.595C233.1,255.118 232.193,255.062 231.669,254.468C229.585,252.106 226.876,249.041 203.473,226.989Z" style="fill:rgb(164,225,254);"/>
    </g>
    <g transform="matrix(1,0,0,1,1614.76,226.415)">
        <path d="M215.15,213.503C215.135,212.712 215.765,212.057 216.557,212.042C217.348,212.027 218.003,212.657 218.018,213.449C218.339,230.295 221.582,259.464 222.025,263.453C222.113,264.239 221.545,264.949 220.758,265.036C219.972,265.124 219.262,264.556 219.175,263.77C218.729,259.76 215.473,230.438 215.15,213.503Z" style="fill:rgb(164,225,254);"/>
        <path d="M196.533,242.463C195.742,242.49 195.077,241.87 195.05,241.079C195.023,240.288 195.644,239.624 196.435,239.597C202.796,239.379 229.214,237.507 239.947,236.357C240.734,236.272 241.441,236.843 241.526,237.63C241.61,238.417 241.039,239.124 240.252,239.209C229.468,240.364 202.924,242.245 196.533,242.463Z" style="fill:rgb(164,225,254);"/>
        <path d="M230.544,219.226C231.092,218.654 232,218.635 232.572,219.182C233.144,219.73 233.163,220.638 232.616,221.21C231.083,222.811 231.653,223.217 216.092,243.446C209.788,251.642 208.888,250.9 204.265,260.147C203.911,260.855 203.048,261.143 202.341,260.789C201.633,260.435 201.345,259.573 201.699,258.865C206.447,249.369 207.346,250.113 213.819,241.698C229.553,221.243 228.994,220.845 230.544,219.226Z" style="fill:rgb(164,225,254);"/>
        <path d="M203.473,226.989C202.897,226.446 202.87,225.538 203.412,224.962C203.955,224.386 204.863,224.359 205.44,224.901C229,247.102 231.722,250.193 233.82,252.57C234.343,253.164 234.287,254.071 233.693,254.595C233.1,255.118 232.193,255.062 231.669,254.468C229.585,252.106 226.876,249.041 203.473,226.989Z" style="fill:rgb(164,225,254);"/>
    </g>
    <g transform="matrix(1,0,0,1,283.57,85.9849)">
        <path d="M215.15,213.503C215.135,212.712 215.765,212.057 216.557,212.042C217.348,212.027 218.003,212.657 218.018,213.449C218.339,230.295 221.582,259.464 222.025,263.453C222.113,264.239 221.545,264.949 220.758,265.036C219.972,265.124 219.262,264.556 219.175,263.77C218.729,259.76 215.473,230.438 215.15,213.503Z" style="fill:rgb(164,225,254);"/>
        <path d="M196.533,242.463C195.742,242.49 195.077,241.87 195.05,241.079C195.023,240.288 195.644,239.624 196.435,239.597C202.796,239.379 229.214,237.507 239.947,236.357C240.734,236.272 241.441,236.843 241.526,237.63C241.61,238.417 241.039,239.124 240.252,239.209C229.468,240.364 202.924,242.245 196.533,242.463Z" style="fill:rgb(164,225,254);"/>
        <path d="M230.544,219.226C231.092,218.654 232,218.635 232.572,219.182C233.144,219.73 233.163,220.638 232.616,221.21C231.083,222.811 231.653,223.217 216.092,243.446C209.788,251.642 208.888,250.9 204.265,260.147C203.911,260.855 203.048,261.143 202.341,260.789C201.633,260.435 201.345,259.573 201.699,258.865C206.447,249.369 207.346,250.113 213.819,241.698C229.553,221.243 228.994,220.845 230.544,219.226Z" style="fill:rgb(164,225,254);"/>
        <path d="M203.473,226.989C202.897,226.446 202.87,225.538 203.412,224.962C203.955,224.386 204.863,224.359 205.44,224.901C229,247.102 231.722,250.193 233.82,252.57C234.343,253.164 234.287,254.071 233.693,254.595C233.1,255.118 232.193,255.062 231.669,254.468C229.585,252.106 226.876,249.041 203.473,226.989Z" style="fill:rgb(164,225,254);"/>
    </g>
    <g transform="matrix(1,0,0,1,798.323,200.773)">
        <path d="M215.15,213.503C215.135,212.712 215.765,212.057 216.557,212.042C217.348,212.027 218.003,212.657 218.018,213.449C218.339,230.295 221.582,259.464 222.025,263.453C222.113,264.239 221.545,264.949 220.758,265.036C219.972,265.124 219.262,264.556 219.175,263.77C218.729,259.76 215.473,230.438 215.15,213.503Z" style="fill:rgb(164,225,254);"/>
        <path d="M196.533,242.463C195.742,242.49 195.077,241.87 195.05,241.079C195.023,240.288 195.644,239.624 196.435,239.597C202.796,239.379 229.214,237.507 239.947,236.357C240.734,236.272 241.441,236.843 241.526,237.63C241.61,238.417 241.039,239.124 240.252,239.209C229.468,240.364 202.924,242.245 196.533,242.463Z" style="fill:rgb(164,225,254);"/>
        <path d="M230.544,219.226C231.092,218.654 232,218.635 232.572,219.182C233.144,219.73 233.163,220.638 232.616,221.21C231.083,222.811 231.653,223.217 216.092,243.446C209.788,251.642 208.888,250.9 204.265,260.147C203.911,260.855 203.048,261.143 202.341,260.789C201.633,260.435 201.345,259.573 201.699,258.865C206.447,249.369 207.346,250.113 213.819,241.698C229.553,221.243 228.994,220.845 230.544,219.226Z" style="fill:rgb(164,225,254);"/>
        <path d="M203.473,226.989C202.897,226.446 202.87,225.538 203.412,224.962C203.955,224.386 204.863,224.359 205.44,224.901C229,247.102 231.722,250.193 233.82,252.57C234.343,253.164 234.287,254.071 233.693,254.595C233.1,255.118 232.193,255.062 231.669,254.468C229.585,252.106 226.876,249.041 203.473,226.989Z" style="fill:rgb(164,225,254);"/>
    </g>
    <g transform="matrix(1,0,0,1,1411.17,255.537)">
        <path d="M215.15,213.503C215.135,212.712 215.765,212.057 216.557,212.042C217.348,212.027 218.003,212.657 218.018,213.449C218.339,230.295 221.582,259.464 222.025,263.453C222.113,264.239 221.545,264.949 220.758,265.036C219.972,265.124 219.262,264.556 219.175,263.77C218.729,259.76 215.473,230.438 215.15,213.503Z" style="fill:rgb(164,225,254);"/>
        <path d="M196.533,242.463C195.742,242.49 195.077,241.87 195.05,241.079C195.023,240.288 195.644,239.624 196.435,239.597C202.796,239.379 229.214,237.507 239.947,236.357C240.734,236.272 241.441,236.843 241.526,237.63C241.61,238.417 241.039,239.124 240.252,239.209C229.468,240.364 202.924,242.245 196.533,242.463Z" style="fill:rgb(164,225,254);"/>
        <path d="M230.544,219.226C231.092,218.654 232,218.635 232.572,219.182C233.144,219.73 233.163,220.638 232.616,221.21C231.083,222.811 231.653,223.217 216.092,243.446C209.788,251.642 208.888,250.9 204.265,260.147C203.911,260.855 203.048,261.143 202.341,260.789C201.633,260.435 201.345,259.573 201.699,258.865C206.447,249.369 207.346,250.113 213.819,241.698C229.553,221.243 228.994,220.845 230.544,219.226Z" style="fill:rgb(164,225,254);"/>
        <path d="M203.473,226.989C202.897,226.446 202.87,225.538 203.412,224.962C203.955,224.386 204.863,224.359 205.44,224.901C229,247.102 231.722,250.193 233.82,252.57C234.343,253.164 234.287,254.071 233.693,254.595C233.1,255.118 232.193,255.062 231.669,254.468C229.585,252.106 226.876,249.041 203.473,226.989Z" style="fill:rgb(164,225,254);"/>
    </g>
    <g transform="matrix(1,0,0,1,1488.52,94.3005)">
        <path d="M215.15,213.503C215.135,212.712 215.765,212.057 216.557,212.042C217.348,212.027 218.003,212.657 218.018,213.449C218.339,230.295 221.582,259.464 222.025,263.453C222.113,264.239 221.545,264.949 220.758,265.036C219.972,265.124 219.262,264.556 219.175,263.77C218.729,259.76 215.473,230.438 215.15,213.503Z" style="fill:rgb(164,225,254);"/>
        <path d="M196.533,242.463C195.742,242.49 195.077,241.87 195.05,241.079C195.023,240.288 195.644,239.624 196.435,239.597C202.796,239.379 229.214,237.507 239.947,236.357C240.734,236.272 241.441,236.843 241.526,237.63C241.61,238.417 241.039,239.124 240.252,239.209C229.468,240.364 202.924,242.245 196.533,242.463Z" style="fill:rgb(164,225,254);"/>
        <path d="M230.544,219.226C231.092,218.654 232,218.635 232.572,219.182C233.144,219.73 233.163,220.638 232.616,221.21C231.083,222.811 231.653,223.217 216.092,243.446C209.788,251.642 208.888,250.9 204.265,260.147C203.911,260.855 203.048,261.143 202.341,260.789C201.633,260.435 201.345,259.573 201.699,258.865C206.447,249.369 207.346,250.113 213.819,241.698C229.553,221.243 228.994,220.845 230.544,219.226Z" style="fill:rgb(164,225,254);"/>
        <path d="M203.473,226.989C202.897,226.446 202.87,225.538 203.412,224.962C203.955,224.386 204.863,224.359 205.44,224.901C229,247.102 231.722,250.193 233.82,252.57C234.343,253.164 234.287,254.071 233.693,254.595C233.1,255.118 232.193,255.062 231.669,254.468C229.585,252.106 226.876,249.041 203.473,226.989Z" style="fill:rgb(164,225,254);"/>
    </g>
    <g transform="matrix(1,0,0,1,1557.8,-150.848)">
        <path d="M215.15,213.503C215.135,212.712 215.765,212.057 216.557,212.042C217.348,212.027 218.003,212.657 218.018,213.449C218.339,230.295 221.582,259.464 222.025,263.453C222.113,264.239 221.545,264.949 220.758,265.036C219.972,265.124 219.262,264.556 219.175,263.77C218.729,259.76 215.473,230.438 215.15,213.503Z" style="fill:rgb(164,225,254);"/>
        <path d="M196.533,242.463C195.742,242.49 195.077,241.87 195.05,241.079C195.023,240.288 195.644,239.624 196.435,239.597C202.796,239.379 229.214,237.507 239.947,236.357C240.734,236.272 241.441,236.843 241.526,237.63C241.61,238.417 241.039,239.124 240.252,239.209C229.468,240.364 202.924,242.245 196.533,242.463Z" style="fill:rgb(164,225,254);"/>
        <path d="M230.544,219.226C231.092,218.654 232,218.635 232.572,219.182C233.144,219.73 233.163,220.638 232.616,221.21C231.083,222.811 231.653,223.217 216.092,243.446C209.788,251.642 208.888,250.9 204.265,260.147C203.911,260.855 203.048,261.143 202.341,260.789C201.633,260.435 201.345,259.573 201.699,258.865C206.447,249.369 207.346,250.113 213.819,241.698C229.553,221.243 228.994,220.845 230.544,219.226Z" style="fill:rgb(164,225,254);"/>
        <path d="M203.473,226.989C202.897,226.446 202.87,225.538 203.412,224.962C203.955,224.386 204.863,224.359 205.44,224.901C229,247.102 231.722,250.193 233.82,252.57C234.343,253.164 234.287,254.071 233.693,254.595C233.1,255.118 232.193,255.062 231.669,254.468C229.585,252.106 226.876,249.041 203.473,226.989Z" style="fill:rgb(164,225,254);"/>
    </g>
    <g transform="matrix(1,0,0,1,964.994,-126.464)">
        <path d="M215.15,213.503C215.135,212.712 215.765,212.057 216.557,212.042C217.348,212.027 218.003,212.657 218.018,213.449C218.339,230.295 221.582,259.464 222.025,263.453C222.113,264.239 221.545,264.949 220.758,265.036C219.972,265.124 219.262,264.556 219.175,263.77C218.729,259.76 215.473,230.438 215.15,213.503Z" style="fill:rgb(164,225,254);"/>
        <path d="M196.533,242.463C195.742,242.49 195.077,241.87 195.05,241.079C195.023,240.288 195.644,239.624 196.435,239.597C202.796,239.379 229.214,237.507 239.947,236.357C240.734,236.272 241.441,236.843 241.526,237.63C241.61,238.417 241.039,239.124 240.252,239.209C229.468,240.364 202.924,242.245 196.533,242.463Z" style="fill:rgb(164,225,254);"/>
        <path d="M230.544,219.226C231.092,218.654 232,218.635 232.572,219.182C233.144,219.73 233.163,220.638 232.616,221.21C231.083,222.811 231.653,223.217 216.092,243.446C209.788,251.642 208.888,250.9 204.265,260.147C203.911,260.855 203.048,261.143 202.341,260.789C201.633,260.435 201.345,259.573 201.699,258.865C206.447,249.369 207.346,250.113 213.819,241.698C229.553,221.243 228.994,220.845 230.544,219.226Z" style="fill:rgb(164,225,254);"/>
        <path d="M203.473,226.989C202.897,226.446 202.87,225.538 203.412,224.962C203.955,224.386 204.863,224.359 205.44,224.901C229,247.102 231.722,250.193 233.82,252.57C234.343,253.164 234.287,254.071 233.693,254.595C233.1,255.118 232.193,255.062 231.669,254.468C229.585,252.106 226.876,249.041 203.473,226.989Z" style="fill:rgb(164,225,254);"/>
    </g>
    <g transform="matrix(-1,0,0,1,954.496,-166.646)">
        <path d="M218.018,213.449C218.003,212.657 217.348,212.027 216.557,212.042C215.765,212.057 215.135,212.712 215.15,213.503C215.473,230.438 218.729,259.76 219.175,263.77C219.262,264.556 219.972,265.124 220.758,265.036C221.545,264.949 222.113,264.239 222.025,263.453C221.582,259.464 218.339,230.295 218.018,213.449Z" style="fill:rgb(164,225,254);"/>
        <path d="M196.435,239.597C195.644,239.624 195.023,240.288 195.05,241.079C195.077,241.87 195.742,242.49 196.533,242.463C202.924,242.245 229.468,240.364 240.252,239.209C241.039,239.124 241.61,238.417 241.526,237.63C241.441,236.843 240.734,236.272 239.947,236.357C229.214,237.507 202.796,239.379 196.435,239.597Z" style="fill:rgb(164,225,254);"/>
        <path d="M232.616,221.21C233.163,220.638 233.144,219.73 232.572,219.182C232,218.635 231.092,218.654 230.544,219.226C228.994,220.845 229.553,221.243 213.819,241.698C207.346,250.113 206.447,249.369 201.699,258.865C201.345,259.573 201.633,260.435 202.341,260.789C203.048,261.143 203.911,260.855 204.265,260.147C208.888,250.9 209.788,251.642 216.092,243.446C231.653,223.217 231.083,222.811 232.616,221.21Z" style="fill:rgb(164,225,254);"/>
        <path d="M205.44,224.901C204.863,224.359 203.955,224.386 203.412,224.962C202.87,225.538 202.897,226.446 203.473,226.989C226.876,249.041 229.585,252.106 231.669,254.468C232.193,255.062 233.1,255.118 233.693,254.595C234.287,254.071 234.343,253.164 233.82,252.57C231.722,250.193 229,247.102 205.44,224.901Z" style="fill:rgb(164,225,254);"/>
    </g>
    <g transform="matrix(1,0,0,1,1353.76,-102.407)">
        <path d="M215.15,213.503C215.135,212.712 215.765,212.057 216.557,212.042C217.348,212.027 218.003,212.657 218.018,213.449C218.339,230.295 221.582,259.464 222.025,263.453C222.113,264.239 221.545,264.949 220.758,265.036C219.972,265.124 219.262,264.556 219.175,263.77C218.729,259.76 215.473,230.438 215.15,213.503Z" style="fill:rgb(164,225,254);"/>
        <path d="M196.533,242.463C195.742,242.49 195.077,241.87 195.05,241.079C195.023,240.288 195.644,239.624 196.435,239.597C202.796,239.379 229.214,237.507 239.947,236.357C240.734,236.272 241.441,236.843 241.526,237.63C241.61,238.417 241.039,239.124 240.252,239.209C229.468,240.364 202.924,242.245 196.533,242.463Z" style="fill:rgb(164,225,254);"/>
        <path d="M230.544,219.226C231.092,218.654 232,218.635 232.572,219.182C233.144,219.73 233.163,220.638 232.616,221.21C231.083,222.811 231.653,223.217 216.092,243.446C209.788,251.642 208.888,250.9 204.265,260.147C203.911,260.855 203.048,261.143 202.341,260.789C201.633,260.435 201.345,259.573 201.699,258.865C206.447,249.369 207.346,250.113 213.819,241.698C229.553,221.243 228.994,220.845 230.544,219.226Z" style="fill:rgb(164,225,254);"/>
        <path d="M203.473,226.989C202.897,226.446 202.87,225.538 203.412,224.962C203.955,224.386 204.863,224.359 205.44,224.901C229,247.102 231.722,250.193 233.82,252.57C234.343,253.164 234.287,254.071 233.693,254.595C233.1,255.118 232.193,255.062 231.669,254.468C229.585,252.106 226.876,249.041 203.473,226.989Z" style="fill:rgb(164,225,254);"/>
    </g>
    <g transform="matrix(1,0,0,1,571.001,164.505)">
        <path d="M215.15,213.503C215.135,212.712 215.765,212.057 216.557,212.042C217.348,212.027 218.003,212.657 218.018,213.449C218.339,230.295 221.582,259.464 222.025,263.453C222.113,264.239 221.545,264.949 220.758,265.036C219.972,265.124 219.262,264.556 219.175,263.77C218.729,259.76 215.473,230.438 215.15,213.503Z" style="fill:rgb(164,225,254);"/>
        <path d="M196.533,242.463C195.742,242.49 195.077,241.87 195.05,241.079C195.023,240.288 195.644,239.624 196.435,239.597C202.796,239.379 229.214,237.507 239.947,236.357C240.734,236.272 241.441,236.843 241.526,237.63C241.61,238.417 241.039,239.124 240.252,239.209C229.468,240.364 202.924,242.245 196.533,242.463Z" style="fill:rgb(164,225,254);"/>
        <path d="M230.544,219.226C231.092,218.654 232,218.635 232.572,219.182C233.144,219.73 233.163,220.638 232.616,221.21C231.083,222.811 231.653,223.217 216.092,243.446C209.788,251.642 208.888,250.9 204.265,260.147C203.911,260.855 203.048,261.143 202.341,260.789C201.633,260.435 201.345,259.573 201.699,258.865C206.447,249.369 207.346,250.113 213.819,241.698C229.553,221.243 228.994,220.845 230.544,219.226Z" style="fill:rgb(164,225,254);"/>
        <path d="M203.473,226.989C202.897,226.446 202.87,225.538 203.412,224.962C203.955,224.386 204.863,224.359 205.44,224.901C229,247.102 231.722,250.193 233.82,252.57C234.343,253.164 234.287,254.071 233.693,254.595C233.1,255.118 232.193,255.062 231.669,254.468C229.585,252.106 226.876,249.041 203.473,226.989Z" style="fill:rgb(164,225,254);"/>
    </g>
    <g transform="matrix(1,0,0,1,-135.442,-10.2267)">
        <path d="M215.15,213.503C215.135,212.712 215.765,212.057 216.557,212.042C217.348,212.027 218.003,212.657 218.018,213.449C218.339,230.295 221.582,259.464 222.025,263.453C222.113,264.239 221.545,264.949 220.758,265.036C219.972,265.124 219.262,264.556 219.175,263.77C218.729,259.76 215.473,230.438 215.15,213.503Z" style="fill:rgb(164,225,254);"/>
        <path d="M196.533,242.463C195.742,242.49 195.077,241.87 195.05,241.079C195.023,240.288 195.644,239.624 196.435,239.597C202.796,239.379 229.214,237.507 239.947,236.357C240.734,236.272 241.441,236.843 241.526,237.63C241.61,238.417 241.039,239.124 240.252,239.209C229.468,240.364 202.924,242.245 196.533,242.463Z" style="fill:rgb(164,225,254);"/>
        <path d="M230.544,219.226C231.092,218.654 232,218.635 232.572,219.182C233.144,219.73 233.163,220.638 232.616,221.21C231.083,222.811 231.653,223.217 216.092,243.446C209.788,251.642 208.888,250.9 204.265,260.147C203.911,260.855 203.048,261.143 202.341,260.789C201.633,260.435 201.345,259.573 201.699,258.865C206.447,249.369 207.346,250.113 213.819,241.698C229.553,221.243 228.994,220.845 230.544,219.226Z" style="fill:rgb(164,225,254);"/>
        <path d="M203.473,226.989C202.897,226.446 202.87,225.538 203.412,224.962C203.955,224.386 204.863,224.359 205.44,224.901C229,247.102 231.722,250.193 233.82,252.57C234.343,253.164 234.287,254.071 233.693,254.595C233.1,255.118 232.193,255.062 231.669,254.468C229.585,252.106 226.876,249.041 203.473,226.989Z" style="fill:rgb(164,225,254);"/>
    </g>
    <g transform="matrix(1,0,0,1,89.3512,212.872)">
        <path d="M215.15,213.503C215.135,212.712 215.765,212.057 216.557,212.042C217.348,212.027 218.003,212.657 218.018,213.449C218.339,230.295 221.582,259.464 222.025,263.453C222.113,264.239 221.545,264.949 220.758,265.036C219.972,265.124 219.262,264.556 219.175,263.77C218.729,259.76 215.473,230.438 215.15,213.503Z" style="fill:rgb(164,225,254);"/>
        <path d="M196.533,242.463C195.742,242.49 195.077,241.87 195.05,241.079C195.023,240.288 195.644,239.624 196.435,239.597C202.796,239.379 229.214,237.507 239.947,236.357C240.734,236.272 241.441,236.843 241.526,237.63C241.61,238.417 241.039,239.124 240.252,239.209C229.468,240.364 202.924,242.245 196.533,242.463Z" style="fill:rgb(164,225,254);"/>
        <path d="M230.544,219.226C231.092,218.654 232,218.635 232.572,219.182C233.144,219.73 233.163,220.638 232.616,221.21C231.083,222.811 231.653,223.217 216.092,243.446C209.788,251.642 208.888,250.9 204.265,260.147C203.911,260.855 203.048,261.143 202.341,260.789C201.633,260.435 201.345,259.573 201.699,258.865C206.447,249.369 207.346,250.113 213.819,241.698C229.553,221.243 228.994,220.845 230.544,219.226Z" style="fill:rgb(164,225,254);"/>
        <path d="M203.473,226.989C202.897,226.446 202.87,225.538 203.412,224.962C203.955,224.386 204.863,224.359 205.44,224.901C229,247.102 231.722,250.193 233.82,252.57C234.343,253.164 234.287,254.071 233.693,254.595C233.1,255.118 232.193,255.062 231.669,254.468C229.585,252.106 226.876,249.041 203.473,226.989Z" style="fill:rgb(164,225,254);"/>
    </g>
    <g transform="matrix(1,0,0,1,694.34,-75.0575)">
        <path d="M215.15,213.503C215.135,212.712 215.765,212.057 216.557,212.042C217.348,212.027 218.003,212.657 218.018,213.449C218.339,230.295 221.582,259.464 222.025,263.453C222.113,264.239 221.545,264.949 220.758,265.036C219.972,265.124 219.262,264.556 219.175,263.77C218.729,259.76 215.473,230.438 215.15,213.503Z" style="fill:rgb(164,225,254);"/>
        <path d="M196.533,242.463C195.742,242.49 195.077,241.87 195.05,241.079C195.023,240.288 195.644,239.624 196.435,239.597C202.796,239.379 229.214,237.507 239.947,236.357C240.734,236.272 241.441,236.843 241.526,237.63C241.61,238.417 241.039,239.124 240.252,239.209C229.468,240.364 202.924,242.245 196.533,242.463Z" style="fill:rgb(164,225,254);"/>
        <path d="M230.544,219.226C231.092,218.654 232,218.635 232.572,219.182C233.144,219.73 233.163,220.638 232.616,221.21C231.083,222.811 231.653,223.217 216.092,243.446C209.788,251.642 208.888,250.9 204.265,260.147C203.911,260.855 203.048,261.143 202.341,260.789C201.633,260.435 201.345,259.573 201.699,258.865C206.447,249.369 207.346,250.113 213.819,241.698C229.553,221.243 228.994,220.845 230.544,219.226Z" style="fill:rgb(164,225,254);"/>
        <path d="M203.473,226.989C202.897,226.446 202.87,225.538 203.412,224.962C203.955,224.386 204.863,224.359 205.44,224.901C229,247.102 231.722,250.193 233.82,252.57C234.343,253.164 234.287,254.071 233.693,254.595C233.1,255.118 232.193,255.062 231.669,254.468C229.585,252.106 226.876,249.041 203.473,226.989Z" style="fill:rgb(164,225,254);"/>
    </g>
    <g transform="matrix(1,0,0,1,1248.59,79.6025)">
        <path d="M215.15,213.503C215.135,212.712 215.765,212.057 216.557,212.042C217.348,212.027 218.003,212.657 218.018,213.449C218.339,230.295 221.582,259.464 222.025,263.453C222.113,264.239 221.545,264.949 220.758,265.036C219.972,265.124 219.262,264.556 219.175,263.77C218.729,259.76 215.473,230.438 215.15,213.503Z" style="fill:rgb(164,225,254);"/>
        <path d="M196.533,242.463C195.742,242.49 195.077,241.87 195.05,241.079C195.023,240.288 195.644,239.624 196.435,239.597C202.796,239.379 229.214,237.507 239.947,236.357C240.734,236.272 241.441,236.843 241.526,237.63C241.61,238.417 241.039,239.124 240.252,239.209C229.468,240.364 202.924,242.245 196.533,242.463Z" style="fill:rgb(164,225,254);"/>
        <path d="M230.544,219.226C231.092,218.654 232,218.635 232.572,219.182C233.144,219.73 233.163,220.638 232.616,221.21C231.083,222.811 231.653,223.217 216.092,243.446C209.788,251.642 208.888,250.9 204.265,260.147C203.911,260.855 203.048,261.143 202.341,260.789C201.633,260.435 201.345,259.573 201.699,258.865C206.447,249.369 207.346,250.113 213.819,241.698C229.553,221.243 228.994,220.845 230.544,219.226Z" style="fill:rgb(164,225,254);"/>
        <path d="M203.473,226.989C202.897,226.446 202.87,225.538 203.412,224.962C203.955,224.386 204.863,224.359 205.44,224.901C229,247.102 231.722,250.193 233.82,252.57C234.343,253.164 234.287,254.071 233.693,254.595C233.1,255.118 232.193,255.062 231.669,254.468C229.585,252.106 226.876,249.041 203.473,226.989Z" style="fill:rgb(164,225,254);"/>
    </g>
    <g transform="matrix(1,0,0,1,1092.72,248.55)">
        <path d="M215.15,213.503C215.135,212.712 215.765,212.057 216.557,212.042C217.348,212.027 218.003,212.657 218.018,213.449C218.339,230.295 221.582,259.464 222.025,263.453C222.113,264.239 221.545,264.949 220.758,265.036C219.972,265.124 219.262,264.556 219.175,263.77C218.729,259.76 215.473,230.438 215.15,213.503Z" style="fill:rgb(164,225,254);"/>
        <path d="M196.533,242.463C195.742,242.49 195.077,241.87 195.05,241.079C195.023,240.288 195.644,239.624 196.435,239.597C202.796,239.379 229.214,237.507 239.947,236.357C240.734,236.272 241.441,236.843 241.526,237.63C241.61,238.417 241.039,239.124 240.252,239.209C229.468,240.364 202.924,242.245 196.533,242.463Z" style="fill:rgb(164,225,254);"/>
        <path d="M230.544,219.226C231.092,218.654 232,218.635 232.572,219.182C233.144,219.73 233.163,220.638 232.616,221.21C231.083,222.811 231.653,223.217 216.092,243.446C209.788,251.642 208.888,250.9 204.265,260.147C203.911,260.855 203.048,261.143 202.341,260.789C201.633,260.435 201.345,259.573 201.699,258.865C206.447,249.369 207.346,250.113 213.819,241.698C229.553,221.243 228.994,220.845 230.544,219.226Z" style="fill:rgb(164,225,254);"/>
        <path d="M203.473,226.989C202.897,226.446 202.87,225.538 203.412,224.962C203.955,224.386 204.863,224.359 205.44,224.901C229,247.102 231.722,250.193 233.82,252.57C234.343,253.164 234.287,254.071 233.693,254.595C233.1,255.118 232.193,255.062 231.669,254.468C229.585,252.106 226.876,249.041 203.473,226.989Z" style="fill:rgb(164,225,254);"/>
    </g>
    <g transform="matrix(-1,0,0,-1,885.227,484.741)">
        <path d="M215.15,213.503C215.135,212.712 215.765,212.057 216.557,212.042C217.348,212.027 218.003,212.657 218.018,213.449C218.339,230.295 221.582,259.464 222.025,263.453C222.113,264.239 221.545,264.949 220.758,265.036C219.972,265.124 219.262,264.556 219.175,263.77C218.729,259.76 215.473,230.438 215.15,213.503Z" style="fill:rgb(164,225,254);"/>
        <path d="M196.533,242.463C195.742,242.49 195.077,241.87 195.05,241.079C195.023,240.288 195.644,239.624 196.435,239.597C202.796,239.379 229.214,237.507 239.947,236.357C240.734,236.272 241.441,236.843 241.526,237.63C241.61,238.417 241.039,239.124 240.252,239.209C229.468,240.364 202.924,242.245 196.533,242.463Z" style="fill:rgb(164,225,254);"/>
        <path d="M230.544,219.226C231.092,218.654 232,218.635 232.572,219.182C233.144,219.73 233.163,220.638 232.616,221.21C231.083,222.811 231.653,223.217 216.092,243.446C209.788,251.642 208.888,250.9 204.265,260.147C203.911,260.855 203.048,261.143 202.341,260.789C201.633,260.435 201.345,259.573 201.699,258.865C206.447,249.369 207.346,250.113 213.819,241.698C229.553,221.243 228.994,220.845 230.544,219.226Z" style="fill:rgb(164,225,254);"/>
        <path d="M203.473,226.989C202.897,226.446 202.87,225.538 203.412,224.962C203.955,224.386 204.863,224.359 205.44,224.901C229,247.102 231.722,250.193 233.82,252.57C234.343,253.164 234.287,254.071 233.693,254.595C233.1,255.118 232.193,255.062 231.669,254.468C229.585,252.106 226.876,249.041 203.473,226.989Z" style="fill:rgb(164,225,254);"/>
    </g>
    <g transform="matrix(-1,0,0,-1,1606.63,302.007)">
        <path d="M215.15,213.503C215.135,212.712 215.765,212.057 216.557,212.042C217.348,212.027 218.003,212.657 218.018,213.449C218.339,230.295 221.582,259.464 222.025,263.453C222.113,264.239 221.545,264.949 220.758,265.036C219.972,265.124 219.262,264.556 219.175,263.77C218.729,259.76 215.473,230.438 215.15,213.503Z" style="fill:rgb(164,225,254);"/>
        <path d="M196.533,242.463C195.742,242.49 195.077,241.87 195.05,241.079C195.023,240.288 195.644,239.624 196.435,239.597C202.796,239.379 229.214,237.507 239.947,236.357C240.734,236.272 241.441,236.843 241.526,237.63C241.61,238.417 241.039,239.124 240.252,239.209C229.468,240.364 202.924,242.245 196.533,242.463Z" style="fill:rgb(164,225,254);"/>
        <path d="M230.544,219.226C231.092,218.654 232,218.635 232.572,219.182C233.144,219.73 233.163,220.638 232.616,221.21C231.083,222.811 231.653,223.217 216.092,243.446C209.788,251.642 208.888,250.9 204.265,260.147C203.911,260.855 203.048,261.143 202.341,260.789C201.633,260.435 201.345,259.573 201.699,258.865C206.447,249.369 207.346,250.113 213.819,241.698C229.553,221.243 228.994,220.845 230.544,219.226Z" style="fill:rgb(164,225,254);"/>
        <path d="M203.473,226.989C202.897,226.446 202.87,225.538 203.412,224.962C203.955,224.386 204.863,224.359 205.44,224.901C229,247.102 231.722,250.193 233.82,252.57C234.343,253.164 234.287,254.071 233.693,254.595C233.1,255.118 232.193,255.062 231.669,254.468C229.585,252.106 226.876,249.041 203.473,226.989Z" style="fill:rgb(164,225,254);"/>
    </g>
    <g transform="matrix(-1,0,0,-1,699.937,322.294)">
        <path d="M215.15,213.503C215.135,212.712 215.765,212.057 216.557,212.042C217.348,212.027 218.003,212.657 218.018,213.449C218.339,230.295 221.582,259.464 222.025,263.453C222.113,264.239 221.545,264.949 220.758,265.036C219.972,265.124 219.262,264.556 219.175,263.77C218.729,259.76 215.473,230.438 215.15,213.503Z" style="fill:rgb(164,225,254);"/>
        <path d="M196.533,242.463C195.742,242.49 195.077,241.87 195.05,241.079C195.023,240.288 195.644,239.624 196.435,239.597C202.796,239.379 229.214,237.507 239.947,236.357C240.734,236.272 241.441,236.843 241.526,237.63C241.61,238.417 241.039,239.124 240.252,239.209C229.468,240.364 202.924,242.245 196.533,242.463Z" style="fill:rgb(164,225,254);"/>
        <path d="M230.544,219.226C231.092,218.654 232,218.635 232.572,219.182C233.144,219.73 233.163,220.638 232.616,221.21C231.083,222.811 231.653,223.217 216.092,243.446C209.788,251.642 208.888,250.9 204.265,260.147C203.911,260.855 203.048,261.143 202.341,260.789C201.633,260.435 201.345,259.573 201.699,258.865C206.447,249.369 207.346,250.113 213.819,241.698C229.553,221.243 228.994,220.845 230.544,219.226Z" style="fill:rgb(164,225,254);"/>
        <path d="M203.473,226.989C202.897,226.446 202.87,225.538 203.412,224.962C203.955,224.386 204.863,224.359 205.44,224.901C229,247.102 231.722,250.193 233.82,252.57C234.343,253.164 234.287,254.071 233.693,254.595C233.1,255.118 232.193,255.062 231.669,254.468C229.585,252.106 226.876,249.041 203.473,226.989Z" style="fill:rgb(164,225,254);"/>
    </g>
    <g transform="matrix(-1,0,0,-1,372.491,644.751)">
        <path d="M215.15,213.503C215.135,212.712 215.765,212.057 216.557,212.042C217.348,212.027 218.003,212.657 218.018,213.449C218.339,230.295 221.582,259.464 222.025,263.453C222.113,264.239 221.545,264.949 220.758,265.036C219.972,265.124 219.262,264.556 219.175,263.77C218.729,259.76 215.473,230.438 215.15,213.503Z" style="fill:rgb(164,225,254);"/>
        <path d="M196.533,242.463C195.742,242.49 195.077,241.87 195.05,241.079C195.023,240.288 195.644,239.624 196.435,239.597C202.796,239.379 229.214,237.507 239.947,236.357C240.734,236.272 241.441,236.843 241.526,237.63C241.61,238.417 241.039,239.124 240.252,239.209C229.468,240.364 202.924,242.245 196.533,242.463Z" style="fill:rgb(164,225,254);"/>
        <path d="M230.544,219.226C231.092,218.654 232,218.635 232.572,219.182C233.144,219.73 233.163,220.638 232.616,221.21C231.083,222.811 231.653,223.217 216.092,243.446C209.788,251.642 208.888,250.9 204.265,260.147C203.911,260.855 203.048,261.143 202.341,260.789C201.633,260.435 201.345,259.573 201.699,258.865C206.447,249.369 207.346,250.113 213.819,241.698C229.553,221.243 228.994,220.845 230.544,219.226Z" style="fill:rgb(164,225,254);"/>
        <path d="M203.473,226.989C202.897,226.446 202.87,225.538 203.412,224.962C203.955,224.386 204.863,224.359 205.44,224.901C229,247.102 231.722,250.193 233.82,252.57C234.343,253.164 234.287,254.071 233.693,254.595C233.1,255.118 232.193,255.062 231.669,254.468C229.585,252.106 226.876,249.041 203.473,226.989Z" style="fill:rgb(164,225,254);"/>
    </g>
    <g transform="matrix(-1,0,0,-1,1312.77,523.524)">
        <path d="M215.15,213.503C215.135,212.712 215.765,212.057 216.557,212.042C217.348,212.027 218.003,212.657 218.018,213.449C218.339,230.295 221.582,259.464 222.025,263.453C222.113,264.239 221.545,264.949 220.758,265.036C219.972,265.124 219.262,264.556 219.175,263.77C218.729,259.76 215.473,230.438 215.15,213.503Z" style="fill:rgb(164,225,254);"/>
        <path d="M196.533,242.463C195.742,242.49 195.077,241.87 195.05,241.079C195.023,240.288 195.644,239.624 196.435,239.597C202.796,239.379 229.214,237.507 239.947,236.357C240.734,236.272 241.441,236.843 241.526,237.63C241.61,238.417 241.039,239.124 240.252,239.209C229.468,240.364 202.924,242.245 196.533,242.463Z" style="fill:rgb(164,225,254);"/>
        <path d="M230.544,219.226C231.092,218.654 232,218.635 232.572,219.182C233.144,219.73 233.163,220.638 232.616,221.21C231.083,222.811 231.653,223.217 216.092,243.446C209.788,251.642 208.888,250.9 204.265,260.147C203.911,260.855 203.048,261.143 202.341,260.789C201.633,260.435 201.345,259.573 201.699,258.865C206.447,249.369 207.346,250.113 213.819,241.698C229.553,221.243 228.994,220.845 230.544,219.226Z" style="fill:rgb(164,225,254);"/>
        <path d="M203.473,226.989C202.897,226.446 202.87,225.538 203.412,224.962C203.955,224.386 204.863,224.359 205.44,224.901C229,247.102 231.722,250.193 233.82,252.57C234.343,253.164 234.287,254.071 233.693,254.595C233.1,255.118 232.193,255.062 231.669,254.468C229.585,252.106 226.876,249.041 203.473,226.989Z" style="fill:rgb(164,225,254);"/>
    </g>
    <g transform="matrix(-1,0,0,-1,350.121,325.226)">
        <path d="M215.15,213.503C215.135,212.712 215.765,212.057 216.557,212.042C217.348,212.027 218.003,212.657 218.018,213.449C218.339,230.295 221.582,259.464 222.025,263.453C222.113,264.239 221.545,264.949 220.758,265.036C219.972,265.124 219.262,264.556 219.175,263.77C218.729,259.76 215.473,230.438 215.15,213.503Z" style="fill:rgb(164,225,254);"/>
        <path d="M196.533,242.463C195.742,242.49 195.077,241.87 195.05,241.079C195.023,240.288 195.644,239.624 196.435,239.597C202.796,239.379 229.214,237.507 239.947,236.357C240.734,236.272 241.441,236.843 241.526,237.63C241.61,238.417 241.039,239.124 240.252,239.209C229.468,240.364 202.924,242.245 196.533,242.463Z" style="fill:rgb(164,225,254);"/>
        <path d="M230.544,219.226C231.092,218.654 232,218.635 232.572,219.182C233.144,219.73 233.163,220.638 232.616,221.21C231.083,222.811 231.653,223.217 216.092,243.446C209.788,251.642 208.888,250.9 204.265,260.147C203.911,260.855 203.048,261.143 202.341,260.789C201.633,260.435 201.345,259.573 201.699,258.865C206.447,249.369 207.346,250.113 213.819,241.698C229.553,221.243 228.994,220.845 230.544,219.226Z" style="fill:rgb(164,225,254);"/>
        <path d="M203.473,226.989C202.897,226.446 202.87,225.538 203.412,224.962C203.955,224.386 204.863,224.359 205.44,224.901C229,247.102 231.722,250.193 233.82,252.57C234.343,253.164 234.287,254.071 233.693,254.595C233.1,255.118 232.193,255.062 231.669,254.468C229.585,252.106 226.876,249.041 203.473,226.989Z" style="fill:rgb(164,225,254);"/>
    </g>
</svg>
