<?xml version="1.0" encoding="UTF-8" standalone="no"?>
<!DOCTYPE svg PUBLIC "-//W3C//DTD SVG 1.1//EN" "http://www.w3.org/Graphics/SVG/1.1/DTD/svg11.dtd">
<svg width="100%" height="100%" viewBox="0 0 78 187" version="1.1" xmlns="http://www.w3.org/2000/svg" xmlns:xlink="http://www.w3.org/1999/xlink" xml:space="preserve" xmlns:serif="http://www.serif.com/" style="fill-rule:evenodd;clip-rule:evenodd;stroke-linejoin:round;stroke-miterlimit:2;">
    <g transform="matrix(1,0,0,1,-393.157,-397.325)">
        <g transform="matrix(1,0,0,1,-256,-181.559)">
            <g transform="matrix(1,0,0,1,-95.3657,-6.93341)">
                <g transform="matrix(1,0,0,1,256,181.559)">
                    <path d="M518.619,414.002C518.599,413.567 518.399,413.166 518.177,412.678C517.591,411.384 516.738,409.701 516.52,406.659C516.304,406.48 516.159,406.215 516.14,405.912C516.104,405.331 516.547,404.829 517.129,404.793C524.399,404.343 527.061,404.473 527.924,404.514C528.369,404.536 528.753,404.835 528.883,405.261C529.584,407.564 529.351,411.097 529.378,414.118C531.708,413.835 532.261,414.077 534.984,413.941C535.545,413.913 536.029,414.329 536.087,414.887C536.419,418.095 536.424,424.249 536.424,425.064C536.424,425.581 536.05,426.022 535.54,426.106C534.258,426.318 524.481,427.912 519.325,427.023C513.936,426.093 513.931,426.482 508.478,426.654C508.17,426.664 507.873,426.538 507.665,426.31C507.457,426.083 507.359,425.775 507.397,425.469C507.779,422.39 506.853,419.757 506.805,418.212C506.767,417.006 507.172,416.238 508.016,415.855C508.124,415.805 508.494,415.71 509.062,415.629C510.686,415.397 514.5,414.992 517.014,414.463C517.632,414.333 518.296,414.114 518.619,414.002ZM518.652,406.818C518.88,409.302 519.604,410.711 520.101,411.806C520.583,412.869 520.856,413.724 520.673,414.729L520.507,415.168L520.162,415.561C519.901,415.776 519.411,416.014 518.742,416.211C516.749,416.799 512.775,417.279 510.414,417.58C509.808,417.657 509.209,417.748 508.94,417.791C508.929,417.862 508.914,417.969 508.914,418.049C508.914,418.266 508.938,418.511 508.975,418.781C509.168,420.211 509.66,422.207 509.587,424.501C514.11,424.315 514.5,424.048 519.684,424.942C523.964,425.679 531.57,424.598 534.31,424.166C534.302,422.415 534.263,418.702 534.072,416.086C531.947,416.129 531.395,415.921 528.513,416.371C528.215,416.418 527.912,416.335 527.68,416.144C527.447,415.953 527.307,415.672 527.295,415.371C527.181,412.591 527.537,409.067 527.041,406.593C525.813,406.56 523.364,406.553 518.652,406.818Z"/>
                </g>
                <g transform="matrix(1,0,0,1,256,181.559)">
                    <path d="M518.56,406.464L518.562,406.454L518.819,406.039L519.219,405.77L519.481,405.703L519.735,405.7L519.972,405.751L520.221,405.867L520.444,406.043L520.623,406.256C520.688,406.346 520.769,406.502 520.863,406.711L520.956,406.634L521.271,406.521L521.634,406.513L521.688,406.528L521.755,406.45L522.069,406.253L522.535,406.161L522.835,406.197L523.106,406.289L523.405,406.46L523.641,406.689L523.7,406.778C523.705,406.769 523.709,406.76 523.714,406.752C523.708,406.27 524.03,405.844 524.497,405.72C524.56,405.688 525.144,405.399 525.508,405.303C525.687,405.255 525.866,405.228 526.04,405.224L526.471,405.267L526.854,405.402L527.21,405.642C527.563,405.952 527.933,406.554 527.971,407.746C528.035,409.764 527.947,410.956 527.992,413.149C528.11,413.269 528.201,413.418 528.252,413.59C528.469,414.318 528.641,414.951 528.78,415.514C528.981,415.321 529.257,415.209 529.554,415.221C529.881,415.235 530.169,415.397 530.353,415.641C530.513,415.549 530.699,415.498 530.893,415.5C531.244,415.504 531.563,415.682 531.753,415.961L531.784,415.925L532.032,415.761L532.342,415.649L532.679,415.62L532.865,415.65C532.949,415.388 533.134,415.159 533.399,415.026C533.92,414.766 534.555,414.977 534.815,415.498C534.854,415.575 534.954,415.915 535.009,416.448C535.147,417.792 535.321,421.001 535.197,422.587C535.16,423.058 535.087,423.42 535.006,423.631L534.823,423.971L534.522,424.26L534.097,424.466L533.726,424.528L533.221,424.444L532.996,424.31C532.979,424.473 532.958,424.595 532.936,424.67L532.802,424.973L532.636,425.181L532.297,425.407L531.965,425.487L531.71,425.477L531.491,425.418L531.109,425.168C531.031,425.09 530.959,425.008 530.894,424.924C530.716,425.126 530.46,425.261 530.17,425.28C530.018,425.29 529.87,425.268 529.735,425.218C529.6,425.615 529.234,425.907 528.794,425.931C528.243,425.962 527.762,425.563 527.689,425.016C527.282,421.962 527.363,420.584 527.239,419.04C527.235,419.04 527.231,419.04 527.227,419.041C526.654,419.069 526.163,418.634 526.122,418.061C526.121,418.046 526.12,418.031 526.119,418.015C526.075,417.397 526.039,416.832 526.009,416.31C525.922,416.305 525.837,416.289 525.756,416.264C525.602,416.477 525.369,416.632 525.092,416.684C524.639,416.768 524.197,416.549 523.98,416.165C523.63,416.228 523.283,416.109 523.044,415.869C522.976,415.904 522.902,415.933 522.824,415.953C522.289,416.091 521.741,415.794 521.562,415.276C521.432,415.41 521.266,415.511 521.073,415.562C520.527,415.705 519.964,415.394 519.796,414.855C518.349,410.212 517.636,408.816 517.481,408.253L517.412,407.83L517.449,407.454L517.596,407.092L517.847,406.773C518.045,406.575 518.301,406.473 518.56,406.464ZM520.381,407.406L520.385,407.39C520.381,407.401 520.378,407.413 520.374,407.425L520.381,407.406ZM520.403,407.34L520.413,407.316C520.409,407.324 520.406,407.332 520.403,407.34Z"/>
                </g>
                <g transform="matrix(1,0,0,1,256,181.559)">
                    <path d="M508.669,418.43C508.668,418.415 508.666,418.401 508.665,418.386C508.621,417.805 509.058,417.298 509.639,417.254C510.373,417.199 511.207,417.122 512.099,417.031C513.171,416.716 514.394,416.406 515.641,416.116C515.359,415.914 515.183,415.578 515.199,415.209C515.223,414.656 515.671,414.216 516.224,414.2C520.35,414.086 520.321,414.006 524.416,414.4C524.837,414.44 525.182,414.725 525.314,415.107C525.595,415.156 525.895,415.21 526.215,415.27C526.723,415.364 527.088,415.813 527.078,416.329C527.075,416.497 527.032,416.656 526.959,416.796C527.11,416.952 527.214,417.155 527.246,417.386C527.676,417.444 528.139,417.513 528.641,417.593C529.124,417.67 529.491,418.068 529.528,418.556C529.565,419.043 529.263,419.493 528.797,419.642C528.267,419.811 527.782,419.959 527.331,420.09C528.256,420.05 528.899,420.013 529.326,419.997C529.957,419.973 530.298,420.039 530.433,420.094L530.751,420.286L530.991,420.576L531.116,420.916L531.128,421.247L531.073,421.484L530.964,421.713L530.784,421.941C530.72,422.007 530.624,422.092 530.5,422.191C530.151,422.47 529.573,422.728 528.824,422.957C529.32,423.071 529.67,423.186 529.849,423.29L530.132,423.502L530.352,423.788L530.45,424.027L530.493,424.319L530.465,424.588L530.383,424.824L530.249,425.04L530.045,425.246C529.586,425.614 528.422,425.927 526.96,426.058C524.144,426.309 520.088,426.149 519.527,426.127C515.916,425.982 513.308,425.989 511.538,425.692C509.838,425.408 508.792,424.808 508.213,423.826C507.678,422.92 507.531,421.582 507.866,419.568L508.022,419.119L508.368,418.673C508.45,418.594 508.551,418.513 508.669,418.43Z"/>
                </g>
                <g transform="matrix(1,0,0,1,256,181.559)">
                    <path d="M519.549,426.488C519.605,427.179 519.72,428.833 519.783,431.57C519.791,431.916 519.628,432.244 519.348,432.448C517.81,433.567 514.023,435.535 510.313,436.756C508.804,437.252 507.305,437.618 505.963,437.772C508.092,440.191 511.619,444.435 512.808,447.289C514.95,452.431 514.955,455.552 514.951,457.266C514.95,457.656 514.978,458.118 514.983,458.2C515.235,458.69 515.066,459.299 514.587,459.587C514.087,459.887 513.438,459.724 513.138,459.225C512.968,458.941 512.86,458.52 512.843,457.916C512.806,456.518 513.12,453.529 510.859,448.101C509.31,444.385 503.535,438.211 502.807,437.428C502.498,437.095 502.436,436.601 502.655,436.202C502.873,435.803 503.322,435.589 503.77,435.67C505.29,435.947 507.452,435.474 509.653,434.75C512.801,433.714 516.015,432.116 517.657,431.047C517.572,427.985 517.414,426.687 517.404,426.194L517.441,425.74L517.588,425.376L517.844,425.088L518.234,424.889L518.7,424.86L519.122,425.001C519.642,425.264 519.85,425.9 519.586,426.42C519.575,426.444 519.562,426.466 519.549,426.488Z"/>
                </g>
                <g transform="matrix(1,0,0,1,256,181.559)">
                    <path d="M527.095,426.853C527.117,426.271 527.607,425.815 528.189,425.837C528.772,425.859 529.227,426.349 529.205,426.931C529.077,430.402 529.098,432.091 529.142,432.984C530.877,433.297 532.234,433.874 533.65,434.52C535.887,435.54 538.292,436.736 542.983,437.103C543.372,437.134 543.713,437.377 543.869,437.735C544.024,438.093 543.97,438.508 543.727,438.813C540.648,442.681 539.683,442.05 538.123,446.729C537.978,447.164 537.255,448.291 536.378,449.693C535.227,451.531 533.785,453.919 533.482,455.735C533.114,457.942 532.586,458.832 532.448,459.075C532.158,459.581 531.513,459.757 531.007,459.468C530.501,459.179 530.325,458.533 530.614,458.027C530.723,457.836 531.11,457.126 531.399,455.387C531.685,453.675 532.819,451.489 533.951,449.608C534.956,447.937 535.96,446.539 536.12,446.061C537.563,441.733 538.479,441.593 540.815,438.99C537.757,438.557 535.727,437.769 533.968,436.984C532.03,436.12 530.458,435.242 528.029,434.952C527.538,434.893 527.154,434.503 527.104,434.012C527.045,433.443 526.901,432.099 527.095,426.853Z"/>
                </g>
                <g transform="matrix(1,0,0,1,256,181.559)">
                    <path d="M514.124,459.905C513.561,459.755 513.226,459.176 513.376,458.613C513.525,458.05 514.104,457.714 514.667,457.864C516.283,458.294 516.933,458.17 517.797,458.023C518.508,457.902 519.336,457.77 520.713,457.821C521.571,457.853 523.221,457.913 531.437,457.691C532.02,457.675 532.506,458.135 532.521,458.718C532.537,459.3 532.077,459.786 531.494,459.802C523.174,460.027 521.503,459.964 520.635,459.932C519.14,459.876 518.39,460.075 517.652,460.187C516.757,460.323 515.877,460.371 514.124,459.905Z"/>
                </g>
                <g transform="matrix(1,0,0,1,256,181.559)">
                    <path d="M513.669,434.69C513.813,434.507 514.019,434.37 514.261,434.314C514.335,434.297 514.437,434.274 514.566,434.245C515.176,433.933 515.824,433.583 516.51,433.191C517.765,432.474 518.483,431.993 518.868,431.427C519.104,431.081 519.178,430.706 519.219,430.227C519.277,429.56 519.26,428.739 519.292,427.644C519.308,427.105 519.728,426.664 520.266,426.622C520.835,426.578 520.793,426.602 527.401,426.354C527.708,426.343 528.006,426.466 528.215,426.692C528.424,426.917 528.524,427.223 528.49,427.528C528.163,430.412 528.113,430.387 528.374,433.31C528.403,433.634 528.281,433.953 528.044,434.175C528.004,434.212 527.962,434.245 527.918,434.276C528.509,434.542 529.609,435.027 530.992,435.566C531.212,435.595 531.447,435.626 531.7,435.658C532.008,435.698 532.271,435.868 532.435,436.108C534.835,436.972 537.737,437.836 540.288,438.076C540.545,438.093 540.806,438.111 541.071,438.13C541.081,438.13 541.09,438.131 541.1,438.131C541.676,438.171 542.113,438.667 542.081,439.243C542.049,439.82 541.56,440.264 540.983,440.24C540.973,440.239 540.964,440.239 540.954,440.238C540.703,440.227 540.448,440.21 540.189,440.186C540.055,440.176 539.923,440.167 539.791,440.159C539.777,440.194 539.76,440.23 539.741,440.264C539.032,441.581 539.211,441.801 532.787,454.745L532.926,454.969L532.984,455.259L532.963,455.549L532.863,455.826L532.682,456.08C532.602,456.165 532.371,456.338 531.92,456.49C531.58,457.172 531.224,457.885 530.851,458.631C530.672,458.989 530.307,459.215 529.907,459.215C526.431,459.217 526.484,459.156 523.066,459.536C519.046,459.982 519.088,459.334 515.044,459.43C514.493,459.444 514.025,459.031 513.968,458.484C513.961,458.413 513.961,458.344 513.967,458.275C513.845,458.138 513.758,457.967 513.721,457.774C513.655,457.427 513.767,457.088 513.993,456.849C513.883,456.707 513.808,456.536 513.782,456.345C513.77,456.253 513.77,456.162 513.78,456.074C513.668,455.951 513.584,455.799 513.54,455.626C513.47,455.351 513.515,455.073 513.646,454.844C513.645,454.836 513.645,454.829 513.644,454.821L513.574,453.47L513.577,453.491C513.567,453.34 513.561,452.992 513.504,451.763C513.502,451.727 513.502,451.692 513.504,451.656C513.329,451.371 513.076,451.061 512.705,450.519C512.636,450.418 512.586,450.308 512.556,450.194C512.545,450.176 512.535,450.158 512.525,450.139C511.533,448.265 511.395,448.366 511.052,446.308C510.948,445.689 510.193,444.466 509.62,443.387C509.251,442.691 508.952,442.035 508.803,441.55C508.67,441.542 508.538,441.531 508.393,441.518C507.935,441.475 507.556,441.14 507.459,440.69C507.416,440.491 507.432,440.289 507.498,440.106C507.475,440.107 507.452,440.108 507.428,440.109C506.893,440.126 506.43,439.741 506.349,439.212C506.339,439.146 506.336,439.081 506.338,439.017C506.252,439.003 506.167,438.978 506.084,438.941L505.644,438.67L505.422,438.36L505.32,437.943L505.368,437.59L505.499,437.316L505.735,437.065L506.139,436.873L506.468,436.839C506.95,436.833 509.184,436.845 513.669,434.69ZM527.106,451.66C527.133,451.609 527.16,451.557 527.187,451.505C527.152,451.551 527.118,451.596 527.083,451.64C527.091,451.647 527.099,451.653 527.106,451.66Z"/>
                </g>
                <g transform="matrix(1,0,0,1,256,181.559)">
                    <path d="M508.57,460.839C508.565,460.83 508.561,460.821 508.556,460.811C508.295,460.29 508.507,459.655 509.028,459.395L509.5,459.247L509.91,459.243C510.369,459.29 511.394,459.633 516.323,458.894C523.091,457.879 532.109,458.552 535.844,458.399C536.404,458.377 536.884,458.795 536.938,459.352C537.046,460.464 537.058,460.455 536.946,460.838C536.188,463.414 536.753,464.917 536.746,465.564L536.714,465.899L536.632,466.174L536.498,466.424L536.294,466.657L536.044,466.834L535.789,466.941L535.511,467L535.152,467.009C526.837,466.547 510.104,467.238 509.706,467.195C509.151,467.136 508.737,466.655 508.763,466.097C508.78,465.721 508.913,463.026 508.585,461.389L508.553,460.896L508.57,460.839Z"/>
                </g>
                <g transform="matrix(1,0,0,1,256,181.559)">
                    <path d="M499.533,531.03C499.563,530.939 499.709,530.49 499.861,529.992C501.873,523.362 511.21,490.578 512.199,482.172C512.35,480.886 513.652,469.843 513.75,466.059C513.765,465.477 514.25,465.016 514.832,465.031C515.415,465.046 515.876,465.531 515.861,466.114C515.761,469.943 514.449,481.117 514.296,482.419C513.3,490.888 503.909,523.925 501.881,530.606C501.658,531.34 501.511,531.784 501.467,531.883L501.238,532.222C500.826,532.634 500.156,532.634 499.744,532.222C499.422,531.9 499.352,531.421 499.533,531.03Z"/>
                </g>
                <g transform="matrix(1,0,0,1,256,181.559)">
                    <path d="M531.387,465.882C531.501,465.311 532.058,464.939 532.629,465.054C533.201,465.168 533.572,465.725 533.457,466.296C533.418,466.491 533.473,466.604 533.53,467.039C533.659,468.003 533.903,470.029 534.119,475.11C534.449,482.858 535.692,482.729 536.045,495.424C536.062,496.052 539.343,513.206 539.637,514.751C541.779,525.997 544.093,528.016 545.362,530.13C545.662,530.63 545.499,531.279 545,531.579C544.5,531.879 543.851,531.716 543.551,531.217C542.225,529.007 539.801,526.899 537.562,515.146C537.263,513.575 533.952,496.122 533.934,495.482C533.582,482.807 532.338,482.936 532.009,475.2C531.762,469.405 531.482,467.675 531.383,466.916C531.32,466.424 531.323,466.202 531.387,465.882Z"/>
                </g>
                <g transform="matrix(1,0,0,1,256,181.559)">
                    <path d="M500.434,528.359C500.614,527.804 501.209,527.5 501.764,527.679C502.318,527.859 502.623,528.454 502.443,529.009C501.584,531.664 499.854,534.571 498.153,538.094C495.704,543.169 493.33,549.578 494.018,558.522C495.002,571.315 504.645,574.312 506.199,574.79C506.805,574.977 506.796,574.698 513.942,576.484C514.507,576.625 514.851,577.199 514.71,577.764C514.569,578.33 513.995,578.674 513.429,578.533C506.182,576.721 506.193,576.998 505.578,576.809C503.843,576.275 493.011,572.972 491.912,558.684C491.188,549.269 493.673,542.518 496.251,537.176C497.903,533.754 499.6,530.937 500.434,528.359Z"/>
                </g>
                <g transform="matrix(1,0,0,1,256,181.559)">
                    <path d="M514.94,576.629C514.978,576.646 515.387,576.824 515.723,576.918C516.606,577.163 517.895,577.386 519.418,577.582C525.45,578.358 535.106,578.7 538.193,577.877C541.731,576.933 545.029,576.409 547.803,575.478C551.626,574.195 554.363,572.073 555.149,566.571C557.294,551.561 552.85,543.996 547.988,537.147C544.598,532.372 541.033,527.918 539.167,521.723C538.999,521.165 539.315,520.576 539.873,520.408C540.431,520.24 541.02,520.556 541.189,521.114C542.984,527.071 546.45,531.333 549.71,535.925C554.823,543.128 559.495,551.084 557.24,566.87C556.303,573.428 553.032,575.951 548.475,577.48C545.664,578.424 542.323,578.961 538.737,579.917C535.517,580.776 525.442,580.486 519.149,579.677C517.211,579.428 515.624,579.126 514.679,578.806C514.086,578.605 513.685,578.361 513.473,578.148C513.061,577.736 513.061,577.067 513.473,576.655C513.876,576.252 514.526,576.243 514.94,576.629Z"/>
                </g>
                <g transform="matrix(1,0,0,1,256,181.559)">
                    <path d="M496.934,571.928C497.288,571.465 497.951,571.377 498.414,571.731C498.877,572.085 498.965,572.749 498.611,573.211C496.153,576.424 492.178,587.195 491.712,588.45C491.509,588.996 490.901,589.275 490.354,589.072C489.808,588.869 489.529,588.261 489.732,587.715C490.216,586.413 494.384,575.261 496.934,571.928Z"/>
                </g>
                <g transform="matrix(1,0,0,1,256,181.559)">
                    <path d="M490.671,589.126C490.095,589.039 489.698,588.5 489.785,587.924C489.872,587.348 490.411,586.951 490.987,587.038C497.903,588.086 516.609,586.73 527.852,587.456C534.301,587.872 542.21,588.412 561.867,586.868L561.908,586.724C562.068,586.164 562.653,585.839 563.214,585.999C563.774,586.159 564.099,586.744 563.939,587.304L563.696,588.152C563.575,588.576 563.204,588.88 562.765,588.915C542.396,590.545 534.301,589.988 527.716,589.563C516.418,588.834 497.62,590.179 490.671,589.126Z"/>
                </g>
                <g transform="matrix(1,0,0,1,256,181.559)">
                    <path d="M553.205,573.662C552.793,573.25 552.793,572.581 553.205,572.169C553.617,571.757 554.286,571.757 554.698,572.169C554.972,572.442 563.825,585.675 564.311,586.161C564.723,586.573 564.723,587.242 564.311,587.654C563.899,588.066 563.23,588.066 562.818,587.654C562.332,587.168 553.479,573.936 553.205,573.662Z"/>
                </g>
                <g transform="matrix(1,0,0,1,256,181.559)">
                    <path d="M507.734,576.296L508.195,576.113L508.516,576.102L508.772,576.16L509.081,576.328L509.303,576.557L509.439,576.804L509.515,577.085L509.494,577.682C509.46,577.885 509.422,578.079 509.382,578.264C509.673,578.007 509.99,577.736 510.339,577.445C510.738,577.112 511.32,577.119 511.711,577.461C512.034,577.744 512.147,578.187 512.021,578.58C512.186,578.453 512.317,578.377 512.413,578.333L512.895,578.215L513.208,578.249L513.449,578.342L513.725,578.547L513.911,578.802L514.01,579.064L514.023,579.177C514.239,578.936 514.469,578.68 514.715,578.405C515.075,578.005 515.678,577.939 516.116,578.252C516.33,578.405 516.47,578.624 516.528,578.864C516.553,578.894 516.577,578.926 516.598,578.959C516.738,578.848 516.874,578.744 517.006,578.648C517.951,577.966 518.798,577.674 519.451,577.739L519.769,577.796L520.069,577.916L520.448,578.237L520.633,578.574L520.702,578.92L520.688,579.113C520.762,579.065 520.838,579.017 520.916,578.967C521.343,578.695 521.903,578.765 522.251,579.134C522.324,579.211 522.383,579.297 522.428,579.388C522.694,579.169 522.886,579.029 522.994,578.967L523.265,578.848L523.536,578.798L523.992,578.871L524.252,579.018L524.479,579.257L524.631,579.582L524.666,579.955L524.611,580.221L524.494,580.463C524.848,580.337 525.256,580.405 525.553,580.669C525.58,580.694 525.607,580.72 525.631,580.747C525.769,580.63 525.896,580.526 526.014,580.432C526.612,579.957 527.027,579.731 527.293,579.641L527.696,579.557L528.047,579.579L528.373,579.694L528.576,579.841C528.961,579.577 529.489,579.593 529.86,579.911C530.196,580.199 530.307,580.654 530.173,581.051C531.538,579.91 532.878,578.813 533.895,578.027C534.811,577.319 535.514,576.855 535.804,576.741L536.171,576.651L536.477,576.664L536.857,576.808L537.114,577.027L537.268,577.262L537.349,577.494L537.374,577.831L537.311,578.129C537.258,578.285 537.076,578.614 536.671,579.098C536.568,579.221 536.447,579.361 536.307,579.518C536.326,579.537 536.345,579.556 536.363,579.576C536.728,579.978 536.728,580.591 536.364,580.994C531.709,586.138 531.457,586.67 531.229,587.278C531.025,587.824 530.416,588.101 529.87,587.896C529.6,587.795 529.396,587.595 529.283,587.352C529.224,587.402 529.163,587.453 529.101,587.505C528.186,588.267 527.68,588.539 527.542,588.574L527.083,588.594L526.735,588.471L526.533,588.323L526.366,588.126L526.206,587.722L526.194,587.449L526.24,587.206L526.277,587.14C525.765,587.582 525.437,587.867 525.38,587.918C524.99,588.256 524.416,588.262 524.02,587.94C523.654,588.141 523.189,588.112 522.846,587.834C522.501,587.553 522.378,587.098 522.504,586.697C522.102,587.109 521.674,587.551 521.218,588.024C520.831,588.426 520.197,588.458 519.772,588.095C519.7,588.034 519.638,587.964 519.586,587.889C518.973,588.464 518.835,588.591 518.598,588.829C518.219,589.207 517.617,589.243 517.197,588.911C516.776,588.579 516.671,587.985 516.952,587.529C516.969,587.5 516.991,587.466 517.015,587.426C516.878,587.414 516.743,587.376 516.616,587.31C516.353,587.475 516.068,587.65 515.751,587.838C515.001,588.324 514.464,588.637 514.218,588.781C514.056,588.875 513.873,588.924 513.686,588.924L513.579,588.924C513.186,588.924 512.834,588.708 512.652,588.375C512.452,588.341 512.26,588.249 512.103,588.099C511.967,587.97 511.874,587.813 511.822,587.646C511.605,587.938 511.372,588.254 511.12,588.598C510.8,589.037 510.198,589.161 509.73,588.884C509.545,588.775 509.404,588.616 509.316,588.434C508.037,589.508 507.365,589.997 507.152,590.082L506.752,590.168L506.386,590.119L506.045,589.94L505.769,589.619L505.661,589.346L505.632,589.032L505.665,588.818C505.482,588.816 505.297,588.767 505.13,588.666C504.888,588.52 504.724,588.291 504.656,588.036C504.329,588.528 503.972,589.059 503.578,589.635C503.291,590.057 502.743,590.212 502.277,590.004C501.811,589.796 501.56,589.285 501.681,588.79C501.918,587.818 502.17,586.975 502.432,586.237C501.664,587.25 500.811,588.376 499.865,589.626C499.554,590.037 498.992,590.163 498.535,589.924C498.078,589.686 497.86,589.152 498.019,588.662C498.161,588.227 498.307,587.808 498.458,587.402C498.135,587.869 497.794,588.358 497.434,588.87C497.137,589.293 496.578,589.438 496.112,589.214C495.646,588.99 495.412,588.461 495.557,587.965L495.641,587.682L495.286,588.166C494.976,588.589 494.402,588.719 493.939,588.472C493.726,588.359 493.566,588.181 493.473,587.975C493.365,588.158 493.254,588.346 493.139,588.539C492.857,589.013 492.259,589.19 491.765,588.946C491.271,588.703 491.047,588.12 491.251,587.608C492.112,585.448 497.558,574.237 497.859,573.485C498.075,572.944 498.69,572.68 499.232,572.897C499.773,573.113 500.036,573.728 499.82,574.269C499.805,574.307 499.776,574.371 499.736,574.461C499.984,574.177 500.247,573.88 500.524,573.569C500.873,573.178 501.455,573.101 501.892,573.389C502.33,573.677 502.491,574.241 502.27,574.716C501.874,575.568 501.51,576.302 501.171,576.949C501.665,576.397 502.224,575.783 502.87,575.083C503.236,574.686 503.843,574.63 504.276,574.953C504.71,575.275 504.829,575.873 504.554,576.338L504.496,576.438C505,576.043 505.54,575.674 506.137,575.316C506.57,575.056 507.126,575.139 507.464,575.513C507.663,575.733 507.754,576.017 507.734,576.296Z"/>
                </g>
                <g transform="matrix(1,0,0,1,256,181.559)">
                    <path d="M528.391,585.913C528.864,585.919 529.363,585.923 529.887,585.925C529.429,585.864 529.051,585.505 528.982,585.028C528.956,584.85 528.977,584.676 529.034,584.517C528.851,584.366 528.718,584.153 528.67,583.902C528.563,583.344 528.917,582.801 529.471,582.674C529.818,582.594 530.159,582.517 530.495,582.442C530.111,582.305 529.826,581.949 529.797,581.518C529.759,580.951 530.177,580.456 530.743,580.397C533.652,580.098 541.432,578.527 546.539,577.025C548.559,576.43 550.144,575.893 550.709,575.418C552.307,574.076 553.437,573.787 554.235,573.96C554.72,574.065 555.151,574.33 555.535,574.762C555.861,574.823 556.15,575.036 556.299,575.356C556.367,575.503 556.398,575.659 556.396,575.811C556.817,575.807 557.215,576.055 557.384,576.463C557.565,576.902 557.43,577.396 557.077,577.685C557.342,578.274 557.642,578.91 558.009,579.568C558.33,579.539 558.514,579.536 558.584,579.548L558.869,579.638L559.086,579.772L559.313,580.022L559.437,580.284L559.485,580.66L559.42,580.976L559.175,581.359L559.162,581.368C559.219,581.448 559.275,581.525 559.329,581.598C559.513,581.724 559.653,581.907 559.727,582.119C560.679,583.313 561.19,583.58 562.534,585.548C562.73,585.835 562.772,586.199 562.647,586.523C562.522,586.847 562.245,587.089 561.907,587.17C561.142,587.353 540.462,588.065 529.693,588.025C529.584,588.058 529.468,588.074 529.347,588.069C529.346,588.069 529.345,588.069 529.343,588.069C529.156,588.062 528.974,588.054 528.796,588.047L527.867,588.009C526.203,587.985 524.9,587.936 524.12,587.854C523.827,587.824 523.574,587.676 523.404,587.462C522.807,587.383 522.094,587.299 521.169,587.211C519.387,587.041 505.722,588.059 498.874,588.283C498.292,588.302 497.803,587.845 497.784,587.262C497.765,586.68 498.222,586.192 498.805,586.172C505.735,585.945 519.565,584.937 521.369,585.109C525.057,585.46 525.33,585.749 528.391,585.913ZM531.241,585.927C531.223,585.895 531.207,585.862 531.192,585.828C530.826,585.86 530.482,585.892 530.16,585.926C530.511,585.927 530.871,585.927 531.241,585.927Z"/>
                </g>
                <g transform="matrix(1,0,0,1,256,181.559)">
                    <path d="M501.956,575.515C502.491,575.746 502.738,576.368 502.507,576.903C502.276,577.438 501.654,577.684 501.119,577.453L500.77,577.303C500.235,577.072 499.989,576.45 500.22,575.915C500.451,575.38 501.073,575.133 501.608,575.364L501.956,575.515Z"/>
                </g>
                <g transform="matrix(1,0,0,1,256,181.559)">
                    <path d="M489.712,590.203C489.592,590.219 489.466,590.213 489.341,590.184C488.773,590.053 488.419,589.485 488.55,588.918L488.677,588.606L488.898,588.348L489.12,588.204L489.506,588.1C489.636,588.088 490.327,588.083 491.482,588.088C502.435,588.136 557.368,588.863 563.177,587.895C563.752,587.799 564.296,588.188 564.392,588.763C564.488,589.338 564.099,589.882 563.524,589.978C557.687,590.951 502.48,590.248 491.473,590.199C490.531,590.195 489.835,590.202 489.712,590.203Z" style="fill:rgb(237,236,218);"/>
                </g>
                <g transform="matrix(1,0,0,1,256,181.559)">
                    <path d="M495.826,571.958C496.071,571.429 496.699,571.198 497.228,571.442C497.757,571.687 497.988,572.315 497.743,572.844C497.451,573.477 497.73,573.574 494.69,581.005C492.548,586.242 491.736,587.737 491.385,588.397C491.294,588.568 491.243,588.642 491.212,588.765C491.071,589.331 490.497,589.675 489.932,589.534C489.367,589.392 489.022,588.819 489.164,588.253C489.335,587.57 489.663,587.716 492.735,580.206C495.808,572.694 495.531,572.598 495.826,571.958Z" style="fill:rgb(237,236,218);"/>
                </g>
                <g transform="matrix(1,0,0,1,256,181.559)">
                    <path d="M553.988,573.179C553.59,572.753 553.612,572.084 554.038,571.686C554.463,571.288 555.132,571.31 555.53,571.736C559.418,575.891 566.169,587.586 566.254,587.797C566.47,588.338 566.206,588.953 565.665,589.169C565.124,589.386 564.509,589.122 564.293,588.581C564.212,588.379 557.719,577.166 553.988,573.179Z" style="fill:rgb(237,236,218);"/>
                </g>
                <g transform="matrix(1,0,0,1,256,181.559)">
                    <path d="M553.279,571.781C553.693,571.438 554.31,571.46 554.698,571.849C555.11,572.261 555.11,572.93 554.698,573.342C554.611,573.429 554.074,573.793 553.122,574.267C549.952,575.847 541.517,579.348 531.755,579.525C508.234,579.953 504.896,576.232 496.427,572.938C495.884,572.727 495.615,572.115 495.826,571.572C496.037,571.029 496.65,570.759 497.193,570.97C505.469,574.189 508.73,577.832 531.717,577.414C541.066,577.244 549.144,573.89 552.18,572.377C552.743,572.097 553.213,571.82 553.279,571.781Z" style="fill:rgb(237,236,218);"/>
                </g>
                <g transform="matrix(1,0,0,1,256,181.559)">
                    <path d="M517.053,466.618C517.243,466.491 517.474,466.426 517.717,466.444C517.94,466.461 518.142,466.546 518.304,466.678C518.484,466.58 518.693,466.533 518.91,466.553C518.965,466.558 519.019,466.567 519.071,466.58L519.172,466.143C519.291,465.628 519.773,465.281 520.299,465.33C520.826,465.38 521.234,465.811 521.256,466.339C521.256,466.346 521.256,466.352 521.257,466.359C521.366,466.335 521.481,466.328 521.598,466.341C521.827,466.366 522.033,466.464 522.194,466.61C522.415,466.263 522.826,466.066 523.251,466.134C523.374,466.154 523.489,466.194 523.593,466.251C523.819,466.067 524.119,465.978 524.425,466.027C524.515,466.041 524.6,466.067 524.68,466.101L524.752,465.884C524.915,465.392 525.411,465.091 525.923,465.173C526.232,465.223 526.493,465.405 526.65,465.655L526.701,465.631L527.036,465.587L527.5,465.666L527.816,465.844L528.021,466.094C528.191,466.024 528.38,465.997 528.571,466.024C528.652,466.036 528.73,466.056 528.803,466.084C528.815,466.035 528.827,465.988 528.838,465.943C528.949,465.505 529.087,465.229 529.16,465.13L529.35,464.93L529.612,464.769L530.074,464.682L530.51,464.791L530.701,464.911L530.881,465.091L531.021,465.318L531.117,465.615C531.141,465.73 531.162,465.939 531.175,466.258C531.621,466.313 531.98,466.643 532.077,467.075C532.396,467.225 532.631,467.53 532.677,467.9C533.007,470.545 533.159,476.185 533.348,479.814C533.368,480.149 533.38,480.381 533.389,480.56C533.402,480.776 533.415,480.983 533.428,481.178C533.429,481.186 533.43,481.195 533.43,481.203C533.467,481.741 533.094,482.214 532.575,482.312C532.537,482.85 532.096,483.278 531.55,483.292C530.99,483.307 530.517,482.881 530.47,482.325C530.269,482.536 529.982,482.662 529.669,482.651C529.34,482.639 529.051,482.478 528.866,482.235C528.715,482.304 528.546,482.339 528.369,482.33C528.31,482.327 528.253,482.319 528.198,482.307L528.192,482.362C528.126,482.915 527.641,483.321 527.085,483.291C526.969,483.284 526.857,483.259 526.754,483.218C526.606,483.655 526.182,483.956 525.701,483.932C525.542,483.924 525.392,483.881 525.259,483.81C525.178,484.631 525.09,485.552 524.99,486.608C524.938,487.165 524.46,487.584 523.901,487.564C523.775,487.559 523.656,487.533 523.545,487.489C523.479,487.675 523.404,487.82 523.327,487.934L523.115,488.185L522.827,488.396L522.501,488.526L522.197,488.572C522.014,488.582 521.799,488.557 521.547,488.494L521.2,488.34L521.101,488.246C520.925,488.361 520.714,488.426 520.488,488.419C519.951,488.402 519.516,487.985 519.47,487.458C519.451,487.458 519.433,487.458 519.415,487.457C518.858,487.437 518.413,486.988 518.398,486.432C518.387,486.046 518.377,485.679 518.368,485.331C518.05,485.183 517.818,484.881 517.767,484.522C517.59,484.632 517.379,484.691 517.157,484.68C516.601,484.651 516.162,484.196 516.154,483.64C516.152,483.472 516.15,483.309 516.148,483.151C515.832,482.968 515.62,482.626 515.62,482.237L515.62,475.508C515.62,475.151 515.798,474.835 516.07,474.643L516.239,471.79C516.067,471.608 515.959,471.366 515.95,471.099L515.934,470.645C515.668,470.441 515.504,470.115 515.521,469.758L515.621,467.556C515.647,466.992 516.112,466.548 516.676,466.548C516.809,466.548 516.936,466.573 517.053,466.618ZM522.833,472.071L522.797,472.059C522.791,472.229 522.785,472.408 522.779,472.596C522.797,472.423 522.814,472.248 522.833,472.071Z"/>
                </g>
                <g transform="matrix(1,0,0,1,256,181.559)">
                    <path d="M515.387,475.326C515.545,473.771 515.727,472.198 515.875,470.979C515.838,470.84 515.828,470.691 515.852,470.539C516.063,469.201 516.167,468.594 516.188,468.519L516.283,468.281L516.471,468.033L516.839,467.799L517.226,467.732L517.646,467.827L518.012,468.102L518.226,468.501L518.259,468.93C518.214,469.424 517.617,473.811 517.301,477.52C517.253,478.083 516.769,478.509 516.204,478.485C515.639,478.461 515.193,477.996 515.193,477.43L515.193,475.935C515.193,475.708 515.265,475.498 515.387,475.326Z"/>
                </g>
                <g transform="matrix(1,0,0,1,256,181.559)">
                    <path d="M514.872,470.808C514.873,470.795 514.873,470.782 514.873,470.77C514.894,470.194 515.372,469.742 515.948,469.753C516.23,469.758 516.485,469.873 516.671,470.058C517.11,470.228 517.396,470.68 517.337,471.169L516.977,474.139C516.96,474.273 516.92,474.399 516.859,474.511C516.623,482.027 516.722,482.82 516.017,489.398C515.955,489.978 515.434,490.398 514.855,490.336C514.275,490.274 513.855,489.753 513.917,489.173C514.715,481.725 514.472,481.753 514.872,470.808Z"/>
                </g>
                <g transform="matrix(1,0,0,1,256,181.559)">
                    <path d="M514.345,480.503C514.307,479.949 514.267,479.593 514.291,479.356L514.432,478.814L514.684,478.435L515.02,478.164L515.49,477.968C516.05,477.807 516.635,478.132 516.796,478.692C516.886,479.005 516.824,479.327 516.653,479.577C516.592,480.076 516.533,480.556 516.476,481.018C516.512,481.756 516.527,482.762 516.432,484.143C516.593,483.585 516.764,482.996 516.943,482.372C517.095,481.842 517.63,481.519 518.17,481.629C518.71,481.74 519.074,482.248 519.006,482.795C518.351,488.028 517.8,493.072 517.434,496.563C517.506,496.732 517.535,496.922 517.509,497.117L516.98,501.031L516.975,501.069C516.898,501.64 516.378,502.043 515.806,501.976C515.465,501.937 515.181,501.738 515.018,501.463C514.896,502.86 514.771,504.461 514.632,506.346C514.589,506.919 514.097,507.352 513.524,507.323C512.951,507.293 512.506,506.811 512.523,506.237C512.573,504.562 512.617,503.093 512.658,501.781C510.814,507.745 509.058,511.569 507.093,516.888C506.9,517.409 506.335,517.692 505.802,517.534C505.268,517.375 504.949,516.83 505.073,516.288C507.717,504.652 510.138,505.075 514.345,480.503Z"/>
                </g>
                <g transform="matrix(1,0,0,1,256,181.559)">
                    <path d="M512.997,509.487C512.877,509.29 512.82,509.051 512.852,508.804L514.026,499.625L514.027,499.619C514.101,499.042 514.627,498.633 515.205,498.705C515.232,498.709 515.259,498.713 515.285,498.718C515.874,495.168 516.09,494.932 516.18,494.421C516.251,494.012 516.552,493.696 516.931,493.588C516.958,493.363 516.987,493.131 517.017,492.893C517.067,492.491 517.338,492.169 517.695,492.035C517.804,490.04 517.991,487.77 518.267,483.864C518.308,483.283 518.814,482.844 519.395,482.886C519.812,482.915 520.155,483.183 520.301,483.547C520.315,483.547 520.328,483.548 520.342,483.549C520.889,483.582 521.319,484.028 521.333,484.576L521.392,486.863C521.55,486.154 521.733,485.402 521.948,484.458C522.068,483.936 522.558,483.586 523.09,483.643C523.441,483.681 523.736,483.887 523.899,484.177C524.247,483.089 524.61,482.165 524.955,480.98C525.102,480.473 525.603,480.152 526.126,480.231C526.233,480.247 526.334,480.279 526.427,480.324C526.472,480.244 526.515,480.177 526.557,480.122L526.757,479.906L526.965,479.759L527.374,479.62L527.851,479.652L528.158,479.79L528.442,480.038L528.654,480.369C528.708,480.482 528.76,480.623 528.804,480.79C528.853,480.974 528.896,481.136 528.933,481.311C529.133,481.148 529.391,481.059 529.665,481.076C530.198,481.109 530.623,481.535 530.654,482.068L530.766,483.981L530.906,483.04C530.974,482.588 531.321,482.242 531.753,482.16C531.71,481.564 531.691,481.153 531.708,480.88C531.718,480.716 531.738,480.58 531.764,480.469L531.873,480.152L532.064,479.853L532.381,479.585L532.662,479.462L532.924,479.413L533.299,479.429C533.407,479.447 533.532,479.479 533.672,479.526C534.208,479.705 534.535,479.947 534.75,480.226L535.021,480.747C535.087,480.957 535.122,481.201 535.112,481.496C535.084,482.355 534.517,484.011 534.272,487.592C534.299,487.999 534.326,488.43 534.353,488.884C534.617,491.235 534.609,492.754 534.714,497.158C534.714,497.16 534.714,497.162 534.714,497.164C534.72,497.424 534.632,497.664 534.481,497.851C534.746,500.901 535.199,504.507 535.919,508.775C536.347,511.101 536.858,513.8 537.469,516.947C537.47,516.951 537.471,516.956 537.472,516.961C537.583,517.531 537.213,518.083 536.644,518.197C536.075,518.312 535.52,517.946 535.402,517.378C535.401,517.373 535.4,517.369 535.399,517.364C534.774,514.371 534.257,511.625 533.832,509.106C533.566,507.661 533.332,506.359 533.125,505.183C532.987,507.758 532.79,510.682 532.469,515.734C532.434,516.297 531.962,516.732 531.398,516.723C530.834,516.713 530.377,516.262 530.36,515.699C530.359,515.646 530.357,515.594 530.355,515.542C530.316,515.546 530.276,515.548 530.236,515.548C529.68,515.546 529.221,515.113 529.187,514.558C529.111,513.339 529.044,512.241 528.988,511.241C528.813,512.216 528.617,513.286 528.395,514.473C528.295,515.005 527.809,515.376 527.269,515.331C526.729,515.286 526.311,514.84 526.301,514.298C526.286,513.462 526.268,512.698 526.249,511.997L525.949,514.511C525.883,515.063 525.399,515.47 524.844,515.44C524.638,515.429 524.449,515.359 524.292,515.249C524.24,515.667 524.167,515.924 524.097,516.058L523.9,516.337L523.665,516.53L523.404,516.65L523.126,516.701L522.793,516.672L522.466,516.546C522.329,516.471 522.139,516.322 521.911,516.093C521.841,516.023 521.77,515.938 521.702,515.836C521.695,515.919 521.687,516.002 521.679,516.085C521.628,516.637 521.158,517.056 520.604,517.043C520.05,517.031 519.599,516.591 519.573,516.037C519.515,514.807 519.464,513.72 519.42,512.737C519.268,513.994 519.097,515.418 518.899,517.074C518.834,517.62 518.36,518.025 517.81,518.004C517.261,517.983 516.819,517.543 516.796,516.993C516.793,516.931 516.791,516.868 516.788,516.806C516.654,516.856 516.507,516.88 516.355,516.87C515.779,516.834 515.339,516.343 515.366,515.767C515.367,515.756 515.368,515.745 515.368,515.734C515.393,515.208 515.444,514.11 515.513,512.53C515.275,514.456 515.016,516.602 514.734,518.995C514.668,519.557 514.17,519.967 513.605,519.924C513.041,519.881 512.611,519.4 512.63,518.835C512.792,514.195 512.851,511.792 512.997,509.487ZM518.437,503.551C518.427,503.549 518.417,503.546 518.407,503.543C518.399,503.646 518.392,503.749 518.384,503.853C518.385,503.885 518.385,503.916 518.386,503.948C518.403,503.816 518.42,503.684 518.437,503.551ZM528.371,500.868C528.334,500.912 528.293,500.952 528.249,500.989C528.23,501.476 528.214,501.936 528.203,502.375C528.262,501.876 528.317,501.378 528.371,500.868ZM524.626,491.915C524.654,491.733 524.683,491.55 524.712,491.366C524.729,491.257 524.762,491.154 524.808,491.06C524.81,490.761 524.812,490.465 524.814,490.165C524.748,490.702 524.685,491.283 524.626,491.915Z"/>
                </g>
                <g transform="matrix(1,0,0,1,256,181.559)">
                    <path d="M504.178,520.362C504.357,519.473 504.491,518.822 504.604,518.329C504.914,516.97 505.093,516.636 505.437,516.086C505.484,516.01 505.54,515.942 505.602,515.883C506.24,513.921 506.992,511.658 507.879,509.028C508.058,508.498 508.619,508.199 509.159,508.347C509.363,508.404 509.538,508.516 509.669,508.665C510.435,506.297 511.354,503.541 512.473,500.266C512.655,499.731 513.227,499.435 513.769,499.594C514.312,499.753 514.632,500.311 514.497,500.86C514.324,501.561 514.157,502.23 513.996,502.869C514.143,502.852 514.297,502.867 514.447,502.917C515,503.101 515.299,503.699 515.114,504.252C510.694,517.512 509.491,521.323 508.866,525.586C508.655,527.303 508.444,529.265 508.222,531.574C508.221,531.574 508.221,531.575 508.221,531.576C508.165,532.156 507.65,532.581 507.07,532.526C506.49,532.47 506.064,531.956 506.119,531.375C506.119,531.375 506.125,531.317 506.125,531.317L506.067,531.589C505.95,532.134 505.43,532.494 504.879,532.412C504.495,532.355 504.188,532.097 504.053,531.758C503.946,532.283 503.835,532.829 503.719,533.395C503.607,533.944 503.086,534.309 502.532,534.228C501.978,534.147 501.583,533.648 501.633,533.09C501.973,529.259 501.764,528.206 504.178,520.362Z"/>
                </g>
                <g transform="matrix(1,0,0,1,256,181.559)">
                    <path d="M516.043,503.723C516.09,503.728 516.137,503.737 516.184,503.748C516.727,503.884 517.07,504.419 516.966,504.969C516.867,505.493 516.77,505.998 516.675,506.484C516.929,506.23 517.305,506.114 517.674,506.204C518.191,506.33 518.534,506.821 518.473,507.35C517.179,518.564 516.586,519.311 515.374,528.883C515.385,528.973 515.385,529.066 515.373,529.161L515.055,531.492L515.052,531.51C514.974,532.085 514.447,532.488 513.873,532.415C513.298,532.342 512.889,531.819 512.957,531.244C512.958,531.237 512.959,531.231 512.96,531.225C513.841,523.787 514.399,520.97 515.026,517.083C513.59,521.734 513.248,524.731 511.735,533.47C511.639,534.03 511.117,534.412 510.554,534.337C509.992,534.261 509.59,533.754 509.644,533.189C509.683,532.777 509.723,532.377 509.762,531.988C509.668,532 509.571,532 509.472,531.985C508.906,531.901 508.509,531.381 508.579,530.813C510.92,511.615 513.128,505.962 513.889,503.557C514.095,502.906 514.215,502.638 514.022,502.229C513.773,501.702 513.999,501.072 514.526,500.823C515.053,500.574 515.683,500.8 515.932,501.327C516.297,502.1 516.339,502.65 516.043,503.723Z"/>
                </g>
                <g transform="matrix(1,0,0,1,256,181.559)">
                    <path d="M524.318,489.282C524.531,488.74 525.145,488.473 525.687,488.687C526.229,488.901 526.496,489.515 526.282,490.057C526.155,490.378 526.204,490.502 526.329,491.055C526.465,491.656 526.69,492.569 527.003,494.094C527.12,494.664 526.751,495.223 526.181,495.34C525.61,495.457 525.051,495.089 524.934,494.518C524.545,492.619 524.291,491.674 524.178,491.095C524.011,490.239 524.064,489.925 524.318,489.282Z"/>
                </g>
                <g transform="matrix(1,0,0,1,256,181.559)">
                    <path d="M529.97,481.735C529.958,481.153 530.422,480.67 531.004,480.659C531.587,480.647 532.069,481.111 532.081,481.693C532.13,484.14 532.132,484.08 532.461,486.471C532.541,487.049 532.137,487.582 531.56,487.662C530.982,487.741 530.449,487.337 530.37,486.76C530.023,484.245 530.021,484.308 529.97,481.735Z"/>
                </g>
                <g transform="matrix(1,0,0,1,256,181.559)">
                    <path d="M527.545,500.414C527.575,499.832 528.072,499.384 528.654,499.414C529.236,499.444 529.684,499.941 529.654,500.523C529.53,502.926 529.714,502.831 530.008,505.401C530.074,505.98 529.658,506.503 529.079,506.569C528.5,506.636 527.976,506.219 527.91,505.64C527.595,502.887 527.412,502.988 527.545,500.414Z"/>
                </g>
                <g transform="matrix(1,0,0,1,256,181.559)">
                    <path d="M522.07,510.748C522.059,510.648 522.048,510.549 522.036,510.453C521.971,509.909 522.332,509.405 522.868,509.293C523.128,509.239 523.387,509.285 523.603,509.407C523.465,508.351 523.366,507.319 523.312,506.325C523.282,505.765 523.695,505.279 524.253,505.218C524.811,505.158 525.318,505.545 525.408,506.099C525.49,506.602 525.568,507.091 525.643,507.568C525.78,507.463 525.944,507.389 526.126,507.361C526.393,507.319 526.653,507.382 526.863,507.518C527.011,507.338 527.22,507.207 527.465,507.156C527.566,507.136 527.668,507.13 527.766,507.138C527.743,506.967 527.721,506.793 527.698,506.616C527.626,506.052 528.013,505.532 528.575,505.44C529.136,505.348 529.669,505.717 529.781,506.275C529.836,506.549 529.942,507.143 530.092,507.969C530.037,507.512 529.985,507.052 529.938,506.589C529.881,506.037 530.262,505.536 530.809,505.441C531.068,505.397 531.322,505.45 531.532,505.576C531.501,505.127 531.469,504.677 531.431,504.218C531.385,503.654 531.791,503.155 532.352,503.084C532.556,503.059 532.754,503.093 532.928,503.174C532.975,502.691 533.35,502.294 533.844,502.23C533.976,502.213 534.106,502.222 534.228,502.251C534.072,501.369 533.95,500.664 533.873,500.186C533.78,499.609 533.767,499.262 533.775,499.197L533.877,498.854L534.141,498.513L534.381,498.36L534.696,498.269L534.979,498.272L535.301,498.374L535.604,498.602L535.778,498.853C535.862,499.022 535.897,499.202 535.888,499.377C535.902,499.48 535.929,499.669 535.958,499.851C536.683,504.358 541.409,529.165 541.852,531.491C541.957,532.041 541.613,532.578 541.069,532.713C540.775,532.786 540.477,532.728 540.24,532.574C540.11,532.732 539.933,532.853 539.724,532.915C539.393,533.012 539.051,532.94 538.793,532.747C538.674,532.868 538.525,532.962 538.353,533.016C537.836,533.178 537.28,532.922 537.067,532.424C536.822,531.852 536.596,531.317 536.386,530.811L536.06,530.985L536.017,530.991C536.088,531.236 536.16,531.485 536.232,531.738C536.384,532.262 536.11,532.815 535.602,533.014C535.373,533.103 535.13,533.107 534.91,533.04C534.792,533.262 534.594,533.442 534.342,533.534C533.921,533.688 533.459,533.558 533.178,533.231C533.097,533.302 533.003,533.362 532.898,533.407C532.655,533.511 532.391,533.517 532.155,533.439C532.454,534.434 532.654,535.199 532.724,535.676C532.781,536.056 532.759,536.337 532.717,536.509L532.529,536.926L532.206,537.236L531.822,537.391L531.462,537.406L531.07,537.294L530.737,537.08C530.412,536.816 529.816,536.073 528.931,534.724C523.219,526.02 522.705,517.373 522.198,512C521.879,511.651 521.837,511.14 522.07,510.748ZM535.244,500.298C535.077,500.369 534.901,500.393 534.731,500.376C534.911,500.4 535.083,500.374 535.244,500.298ZM534.294,500.233C534.126,500.134 533.983,499.986 533.889,499.798C534.01,500.04 534.168,500.164 534.294,500.233Z"/>
                </g>
                <g transform="matrix(1,0,0,1,256,181.559)">
                    <path d="M495.688,545.551C495.251,545.328 495.02,544.826 495.149,544.341C497.014,537.312 497.41,537.522 501.022,531.267C501.15,531.046 501.346,530.888 501.57,530.805L501.777,530.436L502.181,530.086L502.452,529.97L502.692,529.924C502.79,529.779 502.889,529.633 502.99,529.487C503.112,529.31 503.214,529.188 503.29,529.111L503.531,528.916L503.778,528.799L504.048,528.745L504.438,528.787L504.816,528.988L505.08,529.307L505.091,529.337C505.393,529.015 505.693,528.735 505.988,528.505C506.12,528.402 506.233,528.325 506.319,528.276L506.577,528.161L507.045,528.11L507.201,528.15L507.246,528.151C508.314,524.48 509.704,520.372 510.195,518.942C510.23,518.779 510.266,518.61 510.303,518.436C510.418,517.899 510.926,517.54 511.471,517.611C512.016,517.681 512.416,518.158 512.391,518.706L512.387,518.775C512.394,518.852 512.393,518.932 512.382,519.012C512.379,519.033 512.376,519.055 512.374,519.076L512.323,520.18L512.872,517.878C512.998,517.354 513.498,517.008 514.033,517.076C514.214,517.099 514.379,517.167 514.518,517.268C514.689,516.838 514.824,516.499 514.901,516.172C515.025,515.648 515.523,515.301 516.057,515.367C516.106,515.373 516.153,515.382 516.199,515.394C516.415,514.045 516.62,512.812 516.799,511.811C517.072,510.289 517.325,509.253 517.447,509.016L517.728,508.658L517.945,508.514L518.167,508.432L518.482,508.401L518.807,508.47L519.102,508.64L519.331,508.897L519.506,509.366C519.524,509.48 519.54,509.678 519.537,509.97C519.532,510.463 519.482,511.333 519.375,512.66C519.535,512.595 519.713,512.568 519.895,512.589C519.955,512.596 520.013,512.608 520.069,512.624C520.106,512.446 520.14,512.29 520.172,512.154C520.339,511.438 520.539,511.089 520.637,510.974L520.978,510.702L521.184,510.62L521.441,510.58L521.883,510.658L522.195,510.849L522.479,511.229L522.588,511.563C522.604,511.641 522.619,511.738 522.632,511.851C522.847,511.619 523.164,511.488 523.5,511.518C524.047,511.568 524.465,512.028 524.461,512.578C524.458,512.925 524.456,513.258 524.453,513.579C524.656,513.281 525.005,513.095 525.389,513.118C525.947,513.15 526.383,513.613 526.383,514.172C526.383,515.827 526.382,517.186 526.384,518.354C526.548,517.966 526.935,517.701 527.376,517.709C527.927,517.719 528.377,518.15 528.411,518.699C528.457,519.444 528.481,520.19 528.501,520.936C528.574,521.07 528.618,521.223 528.625,521.385C528.634,521.244 528.643,521.101 528.652,520.957C528.652,520.952 528.652,520.947 528.653,520.942C528.689,520.363 529.186,519.921 529.765,519.953C530.344,519.985 530.789,520.479 530.761,521.058C530.761,521.063 530.761,521.068 530.76,521.073C530.435,527.851 530.307,530.451 530.184,533.983L530.295,533.999L530.504,534.082L530.561,534.127C530.531,533.669 530.5,533.199 530.469,532.718C530.432,532.157 530.842,531.665 531.401,531.601C531.807,531.554 532.188,531.744 532.401,532.064C532.364,531.256 532.325,530.401 532.283,529.493C532.257,528.924 532.687,528.437 533.255,528.393C533.823,528.348 534.324,528.762 534.387,529.328L534.937,534.256C534.916,532.275 534.918,530.991 534.945,530.223C534.974,529.436 535.079,529.027 535.145,528.889L535.412,528.532L535.616,528.388L535.903,528.28L536.33,528.273L536.499,528.323C536.474,527.459 536.456,526.849 536.448,526.592C536.431,526.02 536.873,525.539 537.445,525.507C538.016,525.475 538.509,525.905 538.556,526.475C538.683,528.024 538.791,529.362 538.884,530.546C539.377,530.643 539.744,531.082 539.734,531.602C539.563,540.471 539.714,540.417 539.947,549.259C539.947,549.267 539.947,549.275 539.947,549.284C539.96,549.772 539.639,550.193 539.19,550.325C539.195,550.691 539.196,550.909 539.191,550.946L539.066,551.324L538.78,551.654L538.578,551.774L538.308,551.854L538.01,551.859L537.749,551.791L537.491,551.642L537.358,551.507C537.367,551.935 537.375,552.371 537.384,552.815C537.395,553.372 536.972,553.841 536.417,553.888C536.027,553.921 535.665,553.736 535.457,553.432C535.458,553.469 535.46,553.506 535.461,553.543C535.483,554.113 535.049,554.597 534.48,554.637C534.189,554.657 533.916,554.557 533.711,554.379C533.543,554.575 533.302,554.71 533.025,554.74C532.802,554.764 532.588,554.717 532.405,554.617C532.422,554.849 532.437,555.049 532.447,555.214C532.483,555.753 532.444,556.071 532.431,556.117C532.348,556.405 532.275,556.604 532.227,556.695L532.063,556.928L531.897,557.079L531.484,557.263L531.098,557.274L530.848,557.203L530.578,557.04L530.532,556.992C530.536,557.031 530.54,557.07 530.543,557.109C530.601,557.677 530.196,558.188 529.63,558.262C529.063,558.336 528.541,557.946 528.45,557.382C528.316,556.542 528.192,555.765 528.078,555.042L527.853,554.994L527.625,554.862L527.453,554.697L527.442,554.68C527.475,555.099 527.511,555.517 527.553,555.935C527.609,556.497 527.213,557.004 526.654,557.085C526.096,557.166 525.572,556.794 525.465,556.239C525.444,556.126 525.422,556.014 525.401,555.903C525.247,556.186 524.966,556.395 524.625,556.444C524.278,556.494 523.945,556.37 523.717,556.137C523.708,556.157 523.7,556.174 523.692,556.19L523.38,556.568L523.127,556.715L522.895,556.782L522.465,556.768L522.097,556.605L521.904,556.435L521.761,556.239C521.685,556.11 521.553,555.731 521.417,555.002C521.346,554.62 521.257,554.109 521.142,553.445L521.253,554.778C521.3,555.337 520.901,555.835 520.345,555.911C520.035,555.954 519.737,555.857 519.515,555.668L519.64,556.611L519.645,556.649C519.721,557.22 519.325,557.746 518.756,557.832C518.187,557.918 517.654,557.532 517.558,556.964C517.556,556.952 517.554,556.939 517.552,556.926C517.126,554.414 516.743,552.166 516.399,550.159C516.596,552.055 516.824,554.214 517.085,556.676C517.146,557.249 516.737,557.764 516.166,557.836C515.594,557.907 515.071,557.507 514.99,556.937C514.252,551.773 513.886,549.192 513.361,546.662C513.359,546.766 513.357,546.864 513.353,546.955C513.582,551.648 513.793,556.122 513.771,556.286C513.339,559.525 513.195,560.929 513.165,561.027L513.081,561.231L512.92,561.454L512.711,561.626L512.47,561.737L512.12,561.786L511.765,561.714L511.465,561.533L511.254,561.289L511.113,560.929L511.092,560.55C511.096,560.325 511.11,559.868 511.117,559.226C510.7,559.182 510.335,558.89 510.214,558.467C509.461,555.844 508.803,553.526 508.226,551.484C508.105,551.731 507.89,551.925 507.625,552.017C508.018,555.484 508.358,558.38 508.433,559.015C508.496,559.561 508.131,560.064 507.592,560.173C507.054,560.281 506.522,559.958 506.369,559.43C506.151,558.671 505.946,557.958 505.755,557.287C505.654,557.342 505.543,557.382 505.423,557.402C504.855,557.498 504.314,557.119 504.209,556.552C504.207,556.541 504.206,556.531 504.204,556.52C503.995,555.384 503.962,555.118 502.359,545.774C502.079,546.152 501.573,546.307 501.12,546.127C500.774,545.99 500.539,545.688 500.472,545.345C500.395,545.339 500.317,545.325 500.241,545.302C499.964,545.469 499.616,545.506 499.296,545.376C498.957,546.187 498.719,546.751 498.637,546.944C498.433,547.429 497.909,547.683 497.412,547.56C497.265,547.959 497.11,548.379 496.946,548.823C496.749,549.356 496.165,549.638 495.625,549.46C495.085,549.282 494.783,548.708 494.942,548.162C495.189,547.311 495.432,546.442 495.688,545.551ZM503.627,535.303C503.633,535.309 503.638,535.314 503.644,535.32C503.691,535.244 503.739,535.169 503.787,535.092C503.79,535.086 503.794,535.079 503.797,535.072C503.795,535.047 503.794,535.022 503.792,534.997C503.737,535.098 503.682,535.2 503.627,535.303Z"/>
                </g>
                <g transform="matrix(1,0,0,1,256,181.559)">
                    <path d="M493.729,552.764L493.734,552.573C493.734,551.64 493.768,550.577 493.832,548.75C493.832,548.747 493.832,548.744 493.832,548.74C493.834,548.689 493.84,548.639 493.848,548.59L493.832,547.009L493.832,546.972C493.826,546.396 494.283,545.922 494.858,545.906C495.053,545.901 495.237,545.948 495.396,546.036C495.555,544.445 495.645,544.248 495.817,543.811C496.031,543.269 496.645,543.003 497.187,543.217C497.729,543.432 497.995,544.046 497.781,544.588C497.601,545.043 497.543,545.225 497.383,547.212L497.602,547.085L497.686,547.071C497.642,546.824 497.609,546.633 497.587,546.509C497.587,546.507 497.586,546.506 497.586,546.504C497.494,545.984 497.801,545.485 498.287,545.321L498.349,545.192L498.553,544.975L498.795,544.829L499.1,544.747L499.418,544.758L499.758,544.884L499.971,545.045L500.115,545.214C500.175,545.299 500.273,545.484 500.369,545.756C500.497,546.119 500.567,546.378 500.701,546.945C500.63,546.095 500.55,545.144 500.458,544.061C500.41,543.508 500.799,543.013 501.347,542.928C501.624,542.884 501.895,542.954 502.11,543.102C502.231,542.741 502.544,542.458 502.945,542.394C503.506,542.305 504.037,542.675 504.147,543.232C504.37,544.354 504.538,545.486 504.709,546.618C504.745,546.607 504.781,546.599 504.818,546.592C505.367,546.494 505.898,546.839 506.03,547.381C508.722,558.39 508.436,558.448 509.743,561.499C509.972,562.034 509.724,562.655 509.188,562.885C508.653,563.115 508.032,562.866 507.802,562.33C507.658,561.995 507.533,561.695 507.421,561.413C507.265,561.658 507.009,561.838 506.7,561.888C506.593,561.906 506.487,561.907 506.385,561.893C506.238,562.157 505.98,562.356 505.662,562.417C505.102,562.525 504.558,562.17 504.432,561.614L504.307,561.063L504.372,561.564C504.445,562.116 504.075,562.63 503.528,562.737C503.157,562.81 502.791,562.678 502.55,562.418C502.543,562.459 502.533,562.499 502.521,562.538C502.568,562.811 502.613,563.078 502.657,563.34C502.753,563.903 502.384,564.44 501.824,564.552C501.562,564.604 501.303,564.555 501.089,564.431C501.241,565.327 501.349,565.983 501.383,566.277C501.402,566.437 501.405,566.565 501.401,566.649L501.333,566.993L501.107,567.364L500.932,567.516L500.69,567.642L500.538,567.67C500.741,568.275 500.969,568.942 501.226,569.687C501.391,570.165 501.194,570.693 500.756,570.946C500.319,571.199 499.763,571.106 499.431,570.725L498.263,569.382C498.2,569.406 498.134,569.425 498.065,569.438C498.055,569.44 498.045,569.441 498.034,569.443C497.897,569.601 497.712,569.72 497.494,569.774C496.929,569.916 496.357,569.574 496.214,569.009L496.212,569.003L494.315,561.516L494.25,561.471L493.943,560.998C493.695,560.503 493.553,560.201 493.536,558.986C493.522,558.003 493.594,556.252 493.729,552.764ZM497.03,551.901C496.987,552.48 496.94,553.111 496.889,553.797C496.894,553.99 496.9,554.178 496.906,554.363C497.079,554.397 497.241,554.474 497.376,554.585C497.242,553.636 497.123,552.727 497.03,551.901Z"/>
                </g>
                <g transform="matrix(1,0,0,1,256,181.559)">
                    <path d="M497.902,568.321L497.814,568.07L497.784,567.789C497.784,567.206 498.257,566.733 498.839,566.733C499.264,566.733 499.63,566.984 499.798,567.346C500.062,567.591 501.099,568.553 503.17,570.478C503.319,570.616 503.42,570.788 503.47,570.972C503.481,571.004 503.49,571.035 503.498,571.067C507.586,573.498 510.035,573.914 513.095,574.119C515.739,574.297 518.811,574.338 523.612,575.298C525.652,575.706 536.825,575.709 539.599,574.7C551.104,570.517 552.584,569.642 553.622,569.02C554.122,568.72 554.771,568.882 555.071,569.382C555.371,569.881 555.208,570.531 554.709,570.83C553.643,571.47 552.133,572.39 540.321,576.685C537.349,577.765 525.383,577.806 523.198,577.369C518.522,576.434 515.529,576.399 512.953,576.226C509.194,575.974 506.271,575.466 500.65,571.775C499.692,571.454 499.247,571.205 497.827,569.975C497.42,569.623 497.344,569.02 497.65,568.577C497.721,568.475 497.806,568.389 497.902,568.321Z"/>
                </g>
                <g transform="matrix(1,0,0,1,256,181.559)">
                    <path d="M505.002,571.644C507.992,572.976 509.241,572.962 514.246,574.13C514.397,574.166 514.534,574.232 514.65,574.321C514.735,574.313 514.823,574.315 514.912,574.328C517.907,574.784 518.067,574.772 521.437,575.175C522.626,575.249 524.033,575.332 525.152,575.385C525.156,575.385 525.16,575.385 525.164,575.386C525.203,575.387 525.241,575.391 525.278,575.397C526.226,575.416 527.6,575.44 529.943,575.491C530.526,575.504 530.988,575.987 530.976,576.57C530.963,577.153 530.48,577.615 529.897,577.603C524.122,577.477 524.175,577.511 522.086,577.389C522.078,577.388 522.069,577.388 522.061,577.387C522.007,577.384 521.954,577.377 521.903,577.366L518.895,577.128L518.881,577.127C518.769,577.118 518.662,577.091 518.563,577.051C518.36,577.159 518.121,577.203 517.878,577.159C517.216,577.04 513.697,576.409 509.623,575.551C509.356,575.495 509.134,575.342 508.985,575.137C507.605,574.832 506.567,574.562 505.301,574.066C505.152,574.089 504.998,574.08 504.847,574.037C504.692,574.037 503.383,573.939 499.001,571.017C498.593,570.745 498.434,570.236 498.59,569.79L496.638,568.445C496.158,568.114 496.037,567.456 496.368,566.976C496.699,566.496 497.357,566.375 497.836,566.706L505.002,571.644Z"/>
                </g>
                <g transform="matrix(1,0,0,1,256,181.559)">
                    <path d="M494.997,545.648C495.082,544.961 495.179,544.326 495.338,543.837C495.625,542.953 496.133,542.422 496.742,542.241L497.108,542.173L497.213,542.175C497.238,542.132 497.264,542.089 497.289,542.046C497.579,541.554 498.208,541.382 498.708,541.658C499.191,541.923 499.385,542.514 499.163,543.011C499.254,543.084 499.347,543.163 499.444,543.248C500.275,542.599 500.996,542.057 501.292,541.897L501.609,541.764L501.956,541.723L502.288,541.787L502.569,541.941L502.863,542.283L502.954,542.511L502.984,542.728C503.309,542.654 503.664,542.736 503.929,542.976C504.343,543.353 504.391,543.988 504.038,544.423C503.918,544.571 503.563,545.008 503.067,545.622C503.217,545.662 503.36,545.736 503.485,545.845C503.918,546.222 503.97,546.876 503.602,547.317C503.589,547.334 503.571,547.354 503.551,547.379C503.903,547.228 504.321,547.277 504.633,547.531C505.041,547.864 505.142,548.445 504.87,548.895C503.917,550.476 503.106,551.82 502.434,552.934C505.124,550.641 508.536,547.668 510.578,546.076C511.38,545.451 512.003,545.026 512.331,544.877L512.62,544.772L512.938,544.731L513.386,544.83L513.733,545.091L513.941,545.451L513.994,545.864L513.915,546.144C514.436,545.743 514.997,545.311 515.605,544.843C516.051,544.5 516.687,544.567 517.052,544.995C517.417,545.422 517.383,546.061 516.974,546.447C516.667,546.738 516.453,546.943 515.995,547.389C516.724,546.835 517.537,546.215 518.458,545.508C518.469,545.5 518.479,545.491 518.49,545.483C518.946,545.133 519.599,545.212 519.958,545.662C520.317,546.111 520.25,546.766 519.807,547.133C519.797,547.142 519.786,547.15 519.776,547.159C519.55,547.346 519.33,547.529 519.116,547.707C519.224,547.848 519.292,548.009 519.319,548.174C519.572,547.992 519.829,547.808 520.09,547.62C520.1,547.613 520.109,547.606 520.119,547.599C520.587,547.263 521.238,547.364 521.582,547.827C521.774,548.084 521.831,548.402 521.764,548.693C522.144,548.64 522.538,548.797 522.773,549.131C523.063,549.543 523.018,550.091 522.69,550.45C522.809,550.525 522.914,550.625 522.997,550.748C523.091,550.887 523.148,551.04 523.169,551.195C524.146,550.614 525.186,550.003 526.292,549.36C526.776,549.078 527.396,549.224 527.704,549.691C527.848,549.91 527.901,550.163 527.87,550.404C527.899,550.386 527.928,550.367 527.957,550.348C528.438,550.036 529.08,550.165 529.403,550.638C529.46,550.72 529.503,550.808 529.533,550.899C529.54,550.894 529.547,550.89 529.555,550.885C530.034,550.57 530.678,550.696 531.003,551.169C531.045,551.229 531.08,551.293 531.107,551.358C531.354,551.203 531.554,551.077 531.709,550.98C532.194,550.676 532.833,550.814 533.149,551.29C533.176,551.33 533.199,551.371 533.22,551.413C533.491,551.239 533.767,551.061 534.048,550.88C534.53,550.569 535.173,550.701 535.494,551.176C535.583,551.308 535.639,551.452 535.662,551.599C535.862,551.473 536.064,551.345 536.268,551.215C536.065,551.354 535.865,551.49 535.666,551.626C535.717,552.003 535.562,552.394 535.231,552.629C534.53,553.126 534.444,553.193 525.704,559.639C527.766,558.328 530.634,556.505 534.652,553.956C535.826,553.207 536.715,552.647 537.064,552.427L536.268,551.215C536.278,551.209 536.288,551.203 536.298,551.196C536.784,550.888 537.429,551.027 537.745,551.508C537.89,551.728 537.941,551.983 537.91,552.225C538.189,552.277 538.446,552.44 538.61,552.699C538.718,552.87 538.77,553.06 538.773,553.248C539.15,553.031 539.537,552.809 539.934,552.581C539.946,552.574 539.957,552.567 539.969,552.561C540.468,552.275 541.104,552.441 541.4,552.934C541.533,553.156 541.575,553.407 541.537,553.644C542.006,553.391 542.49,553.132 542.987,552.866C543.487,552.599 544.108,552.774 544.395,553.262C544.412,553.292 544.428,553.321 544.442,553.352C544.741,553.174 545.051,552.991 545.373,552.8C545.383,552.794 545.393,552.788 545.403,552.782C545.899,552.488 546.539,552.646 546.841,553.137C547.142,553.628 546.995,554.27 546.51,554.58C546.5,554.586 546.49,554.592 546.479,554.599C546.258,554.741 545.765,555.055 545.084,555.49C545.088,555.499 545.092,555.509 545.097,555.518C545.448,555.522 545.79,555.701 545.987,556.023C546.184,556.344 546.188,556.728 546.033,557.043C546.177,557.124 546.304,557.241 546.4,557.389C546.705,557.86 546.589,558.487 546.135,558.817L544.209,560.217C544.498,560.054 544.795,559.886 545.102,559.713C545.593,559.436 546.216,559.594 546.516,560.072C546.815,560.551 546.686,561.18 546.221,561.501L545.701,561.861C545.948,561.933 546.169,562.094 546.312,562.332C546.467,562.589 546.499,562.886 546.426,563.154L546.728,563.101L547.052,563.133L547.337,563.245L547.599,563.449L547.792,563.735L547.887,564.101L547.875,564.365L547.789,564.641L547.654,564.823C547.663,564.837 547.672,564.85 547.681,564.864C547.843,565.113 547.887,565.405 547.825,565.675C548.241,565.617 548.669,565.813 548.889,566.199C549.171,566.697 549.006,567.329 548.516,567.625C548.438,567.672 548.198,567.817 547.843,568.032C547.811,568.273 547.698,568.502 547.509,568.674C547.695,568.774 547.853,568.931 547.954,569.133C547.968,569.161 547.981,569.19 547.992,569.219C548.355,569.036 548.673,568.873 548.952,568.727C549,568.348 549.252,568.007 549.635,567.866L551.664,567.119C552.171,566.932 552.738,567.158 552.977,567.643C553.215,568.128 553.049,568.715 552.592,569.003C552.096,569.315 551.931,569.537 550.27,570.421C550.186,570.722 549.969,570.983 549.66,571.113C548.793,571.476 547.964,571.925 547.097,572.287C546.781,572.42 546.803,572.407 543.134,573.894C542.772,574.041 542.375,573.972 542.086,573.747C541.713,573.844 541.301,573.945 540.838,574.051C540.416,574.149 539.991,573.978 539.748,573.645C539.134,573.911 538.757,574.032 538.584,574.058L538.135,574.05L537.746,573.885L537.47,573.617L537.425,573.516C536.995,573.617 536.535,573.44 536.29,573.051C536.174,572.867 536.121,572.66 536.128,572.457C535.85,572.403 535.595,572.238 535.434,571.981C535.356,571.856 535.307,571.721 535.285,571.584C533.767,572.347 532.896,572.725 532.527,572.824L531.984,572.879L531.684,572.806L531.417,572.654L531.224,572.463L531.079,572.214L531,571.907L531.021,571.552L531.057,571.452C530.834,571.372 530.636,571.216 530.507,570.997C530.225,570.52 530.359,569.906 530.815,569.591L531.287,569.264C530.982,569.227 530.696,569.056 530.521,568.778C530.293,568.414 530.313,567.962 530.541,567.624C530.481,567.659 530.42,567.695 530.355,567.734C529.869,568.025 529.239,567.88 528.929,567.405C528.671,567.009 528.711,566.503 529,566.155L528.7,566.104L528.49,565.995L528.282,565.813L528.085,565.49L528.012,565.05L528.107,564.658C527.824,564.6 527.565,564.426 527.408,564.159C527.395,564.137 527.384,564.116 527.373,564.094C526.879,564.384 526.501,564.599 526.193,564.755C525.228,565.243 524.756,565.287 524.036,565.207L523.653,565.091L523.322,564.823L523.13,564.471L523.107,564.322L522.877,564.267L522.606,564.092C521.286,564.919 521.125,564.997 520.843,565.122C520.524,565.264 520.272,565.324 520.137,565.335L519.667,565.279L519.265,565.036L519.036,564.721L518.949,564.459L518.949,564.457C518.569,564.506 518.177,564.347 517.945,564.012C517.899,563.946 517.862,563.878 517.834,563.807C517.636,563.935 517.462,564.049 517.259,564.184C516.786,564.496 516.151,564.38 515.82,563.921C515.386,564.214 514.943,564.513 514.491,564.818C514.016,565.14 513.372,565.023 513.039,564.556C512.954,564.437 512.897,564.305 512.867,564.169C512.495,564.413 512.107,564.667 511.702,564.933C511.224,565.247 510.584,565.124 510.257,564.655C509.929,564.187 510.034,563.543 510.493,563.203C510.861,562.929 511.214,562.667 511.553,562.415L511.32,562.32L511.144,562.169L510.99,561.961L510.904,561.733C510.049,562.389 509.487,562.858 509.066,563.196C508.176,563.908 507.743,564.135 506.999,564.241L506.418,564.244L506.095,564.146L505.846,563.995L505.547,563.646L505.409,563.222L505.425,562.812L505.541,562.495C505.458,562.369 505.405,562.23 505.381,562.088C504.989,562.18 504.565,562.042 504.305,561.705C504.273,561.664 504.245,561.621 504.22,561.577C504.168,561.616 504.115,561.655 504.059,561.696C503.603,562.032 502.963,561.949 502.609,561.507C502.551,561.435 502.504,561.358 502.468,561.277C502.325,561.213 502.195,561.118 502.089,560.99C501.724,560.555 501.769,559.908 502.191,559.528C502.43,559.313 502.662,559.104 502.888,558.901C502.835,558.859 502.786,558.813 502.74,558.76C502.56,558.551 502.475,558.291 502.484,558.034C502.119,558.336 501.734,558.654 501.328,558.99C500.893,559.35 500.252,559.304 499.873,558.885C499.603,558.587 499.534,558.176 499.661,557.821C499.591,557.857 499.535,557.882 499.494,557.896L498.979,557.99L498.702,557.956L498.462,557.867L498.236,557.715L498.044,557.5L497.922,557.262L497.864,557.045L497.878,556.584C497.905,556.459 497.967,556.272 498.095,556.016C498.25,555.707 498.546,555.207 499.02,554.428C498.157,555.239 497.678,555.675 497.424,555.84L496.969,556.05L496.58,556.086L496.2,555.989L495.856,555.745L495.685,555.512L495.595,555.284L495.589,555.284L495.271,555.217L494.894,555.006L494.685,554.797L494.516,554.554L494.382,554.208L494.367,553.868L494.447,553.539C494.485,553.438 494.555,553.294 494.66,553.116C494.843,552.808 495.178,552.326 495.61,551.737C495.529,551.697 495.452,551.646 495.381,551.583C494.965,551.22 494.899,550.597 495.231,550.155C495.329,550.024 495.426,549.895 495.521,549.768L495.35,549.761L494.979,549.578L494.699,549.255L494.595,548.988L494.567,548.677L494.603,548.449C494.612,548.405 494.622,548.36 494.631,548.315L494.556,548.266L494.324,547.955L494.203,547.519L494.24,547.095C494.274,546.95 494.348,546.753 494.473,546.516C494.591,546.29 494.772,545.997 494.997,545.648Z"/>
                </g>
                <g transform="matrix(1,0,0,1,256,181.559)">
                    <path d="M505.022,560.443L505.065,560.412C505.501,560.103 506.099,560.169 506.458,560.565C506.816,560.961 506.823,561.562 506.472,561.966L506.393,562.057C506.418,562.104 506.439,562.152 506.456,562.201C506.614,562.257 506.761,562.352 506.882,562.484C506.92,562.526 506.954,562.57 506.984,562.615L507.595,562.146C507.855,561.946 508.18,561.885 508.48,561.955C509.624,560.805 510.215,560.219 510.537,560.003L510.857,559.829L511.179,559.739L511.549,559.742L511.943,559.882L512.136,560.02L512.331,560.237L512.405,560.374C512.836,560.237 513.322,560.389 513.592,560.779C513.769,561.034 513.818,561.341 513.752,561.621C513.994,561.518 514.249,561.404 514.522,561.278C515.019,561.046 515.611,561.234 515.883,561.71C516.06,562.019 516.065,562.382 515.923,562.684C516.328,562.541 516.774,562.383 517.273,562.205C517.277,562.204 517.28,562.203 517.283,562.201C517.831,562.007 518.433,562.291 518.63,562.837C518.657,562.912 518.675,562.988 518.685,563.064C522.976,562.252 527.792,561.596 532.761,561.394C533.31,561.371 533.785,561.774 533.852,562.319C533.919,562.865 533.556,563.371 533.018,563.482C532.096,563.674 531.199,563.863 530.314,564.052C530.362,564.287 530.328,564.521 530.23,564.723C530.632,564.802 530.966,565.112 531.059,565.534C531.178,566.079 530.852,566.623 530.315,566.775C530.277,566.786 530.239,566.797 530.201,566.808C531.776,566.828 533.513,566.84 535.449,566.84C535.458,566.84 535.466,566.84 535.474,566.84C536.044,566.84 536.51,567.292 536.529,567.858C536.591,567.983 536.628,568.123 536.636,568.271C536.664,568.848 536.223,569.341 535.646,569.377C535.637,569.377 535.629,569.378 535.62,569.378C534.766,569.431 533.997,569.478 533.296,569.521C533.493,569.727 533.606,570.012 533.587,570.317C533.578,570.461 533.54,570.597 533.479,570.72C533.93,570.744 534.36,570.769 534.762,570.796C536.341,570.898 537.543,571.042 538.077,571.236L538.572,571.502L538.808,571.743L538.953,571.994L539.047,572.431L538.977,572.855L538.93,572.951C539.971,572.755 541.143,572.5 542.498,572.172C543.043,572.04 543.596,572.356 543.758,572.893C543.919,573.43 543.634,574 543.107,574.191C541.474,574.782 532.364,578.074 522.181,575.469C515.827,575.676 513.095,574.847 510.58,573.934C509.007,573.362 507.527,572.746 505.181,572.355C503.699,572.108 502.787,571.506 502.236,570.823C501.866,570.365 501.649,569.858 501.547,569.349C501.181,569.438 500.782,569.327 500.514,569.032C500.392,568.898 500.311,568.74 500.27,568.575C499.986,568.32 499.872,567.945 499.938,567.594C499.751,567.362 499.676,567.067 499.717,566.784L499.343,567.049C498.897,567.364 498.285,567.288 497.93,566.873C497.575,566.458 497.595,565.842 497.976,565.45C500.684,562.667 500.769,562.862 503.127,559.778C503.481,559.315 504.145,559.226 504.608,559.58C504.886,559.793 505.028,560.117 505.022,560.443Z"/>
                </g>
                <g transform="matrix(1,0,0,1,256,181.559)">
                    <path d="M535.032,547.433C534.644,546.537 534.244,545.646 533.791,544.781C533.528,544.278 533.71,543.656 534.203,543.374C534.557,543.172 534.98,543.197 535.301,543.405C535.384,543.304 535.488,543.217 535.61,543.151C535.804,543.045 536.017,543.006 536.222,543.027C536.157,542.894 536.096,542.769 536.025,542.627C535.769,542.116 535.967,541.494 536.471,541.224C536.756,541.072 537.08,541.063 537.359,541.174C537.445,540.92 537.627,540.7 537.884,540.571C537.898,540.564 537.912,540.557 537.926,540.551C537.921,540.541 537.917,540.53 537.912,540.52L537.91,540.513L537.065,538.411C536.96,538.489 536.839,538.548 536.705,538.583C536.154,538.729 535.587,538.411 535.424,537.864C534.162,533.635 533.844,532.047 533.775,531.451C533.744,531.184 533.752,531.031 533.76,530.943L533.796,530.823L533.484,529.469C533.371,528.977 533.621,528.482 534.067,528.274C534.053,528.218 534.038,528.16 534.023,528.102C533.893,527.588 534.165,527.057 534.658,526.862C535.151,526.666 535.712,526.867 535.97,527.33C536.187,527.722 537.517,530.118 538.86,532.471C538.364,530.724 537.721,528.384 536.908,525.222C536.769,524.683 537.073,524.129 537.602,523.956C538.132,523.783 538.704,524.05 538.911,524.567C539.066,524.956 539.206,525.35 539.337,525.747C539.36,525.734 539.383,525.722 539.407,525.711C539.902,525.481 540.491,525.665 540.766,526.137L541.333,527.112C541.633,527.138 541.92,527.292 542.105,527.556C550.798,539.909 560.845,549.827 554.532,570.026C554.371,570.541 553.849,570.852 553.319,570.747C552.79,570.642 552.425,570.156 552.473,569.619C552.884,564.955 552.838,560.964 552.569,557.649C552.301,557.532 552.083,557.306 551.986,557.007C551.692,556.103 550.879,553.601 549.391,549.993C549.289,549.844 549.18,549.678 549.065,549.496C548.754,549.44 548.472,549.245 548.315,548.944L548.303,548.921L548.061,548.454C548.003,548.497 547.94,548.534 547.871,548.565C547.826,548.585 547.78,548.602 547.734,548.616C548.036,549.355 548.366,550.159 548.733,551.043C548.833,551.285 548.836,551.544 548.761,551.775C548.931,552.194 549.09,552.604 549.279,553.103C549.38,553.372 549.433,553.536 549.44,553.566L549.461,553.898L549.368,554.245L549.197,554.506L549.038,554.642C549.039,554.642 549.039,554.643 549.039,554.643C549.277,555.167 549.051,555.785 548.531,556.032C548.498,556.048 548.465,556.062 548.431,556.074C548.344,556.32 548.165,556.535 547.913,556.662C547.819,556.71 547.721,556.742 547.622,556.759C547.566,557.073 547.369,557.357 547.065,557.513C546.926,557.585 546.778,557.622 546.631,557.629C546.551,557.891 546.371,558.121 546.11,558.257C545.715,558.464 545.246,558.396 544.926,558.117C544.843,558.214 544.741,558.297 544.623,558.36C544.541,558.404 544.456,558.435 544.37,558.456C544.546,558.936 544.35,559.481 543.897,559.737C544.134,560.214 543.977,560.799 543.525,561.092C543.059,561.393 542.44,561.283 542.107,560.841C542.131,561.01 542.165,561.135 542.17,561.18L542.124,561.646L542.011,561.885L541.842,562.088L541.618,562.249L541.339,562.351L540.88,562.347L540.518,562.188L540.255,561.931C540.229,561.895 540.174,561.81 540.095,561.661C535.263,552.534 534.85,552.836 534.434,552.047C533.834,550.912 533.751,549.551 533.152,548.416C532.892,547.924 533.059,547.314 533.533,547.023C534.007,546.732 534.626,546.859 534.947,547.313C534.976,547.353 535.004,547.393 535.032,547.433ZM533.888,530.508L533.887,530.507C533.878,530.527 533.87,530.545 533.863,530.562C533.871,530.543 533.879,530.525 533.888,530.508Z"/>
                </g>
                <g transform="matrix(1,0,0,1,256,181.559)">
                    <path d="M543.712,552.475C543.768,551.351 543.904,550.527 544.098,550.009C544.16,549.844 544.221,549.714 544.273,549.626L544.478,549.361L544.654,549.227C544.604,548.353 544.579,547.754 544.575,547.39C544.571,546.98 544.614,546.744 544.64,546.658L544.752,546.404L544.889,546.224L545.115,546.041L545.344,545.937L545.698,545.906L545.7,545.9L545.887,545.694L546.107,545.549L546.354,545.462L546.67,545.44L546.992,545.515L547.198,545.624L547.421,545.811C547.515,545.907 547.667,546.124 547.862,546.431C547.973,546.319 548.112,546.23 548.271,546.176C548.81,545.992 549.398,546.269 549.599,546.802L550.131,548.21L550.217,548.252L550.496,548.559C550.575,548.687 550.711,549.042 550.774,549.736C550.78,549.805 550.786,549.879 550.793,549.959L551.297,551.293C551.375,551.341 551.446,551.398 551.509,551.464C552.071,551.414 552.575,551.816 552.649,552.378L552.653,552.409L553.824,561.35C553.856,561.596 553.801,561.833 553.682,562.032C554.026,565.053 554.093,565.437 554.052,566.044L554.324,566.163L554.659,566.475L554.882,566.934L554.924,567.225L554.907,567.488L554.838,567.753L554.69,568.063C554.445,568.475 553.84,569.025 553.088,569.517C552.092,570.168 550.851,570.753 550.172,570.91C550.03,570.943 549.903,570.962 549.794,570.969L549.473,570.959L549.198,570.891L548.98,570.785L548.776,570.625L548.598,570.401L548.481,570.141L548.432,569.886C548.417,569.692 548.479,569.289 548.868,568.766C548.853,568.756 548.839,568.746 548.825,568.735C548.755,568.789 548.678,568.834 548.595,568.869C548.647,569.441 548.231,569.95 547.659,570.013C547.218,570.062 546.811,569.832 546.613,569.463C546.45,569.641 546.227,569.764 545.97,569.797C545.403,569.871 544.88,569.479 544.791,568.914C543.757,562.322 543.312,559.4 543.013,557.526C542.974,557.441 542.945,557.35 542.929,557.254L542.34,553.671L542.336,553.648C542.242,553.077 542.625,552.537 543.195,552.437C543.374,552.405 543.55,552.421 543.712,552.475Z"/>
                </g>
                <g transform="matrix(1,0,0,1,256,181.559)">
                    <path d="M517.24,427.347C516.648,427.263 515.87,427.275 515.021,427.321C511.936,427.488 508.002,428.273 507.408,428.391C507.105,428.451 506.791,428.376 506.549,428.185C506.306,427.994 506.159,427.707 506.147,427.398L505.709,416.707C505.69,416.252 505.966,415.835 506.394,415.675C506.793,415.526 510.394,413.726 516.778,412.674C515.777,408.131 515.711,406.405 515.686,405.805C515.662,405.223 516.115,404.73 516.697,404.706C517.279,404.682 517.772,405.135 517.796,405.717C517.821,406.333 517.905,408.19 519.086,413.308C519.152,413.596 519.095,413.899 518.928,414.143C518.761,414.386 518.499,414.549 518.206,414.591C512.829,415.359 509.3,416.725 507.848,417.343L508.207,426.089C509.8,425.798 512.585,425.338 514.907,425.212C516.435,425.13 517.78,425.213 518.567,425.508L518.868,425.659L519.148,425.916L519.342,426.261L519.429,426.692C519.454,427.121 519.221,428.321 518.685,432.077C518.602,432.653 518.067,433.055 517.49,432.973C516.913,432.89 516.512,432.355 516.594,431.778C516.922,429.483 517.134,428.052 517.24,427.347Z" style="fill:rgb(237,236,218);"/>
                </g>
                <g transform="matrix(1,0,0,1,256,181.559)">
                    <path d="M516.615,406.843C516.038,406.926 515.503,406.525 515.42,405.948C515.337,405.371 515.738,404.836 516.315,404.753C523.076,403.78 523.025,404.551 529.784,404.55C530.086,404.55 530.374,404.679 530.574,404.905C530.775,405.131 530.869,405.432 530.833,405.732C530.761,406.33 530.275,410.351 529.743,413.132C533.622,413.443 536.104,413.349 536.697,413.326C537.005,413.314 537.303,413.438 537.512,413.664C537.722,413.89 537.822,414.197 537.786,414.503C537.674,415.462 538.005,415.467 537.061,426.554C537.022,427.009 536.696,427.387 536.252,427.492C532.949,428.272 532.737,428.39 529.879,428.712L530.113,433.266C530.143,433.848 529.694,434.344 529.112,434.374C528.53,434.404 528.034,433.956 528.004,433.374L527.719,427.826C527.691,427.266 528.104,426.782 528.661,426.722C532.083,426.353 532.242,426.278 535.021,425.614C535.575,419.003 535.649,416.589 535.659,415.465C534.26,415.483 531.745,415.452 528.366,415.131C528.062,415.102 527.786,414.944 527.608,414.696C527.43,414.448 527.368,414.135 527.438,413.838C527.895,411.895 528.358,408.485 528.591,406.653C523.155,406.571 522.801,405.953 516.615,406.843Z" style="fill:rgb(237,236,218);"/>
                </g>
                <g transform="matrix(1,0,0,1,256,181.559)">
                    <path d="M502.506,437.163C501.932,437.059 501.551,436.51 501.654,435.936C501.758,435.363 502.307,434.981 502.881,435.085C509.623,436.302 515.255,432.6 516.957,431.579C517.456,431.279 518.106,431.441 518.405,431.941C518.705,432.441 518.543,433.09 518.043,433.39C516.167,434.515 509.938,438.505 502.506,437.163Z" style="fill:rgb(237,236,218);"/>
                </g>
                <g transform="matrix(1,0,0,1,256,181.559)">
                    <path d="M528.935,434.321C528.532,434.386 528.109,434.213 527.876,433.847C527.562,433.355 527.706,432.702 528.197,432.389L528.71,432.168L529.146,432.135L529.539,432.223L529.941,432.433C530.797,433.002 532.761,435.405 544.528,436.788C544.914,436.833 545.243,437.086 545.386,437.447C545.53,437.807 545.464,438.217 545.214,438.515C536.756,448.607 538.697,449.686 533.902,459.276C533.641,459.797 533.006,460.009 532.485,459.748C531.964,459.488 531.752,458.853 532.013,458.332C536.662,449.033 535.14,447.591 542.374,438.641C534.374,437.53 531.233,435.922 529.781,434.941C529.436,434.708 529.12,434.466 528.935,434.321Z" style="fill:rgb(237,236,218);"/>
                </g>
                <g transform="matrix(1,0,0,1,256,181.559)">
                    <path d="M504.138,436.892C504.928,437.51 509.417,441.174 511.912,446.52C513.163,449.201 513.508,458.165 513.542,459.186C513.561,459.769 513.104,460.257 512.522,460.277C511.94,460.296 511.451,459.839 511.431,459.257C511.4,458.303 511.167,449.918 509.998,447.413C507.358,441.756 502.853,438.743 502.35,438.095L502.123,437.656L502.095,437.181L502.178,436.904L502.34,436.648L502.582,436.437L502.898,436.297C503.409,436.16 503.933,436.423 504.138,436.892ZM504.047,437.906C503.91,438.111 503.701,438.268 503.444,438.337C503.748,438.256 503.935,438.099 504.047,437.906Z" style="fill:rgb(237,236,218);"/>
                </g>
                <g transform="matrix(1,0,0,1,256,181.559)">
                    <path d="M510.214,458.895C522.862,459.762 522.928,458.12 535.908,458.444L536.266,458.512L536.663,458.732C536.821,458.853 537.046,459.067 537.277,459.419C537.883,460.343 538.748,462.599 538.032,467.447C537.959,467.937 537.556,468.311 537.062,468.346C536.156,468.41 512.775,469.083 508.809,468.907C508.521,468.894 508.25,468.764 508.06,468.547C507.871,468.329 507.778,468.044 507.804,467.757C508.359,461.632 508.164,459.613 508.094,458.909C508.036,458.329 508.46,457.811 509.04,457.753C509.619,457.695 510.137,458.119 510.195,458.699C510.201,458.756 510.207,458.821 510.214,458.895ZM510.297,461.017C510.295,462.269 510.229,464.109 510.005,466.822C515.362,466.874 532.029,466.413 536.057,466.274C536.357,463.67 536.13,462.077 535.785,461.144C535.69,460.886 535.565,460.673 535.484,460.547C522.902,460.263 522.641,461.843 510.297,461.017Z" style="fill:rgb(237,236,218);"/>
                </g>
                <g transform="matrix(1,0,0,1,256,181.559)">
                    <path d="M512.273,468.947C512.209,468.368 512.627,467.845 513.206,467.781C513.785,467.716 514.307,468.134 514.372,468.714C515.717,480.825 505.391,515.771 502.928,525.624C502.394,527.758 500.904,530.313 499.175,533.434C495.353,540.331 490.37,550.19 493.33,564.988C493.415,565.413 493.915,566.547 494.686,567.721C495.448,568.881 496.477,570.097 497.724,570.631C498.259,570.86 498.508,571.482 498.278,572.017C498.049,572.553 497.428,572.801 496.892,572.572C495.285,571.883 493.904,570.376 492.921,568.88C491.947,567.397 491.367,565.939 491.259,565.403C488.604,552.125 492.035,542.642 495.591,535.658C497.861,531.198 500.204,527.813 500.879,525.112C503.311,515.384 513.601,480.903 512.273,468.947Z" style="fill:rgb(237,236,218);"/>
                </g>
                <g transform="matrix(1,0,0,1,256,181.559)">
                    <path d="M535.014,468.715C535.026,468.993 535.114,470.94 535.333,473.287C536.43,485.02 540.054,514.302 543.103,520.739C549.184,533.577 550.673,532.676 557.018,545.367C558.757,548.844 559.703,557.976 558.92,564.312C558.559,567.236 557.781,569.577 556.681,570.677C556.516,570.842 556.573,570.964 556.573,571.081C556.574,571.234 556.565,571.388 556.534,571.55C556.466,571.901 556.312,572.3 555.846,572.766C555.434,573.178 554.765,573.178 554.353,572.766C553.94,572.354 553.94,571.684 554.353,571.272C554.517,571.108 554.458,570.987 554.458,570.87C554.457,570.717 554.467,570.562 554.498,570.4C554.566,570.049 554.722,569.65 555.188,569.184C556.066,568.306 556.536,566.387 556.824,564.053C557.557,558.122 556.757,549.566 555.13,546.311C548.774,533.6 547.285,534.502 541.194,521.643C537.712,514.291 533.405,477.596 532.941,469.924C532.894,469.149 532.891,468.634 532.917,468.427L532.996,468.098L533.194,467.773C533.578,467.335 534.245,467.291 534.684,467.675C534.988,467.942 535.102,468.346 535.014,468.715Z" style="fill:rgb(237,236,218);"/>
                </g>
            </g>
        </g>
    </g>
</svg>
