<?xml version="1.0" encoding="UTF-8" standalone="no"?>
<!DOCTYPE svg PUBLIC "-//W3C//DTD SVG 1.1//EN" "http://www.w3.org/Graphics/SVG/1.1/DTD/svg11.dtd">
<svg width="100%" height="100%" viewBox="0 0 67 130" version="1.1" xmlns="http://www.w3.org/2000/svg" xmlns:xlink="http://www.w3.org/1999/xlink" xml:space="preserve" xmlns:serif="http://www.serif.com/" style="fill-rule:evenodd;clip-rule:evenodd;stroke-linejoin:round;stroke-miterlimit:2;">
    <g transform="matrix(1,0,0,1,-346.245,-419.083)">
        <g transform="matrix(1,0,0,1,-256,-181.559)">
            <g id="chess-board" serif:id="chess board">
            </g>
            <g transform="matrix(1,0,0,1,-310.674,-56.5681)">
                <g>
                    <g transform="matrix(1,0,0,1,256,181.559)">
                        <path d="M679.48,591.539C678.953,592.537 677.829,595.641 676.388,598.636C680.885,598.143 689.658,597.871 708.735,599.339C709.744,599.416 710.499,600.298 710.422,601.306C710.344,602.314 709.463,603.07 708.454,602.992C682.357,600.985 676.109,602.258 673.361,602.833C672.638,602.985 671.894,602.687 671.475,602.077C671.057,601.467 671.046,600.666 671.447,600.045C673.417,596.999 675.058,592.46 675.898,590.549C676.285,589.669 676.681,589.15 676.866,588.992C677.634,588.334 678.791,588.424 679.449,589.192C680.034,589.875 680.028,590.865 679.48,591.539Z"/>
                    </g>
                    <g transform="matrix(1,0,0,1,256,181.559)">
                        <path d="M715.455,599.179C714.186,597.299 711.939,594.166 708.203,589.496C707.572,588.707 707.7,587.553 708.489,586.921C709.279,586.289 710.433,586.417 711.065,587.207C717.432,595.167 719.43,598.319 720.052,599.554C720.315,600.077 720.409,600.399 720.451,600.589L720.468,600.733C720.408,600.524 720.319,600.373 720.277,600.293C720.438,600.594 720.509,600.928 720.491,601.258L720.509,601.083L720.468,600.733C720.569,601.085 720.588,601.6 720.164,602.206C720.198,602.156 720.231,602.104 720.261,602.051C720.351,601.889 720.415,601.717 720.453,601.541L720.464,601.515L720.473,601.432C720.467,601.469 720.46,601.505 720.453,601.541L720.164,602.206C719.846,602.662 719.335,602.952 718.773,602.986C716.036,603.153 714.398,602.763 713.147,602.363C711.936,601.975 711.293,601.458 709.663,602.157C708.734,602.555 707.656,602.124 707.257,601.194C706.859,600.265 707.29,599.187 708.22,598.789C710.248,597.919 711.467,598.019 712.72,598.368C713.472,598.577 714.243,598.955 715.455,599.179Z"/>
                    </g>
                    <g transform="matrix(1,0,0,1,256,181.559)">
                        <path d="M674.694,603.544C674.001,603.681 673.259,603.408 672.831,602.79C672.255,601.959 672.462,600.817 673.293,600.241L673.963,599.951C674.062,599.93 674.492,599.875 675.203,599.818C680.977,599.348 709.395,597.652 716.515,598.839C717.513,599.005 718.187,599.95 718.021,600.947C717.855,601.944 716.91,602.619 715.913,602.453C709.722,601.421 687.072,602.671 678.149,603.277C676.361,603.398 674.917,603.524 674.694,603.544Z"/>
                    </g>
                    <g transform="matrix(1,0,0,1,256,181.559)">
                        <path d="M682.656,546.917C683.615,546.597 684.653,547.116 684.973,548.075C685.293,549.035 684.774,550.073 683.814,550.393C679.604,551.796 675.956,556.857 673.561,562.391C671.144,567.975 669.985,574.129 671.296,577.898C674.913,588.298 676.287,587.393 685.197,593.63C686.025,594.21 686.227,595.353 685.647,596.182C685.067,597.01 683.924,597.212 683.096,596.632C673.232,589.727 671.84,590.615 667.835,579.102C666.303,574.696 667.372,567.463 670.198,560.936C673.045,554.359 677.653,548.584 682.656,546.917Z"/>
                    </g>
                    <g transform="matrix(1,0,0,1,256,181.559)">
                        <path d="M703.517,548.524C702.972,548.879 702.254,548.933 701.642,548.602C700.753,548.12 700.422,547.008 700.903,546.118L701.192,545.669L701.578,545.247L702.077,544.89L702.667,544.65L703.639,544.571L704.282,544.708L704.832,544.942C705.621,545.355 706.598,546.274 707.594,547.678C711.461,553.127 716.624,566.699 716.755,577.81C716.85,585.851 714.27,592.565 707.508,594.819C706.549,595.138 705.51,594.619 705.191,593.66C704.871,592.701 705.39,591.662 706.349,591.342C710.896,589.827 712.659,585.501 713.023,580.33C713.633,571.657 710.261,560.6 706.895,553.765C705.924,551.793 704.96,550.182 704.087,549.114C703.917,548.906 703.701,548.693 703.517,548.524Z"/>
                    </g>
                    <g transform="matrix(1,0,0,1,256,181.559)">
                        <path d="M676.672,545.237C676.511,545.385 675.064,546.725 673.948,548.201C670.467,552.807 665.82,561.234 666.602,568.273C667.54,576.712 670.374,582.099 673.583,585.54C678.413,590.721 684.021,591.489 684.868,591.852C685.797,592.25 686.229,593.328 685.83,594.258C685.432,595.187 684.354,595.618 683.425,595.22C682.479,594.815 676.295,593.822 670.903,588.039C667.297,584.172 664.014,578.16 662.96,568.678C662.079,560.749 667.103,551.18 671.025,545.992C672.254,544.366 673.382,543.159 674.182,542.518C674.775,542.043 675.298,541.805 675.663,541.718C676.647,541.485 677.635,542.094 677.869,543.078C678.089,544.006 677.559,544.938 676.672,545.237Z"/>
                    </g>
                    <g transform="matrix(1,0,0,1,256,181.559)">
                        <path d="M671.338,541.715C672.274,541.332 673.345,541.781 673.727,542.717C674.11,543.653 673.661,544.724 672.725,545.107C670.191,546.143 667.125,549.928 664.798,554.869C661.418,562.046 659.706,571.772 664.124,580.078C667.083,585.64 672.789,590.505 682.431,593.615C683.393,593.925 683.922,594.959 683.612,595.921C683.301,596.884 682.268,597.413 681.306,597.102C670.501,593.617 664.205,588.032 660.889,581.799C655.897,572.413 657.663,561.418 661.483,553.308C664.298,547.33 668.272,542.969 671.338,541.715Z"/>
                    </g>
                    <g transform="matrix(1,0,0,1,256,181.559)">
                        <path d="M704.984,543.879C704.477,543.004 704.775,541.882 705.649,541.375C706.524,540.867 707.646,541.165 708.154,542.04C708.903,543.331 710.054,544.15 711.324,545.256C714.852,548.325 719.485,552.989 721.731,569.828C722.601,576.352 722.102,580.576 720.595,584.026C719.109,587.432 716.602,590.099 713.236,593.465C712.521,594.18 711.36,594.18 710.645,593.465C709.93,592.75 709.93,591.589 710.645,590.874C713.629,587.89 715.919,585.58 717.237,582.561C718.535,579.586 718.848,575.936 718.099,570.312C716.07,555.099 712.106,550.793 708.919,548.02C707.312,546.622 705.932,545.512 704.984,543.879Z"/>
                    </g>
                    <g transform="matrix(1,0,0,1,256,181.559)">
                        <path d="M660.476,563.238C660.467,562.826 660.457,562.388 660.444,561.919C660.423,561.163 660.864,560.498 661.514,560.201C661.965,559.034 662.353,558.031 662.697,557.147C662.784,556.681 662.865,556.404 662.915,556.303L663.165,555.945C664.912,551.481 665.523,550.173 668.586,543.556C669,542.663 670.046,542.256 670.955,542.635C671.432,542.835 671.782,543.213 671.957,543.662C672.036,543.508 672.113,543.363 672.188,543.225C672.621,542.434 673.031,541.86 673.357,541.531L673.837,541.136L674.335,540.888L674.978,540.765L675.746,540.887L676.28,541.177L676.786,541.715L676.957,542.042C677.172,542.027 677.393,542.05 677.611,542.116C677.754,542.159 677.888,542.218 678.011,542.29C678.364,541.304 678.655,540.579 678.853,540.226L679.376,539.548L679.782,539.266L680.267,539.091L680.99,539.081L681.7,539.368L682.006,539.685L682.217,539.702L682.777,539.947L683.096,540.223L683.246,540.212L683.793,540.339L684.286,540.628L684.676,541.057C684.793,541.234 685.028,541.779 685.116,542.841L685.18,542.83L685.633,542.871L686.022,543L686.505,543.321L686.667,543.515L686.693,543.458L687.162,542.971L687.87,542.667L688.615,542.674L689.192,542.908L689.736,543.425L689.958,543.861L690.062,544.301C690.108,544.629 690.152,544.95 690.196,545.262C690.525,545.327 690.827,545.481 691.071,545.701C691.041,544.357 691.008,542.863 690.972,541.176C690.952,540.259 691.613,539.469 692.52,539.327C693.426,539.184 694.297,539.734 694.559,540.613L694.811,541.455C695.044,540.989 695.474,540.627 696.017,540.495C696.948,540.269 697.897,540.8 698.192,541.712C698.586,542.932 698.969,544.117 699.34,545.269C699.45,545.292 699.557,545.326 699.659,545.369C699.444,544.286 699.218,543.147 698.98,541.948C698.798,541.029 699.339,540.121 700.233,539.843C701.128,539.565 702.088,540.006 702.46,540.866L703.973,544.372C704.678,544.194 705.44,544.449 705.891,545.053L706.379,545.708C706.52,545.469 706.718,545.26 706.965,545.101C707.558,544.72 708.295,544.722 708.874,545.057C709.022,544.857 709.214,544.684 709.445,544.554C710.3,544.07 711.385,544.348 711.903,545.183C714.738,549.75 720.104,554.993 719.467,572.188C719.463,572.306 719.447,572.421 719.422,572.532C719.361,573.591 719.22,574.78 719.011,576.262C719.099,580.261 718.477,582.58 718.223,583.092L717.826,583.652L717.159,584.085L716.599,584.203L716.468,584.185L715.786,587.523C715.598,588.445 714.743,589.074 713.807,588.98C713.666,588.966 713.531,588.936 713.402,588.892C713.023,589.859 712.577,591.008 712.057,592.368C711.7,593.302 710.661,593.777 709.721,593.436C709.394,593.317 709.121,593.115 708.918,592.862C708.7,592.854 708.48,592.808 708.267,592.718L707.948,592.894L707.367,593.044L707.174,593.04C706.896,593.554 706.379,593.924 705.759,593.991C705.262,594.044 704.788,593.894 704.423,593.604C704.175,593.802 703.873,593.937 703.538,593.983C702.623,594.112 701.756,593.538 701.515,592.648C701.29,592.841 701.016,592.982 700.709,593.049C699.914,593.22 699.117,592.848 698.729,592.163C698.594,592.241 698.447,592.302 698.29,592.344C697.714,592.498 697.123,592.36 696.683,592.015C696.486,592.239 696.232,592.417 695.934,592.525C695.361,592.732 694.745,592.637 694.271,592.312C694.369,593.087 693.961,593.854 693.235,594.197C692.425,594.579 691.457,594.32 690.947,593.583L690.467,592.891C690.344,593.331 690.057,593.724 689.638,593.973C688.856,594.436 687.853,594.257 687.28,593.551L686.51,592.603C686.417,592.724 686.306,592.836 686.18,592.934C685.467,593.486 684.458,593.438 683.801,592.819L683.215,592.267C683.163,592.558 683.04,592.838 682.846,593.082C682.3,593.768 681.345,593.971 680.567,593.567C677.314,591.875 675.163,590.589 673.531,589.347C673.398,589.302 673.268,589.24 673.144,589.162C670.482,587.481 668.95,586.379 667.866,585.222C666.242,583.862 665.044,582.614 664.131,581.252C662.853,579.348 662.123,577.202 661.613,574.145C661.257,573.604 660.942,573.162 660.677,572.749C659.604,571.082 659.074,569.815 659.547,566.188C659.643,565.451 660.011,564.382 660.476,563.238ZM670.107,579.084C670.024,578.963 669.954,578.831 669.901,578.687C669.895,578.673 669.89,578.658 669.884,578.644C669.6,577.885 669.339,577.188 669.098,576.543C668.839,576.828 668.489,577.034 668.082,577.111C668.073,577.112 668.065,577.114 668.056,577.115C670.098,579.834 671.32,581.712 672.567,583.259C671.948,582.242 671.223,581.025 670.293,579.476C670.286,579.465 670.28,579.454 670.273,579.442C670.203,579.327 670.148,579.206 670.107,579.084ZM665.037,571.392C664.908,570.748 664.787,570.121 664.671,569.511C664.699,569.823 664.727,570.126 664.756,570.421C664.837,570.726 664.93,571.047 665.037,571.392ZM711.979,559.346C712.125,560.721 712.269,562.025 712.39,563.584C712.559,563.279 712.811,563.031 713.113,562.865C713.099,562.715 713.087,562.569 713.075,562.428C713.017,561.748 712.991,561.161 712.983,560.693C712.982,560.69 712.98,560.688 712.978,560.686L711.979,559.346Z"/>
                    </g>
                    <g transform="matrix(1,0,0,1,256,181.559)">
                        <path d="M668.647,588.432C668.68,587.794 669.046,587.191 669.658,586.885C670.562,586.433 671.663,586.8 672.116,587.705L672.315,588.485L672.166,589.455C671.719,590.98 669.481,596.118 668.189,599.038C676.777,601.009 677.573,599.232 687.871,599.679C690.163,599.779 704.707,600.415 716.543,599.231C717.549,599.131 718.448,599.866 718.548,600.872C718.649,601.878 717.914,602.777 716.907,602.877C704.856,604.082 690.046,603.442 687.712,603.34C676.239,602.842 676.161,604.936 665.162,602.067C664.641,601.93 664.206,601.572 663.973,601.085C663.74,600.599 663.733,600.035 663.954,599.543C664.321,598.725 668.058,590.429 668.647,588.432Z"/>
                    </g>
                    <g transform="matrix(1,0,0,1,256,181.559)">
                        <path d="M673.662,588.301C673.988,588.259 674.327,588.305 674.645,588.448C675.294,588.739 675.697,589.368 675.725,590.044C676.296,589.596 677.099,589.517 677.76,589.892C678.557,590.344 678.895,591.313 678.56,592.159C678.96,591.668 679.381,591.151 679.824,590.608C680.41,589.89 681.439,589.722 682.222,590.217C683.005,590.712 683.296,591.713 682.899,592.55C682.772,592.82 682.645,593.085 682.519,593.347C683.788,591.924 684.818,590.763 685.055,590.496C685.672,589.802 686.712,589.679 687.473,590.211C687.71,590.377 687.897,590.589 688.029,590.828L688.926,589.815C689.569,589.09 690.665,588.99 691.427,589.588C691.984,590.024 692.223,590.721 692.097,591.375C692.352,591.142 692.613,590.903 692.881,590.657C693.545,590.048 694.552,590.012 695.258,590.572C695.468,590.739 695.633,590.944 695.749,591.17L695.864,591.048C696.489,590.385 697.505,590.282 698.25,590.806C698.4,590.911 698.53,591.036 698.639,591.174L700.109,589.566C700.72,588.898 701.727,588.776 702.479,589.279C702.763,589.469 702.978,589.725 703.115,590.015C703.707,589.626 704.487,589.606 705.107,590C705.695,590.374 706.006,591.037 705.948,591.703C706.558,591.167 707.459,591.093 708.153,591.543C708.612,591.841 708.899,592.314 708.971,592.825C709.299,592.822 709.629,592.908 709.926,593.085C710.141,593.214 710.321,593.381 710.462,593.573L710.637,593.085C710.894,592.369 711.567,591.887 712.327,591.872C713.088,591.858 713.778,592.315 714.062,593.02L715.919,597.637C716.296,598.575 715.841,599.643 714.903,600.02C713.965,600.398 712.897,599.942 712.519,599.004L712.344,598.57C711.911,598.972 711.294,599.153 710.683,599.011C710.653,599.005 710.624,598.997 710.596,598.989L708.531,601.441C707.965,602.113 707.002,602.288 706.235,601.86C705.871,601.656 705.599,601.343 705.445,600.98C704.843,601.385 704.042,601.403 703.415,600.99C703.188,600.84 703.004,600.647 702.867,600.428L701.979,601.39C701.379,602.041 700.399,602.169 699.651,601.694C698.988,601.274 698.676,600.485 698.847,599.74C698.273,600.019 697.575,599.987 697.019,599.612C696.778,599.449 696.586,599.237 696.45,598.998L694.953,600.635C694.335,601.311 693.313,601.427 692.559,600.906C692.361,600.769 692.198,600.599 692.072,600.408L690.491,602.084C689.856,602.757 688.818,602.851 688.073,602.302C687.558,601.923 687.294,601.32 687.329,600.718C686.851,601.134 686.539,601.38 686.338,601.499L685.588,601.794L684.976,601.822L684.421,601.675L683.907,601.349L683.752,601.177L682.784,602.27C682.167,602.965 681.127,603.089 680.365,602.557C680.097,602.371 679.894,602.125 679.761,601.849C679.383,602.255 679.111,602.538 678.993,602.644C678.325,603.245 677.835,603.615 677.517,603.8L677.038,604.025L676.518,604.143L676.009,604.128L675.592,604.013L674.919,603.561L674.523,602.955L674.477,602.739L674.321,602.852L673.757,603.075L673.145,603.145L672.539,603.06L672.105,602.915L671.659,602.655L671.154,602.101L671.082,601.936C670.689,602.019 670.268,601.973 669.887,601.782C669.612,601.645 669.385,601.447 669.216,601.211C668.666,601.578 667.937,601.632 667.32,601.295C666.455,600.822 666.119,599.75 666.56,598.868C669.035,593.918 668.795,593.983 671.726,589.147C672.138,588.466 672.925,588.15 673.662,588.301Z"/>
                    </g>
                    <g transform="matrix(1,0,0,1,256,181.559)">
                        <path d="M665.653,547.647C665.343,547.991 664.743,548.689 664.296,549.411C659.508,557.147 651.434,581.812 675.162,592.253C684.775,596.483 690.886,596.051 706.325,592.801C713.886,591.209 718.516,585.277 720.284,579.445C721.435,575.649 721.398,571.888 720.063,569.44C719.085,567.648 719.171,566.307 719.274,564.659C719.402,562.604 719.468,559.994 716.39,554.718C715.689,553.515 714.631,551.089 714.491,550.767C713.861,549.318 713.301,549.016 712.639,548.52C712.046,548.076 711.385,547.521 710.586,546.322C710.265,545.84 710.395,545.189 710.876,544.868C711.358,544.547 712.009,544.677 712.33,545.159C713.11,546.33 713.724,546.712 714.276,547.123C715.011,547.671 715.679,548.243 716.413,549.931C716.545,550.235 717.539,552.527 718.201,553.662C721.641,559.558 721.509,562.493 721.366,564.79C721.287,566.043 721.159,567.073 721.903,568.437C723.453,571.279 723.627,575.644 722.29,580.053C720.327,586.53 715.154,593.085 706.757,594.852C690.685,598.236 684.325,598.575 674.318,594.171C648.893,582.985 657.384,556.597 662.514,548.308C663.189,547.216 663.82,546.424 664.31,545.983C664.635,545.692 664.936,545.521 665.178,545.441L665.44,545.377L665.752,545.365L666.21,545.483L666.6,545.761L666.795,546.016L666.917,546.269C667.12,546.811 666.845,547.416 666.304,547.619C666.087,547.7 665.861,547.705 665.653,547.647Z" style="fill:rgb(237,236,218);"/>
                    </g>
                    <g transform="matrix(1,0,0,1,256,181.559)">
                        <path d="M719.636,601.92C719.583,601.801 719.522,601.674 719.458,601.564C719.048,600.851 718.407,599.974 717.688,599.037C715.733,596.486 713.27,593.513 712.768,592.007C712.585,591.458 712.882,590.864 713.431,590.681C713.979,590.499 714.573,590.796 714.756,591.344C715.019,592.133 715.927,593.352 716.961,594.697C718.696,596.95 720.8,599.488 721.54,601.017C721.821,601.596 721.927,602.092 721.905,602.452L721.858,602.755L721.738,603.073L721.531,603.373L721.257,603.609C721.091,603.72 720.724,603.872 720.154,603.991C719.252,604.179 717.644,604.379 715.507,604.559C703.524,605.565 674.632,605.964 661.71,600.883C661.436,600.776 661.22,600.558 661.114,600.283C661.009,600.008 661.024,599.702 661.156,599.438C662.49,596.776 666.292,590.25 667.043,588.749C667.301,588.232 667.931,588.022 668.449,588.28C668.966,588.539 669.176,589.169 668.917,589.686C668.252,591.017 665.187,596.3 663.571,599.336C676.737,603.898 703.887,603.431 715.332,602.47C717.133,602.319 718.818,602.057 719.636,601.92Z" style="fill:rgb(237,236,218);"/>
                    </g>
                </g>
                <g transform="matrix(1,0,0,1,256,181.559)">
                    <path d="M662.998,495.509C663.374,495.069 664.036,495.017 664.476,495.392C664.916,495.767 664.969,496.429 664.593,496.869C664.011,497.553 663.589,498.176 663.349,498.729C663.198,499.076 663.101,499.366 663.175,499.604C663.217,499.74 663.359,499.797 663.535,499.855C663.985,500.005 664.609,500.021 665.414,499.932C665.989,499.868 666.508,500.283 666.571,500.858C666.635,501.433 666.22,501.951 665.645,502.015C664.458,502.147 663.538,502.065 662.875,501.845C661.935,501.533 661.398,500.952 661.173,500.224C661.011,499.702 661.017,499.071 661.251,498.354C661.515,497.543 662.092,496.572 662.998,495.509Z"/>
                </g>
                <g transform="matrix(1,0,0,1,256,181.559)">
                    <path d="M664.352,496.458C663.951,496.458 659.319,496.458 661.015,500.188C662.998,504.552 664.336,503.994 668.278,501.366C656.556,506.193 661.856,493.9 664.156,495.28C664.549,495.516 656.992,503.074 666.511,501.17" style="fill:rgb(237,236,218);"/>
                    <path d="M660.992,496.231C661.506,495.374 662.146,494.713 662.739,494.396C663.049,494.231 663.359,494.144 663.653,494.127L664.184,494.173L664.695,494.382L665.028,494.694L665.19,495.063L665.212,495.431L665.124,495.75C665.295,495.936 665.4,496.185 665.4,496.458C665.4,497.037 664.93,497.506 664.352,497.506C664.299,497.506 664.159,497.506 663.966,497.517C663.945,497.547 663.925,497.576 663.905,497.606C663.507,498.19 663.085,498.859 662.859,499.484C662.793,499.668 662.743,499.844 662.731,500.01C662.726,500.081 662.706,500.152 662.752,500.201C662.891,500.351 663.154,500.384 663.532,500.414C664.195,500.467 665.098,500.383 666.306,500.142C666.737,500.056 667.159,500.248 667.387,500.593C667.547,500.531 667.711,500.466 667.879,500.397C668.377,500.192 668.95,500.398 669.203,500.873C669.457,501.349 669.308,501.939 668.86,502.238C667.331,503.257 666.156,503.97 665.191,504.268C664.317,504.538 663.565,504.513 662.867,504.203C662.363,503.979 661.869,503.569 661.375,502.922C661.007,502.679 660.718,502.379 660.495,502.045C660.159,501.541 659.97,500.937 659.917,500.282C659.377,498.89 659.576,497.892 660.025,497.179C660.268,496.793 660.605,496.479 660.992,496.231Z"/>
                </g>
                <g transform="matrix(1,0,0,1,256,181.559)">
                    <path d="M681.06,525.462L681.053,525.451L681.194,525.078L681.2,525.086C681.352,524.779 681.733,524.872 682.178,526.486L683.154,525.821L683.013,526.194L682.029,526.879C681.451,526.879 680.981,526.41 680.981,525.831C680.981,525.69 681.009,525.554 681.06,525.462Z"/>
                </g>
                <g transform="matrix(1,0,0,1,256,181.559)">
                    <path d="M662.71,496.781C662.997,497.08 663.092,497.534 662.913,497.936C662.677,498.464 662.057,498.702 661.529,498.466L661.192,498.273L660.883,497.991L660.633,497.607L660.491,497.137C660.422,496.67 660.521,496.028 661.184,495.31C662.303,494.097 665.756,492.204 674.717,490.136C678.56,489.25 681.615,488.537 683.696,487.528C684.856,486.967 685.688,486.337 686.082,485.455C686.404,484.734 686.416,483.866 686.162,482.79C685.862,481.518 685.197,480.003 684.156,478.163C683.915,477.737 684.001,477.201 684.364,476.871C684.726,476.542 685.268,476.508 685.669,476.788C691.91,481.153 691.989,480.798 694.933,483.742C695.342,484.151 695.342,484.815 694.933,485.224C694.524,485.633 693.86,485.633 693.451,485.224C691.228,483.002 690.685,482.73 687.691,480.717C688.583,483.128 688.615,484.924 687.996,486.31C687.423,487.592 686.295,488.598 684.61,489.415C682.425,490.474 679.224,491.248 675.189,492.179C668.255,493.779 664.838,495.171 663.294,496.253C663.056,496.42 662.843,496.634 662.71,496.781Z"/>
                </g>
                <g transform="matrix(1,0,0,1,256,181.559)">
                    <path d="M694.949,485.934C694.396,486.104 693.809,485.793 693.639,485.24C693.469,484.687 693.781,484.1 694.334,483.93C695.248,483.649 700.1,482.167 705.112,482.502C710.365,482.854 715.764,485.146 717.398,492.501C720.964,508.548 718.087,516.742 715.033,524.483C712.098,531.92 708.975,538.92 711.71,552.595C711.823,553.162 711.455,553.715 710.888,553.828C710.32,553.942 709.768,553.573 709.654,553.006C706.805,538.758 710.026,531.462 713.083,523.714C716.02,516.269 718.782,508.388 715.352,492.956C713.977,486.766 709.392,484.889 704.972,484.594C700.31,484.282 695.8,485.673 694.949,485.934Z"/>
                </g>
                <g transform="matrix(1,0,0,1,256,181.559)">
                    <path d="M661.988,502.698C661.881,502.13 662.256,501.581 662.824,501.474C663.392,501.367 663.941,501.741 664.048,502.309C664.37,504.016 665.459,504.675 666.917,504.878C668.766,505.135 671.107,504.769 673.489,504.508C678.967,503.909 684.52,503.94 686.178,510.534C687.003,513.819 685.408,517.217 682.637,521.63C678.811,527.724 672.801,536.001 669.293,549.53C669.147,550.09 668.575,550.426 668.015,550.281C667.455,550.136 667.118,549.564 667.264,549.004C670.845,535.194 676.956,526.736 680.862,520.516C682.107,518.533 683.123,516.79 683.728,515.171C684.273,513.714 684.479,512.373 684.145,511.045C683.775,509.575 683.168,508.53 682.362,507.814C681.132,506.721 679.477,506.399 677.69,506.355C675.454,506.301 673.015,506.701 670.784,506.916C666.372,507.343 662.779,506.888 661.988,502.698Z"/>
                </g>
                <g transform="matrix(1,0,0,1,256,181.559)">
                    <path d="M684.393,512.451C684.674,511.945 685.312,511.762 685.818,512.042C686.324,512.323 686.507,512.961 686.226,513.467C675.04,533.643 672.541,536.632 667.513,552.913C667.342,553.466 666.755,553.776 666.202,553.605C665.649,553.435 665.339,552.847 665.51,552.295C670.588,535.852 673.096,532.826 684.393,512.451Z"/>
                </g>
                <g transform="matrix(1,0,0,1,256,181.559)">
                    <path d="M689.751,511.418C689.879,510.917 690.012,510.391 690.152,509.838C690.152,509.837 690.152,509.835 690.153,509.834C690.294,509.274 690.863,508.934 691.423,509.074C691.436,509.077 691.448,509.08 691.46,509.084C691.66,509.002 691.887,508.982 692.113,509.039C692.667,509.18 693.006,509.74 692.874,510.297L692.866,510.329L692.824,510.508C692.854,510.523 692.883,510.54 692.912,510.557C693.136,509.881 693.282,509.519 693.363,509.179C693.364,509.176 693.364,509.174 693.365,509.172C693.498,508.61 694.061,508.262 694.623,508.393C695.185,508.525 695.535,509.086 695.406,509.649C695.405,509.651 695.405,509.653 695.404,509.656C695.027,511.295 694.886,511.798 692.63,520.945C694.581,514.677 695.594,511.816 698.127,504.013C698.299,503.48 698.86,503.178 699.4,503.325C699.509,503.355 699.609,503.401 699.698,503.459C699.751,503.463 699.803,503.47 699.856,503.482C700.418,503.605 700.775,504.158 700.657,504.721C698.049,517.142 697.158,521.829 696.228,528.43L696.364,528.615C696.373,528.631 696.382,528.648 696.392,528.665C696.816,526.58 697.25,524.548 697.808,522.028L700.296,510.056L700.298,510.047C700.415,509.482 700.967,509.118 701.533,509.233C702.098,509.348 702.464,509.898 702.352,510.464C702.351,510.467 702.351,510.47 702.35,510.473C702.276,510.844 702.204,511.21 702.132,511.573C702.201,511.75 702.222,511.948 702.184,512.148C702.182,512.161 702.179,512.173 702.177,512.185C701.146,517.608 700.421,521.378 699.816,524.444C700.682,521.588 701.701,518.136 703.195,513.013C703.355,512.466 703.922,512.147 704.472,512.294C704.848,512.395 705.122,512.688 705.215,513.04C705.377,512.513 705.547,511.953 705.729,511.338C705.731,511.331 705.733,511.324 705.735,511.317C705.898,510.766 706.474,510.449 707.027,510.606C707.579,510.763 707.902,511.336 707.751,511.89C707.749,511.897 707.747,511.904 707.745,511.911C707.542,512.657 706.775,515.463 705.757,519.106C705.757,519.314 705.756,519.536 705.754,519.774C706.293,518.148 706.899,516.309 707.602,514.177C707.603,514.172 707.605,514.168 707.606,514.163C707.787,513.616 708.375,513.317 708.923,513.494C709.471,513.67 709.774,514.256 709.602,514.806C709.6,514.81 709.599,514.815 709.597,514.819C708.457,518.449 707.594,521.167 706.879,523.43C706.894,523.429 706.91,523.429 706.926,523.429C707.126,523.432 707.312,523.491 707.47,523.592C708.141,521.8 708.907,519.708 709.81,517.2C709.812,517.194 709.814,517.188 709.816,517.183C710.011,516.641 710.606,516.358 711.149,516.549C711.692,516.739 711.98,517.331 711.794,517.876C711.792,517.882 711.79,517.887 711.788,517.893C710.602,521.371 709.639,524.148 708.853,526.394C708.917,526.422 708.978,526.456 709.034,526.496C709.817,524.689 710.854,522.538 712.383,519.48C712.39,519.466 712.397,519.452 712.403,519.439C712.658,518.929 713.274,518.716 713.789,518.96C714.304,519.204 714.53,519.815 714.298,520.335C714.291,520.349 714.285,520.362 714.279,520.376C714.064,520.858 713.853,521.328 713.648,521.786C713.863,522.053 713.943,522.42 713.83,522.769C713.826,522.781 713.822,522.792 713.819,522.803C712.214,527.758 711.449,530.106 710.513,532.522C710.06,534.366 709.691,536.518 709.13,540.206C709.112,540.325 709.074,540.437 709.021,540.538L708.973,541.91L708.972,541.947C708.968,542.068 708.943,542.184 708.901,542.291L708.803,544.828C708.781,545.387 708.324,545.83 707.765,545.835C707.27,545.84 706.85,545.5 706.737,545.036C706.528,547.982 706.319,550.56 706.134,552.178C706.031,553.074 705.926,553.704 705.839,553.989L705.612,554.453L705.428,554.643L705.203,554.784L704.932,554.869L704.614,554.876L704.321,554.795L704.103,554.669L703.804,554.327C703.729,554.196 703.597,553.79 703.54,553.04C703.518,552.745 703.499,552.372 703.481,551.914L703.433,551.927L703.06,551.887L702.774,551.753L702.393,551.373C702.303,551.244 702.21,551.071 702.126,550.849C701.922,550.316 701.729,549.363 701.568,548.117C701.474,547.393 701.388,546.562 701.308,545.647L701.185,547.726C701.153,548.283 700.69,548.716 700.132,548.713C699.574,548.709 699.117,548.269 699.092,547.712L699.086,547.594C699.049,547.898 698.998,548.099 698.964,548.19L698.719,548.584L698.378,548.821L697.981,548.908L697.66,548.865L697.308,548.685L697.103,548.474L696.952,548.186C696.669,547.395 696.351,545.442 696.041,543.081C695.883,543.569 695.718,544.074 695.548,544.597C695.45,545.05 695.349,545.517 695.245,545.999C695.243,546.007 695.242,546.016 695.24,546.024C695.128,546.54 694.654,546.886 694.141,546.849C694.065,547.828 693.987,548.859 693.906,549.943C693.865,550.497 693.399,550.923 692.843,550.913C692.287,550.903 691.836,550.462 691.814,549.907L691.808,549.743C691.694,549.79 691.566,549.83 691.423,549.866L691.055,549.905L691.048,549.904C690.869,550.196 690.55,550.394 690.183,550.405C689.936,550.412 689.707,550.333 689.523,550.195C689.5,550.188 689.478,550.181 689.455,550.173C689.279,550.398 689.012,550.549 688.707,550.572C688.171,550.611 687.692,550.239 687.598,549.71L687.358,548.358C687.13,548.201 686.965,547.954 686.918,547.66C686.812,546.999 686.713,546.393 686.62,545.834C686.509,546.378 686.393,546.945 686.272,547.537C686.163,548.066 685.67,548.426 685.134,548.368C685.102,548.365 685.072,548.36 685.042,548.354C684.985,549.285 684.948,549.911 684.937,550.096C684.857,551.466 684.751,552.222 684.663,552.497L684.437,552.928L684.249,553.111L684.041,553.236L683.678,553.33L683.29,553.289L682.915,553.091L682.61,552.709C682.51,552.511 682.362,551.851 682.261,550.855C682.128,549.544 681.997,547.526 681.877,545.303C681.038,548.496 680.33,551.061 680.162,551.667C680.015,552.199 679.482,552.526 678.942,552.415C678.633,552.352 678.382,552.158 678.238,551.902C677.73,551.784 677.38,551.306 677.432,550.777L677.441,550.681C676.939,550.5 676.648,549.964 676.782,549.437L676.787,549.419L676.932,548.848C676.92,548.772 676.916,548.693 676.921,548.613C676.925,548.555 676.932,548.444 676.942,548.288C676.646,548.031 676.508,547.619 676.618,547.218C676.621,547.207 676.624,547.196 676.627,547.185C676.713,546.874 676.786,546.611 676.876,546.293C676.617,545.537 676.402,544.909 676.247,544.325C675.8,545.212 675.487,545.832 675.348,546.107C675.095,546.607 674.493,546.82 673.982,546.589C673.967,546.582 673.952,546.575 673.938,546.568C673.697,546.917 673.488,547.163 673.327,547.282L673.064,547.438L672.811,547.523L672.54,547.553L672.231,547.51L671.852,547.325L671.514,546.945C671.372,546.699 671.226,546.092 671.339,545.016C671.376,544.668 671.466,544.254 671.599,543.792C671.32,543.478 671.247,543.015 671.448,542.62L671.696,542.132C671.652,541.929 671.667,541.712 671.753,541.507C671.774,541.457 671.795,541.406 671.815,541.357C671.782,541.343 671.749,541.328 671.716,541.31C671.227,541.047 671.028,540.448 671.262,539.945C679.093,523.109 683.442,516.397 688.963,511.665C689.188,511.472 689.474,511.39 689.751,511.418ZM692.732,527.775C692.755,527.797 692.778,527.82 692.799,527.843L693.044,526.744C692.943,527.079 692.839,527.422 692.732,527.775ZM705.722,527.109C705.71,527.149 705.697,527.19 705.684,527.231C705.681,527.474 705.679,527.723 705.676,527.976C705.692,527.671 705.708,527.381 705.722,527.109Z"/>
                </g>
                <g transform="matrix(1,0,0,1,256,181.559)">
                    <path d="M663.621,495.075C663.6,494.874 663.591,494.7 663.597,494.56C663.604,494.4 663.625,494.264 663.653,494.151L663.781,493.81L663.963,493.552L664.155,493.383L664.432,493.238L664.735,493.171L665.062,493.188L665.42,493.311C665.478,493.34 665.543,493.379 665.614,493.428C665.756,493.388 665.909,493.35 666.071,493.316C667.829,492.946 671.031,492.876 674.484,492.493C676.881,492.228 679.405,491.807 681.617,490.988C681.695,490.87 681.769,490.778 681.838,490.707L682.115,490.479L682.369,490.349L682.627,490.279L682.908,490.265L683.16,490.32C683.347,490.226 683.529,490.128 683.708,490.025L683.69,489.661C683.666,489.151 684.013,488.698 684.511,488.588C684.831,488.517 685.155,488.601 685.396,488.796C685.923,488.304 686.373,487.744 686.727,487.103C687.591,485.536 687.855,483.504 687.311,480.868C687.214,480.397 687.45,479.921 687.883,479.712C688.316,479.503 688.836,479.616 689.143,479.986C689.563,480.49 689.597,480.631 692.446,484.279C692.804,484.265 693.153,484.436 693.359,484.745L695.426,487.845C695.461,487.898 695.492,487.955 695.517,488.013L695.733,488.516C695.94,488.999 695.757,489.56 695.306,489.829C694.854,490.098 694.273,489.991 693.947,489.579C693.877,489.491 693.808,489.403 693.74,489.317L693.908,492.604C693.935,493.136 693.56,493.603 693.035,493.691C692.51,493.78 692.002,493.46 691.855,492.949C691.659,492.272 691.485,491.663 691.33,491.115C691.342,491.686 691.355,492.305 691.37,492.972C691.382,493.507 690.99,493.966 690.459,494.035C690.438,494.038 690.416,494.04 690.395,494.042L690.583,496.15C690.631,496.683 690.27,497.166 689.745,497.271C689.322,497.355 688.903,497.172 688.672,496.831C688.618,497.271 688.291,497.637 687.847,497.73C687.351,497.834 686.852,497.569 686.661,497.1L686.075,495.663L686.175,497.775C686.2,498.291 685.844,498.748 685.338,498.852C684.832,498.955 684.326,498.674 684.146,498.19C683.563,496.62 683.156,494.971 682.808,493.708C682.795,493.659 682.781,493.609 682.766,493.559C682.737,493.625 682.708,493.683 682.676,493.736L682.388,494.087L682.125,494.268L681.752,494.412C681.387,494.506 680.617,494.509 678.76,494.715C678.508,494.743 678.264,494.679 678.065,494.547C676.634,495.057 676.133,495.183 674.924,495.384C674.671,495.426 674.425,495.374 674.22,495.254C674.111,495.588 673.837,495.858 673.473,495.948C673.261,496 672.214,496.256 670.921,496.508C671.772,497.539 672.092,498.837 672.122,500.085C672.164,501.857 671.623,503.497 671.514,503.821C671.29,504.495 670.984,504.839 670.756,504.996L670.45,505.153L670.07,505.223L669.691,505.174L669.386,505.041C669.193,504.925 668.959,504.69 668.752,504.322L668.741,504.315L668.655,504.423L668.382,504.618C668.366,504.702 668.35,504.788 668.333,504.874C668.243,505.342 667.848,505.689 667.373,505.721C667.027,505.743 666.701,505.594 666.492,505.337L666.462,505.344L665.988,505.282L665.616,505.111C665.555,505.074 665.494,505.03 665.431,504.979L665.356,504.995L665.076,504.993L664.679,504.888L664.255,504.616C664.059,504.443 663.85,504.176 663.66,503.818C663.485,503.487 663.315,503.053 663.158,502.56C662.993,502.342 662.835,502.03 662.712,501.641C662.483,500.92 662.344,499.866 662.337,498.869C662.336,498.728 662.338,498.588 662.343,498.451C662.321,498.199 662.306,497.958 662.299,497.733C662.278,497.073 662.332,496.527 662.439,496.175L662.612,495.768L662.84,495.471L663.125,495.245L663.504,495.085L663.621,495.075ZM686.425,490.68C686.395,490.705 686.365,490.73 686.336,490.754L686.433,490.993L686.425,490.68ZM689.848,484.354C689.787,484.276 689.728,484.199 689.671,484.125C689.664,484.247 689.655,484.368 689.644,484.487L689.848,484.354Z"/>
                </g>
                <g transform="matrix(1,0,0,1,256,181.559)">
                    <path d="M668.619,503.95C668.684,503.754 668.777,503.45 668.81,503.202C668.848,502.928 668.87,502.63 668.883,502.319C668.907,501.692 668.892,501.014 668.855,500.352L668.462,496.661L668.47,496.661C668.461,496.597 668.456,496.559 668.456,496.551C668.456,496.168 668.662,495.832 668.97,495.649C668.967,495.616 668.965,495.584 668.964,495.551C668.504,495.449 668.167,495.051 668.144,494.578C668.122,494.097 668.429,493.662 668.89,493.524C675.307,491.6 679.519,490.686 682.409,489.757C684.362,489.129 685.663,488.526 686.613,487.494C687.579,486.446 688.175,484.979 688.805,482.728C688.935,482.264 689.365,481.948 689.847,481.963C690.329,481.978 690.739,482.319 690.84,482.791C691.447,485.625 692.246,487.832 692.462,489.463C692.657,490.933 692.401,492.034 691.574,492.835C690.809,493.574 689.412,494.091 686.99,494.212C685.273,494.298 684.206,494.735 683.561,495.434C683.201,495.825 682.97,496.279 682.819,496.763C683.266,496.905 683.783,497.252 684.287,497.845C685.294,499.032 686.55,501.299 687.765,503.057C688.078,503.51 688.386,503.926 688.687,504.269L688.76,504.272L689.068,504.395L689.264,504.545C689.302,504.53 689.342,504.517 689.382,504.506C689.388,504.484 689.394,504.463 689.4,504.443L689.664,503.882L690.032,503.498C690.341,503.266 690.752,503.223 691.102,503.386C691.453,503.548 691.685,503.89 691.707,504.276L692.243,513.561C692.275,514.122 691.86,514.608 691.302,514.665C691.087,514.686 690.88,514.641 690.702,514.546C690.713,515.101 690.287,515.57 689.731,515.611C689.594,515.621 689.461,515.604 689.337,515.565C689.338,515.594 689.339,515.623 689.339,515.652C689.352,516.212 688.923,516.683 688.365,516.722C688.102,516.74 687.854,516.66 687.658,516.511C687.654,516.678 687.65,516.805 687.647,516.887C687.647,516.891 687.646,516.895 687.646,516.898C687.626,517.475 687.144,517.926 686.567,517.908C685.991,517.891 685.537,517.411 685.551,516.835C685.551,516.831 685.551,516.827 685.551,516.823C685.557,516.599 685.563,516.394 685.568,516.203C685.59,514.948 685.562,512.232 684.979,509.759C684.558,507.972 683.9,506.274 682.576,505.612C680.68,504.664 679.043,504.22 677.649,504.093C676.821,504.865 676.223,505.227 675.836,505.33L675.547,505.381L675.217,505.373L674.872,505.278L674.563,505.097L674.301,504.832L674.133,504.559C674.129,504.552 674.126,504.545 674.122,504.537C674.08,504.539 674.037,504.538 673.996,504.535C673.903,504.569 673.812,504.604 673.724,504.64C673.704,504.781 673.684,504.926 673.664,505.075C673.595,505.59 673.159,505.977 672.64,505.984C672.349,505.988 672.082,505.873 671.888,505.681C671.721,505.801 671.59,505.898 671.494,505.958C671.135,506.182 670.676,506.169 670.331,505.924C670.208,505.836 670.108,505.725 670.035,505.6C669.718,505.934 669.338,506.123 668.931,506.161C668.556,506.195 668.108,506.116 667.599,505.819C667.117,505.538 666.52,505.014 665.816,504.154C665.45,503.706 665.516,503.045 665.963,502.679C666.411,502.312 667.072,502.379 667.438,502.826C667.852,503.331 668.365,503.754 668.619,503.95ZM686.236,506.91C686.293,506.473 686.615,506.124 687.033,506.025C687.049,505.872 687.071,505.745 687.098,505.635C687.045,505.575 686.993,505.513 686.94,505.45C685.76,504.03 684.474,501.72 683.368,500.111C683.101,499.721 682.744,499.312 682.5,499.046C682.492,499.182 682.485,499.316 682.476,499.448C682.422,500.27 682.35,501.018 682.157,501.599C681.988,502.109 681.729,502.517 681.374,502.816C682.054,503.06 682.767,503.364 683.513,503.737C684.708,504.335 685.601,505.491 686.236,506.91ZM674.259,494.165C674.61,494.228 674.918,494.468 675.053,494.822C675.128,495.017 675.196,495.212 675.26,495.409C676.805,496.106 678.034,496.677 680.7,496.72C680.921,495.736 681.305,494.788 682.021,494.013C682.946,493.01 684.423,492.242 686.885,492.119C687.956,492.065 688.772,491.945 689.38,491.734C689.79,491.592 690.081,491.425 690.246,491.172C690.41,490.92 690.44,490.606 690.428,490.239C690.41,489.692 690.279,489.058 690.099,488.333C689.968,487.807 689.811,487.239 689.643,486.629C689.212,487.549 688.73,488.29 688.155,488.915C686.992,490.176 685.44,490.985 683.051,491.752C680.938,492.431 678.122,493.103 674.259,494.165ZM680.419,498.813C678.698,498.77 677.509,498.526 676.471,498.175C676.484,498.202 676.497,498.229 676.509,498.256C677.101,499.536 677.169,501.042 679.585,501.261C679.769,501.278 679.91,501.287 680.012,501.221C680.189,501.108 680.202,500.866 680.251,500.603C680.324,500.221 680.354,499.78 680.384,499.311C680.395,499.147 680.406,498.981 680.419,498.813Z"/>
                </g>
                <g transform="matrix(1,0,0,1,256,181.559)">
                    <path d="M674.681,494.83C674.742,494.789 674.809,494.755 674.881,494.727C674.988,494.686 675.097,494.663 675.206,494.657C675.315,494.476 675.479,494.326 675.686,494.236C676.058,494.074 676.474,494.144 676.77,494.386C676.675,493.914 676.917,493.426 677.371,493.224C677.5,493.167 677.633,493.137 677.766,493.133C677.778,492.734 678.02,492.361 678.41,492.198C678.744,492.059 679.11,492.105 679.391,492.291C679.449,492.286 679.506,492.285 679.563,492.289C679.662,492.18 679.786,492.091 679.931,492.03C680.322,491.866 680.758,491.957 681.051,492.229C681.072,492.219 681.093,492.209 681.115,492.2C681.63,491.983 682.224,492.208 682.466,492.712C682.594,492.977 682.719,493.239 682.843,493.498C682.845,493.158 683.013,492.834 683.298,492.64L683.282,492.595C683.094,492.065 683.358,491.481 683.881,491.272C684.25,491.124 684.655,491.201 684.942,491.44C685.046,491.166 685.263,490.937 685.559,490.828C686.088,490.633 686.677,490.891 686.891,491.413L687.459,492.794C687.692,492.798 687.918,492.879 688.099,493.023C688.15,492.655 688.395,492.327 688.764,492.186C688.856,492.151 688.949,492.13 689.042,492.122L688.997,491.994C688.806,491.459 689.076,490.87 689.606,490.665C690.135,490.46 690.731,490.714 690.951,491.237L690.959,491.257C691.008,491.226 691.061,491.2 691.117,491.177C691.253,491.123 691.393,491.099 691.531,491.102C691.476,490.949 691.422,490.795 691.366,490.64C691.175,490.105 691.446,489.515 691.976,489.31C692.439,489.132 692.952,489.304 693.22,489.699C693.248,489.684 693.276,489.671 693.305,489.659C693.422,489.61 693.543,489.584 693.663,489.579C693.524,489.162 693.377,488.72 693.221,488.25C693.045,487.723 693.312,487.15 693.828,486.945C694.345,486.739 694.931,486.973 695.166,487.477L700.751,499.494C700.984,499.996 700.787,500.593 700.3,500.857C700.237,500.891 700.172,500.918 700.105,500.939C700.4,501.624 700.729,502.385 701.101,503.242C701.327,503.764 701.096,504.371 700.58,504.61C700.251,504.762 699.884,504.73 699.595,504.555L700.623,507.55C700.806,508.083 700.534,508.666 700.008,508.868C700.006,508.869 700.004,508.87 700.002,508.871C700.016,509.294 699.771,509.7 699.359,509.873C699.036,510.008 698.684,509.97 698.406,509.799C698.301,510.064 698.09,510.284 697.804,510.393C697.794,510.397 697.784,510.401 697.774,510.404L698.08,511.263C698.27,511.795 698.002,512.383 697.476,512.589C697.242,512.681 696.995,512.684 696.772,512.612C696.775,512.635 696.778,512.659 696.78,512.683C696.806,512.911 696.818,513.068 696.817,513.14L696.757,513.5L696.545,513.862L696.366,514.021L696.106,514.154L695.782,514.212L695.494,514.178L695.215,514.06L695.008,513.896L694.93,513.777C694.699,513.866 694.456,513.868 694.237,513.798C694.183,514.163 693.937,514.487 693.569,514.626C693.039,514.826 692.445,514.567 692.23,514.043C691.893,513.221 691.576,512.447 691.277,511.716C691.252,511.728 691.227,511.738 691.201,511.748C691.115,511.781 691.028,511.801 690.94,511.81C690.902,511.952 690.862,512.058 690.827,512.125L690.691,512.332L690.516,512.503L690.207,512.671L689.811,512.732L689.406,512.639L689.079,512.421C689.02,512.364 688.931,512.249 688.82,512.058C688.728,512.14 688.62,512.207 688.499,512.254C687.966,512.459 687.366,512.199 687.151,511.67C687.146,511.658 687.142,511.646 687.137,511.635C686.864,510.963 686.611,510.34 686.375,509.761C686.065,509.693 685.79,509.485 685.647,509.176L684.201,506.043C683.883,505.981 683.599,505.774 683.451,505.46L683.432,505.419L683.36,505.266C683.337,505.278 683.313,505.289 683.29,505.299C682.779,505.518 682.186,505.302 681.938,504.805L681.861,504.651C681.542,504.76 681.197,504.707 680.929,504.524C680.872,504.563 680.81,504.597 680.743,504.625C680.3,504.812 679.797,504.671 679.511,504.305C679.032,504.481 678.494,504.284 678.241,503.839L678.016,504.141L677.809,504.287L677.587,504.378L677.104,504.409L676.652,504.258C676.093,503.978 675.8,503.772 675.466,502.841C675.173,502.026 674.783,500.293 673.576,496.168C673.43,495.669 673.672,495.137 674.146,494.921C674.318,494.842 674.503,494.813 674.681,494.83Z"/>
                </g>
                <g transform="matrix(1,0,0,1,256,181.559)">
                    <path d="M694.021,485.813C694.098,485.697 694.2,485.595 694.324,485.515C694.571,485.355 694.861,485.313 695.128,485.374C695.344,485.219 695.615,485.15 695.887,485.189C695.961,485.199 696.054,485.213 696.167,485.227C696.325,484.928 696.624,484.716 696.977,484.677C702.693,484.042 707.222,484.212 709.746,484.912C711.151,485.301 712.021,485.917 712.386,486.547C714.552,490.289 717.814,495.044 716.236,504.508C716.141,505.079 715.601,505.465 715.03,505.37C714.46,505.275 714.074,504.734 714.169,504.164C715.625,495.429 712.571,491.05 710.572,487.598C710.476,487.432 710.253,487.328 709.971,487.204C709.498,486.995 708.875,486.829 708.122,486.697C707.791,486.64 707.437,486.589 707.061,486.547C706.935,486.938 706.584,487.234 706.15,487.271C706.139,487.272 706.128,487.272 706.117,487.273C705.566,487.319 705.039,487.358 704.537,487.391C702.306,487.609 701.392,487.919 699.546,487.54C698.734,487.529 698.056,487.499 697.497,487.462L698.883,490.341C699.12,490.834 698.939,491.427 698.466,491.702C697.993,491.977 697.388,491.842 697.077,491.393L696.664,490.796C696.478,490.749 696.303,490.65 696.162,490.501C694.407,488.649 694.689,488.481 692.393,487.333C691.875,487.074 691.665,486.444 691.924,485.927C692.183,485.409 692.813,485.199 693.33,485.458C693.586,485.586 693.815,485.703 694.021,485.813Z"/>
                </g>
                <g transform="matrix(1,0,0,1,256,181.559)">
                    <path d="M691.507,516.884L691.068,515.955C690.827,515.446 691.031,514.837 691.531,514.577C691.779,514.448 692.055,514.428 692.305,514.5C691.866,513.476 691.393,512.372 690.882,511.181C690.66,510.661 690.889,510.059 691.401,509.819C691.466,509.788 691.533,509.765 691.6,509.749C691.594,509.735 691.588,509.72 691.581,509.706C691.576,509.694 691.57,509.681 691.564,509.669C691.333,509.147 691.562,508.536 692.08,508.295C692.535,508.082 693.066,508.225 693.358,508.611C693.256,508.122 693.517,507.617 693.994,507.426C694.361,507.278 694.762,507.353 695.049,507.587C694.95,507.095 695.218,506.59 695.701,506.404C696.237,506.198 696.839,506.462 697.051,506.996L697.06,507.018L697.359,507.774C696.927,506.168 696.407,504.281 695.745,501.91C695.592,501.365 695.9,500.797 696.44,500.628C696.556,500.592 696.673,500.577 696.788,500.58L696.421,499.034L696.411,498.993C696.28,498.437 696.616,497.879 697.169,497.736C697.234,497.719 697.3,497.709 697.365,497.705L694.89,487.662C694.758,487.127 695.063,486.582 695.587,486.413C696.111,486.245 696.676,486.51 696.881,487.022C696.997,487.313 697.095,487.558 697.188,487.798C697.196,487.814 697.203,487.83 697.21,487.846L697.383,488.252C697.386,488.157 697.394,488.068 697.406,487.966L697.55,487.422L697.701,487.184L697.887,487.002L698.131,486.859L698.426,486.779L698.456,486.779C698.561,486.418 698.858,486.128 699.248,486.047C699.787,485.934 700.321,486.258 700.471,486.787C700.475,486.804 700.48,486.82 700.485,486.836C700.616,486.91 700.732,487.013 700.822,487.139L700.627,485.879C700.545,485.351 700.873,484.846 701.389,484.707C701.905,484.567 702.443,484.838 702.638,485.336L703.673,487.977C703.664,487.752 703.661,487.515 703.661,487.242C703.661,486.339 703.682,485.789 703.716,485.553L703.848,485.11L704.026,484.859L704.311,484.645L704.549,484.556L704.822,484.527L705.157,484.59L705.48,484.777L705.722,485.064L705.852,485.371C705.898,485.524 705.957,485.852 706.029,486.334C706.137,486.167 706.293,486.03 706.485,485.945C706.649,485.872 706.824,485.845 706.994,485.858C707.213,485.84 707.428,485.893 707.611,486L707.797,485.897L708.032,485.857L708.299,485.875C708.864,485.988 709.453,486.352 710.004,486.983C710.316,487.34 710.627,487.793 710.931,488.321C711.262,488.657 711.555,488.959 711.812,489.255C712.225,489.185 712.628,489.368 712.853,489.699C712.96,489.643 713.078,489.604 713.204,489.588C713.771,489.513 714.293,489.907 714.377,490.473L714.382,490.507L715.531,498.237C715.937,498.288 716.286,498.575 716.406,498.982C720.157,511.772 713.047,524.623 709.692,528.693C709.324,529.139 708.663,529.203 708.216,528.835C707.77,528.467 707.706,527.806 708.074,527.36C708.084,527.348 708.093,527.336 708.103,527.325C707.976,527.33 707.847,527.312 707.72,527.269C707.687,527.258 707.654,527.245 707.622,527.23C707.618,527.262 707.614,527.295 707.609,527.327C707.537,527.858 707.076,528.249 706.54,528.233C706.004,528.217 705.567,527.8 705.526,527.266L704.963,519.95C704.815,520.107 704.617,520.22 704.389,520.261C704.372,520.264 704.356,520.267 704.339,520.269C704.239,520.54 704.029,520.764 703.753,520.877L703.865,521.35L703.867,521.358C703.996,521.9 703.677,522.445 703.15,522.603C703.367,523.514 703.605,524.503 703.866,525.585C703.965,525.995 703.808,526.409 703.494,526.656C703.5,526.674 703.505,526.691 703.511,526.709C703.673,527.241 703.393,527.806 702.872,527.999C702.461,528.151 702.013,528.029 701.733,527.721C701.681,527.755 701.625,527.785 701.566,527.81C701.175,527.978 700.735,527.889 700.44,527.614C700.432,527.618 700.423,527.622 700.415,527.626C700.36,527.652 700.304,527.673 700.247,527.688C700.358,527.938 700.462,528.17 700.587,528.447C700.817,528.957 700.605,529.558 700.107,529.812C700.062,529.835 700.016,529.854 699.97,529.87L700.409,530.799C700.643,531.293 700.458,531.885 699.983,532.157C699.509,532.429 698.905,532.29 698.597,531.838C698.567,531.795 698.537,531.751 698.508,531.708C698.481,531.72 698.453,531.73 698.425,531.739C698.462,531.813 698.5,531.888 698.538,531.963C698.796,532.481 698.586,533.111 698.069,533.369C697.552,533.628 696.922,533.418 696.663,532.901C693.308,526.19 693.43,526.297 690.221,519.509C690.058,519.164 690.099,518.772 690.3,518.474L690.26,518.4L690.246,518.374C689.974,517.87 690.158,517.24 690.658,516.961C690.928,516.811 691.236,516.792 691.507,516.884ZM710.497,523.774C711.982,521.197 713.542,517.752 714.489,513.85C714.307,514.442 714.102,515.081 713.868,515.783C713.667,516.458 713.433,517.145 713.157,517.871C713.098,518.041 713.038,518.214 712.976,518.391C712.947,518.474 712.909,518.551 712.862,518.622C712.268,520.091 711.502,521.744 710.497,523.774ZM698.906,500.131L699.254,501.373C699.178,500.908 699.11,500.487 699.048,500.104C699.042,500.105 699.036,500.107 699.03,500.108C698.989,500.118 698.947,500.126 698.906,500.131ZM713.21,503.016C713.205,503.001 713.2,502.986 713.196,502.97C713.182,503.077 713.169,503.183 713.156,503.288C713.174,503.199 713.192,503.108 713.21,503.016Z"/>
                </g>
                <g transform="matrix(1,0,0,1,256,181.559)">
                    <path d="M675.223,503.278C674.672,503.102 674.367,502.512 674.542,501.961C674.718,501.41 675.308,501.105 675.859,501.28C676.204,501.39 676.2,501.238 680.265,502.307C680.824,502.454 681.159,503.028 681.012,503.587C680.864,504.147 680.291,504.481 679.731,504.334C675.571,503.24 675.576,503.39 675.223,503.278Z"/>
                </g>
                <g transform="matrix(1,0,0,1,256,181.559)">
                    <path d="M675.009,504.504C674.446,504.371 674.097,503.805 674.231,503.243C674.364,502.68 674.929,502.331 675.492,502.464C678.797,503.246 678.723,503.329 682.083,502.956C682.658,502.892 683.176,503.307 683.24,503.882C683.304,504.457 682.889,504.975 682.314,505.039C678.59,505.453 678.673,505.371 675.009,504.504Z"/>
                </g>
                <g transform="matrix(1,0,0,1,256,181.559)">
                    <path d="M678.874,504.223C678.306,504.114 677.933,503.564 678.043,502.996C678.152,502.428 678.702,502.055 679.27,502.165L682.566,502.799C683.134,502.909 683.506,503.459 683.397,504.027C683.287,504.595 682.737,504.967 682.169,504.858L678.874,504.223Z"/>
                </g>
                <g transform="matrix(1,0,0,1,256,181.559)">
                    <path d="M710.434,523.315C710.214,523.85 709.602,524.106 709.066,523.887C708.531,523.667 708.275,523.055 708.494,522.519C710.29,518.142 710.157,518.189 711.669,513.652C711.852,513.103 712.446,512.806 712.995,512.989C713.544,513.172 713.841,513.766 713.658,514.315C712.123,518.92 712.256,518.872 710.434,523.315Z"/>
                </g>
                <g transform="matrix(1,0,0,1,256,181.559)">
                    <path d="M712.761,520.424C712.636,520.932 712.148,521.278 711.616,521.213C711.042,521.143 710.633,520.619 710.703,520.045L710.814,519.62C710.87,519.486 710.945,519.356 711.048,519.207C711.391,518.713 712.168,517.69 712.978,511.478C713.053,510.905 713.58,510.5 714.153,510.575C714.727,510.65 715.132,511.176 715.057,511.75C714.121,518.926 712.921,520.273 712.761,520.424Z"/>
                </g>
                <g transform="matrix(1,0,0,1,256,181.559)">
                    <path d="M701.559,486.852L701.565,486.824L701.716,486.527L701.926,486.274L702.173,486.078L702.434,485.94C702.877,485.75 703.779,485.738 704.858,485.958C705.331,486.055 705.847,486.187 706.369,486.336C706.474,486.336 706.577,486.338 706.678,486.342C707.743,486.385 708.593,486.635 709.339,487.164C709.479,487.263 709.616,487.374 709.75,487.497C709.964,487.585 710.136,487.66 710.253,487.718L710.628,487.953L710.867,488.245L710.971,488.503L711.004,488.765C711.004,488.873 710.987,488.977 710.957,489.075C711.407,489.86 711.845,490.862 712.297,492.138C713.044,494.242 717.927,508.103 714.127,519.979C713.951,520.53 713.361,520.834 712.81,520.658C712.259,520.482 711.955,519.891 712.131,519.34C715.749,508.033 711.033,494.842 710.322,492.839C709.872,491.57 709.484,490.623 709.063,489.935C708.806,490.046 708.467,490.165 708.031,490.284C705.551,490.96 703.353,489.985 702.281,488.968C701.856,488.966 701.566,488.967 701.493,488.967C700.941,488.967 700.484,488.539 700.447,487.988C700.411,487.437 700.808,486.953 701.355,486.88C701.423,486.871 701.491,486.862 701.559,486.852Z"/>
                </g>
                <g transform="matrix(1,0,0,1,256,181.559)">
                    <path d="M714.858,553.032C714.659,552.822 714.253,552.362 713.653,551.462C708.016,543.005 709.846,536.982 712.851,528.992C715.687,521.45 719.569,512.057 718.391,496.665C718.375,496.61 718.266,496.242 718.144,495.905C717.725,494.746 716.925,492.801 716.122,490.905C715.173,488.662 714.219,486.487 713.88,485.757C713.592,485.64 712.684,485.284 711.762,485.05C708.471,484.219 702.749,483.429 698.505,484.372C696.457,484.827 695.155,484.708 694.154,484.284C693.455,483.988 692.887,483.536 692.33,482.958C691.242,481.83 690.176,480.125 687.42,478.497C686.705,478.074 686.101,477.828 685.6,477.762C685.341,477.728 685.129,477.73 684.985,477.85C684.743,478.05 684.723,478.43 684.748,478.894C684.791,479.711 685.107,480.729 685.675,481.865C686.375,483.265 686.468,484.496 686.151,485.582C685.84,486.641 685.119,487.583 684.055,488.401C682.825,489.348 681.112,490.145 679.151,490.836C675.001,492.299 669.698,493.312 665.886,494.592C664.701,494.989 663.668,495.409 662.883,495.886C662.296,496.243 661.849,496.597 661.698,497.051C660.775,499.82 660.815,501.621 661.699,502.792C662.34,503.641 663.387,504.11 664.64,504.416C666.089,504.771 667.801,504.886 669.591,504.936C673.426,505.043 677.596,504.867 680.531,505.745C682.844,506.436 684.457,507.746 684.919,510.054C684.962,510.273 684.959,510.658 684.831,511.183C684.645,511.95 684.186,513.209 683.521,514.808C679.852,523.629 669.798,543.228 666.78,547.042C666.297,547.652 665.86,547.946 665.616,548.024L665.264,548.084L664.963,548.052L664.583,547.882L664.309,547.617C663.963,547.153 664.06,546.496 664.524,546.15C664.646,546.059 664.782,545.999 664.922,545.968C665.197,545.609 666.002,544.538 666.68,543.432C670.812,536.687 678.97,520.505 681.87,513.31C682.418,511.95 682.8,510.566 682.847,510.391C682.525,508.941 681.408,508.195 679.931,507.753C677.142,506.919 673.177,507.133 669.533,507.032C667.174,506.966 664.941,506.773 663.179,506.174C661.846,505.721 660.765,505.035 660.026,504.055C658.844,502.489 658.476,500.089 659.709,496.388C660.104,495.203 661.404,494.141 663.372,493.299C667.167,491.674 673.597,490.571 678.454,488.859C680.178,488.252 681.695,487.573 682.777,486.74C683.448,486.224 683.943,485.661 684.139,484.993C684.327,484.351 684.214,483.63 683.8,482.802C682.917,481.037 682.571,479.474 682.662,478.337C682.745,477.301 683.174,476.548 683.823,476.103C684.731,475.48 686.323,475.414 688.486,476.692C690.916,478.128 692.167,479.602 693.183,480.773C693.784,481.467 694.258,482.052 694.972,482.354C695.68,482.653 696.601,482.648 698.05,482.326C703.261,481.168 710.548,482.405 713.637,483.405C714.662,483.737 715.298,484.131 715.496,484.366L715.689,484.681C715.94,485.196 717,487.601 718.053,490.088C719.271,492.966 720.44,495.965 720.479,496.47C721.697,512.308 717.73,521.974 714.813,529.73C712.063,537.043 710.238,542.56 715.398,550.299C716.002,551.206 716.354,551.565 716.451,551.663C716.513,551.724 716.499,551.637 716.986,552.612C717.245,553.129 717.035,553.76 716.518,554.018C716,554.277 715.37,554.067 715.111,553.55C714.991,553.309 714.908,553.136 714.858,553.032ZM665.917,546.277C665.943,546.305 665.967,546.334 665.99,546.365C665.967,546.333 665.942,546.304 665.917,546.277Z" style="fill:rgb(237,236,218);"/>
                </g>
            </g>
            <g id="black-pawn" serif:id="black pawn">
            </g>
        </g>
    </g>
</svg>
