<?xml version="1.0" encoding="UTF-8" standalone="no"?>
<!DOCTYPE svg PUBLIC "-//W3C//DTD SVG 1.1//EN" "http://www.w3.org/Graphics/SVG/1.1/DTD/svg11.dtd">
<svg width="100%" height="100%" viewBox="0 0 67 167" version="1.1" xmlns="http://www.w3.org/2000/svg" xmlns:xlink="http://www.w3.org/1999/xlink" xml:space="preserve" xmlns:serif="http://www.serif.com/" style="fill-rule:evenodd;clip-rule:evenodd;stroke-linejoin:round;stroke-miterlimit:2;">
    <g transform="matrix(1,0,0,1,-871.266,-544.182)">
        <g transform="matrix(1,0,0,1,-256,-181.559)">
            <g transform="matrix(1,0,0,1,278.7,124.08)">
                <g transform="matrix(1,0,0,1,-64.3532,-18.2748)">
                    <g transform="matrix(1,0,0,1,256,181.559)">
                        <path d="M679.48,591.539C678.953,592.537 677.829,595.641 676.388,598.636C680.885,598.143 689.658,597.871 708.735,599.339C709.744,599.416 710.499,600.298 710.422,601.306C710.344,602.314 709.463,603.07 708.454,602.992C682.357,600.985 676.109,602.258 673.361,602.833C672.638,602.985 671.894,602.687 671.475,602.077C671.057,601.467 671.046,600.666 671.447,600.045C673.417,596.999 675.058,592.46 675.898,590.549C676.285,589.669 676.681,589.15 676.866,588.992C677.634,588.334 678.791,588.424 679.449,589.192C680.034,589.875 680.028,590.865 679.48,591.539Z"/>
                    </g>
                    <g transform="matrix(1,0,0,1,256,181.559)">
                        <path d="M715.455,599.179C714.186,597.299 711.939,594.166 708.203,589.496C707.572,588.707 707.7,587.553 708.489,586.921C709.279,586.289 710.433,586.417 711.065,587.207C717.432,595.167 719.43,598.319 720.052,599.554C720.315,600.077 720.409,600.399 720.451,600.589L720.468,600.733C720.408,600.524 720.319,600.373 720.277,600.293C720.438,600.594 720.509,600.928 720.491,601.258L720.509,601.083L720.468,600.733C720.569,601.085 720.588,601.6 720.164,602.206C720.198,602.156 720.231,602.104 720.261,602.051C720.351,601.889 720.415,601.717 720.453,601.541L720.464,601.515L720.473,601.432C720.467,601.469 720.46,601.505 720.453,601.541L720.164,602.206C719.846,602.662 719.335,602.952 718.773,602.986C716.036,603.153 714.398,602.763 713.147,602.363C711.936,601.975 711.293,601.458 709.663,602.157C708.734,602.555 707.656,602.124 707.257,601.194C706.859,600.265 707.29,599.187 708.22,598.789C710.248,597.919 711.467,598.019 712.72,598.368C713.472,598.577 714.243,598.955 715.455,599.179Z"/>
                    </g>
                    <g transform="matrix(1,0,0,1,256,181.559)">
                        <path d="M674.694,603.544C674.001,603.681 673.259,603.408 672.831,602.79C672.255,601.959 672.462,600.817 673.293,600.241L673.963,599.951C674.062,599.93 674.492,599.875 675.203,599.818C680.977,599.348 709.395,597.652 716.515,598.839C717.513,599.005 718.187,599.95 718.021,600.947C717.855,601.944 716.91,602.619 715.913,602.453C709.722,601.421 687.072,602.671 678.149,603.277C676.361,603.398 674.917,603.524 674.694,603.544Z"/>
                    </g>
                    <g transform="matrix(1,0,0,1,256,181.559)">
                        <path d="M682.656,546.917C683.615,546.597 684.653,547.116 684.973,548.075C685.293,549.035 684.774,550.073 683.814,550.393C679.604,551.796 675.956,556.857 673.561,562.391C671.144,567.975 669.985,574.129 671.296,577.898C674.913,588.298 676.287,587.393 685.197,593.63C686.025,594.21 686.227,595.353 685.647,596.182C685.067,597.01 683.924,597.212 683.096,596.632C673.232,589.727 671.84,590.615 667.835,579.102C666.303,574.696 667.372,567.463 670.198,560.936C673.045,554.359 677.653,548.584 682.656,546.917Z"/>
                    </g>
                    <g transform="matrix(1,0,0,1,256,181.559)">
                        <path d="M703.517,548.524C702.972,548.879 702.254,548.933 701.642,548.602C700.753,548.12 700.422,547.008 700.903,546.118L701.192,545.669L701.578,545.247L702.077,544.89L702.667,544.65L703.639,544.571L704.282,544.708L704.832,544.942C705.621,545.355 706.598,546.274 707.594,547.678C711.461,553.127 716.624,566.699 716.755,577.81C716.85,585.851 714.27,592.565 707.508,594.819C706.549,595.138 705.51,594.619 705.191,593.66C704.871,592.701 705.39,591.662 706.349,591.342C710.896,589.827 712.659,585.501 713.023,580.33C713.633,571.657 710.261,560.6 706.895,553.765C705.924,551.793 704.96,550.182 704.087,549.114C703.917,548.906 703.701,548.693 703.517,548.524Z"/>
                    </g>
                    <g transform="matrix(1,0,0,1,256,181.559)">
                        <path d="M676.672,545.237C676.511,545.385 675.064,546.725 673.948,548.201C670.467,552.807 665.82,561.234 666.602,568.273C667.54,576.712 670.374,582.099 673.583,585.54C678.413,590.721 684.021,591.489 684.868,591.852C685.797,592.25 686.229,593.328 685.83,594.258C685.432,595.187 684.354,595.618 683.425,595.22C682.479,594.815 676.295,593.822 670.903,588.039C667.297,584.172 664.014,578.16 662.96,568.678C662.079,560.749 667.103,551.18 671.025,545.992C672.254,544.366 673.382,543.159 674.182,542.518C674.775,542.043 675.298,541.805 675.663,541.718C676.647,541.485 677.635,542.094 677.869,543.078C678.089,544.006 677.559,544.938 676.672,545.237Z"/>
                    </g>
                    <g transform="matrix(1,0,0,1,256,181.559)">
                        <path d="M671.338,541.715C672.274,541.332 673.345,541.781 673.727,542.717C674.11,543.653 673.661,544.724 672.725,545.107C670.191,546.143 667.125,549.928 664.798,554.869C661.418,562.046 659.706,571.772 664.124,580.078C667.083,585.64 672.789,590.505 682.431,593.615C683.393,593.925 683.922,594.959 683.612,595.921C683.301,596.884 682.268,597.413 681.306,597.102C670.501,593.617 664.205,588.032 660.889,581.799C655.897,572.413 657.663,561.418 661.483,553.308C664.298,547.33 668.272,542.969 671.338,541.715Z"/>
                    </g>
                    <g transform="matrix(1,0,0,1,256,181.559)">
                        <path d="M704.984,543.879C704.477,543.004 704.775,541.882 705.649,541.375C706.524,540.867 707.646,541.165 708.154,542.04C708.903,543.331 710.054,544.15 711.324,545.256C714.852,548.325 719.485,552.989 721.731,569.828C722.601,576.352 722.102,580.576 720.595,584.026C719.109,587.432 716.602,590.099 713.236,593.465C712.521,594.18 711.36,594.18 710.645,593.465C709.93,592.75 709.93,591.589 710.645,590.874C713.629,587.89 715.919,585.58 717.237,582.561C718.535,579.586 718.848,575.936 718.099,570.312C716.07,555.099 712.106,550.793 708.919,548.02C707.312,546.622 705.932,545.512 704.984,543.879Z"/>
                    </g>
                    <g transform="matrix(1,0,0,1,256,181.559)">
                        <path d="M660.476,563.238C660.467,562.826 660.457,562.388 660.444,561.919C660.423,561.163 660.864,560.498 661.514,560.201C661.965,559.034 662.353,558.031 662.697,557.147C662.784,556.681 662.865,556.404 662.915,556.303L663.165,555.945C664.912,551.481 665.523,550.173 668.586,543.556C669,542.663 670.046,542.256 670.955,542.635C671.432,542.835 671.782,543.213 671.957,543.662C672.036,543.508 672.113,543.363 672.188,543.225C672.621,542.434 673.031,541.86 673.357,541.531L673.837,541.136L674.335,540.888L674.978,540.765L675.746,540.887L676.28,541.177L676.786,541.715L676.957,542.042C677.172,542.027 677.393,542.05 677.611,542.116C677.754,542.159 677.888,542.218 678.011,542.29C678.364,541.304 678.655,540.579 678.853,540.226L679.376,539.548L679.782,539.266L680.267,539.091L680.99,539.081L681.7,539.368L682.006,539.685L682.217,539.702L682.777,539.947L683.096,540.223L683.246,540.212L683.793,540.339L684.286,540.628L684.676,541.057C684.793,541.234 685.028,541.779 685.116,542.841L685.18,542.83L685.633,542.871L686.022,543L686.505,543.321L686.667,543.515L686.693,543.458L687.162,542.971L687.87,542.667L688.615,542.674L689.192,542.908L689.736,543.425L689.958,543.861L690.062,544.301C690.108,544.629 690.152,544.95 690.196,545.262C690.525,545.327 690.827,545.481 691.071,545.701C691.041,544.357 691.008,542.863 690.972,541.176C690.952,540.259 691.613,539.469 692.52,539.327C693.426,539.184 694.297,539.734 694.559,540.613L694.811,541.455C695.044,540.989 695.474,540.627 696.017,540.495C696.948,540.269 697.897,540.8 698.192,541.712C698.586,542.932 698.969,544.117 699.34,545.269C699.45,545.292 699.557,545.326 699.659,545.369C699.444,544.286 699.218,543.147 698.98,541.948C698.798,541.029 699.339,540.121 700.233,539.843C701.128,539.565 702.088,540.006 702.46,540.866L703.973,544.372C704.678,544.194 705.44,544.449 705.891,545.053L706.379,545.708C706.52,545.469 706.718,545.26 706.965,545.101C707.558,544.72 708.295,544.722 708.874,545.057C709.022,544.857 709.214,544.684 709.445,544.554C710.3,544.07 711.385,544.348 711.903,545.183C714.738,549.75 720.104,554.993 719.467,572.188C719.463,572.306 719.447,572.421 719.422,572.532C719.361,573.591 719.22,574.78 719.011,576.262C719.099,580.261 718.477,582.58 718.223,583.092L717.826,583.652L717.159,584.085L716.599,584.203L716.468,584.185L715.786,587.523C715.598,588.445 714.743,589.074 713.807,588.98C713.666,588.966 713.531,588.936 713.402,588.892C713.023,589.859 712.577,591.008 712.057,592.368C711.7,593.302 710.661,593.777 709.721,593.436C709.394,593.317 709.121,593.115 708.918,592.862C708.7,592.854 708.48,592.808 708.267,592.718L707.948,592.894L707.367,593.044L707.174,593.04C706.896,593.554 706.379,593.924 705.759,593.991C705.262,594.044 704.788,593.894 704.423,593.604C704.175,593.802 703.873,593.937 703.538,593.983C702.623,594.112 701.756,593.538 701.515,592.648C701.29,592.841 701.016,592.982 700.709,593.049C699.914,593.22 699.117,592.848 698.729,592.163C698.594,592.241 698.447,592.302 698.29,592.344C697.714,592.498 697.123,592.36 696.683,592.015C696.486,592.239 696.232,592.417 695.934,592.525C695.361,592.732 694.745,592.637 694.271,592.312C694.369,593.087 693.961,593.854 693.235,594.197C692.425,594.579 691.457,594.32 690.947,593.583L690.467,592.891C690.344,593.331 690.057,593.724 689.638,593.973C688.856,594.436 687.853,594.257 687.28,593.551L686.51,592.603C686.417,592.724 686.306,592.836 686.18,592.934C685.467,593.486 684.458,593.438 683.801,592.819L683.215,592.267C683.163,592.558 683.04,592.838 682.846,593.082C682.3,593.768 681.345,593.971 680.567,593.567C677.314,591.875 675.163,590.589 673.531,589.347C673.398,589.302 673.268,589.24 673.144,589.162C670.482,587.481 668.95,586.379 667.866,585.222C666.242,583.862 665.044,582.614 664.131,581.252C662.853,579.348 662.123,577.202 661.613,574.145C661.257,573.604 660.942,573.162 660.677,572.749C659.604,571.082 659.074,569.815 659.547,566.188C659.643,565.451 660.011,564.382 660.476,563.238ZM670.107,579.084C670.024,578.963 669.954,578.831 669.901,578.687C669.895,578.673 669.89,578.658 669.884,578.644C669.6,577.885 669.339,577.188 669.098,576.543C668.839,576.828 668.489,577.034 668.082,577.111C668.073,577.112 668.065,577.114 668.056,577.115C670.098,579.834 671.32,581.712 672.567,583.259C671.948,582.242 671.223,581.025 670.293,579.476C670.286,579.465 670.28,579.454 670.273,579.442C670.203,579.327 670.148,579.206 670.107,579.084ZM665.037,571.392C664.908,570.748 664.787,570.121 664.671,569.511C664.699,569.823 664.727,570.126 664.756,570.421C664.837,570.726 664.93,571.047 665.037,571.392ZM711.979,559.346C712.125,560.721 712.269,562.025 712.39,563.584C712.559,563.279 712.811,563.031 713.113,562.865C713.099,562.715 713.087,562.569 713.075,562.428C713.017,561.748 712.991,561.161 712.983,560.693C712.982,560.69 712.98,560.688 712.978,560.686L711.979,559.346Z"/>
                    </g>
                    <g transform="matrix(1,0,0,1,256,181.559)">
                        <path d="M668.647,588.432C668.68,587.794 669.046,587.191 669.658,586.885C670.562,586.433 671.663,586.8 672.116,587.705L672.315,588.485L672.166,589.455C671.719,590.98 669.481,596.118 668.189,599.038C676.777,601.009 677.573,599.232 687.871,599.679C690.163,599.779 704.707,600.415 716.543,599.231C717.549,599.131 718.448,599.866 718.548,600.872C718.649,601.878 717.914,602.777 716.907,602.877C704.856,604.082 690.046,603.442 687.712,603.34C676.239,602.842 676.161,604.936 665.162,602.067C664.641,601.93 664.206,601.572 663.973,601.085C663.74,600.599 663.733,600.035 663.954,599.543C664.321,598.725 668.058,590.429 668.647,588.432Z"/>
                    </g>
                    <g transform="matrix(1,0,0,1,256,181.559)">
                        <path d="M673.662,588.301C673.988,588.259 674.327,588.305 674.645,588.448C675.294,588.739 675.697,589.368 675.725,590.044C676.296,589.596 677.099,589.517 677.76,589.892C678.557,590.344 678.895,591.313 678.56,592.159C678.96,591.668 679.381,591.151 679.824,590.608C680.41,589.89 681.439,589.722 682.222,590.217C683.005,590.712 683.296,591.713 682.899,592.55C682.772,592.82 682.645,593.085 682.519,593.347C683.788,591.924 684.818,590.763 685.055,590.496C685.672,589.802 686.712,589.679 687.473,590.211C687.71,590.377 687.897,590.589 688.029,590.828L688.926,589.815C689.569,589.09 690.665,588.99 691.427,589.588C691.984,590.024 692.223,590.721 692.097,591.375C692.352,591.142 692.613,590.903 692.881,590.657C693.545,590.048 694.552,590.012 695.258,590.572C695.468,590.739 695.633,590.944 695.749,591.17L695.864,591.048C696.489,590.385 697.505,590.282 698.25,590.806C698.4,590.911 698.53,591.036 698.639,591.174L700.109,589.566C700.72,588.898 701.727,588.776 702.479,589.279C702.763,589.469 702.978,589.725 703.115,590.015C703.707,589.626 704.487,589.606 705.107,590C705.695,590.374 706.006,591.037 705.948,591.703C706.558,591.167 707.459,591.093 708.153,591.543C708.612,591.841 708.899,592.314 708.971,592.825C709.299,592.822 709.629,592.908 709.926,593.085C710.141,593.214 710.321,593.381 710.462,593.573L710.637,593.085C710.894,592.369 711.567,591.887 712.327,591.872C713.088,591.858 713.778,592.315 714.062,593.02L715.919,597.637C716.296,598.575 715.841,599.643 714.903,600.02C713.965,600.398 712.897,599.942 712.519,599.004L712.344,598.57C711.911,598.972 711.294,599.153 710.683,599.011C710.653,599.005 710.624,598.997 710.596,598.989L708.531,601.441C707.965,602.113 707.002,602.288 706.235,601.86C705.871,601.656 705.599,601.343 705.445,600.98C704.843,601.385 704.042,601.403 703.415,600.99C703.188,600.84 703.004,600.647 702.867,600.428L701.979,601.39C701.379,602.041 700.399,602.169 699.651,601.694C698.988,601.274 698.676,600.485 698.847,599.74C698.273,600.019 697.575,599.987 697.019,599.612C696.778,599.449 696.586,599.237 696.45,598.998L694.953,600.635C694.335,601.311 693.313,601.427 692.559,600.906C692.361,600.769 692.198,600.599 692.072,600.408L690.491,602.084C689.856,602.757 688.818,602.851 688.073,602.302C687.558,601.923 687.294,601.32 687.329,600.718C686.851,601.134 686.539,601.38 686.338,601.499L685.588,601.794L684.976,601.822L684.421,601.675L683.907,601.349L683.752,601.177L682.784,602.27C682.167,602.965 681.127,603.089 680.365,602.557C680.097,602.371 679.894,602.125 679.761,601.849C679.383,602.255 679.111,602.538 678.993,602.644C678.325,603.245 677.835,603.615 677.517,603.8L677.038,604.025L676.518,604.143L676.009,604.128L675.592,604.013L674.919,603.561L674.523,602.955L674.477,602.739L674.321,602.852L673.757,603.075L673.145,603.145L672.539,603.06L672.105,602.915L671.659,602.655L671.154,602.101L671.082,601.936C670.689,602.019 670.268,601.973 669.887,601.782C669.612,601.645 669.385,601.447 669.216,601.211C668.666,601.578 667.937,601.632 667.32,601.295C666.455,600.822 666.119,599.75 666.56,598.868C669.035,593.918 668.795,593.983 671.726,589.147C672.138,588.466 672.925,588.15 673.662,588.301Z"/>
                    </g>
                    <g transform="matrix(1,0,0,1,256,181.559)">
                        <path d="M665.653,547.647C665.343,547.991 664.743,548.689 664.296,549.411C659.508,557.147 651.434,581.812 675.162,592.253C684.775,596.483 690.886,596.051 706.325,592.801C713.886,591.209 718.516,585.277 720.284,579.445C721.435,575.649 721.398,571.888 720.063,569.44C719.085,567.648 719.171,566.307 719.274,564.659C719.402,562.604 719.468,559.994 716.39,554.718C715.689,553.515 714.631,551.089 714.491,550.767C713.861,549.318 713.301,549.016 712.639,548.52C712.046,548.076 711.385,547.521 710.586,546.322C710.265,545.84 710.395,545.189 710.876,544.868C711.358,544.547 712.009,544.677 712.33,545.159C713.11,546.33 713.724,546.712 714.276,547.123C715.011,547.671 715.679,548.243 716.413,549.931C716.545,550.235 717.539,552.527 718.201,553.662C721.641,559.558 721.509,562.493 721.366,564.79C721.287,566.043 721.159,567.073 721.903,568.437C723.453,571.279 723.627,575.644 722.29,580.053C720.327,586.53 715.154,593.085 706.757,594.852C690.685,598.236 684.325,598.575 674.318,594.171C648.893,582.985 657.384,556.597 662.514,548.308C663.189,547.216 663.82,546.424 664.31,545.983C664.635,545.692 664.936,545.521 665.178,545.441L665.44,545.377L665.752,545.365L666.21,545.483L666.6,545.761L666.795,546.016L666.917,546.269C667.12,546.811 666.845,547.416 666.304,547.619C666.087,547.7 665.861,547.705 665.653,547.647Z" style="fill:rgb(237,236,218);"/>
                    </g>
                    <g transform="matrix(1,0,0,1,256,181.559)">
                        <path d="M719.636,601.92C719.583,601.801 719.522,601.674 719.458,601.564C719.048,600.851 718.407,599.974 717.688,599.037C715.733,596.486 713.27,593.513 712.768,592.007C712.585,591.458 712.882,590.864 713.431,590.681C713.979,590.499 714.573,590.796 714.756,591.344C715.019,592.133 715.927,593.352 716.961,594.697C718.696,596.95 720.8,599.488 721.54,601.017C721.821,601.596 721.927,602.092 721.905,602.452L721.858,602.755L721.738,603.073L721.531,603.373L721.257,603.609C721.091,603.72 720.724,603.872 720.154,603.991C719.252,604.179 717.644,604.379 715.507,604.559C703.524,605.565 674.632,605.964 661.71,600.883C661.436,600.776 661.22,600.558 661.114,600.283C661.009,600.008 661.024,599.702 661.156,599.438C662.49,596.776 666.292,590.25 667.043,588.749C667.301,588.232 667.931,588.022 668.449,588.28C668.966,588.539 669.176,589.169 668.917,589.686C668.252,591.017 665.187,596.3 663.571,599.336C676.737,603.898 703.887,603.431 715.332,602.47C717.133,602.319 718.818,602.057 719.636,601.92Z" style="fill:rgb(237,236,218);"/>
                    </g>
                </g>
                <g transform="matrix(1,0,0,1,256,181.559)">
                    <path d="M620.409,424.836C620.373,424.187 620.532,423.379 621.02,422.403C621.706,421.03 622.605,420.53 623.41,420.459C623.92,420.415 624.446,420.562 624.933,420.858C625.03,420.886 625.123,420.921 625.212,420.963C625.364,421.034 625.508,421.13 625.642,421.249C626.011,421.425 626.37,421.718 626.688,422.175C626.7,422.189 626.711,422.203 626.723,422.217C626.909,422.451 627.044,422.71 627.131,422.986C627.548,423.96 627.437,424.841 626.999,425.555C626.936,425.952 626.815,426.333 626.626,426.676C626.471,426.957 626.273,427.221 626.026,427.454C625.741,427.824 625.372,428.171 624.907,428.481C624.684,428.629 624.471,428.721 624.272,428.773L623.904,428.828L623.525,428.799L623.169,428.685L622.947,428.556L622.739,428.495L622.563,428.394C622.257,428.347 621.988,428.264 621.753,428.155C621.578,428.087 621.428,428 621.3,427.903L621.155,427.767C621.114,427.73 621.074,427.692 621.034,427.654L621.012,427.632L621.007,427.625C620.968,427.585 620.931,427.544 620.896,427.502C620.347,426.845 620.198,425.857 620.409,424.836Z"/>
                </g>
                <g transform="matrix(1,0,0,1,256,181.559)">
                    <path d="M605.329,433.538C605.408,433.545 605.666,433.565 605.88,433.555C606.526,433.525 607.398,433.383 608.408,433.16C612.903,432.169 620.052,429.611 622.269,427.394C622.678,426.985 623.342,426.985 623.751,427.394C624.16,427.803 624.16,428.467 623.751,428.876C622.633,429.995 620.396,431.229 617.809,432.318C614.063,433.893 609.584,435.199 606.964,435.554C606.068,435.676 605.357,435.682 604.907,435.592L604.41,435.431L604.052,435.192C603.622,434.805 603.588,434.142 603.975,433.712C604.326,433.323 604.904,433.258 605.329,433.538Z"/>
                </g>
                <g transform="matrix(1,0,0,1,256,181.559)">
                    <path d="M623.639,427.261C623.95,426.773 624.598,426.628 625.086,426.938C625.574,427.249 625.719,427.897 625.408,428.385C625.302,428.553 625.44,428.697 625.587,428.863C626.026,429.359 626.797,429.827 627.755,430.295C632.841,432.781 642.872,434.776 644.005,435.002C644.572,435.116 644.94,435.668 644.827,436.236C644.713,436.803 644.161,437.171 643.594,437.058C642.425,436.824 632.082,434.744 626.834,432.178C625.279,431.418 624.149,430.572 623.651,429.762C623.14,428.933 623.109,428.094 623.639,427.261Z"/>
                </g>
                <g transform="matrix(1,0,0,1,256,181.559)">
                    <path d="M604.754,437.298C604.216,437.509 603.607,437.244 603.396,436.705C603.184,436.167 603.45,435.558 603.988,435.346C604.513,435.14 605.114,435.146 605.762,435.39C606.428,435.64 607.182,436.175 607.941,436.898C610.544,439.377 613.373,444.134 613.444,444.294C616.368,450.98 616.137,450.916 616.686,458.055C616.731,458.632 616.298,459.136 615.722,459.18C615.145,459.225 614.641,458.792 614.596,458.216C614.074,451.43 614.303,451.489 611.523,445.134C611.459,444.989 608.865,440.673 606.495,438.416C606.047,437.989 605.614,437.638 605.207,437.433C605.034,437.346 604.89,437.244 604.754,437.298Z"/>
                </g>
                <g transform="matrix(1,0,0,1,256,181.559)">
                    <path d="M644.19,438.755C643.365,439.723 640.755,442.818 638.773,445.515C637.223,447.625 635.858,449.611 635.596,450.528C634.462,454.499 634.576,454.315 634.05,458.528C633.978,459.102 633.454,459.51 632.88,459.438C632.306,459.367 631.898,458.842 631.97,458.268C632.517,453.888 632.402,454.08 633.581,449.953C633.875,448.921 635.341,446.646 637.084,444.274C639.639,440.797 642.758,437.086 643.225,436.749L643.564,436.577L644.031,436.538L644.3,436.612L644.575,436.783L644.782,437.023L644.893,437.262L644.943,437.551L644.924,437.8L644.712,438.31C644.588,438.521 644.401,438.672 644.19,438.755Z"/>
                </g>
                <g transform="matrix(1,0,0,1,256,181.559)">
                    <path d="M610.46,459.32C610.418,459.218 610.392,459.108 610.385,458.993C610.347,458.416 610.785,457.916 611.362,457.879C632.731,456.485 633.262,456.658 635.106,457.118C635.255,457.156 635.403,457.196 635.545,457.259L635.982,457.535C636.235,457.757 636.502,458.109 636.635,458.811C636.783,459.596 636.779,461.105 636.389,464.077C636.317,464.625 635.832,465.023 635.28,464.986C623.572,464.206 623.675,464.289 612.121,465.77C611.837,465.807 611.55,465.725 611.327,465.544C611.105,465.363 610.966,465.099 610.943,464.814C610.672,461.403 610.818,461.583 610.414,459.968C610.358,459.744 610.379,459.519 610.46,459.32ZM612.555,459.902C612.82,461.027 612.786,461.283 612.95,463.55C623.304,462.219 623.864,462.13 634.432,462.829C634.613,461.271 634.663,460.261 634.621,459.6C634.61,459.428 634.578,459.252 634.554,459.141C632.825,458.71 632.146,458.628 612.555,459.902Z"/>
                </g>
                <g transform="matrix(1,0,0,1,256,181.559)">
                    <path d="M615.187,465.626C615.364,465.076 615.955,464.773 616.506,464.95C617.057,465.127 617.36,465.718 617.183,466.268C616.855,467.287 616.775,469.123 616.574,471.965C616.081,478.922 615.018,491.631 609.017,512.634C605.727,524.15 605.19,527.725 604.937,529.29C604.804,530.115 604.719,530.482 604.473,530.972C604.215,531.49 603.585,531.7 603.067,531.441C602.55,531.182 602.34,530.552 602.599,530.035C602.755,529.722 602.783,529.482 602.868,528.956C603.124,527.369 603.664,523.74 607.002,512.058C612.939,491.276 613.996,478.701 614.483,471.817C614.701,468.727 614.831,466.734 615.187,465.626Z"/>
                </g>
                <g transform="matrix(1,0,0,1,256,181.559)">
                    <path d="M634.692,466.227C634.737,466.969 634.853,468.538 635.1,470.218C637.203,484.483 645.899,524.728 647.631,528.193C647.89,528.71 647.68,529.34 647.162,529.599C646.645,529.858 646.015,529.647 645.756,529.13C643.783,525.184 632.829,474.111 632.562,466.376C632.546,465.897 632.572,465.545 632.62,465.329L632.72,465.02L632.885,464.75L633.096,464.544L633.301,464.422L633.612,464.331L633.923,464.33L634.336,464.47L634.562,464.632L634.767,464.853C635.092,465.27 635.051,465.858 634.692,466.227Z"/>
                </g>
                <g transform="matrix(1,0,0,1,256,181.559)">
                    <path d="M606.82,434.766C608.233,434.728 609.81,434.447 611.352,434.076C615.187,433.154 618.818,431.616 619.508,431.324C619.595,431.287 619.677,431.251 619.755,431.215C619.993,431.093 620.225,430.968 620.451,430.838C620.88,430.559 621.115,430.294 621.409,430.006C621.815,429.608 622.304,429.171 623.255,428.636C623.701,428.385 624.263,428.493 624.584,428.891C624.891,429.272 624.893,429.812 624.596,430.193L624.674,430.222C624.947,430.378 625.372,430.868 626.37,431.52C627.006,431.936 634.981,434.363 635.324,434.487C638.668,435.698 638.604,436.08 642.178,435.986C642.612,435.974 643.008,436.232 643.174,436.633C643.34,437.034 643.241,437.496 642.926,437.794C640.794,439.813 639.316,440.955 639.249,440.997C638.908,441.212 638.678,441.325 638.544,441.373L638.198,441.451L637.911,441.436L637.637,441.348L637.433,441.22L637.21,440.98L637.192,440.943C634.378,441.932 630.331,443.011 626.41,444.027C626.374,444.462 626.066,444.846 625.619,444.958C616.129,447.331 615.28,447.374 614.36,447.433C613.856,447.466 613.4,447.134 613.276,446.645C613.152,446.155 613.395,445.647 613.853,445.435C615.438,444.705 619.913,443.57 624.731,442.321C621.468,443.023 620.022,443.47 613.672,444.543C613.184,444.626 612.705,444.356 612.523,443.896C612.376,443.527 612.453,443.116 612.703,442.826C612.581,442.844 612.461,442.86 612.341,442.876C611.865,442.94 611.406,442.671 611.229,442.225C611.051,441.778 611.2,441.268 611.59,440.987C611.632,440.957 611.673,440.927 611.714,440.898C611.556,440.947 611.391,440.999 611.22,441.052C610.712,441.21 610.167,440.964 609.951,440.478C609.821,440.188 609.834,439.868 609.963,439.599C609.736,439.275 609.567,439.004 609.418,438.776C609.278,438.563 609.201,438.399 608.995,438.308C608.783,438.214 608.494,438.169 608.066,438.123C607.603,438.075 607.227,437.726 607.144,437.268C607.118,437.122 607.123,436.975 607.156,436.837C606.029,436.889 604.978,436.823 604.072,436.597L603.803,436.495L603.503,436.253L603.353,436.024L603.273,435.79L603.276,435.332L603.441,434.964L603.69,434.713L603.988,434.565C604.043,434.548 604.503,434.515 605.895,434.375C606.262,434.339 606.605,434.497 606.82,434.766ZM628.757,437.141C628.515,437.158 628.271,437.175 628.027,437.193C627.651,437.311 627.289,437.424 626.938,437.532C627.542,437.397 628.149,437.267 628.757,437.141Z"/>
                </g>
                <g transform="matrix(1,0,0,1,256,181.559)">
                    <path d="M614.282,443.456L614.374,443.246L614.646,442.962L615.064,442.783L615.312,442.766L615.588,442.816L615.856,442.961C615.853,442.915 615.851,442.868 615.849,442.821C615.824,442.291 616.2,441.826 616.723,441.739C617.247,441.652 617.753,441.969 617.902,442.479C618.011,442.853 618.059,443.038 618.321,444.169C618.338,443.623 618.359,443.033 618.384,442.391C618.405,441.836 618.855,441.394 619.41,441.383C619.94,441.372 620.39,441.758 620.467,442.274C620.535,441.511 620.599,440.963 620.63,440.698C620.693,440.166 621.147,439.767 621.682,439.773C622.218,439.779 622.663,440.187 622.715,440.72L622.733,440.895C622.887,440.346 623.039,440.036 623.096,439.747C623.195,439.244 623.643,438.886 624.156,438.902C624.291,438.906 624.42,438.936 624.538,438.986C624.668,438.536 624.825,438.112 625.012,437.719C625.131,437.47 625.337,437.285 625.581,437.191C625.667,436.796 625.98,436.47 626.4,436.386C626.558,436.355 626.712,436.33 626.861,436.313C627.274,436.231 627.592,436.119 627.857,436.062C628.286,435.969 628.648,435.975 628.984,436.086C629.42,436.231 629.891,436.571 630.348,437.485L630.42,437.691C630.526,437.813 630.627,437.939 630.724,438.07C631.302,438.847 631.708,439.814 632.133,440.613C632.442,439.934 632.725,439.499 632.976,439.055C633.236,438.596 633.797,438.402 634.285,438.602C634.749,438.792 635.011,439.282 634.918,439.768C635.077,439.913 635.186,440.102 635.233,440.307C635.736,439.548 636.11,439.024 636.271,438.796C636.298,438.757 636.325,438.718 636.352,438.679C636.359,438.669 636.366,438.659 636.373,438.648C636.7,438.18 637.343,438.06 637.817,438.378C638.291,438.697 638.423,439.337 638.113,439.817C638.108,439.824 638.101,439.834 638.092,439.848C638.089,439.852 638.087,439.856 638.084,439.86C637.713,440.391 637.369,440.898 637.055,441.377C637.638,440.649 638.273,439.88 638.967,439.058C639.329,438.629 639.964,438.561 640.408,438.904C640.852,439.246 640.948,439.878 640.625,440.337C639.979,441.255 633.982,448.824 632.981,455.163C632.806,456.271 632.555,456.155 631.572,458.686C631.412,459.099 631.009,459.367 630.566,459.354C630.123,459.342 629.736,459.053 629.599,458.631C629.587,458.596 629.576,458.562 629.565,458.529C629.177,458.546 628.813,458.347 628.617,458.016L628.456,458.19L628.064,458.387L627.819,458.422L627.587,458.401C627.576,458.399 627.564,458.397 627.553,458.394C627.428,458.515 627.273,458.607 627.095,458.655C626.603,458.788 626.088,458.548 625.873,458.089C625.892,458.585 625.557,459.036 625.061,459.15C624.52,459.275 623.976,458.957 623.82,458.424C623.759,458.219 623.694,458.004 623.625,457.776C623.643,458.002 623.629,458.148 623.613,458.211L623.434,458.586L623.285,458.75L623.066,458.9L622.706,459.011L622.246,458.965L621.984,458.838L621.732,458.61C621.646,458.507 621.485,458.248 621.307,457.816C621.285,457.761 621.261,457.702 621.236,457.639C621.25,457.768 621.264,457.898 621.278,458.031C621.279,458.045 621.281,458.059 621.283,458.073C621.342,458.64 620.937,459.152 620.371,459.223C619.81,459.293 619.295,458.906 619.205,458.349C619.119,458.419 619.02,458.476 618.911,458.517C618.46,458.685 617.952,458.523 617.68,458.125C617.517,458.462 617.18,458.7 616.78,458.717C616.204,458.741 615.716,458.295 615.689,457.718C615.689,457.715 615.689,457.712 615.689,457.708C615.674,457.359 615.658,457.019 615.639,456.689C615.417,453.124 614.79,450.843 614.645,450.316C614.002,447.987 612.563,444.57 611.538,442.581C611.23,441.983 610.84,441.383 610.789,441.304C610.372,440.968 610.272,440.362 610.575,439.908C610.896,439.426 611.547,439.296 612.029,439.617C612.222,439.746 612.578,440.144 612.956,440.799C613.327,441.441 613.795,442.383 614.282,443.456ZM629.696,440.411C629.637,440.577 629.536,440.724 629.407,440.839C629.451,441.019 629.484,441.224 629.502,441.454C629.54,441.931 629.527,442.583 629.494,443.363C629.643,443.051 629.81,442.721 629.995,442.372C630.102,442.169 630.269,442.014 630.464,441.92C630.21,441.461 629.967,440.932 629.696,440.411ZM627.073,439.984L627.109,439.946L627.344,439.782L627.623,439.656L627.671,439.647C627.696,439.143 627.765,438.754 627.854,438.452C627.633,438.393 627.387,438.372 627.109,438.398C627.079,438.403 627.047,438.409 627.016,438.414C627.035,438.952 627.054,439.475 627.073,439.984Z"/>
                </g>
                <g transform="matrix(1,0,0,1,256,181.559)">
                    <path d="M617.886,441.786C617.892,441.729 617.898,441.674 617.903,441.619C617.962,441.067 618.441,440.656 618.995,440.683C619.55,440.709 619.987,441.163 619.994,441.718C620.005,442.749 619.912,443.585 619.825,444.289C619.796,444.972 619.776,445.542 619.732,445.895C619.728,445.926 619.724,445.955 619.719,445.984C619.737,446.056 619.76,446.127 619.791,446.196C619.99,446.635 620.48,446.97 621.372,447.436C621.885,447.703 622.084,448.337 621.817,448.85C621.549,449.362 620.916,449.562 620.403,449.294C618.856,448.487 618.168,447.747 617.848,446.982C617.838,446.959 617.829,446.936 617.82,446.913L617.817,446.911C617.679,446.791 617.407,446.415 617.142,445.621C617.116,445.542 616.794,444.572 616.64,443.827C616.54,443.342 616.53,442.917 616.58,442.691L616.763,442.261L616.909,442.085L617.119,441.923L617.557,441.771L617.886,441.786Z"/>
                </g>
                <g transform="matrix(1,0,0,1,256,181.559)">
                    <path d="M612.609,458.648C612.783,458.537 612.991,458.476 613.21,458.484C613.527,458.495 613.81,458.647 613.996,458.881C614.125,458.399 614.581,458.07 615.087,458.109C615.244,458.121 615.391,458.167 615.52,458.239C615.689,458.145 615.886,458.096 616.092,458.107C616.317,458.12 616.522,458.203 616.686,458.334L616.778,458.313L617.105,458.331L617.358,458.425C617.508,458.353 617.676,458.315 617.852,458.322C618.109,458.332 618.342,458.434 618.52,458.596C618.555,458.593 618.591,458.591 618.627,458.591C618.828,458.592 619.016,458.65 619.176,458.749C619.343,458.623 619.549,458.545 619.773,458.538C620.089,458.527 620.38,458.658 620.581,458.877L620.635,458.844L620.848,458.775L621.148,458.756L621.425,458.816L621.668,458.96C621.67,458.903 621.672,458.846 621.674,458.788C621.697,458.228 622.156,457.784 622.717,457.782C623.009,457.781 623.274,457.899 623.465,458.091L623.691,458.013L624.093,458.026L624.339,458.115L624.495,458.225L624.549,458.066L624.756,457.792L625.004,457.613L625.275,457.517L625.552,457.496L625.825,457.549L626.148,457.724L626.378,457.977L626.398,458.018L626.6,457.921L627.005,457.887L627.392,458.009L627.505,458.104C627.706,457.978 627.951,457.919 628.203,457.953C628.481,457.991 628.721,458.135 628.884,458.341C629.005,458.317 629.132,458.314 629.261,458.336L629.483,458.037L629.699,457.886L629.934,457.795L630.205,457.763L630.494,457.806L630.741,457.915L630.918,458.05L630.935,458.071L631.036,458.058L631.283,458.083L631.569,458.187L631.755,458.325C631.952,457.912 632.402,457.666 632.868,457.741C632.894,457.745 632.919,457.75 632.943,457.756C633.31,457.351 633.863,457.078 634.497,456.996C635.172,456.909 635.918,457.038 636.469,457.339C636.698,457.465 636.897,457.619 637.058,457.795L637.303,458.124L637.479,458.522C637.566,458.806 637.733,462.527 637.546,464.122C637.499,464.524 637.418,464.827 637.34,464.998L637.131,465.325L636.784,465.593C635.661,466.155 635.059,466.111 634.438,466.006C634.079,465.946 633.706,465.824 633.002,465.956C632.434,466.062 631.886,465.687 631.779,465.119C631.683,464.607 631.977,464.113 632.451,463.941L632.078,463.881L631.847,463.753L631.635,463.546L631.477,463.26L631.411,462.978C631.405,462.918 631.405,462.802 631.412,462.632L631.395,462.624C631.389,462.644 631.383,462.662 631.377,462.678L631.222,462.999L631.001,463.245L630.733,463.406L630.468,463.479L630.09,463.464L629.904,463.39L629.886,463.415L629.572,463.651L629.168,463.784L628.683,463.775C628.467,463.739 628.163,463.639 627.755,463.436L627.661,463.376L627.646,463.386L627.374,463.472L627.088,463.488L626.811,463.433L626.787,463.421C626.597,463.6 626.342,463.708 626.065,463.708C625.989,463.708 625.915,463.7 625.843,463.684L625.738,463.908L625.499,464.161L625.126,464.373C624.947,464.442 624.559,464.528 624.158,464.388L624.14,464.406L623.932,464.533L623.611,464.624L623.26,464.605C623.253,464.616 623.245,464.627 623.236,464.637L623,464.876L622.724,465.038L622.387,465.134L622.002,465.133L621.645,465.028L621.421,464.892L621.093,465.036L620.752,465.051L620.456,464.975L620.11,464.756L619.979,464.598L619.817,464.696L619.549,464.773L619.074,464.749L618.84,464.657L618.598,464.487L618.546,464.42L618.362,464.46L618.118,464.456L617.743,464.318L617.539,464.432L617.27,464.474L617.018,464.452L616.797,464.381L616.584,464.255L616.473,464.139C616.282,464.131 616.101,464.07 615.947,463.97L615.926,463.99L615.529,464.141L615.081,464.121C614.99,464.222 614.878,464.304 614.754,464.363C614.741,464.442 614.727,464.499 614.716,464.535L614.593,464.807L614.403,465.034L614.142,465.208L613.882,465.291L613.513,465.292L613.205,465.187L612.893,464.939L612.755,464.736L612.662,464.502C612.637,464.417 612.609,464.22 612.573,463.921C612.08,463.842 611.702,463.418 611.693,462.904L611.673,461.674C611.571,461.498 611.519,461.29 611.535,461.072L611.643,459.616C611.681,459.093 612.098,458.686 612.609,458.648ZM632.937,463.844C633.638,463.749 634.11,463.817 634.523,463.892C634.813,463.944 635.049,464.006 635.434,463.889C635.471,463.252 635.556,461.678 635.532,460.668C635.518,460.087 635.481,459.467 635.463,459.191C635.368,459.153 635.165,459.077 635.028,459.067C634.909,459.06 634.739,459.095 634.623,459.123C634.893,459.324 635.058,459.65 635.043,460.006L635.02,460.563C635.278,461.893 634.966,462.585 634.931,462.659C634.875,463.208 634.398,463.625 633.84,463.599C633.681,463.592 633.533,463.55 633.401,463.48C633.379,463.484 633.356,463.486 633.334,463.488L633.202,463.661L632.937,463.844Z"/>
                </g>
                <g transform="matrix(1,0,0,1,256,181.559)">
                    <path d="M617.084,462.319C617.111,462.199 617.139,462.074 617.168,461.945C617.436,460.751 617.571,460.069 617.605,459.897C617.609,459.875 617.612,459.86 617.614,459.853L617.63,459.774L617.754,459.48L618.026,459.184L618.647,461.076L619.589,459.568L619.677,459.837L619.694,460.085L619.678,460.216C619.677,460.221 619.676,460.229 619.674,460.24C619.671,460.251 619.669,460.264 619.667,460.277C619.636,460.445 619.543,460.972 619.439,461.736L619.708,461.642L620.054,461.632L620.332,461.71L620.415,461.758C620.618,461.555 620.903,461.435 621.212,461.452C621.784,461.481 622.225,461.964 622.205,462.536C622.204,462.547 622.204,462.558 622.203,462.569C622.2,462.665 622.196,462.76 622.193,462.852C622.381,462.708 622.619,462.627 622.874,462.638C623.02,462.644 623.158,462.68 623.283,462.74L623.402,462.472L623.729,462.143L624.109,461.995L624.502,462L624.839,462.132L624.924,462.208C624.99,461.772 625.061,461.299 625.137,460.781C625.219,460.223 625.729,459.829 626.291,459.892C626.614,459.928 626.888,460.109 627.053,460.363C627.169,460.328 627.293,460.312 627.421,460.319C627.984,460.352 628.42,460.823 628.409,461.386C628.403,461.683 628.395,461.979 628.385,462.276C628.526,462.221 628.681,462.196 628.842,462.208C629.068,462.225 629.273,462.313 629.435,462.449C629.585,462.386 629.751,462.357 629.924,462.37C630.395,462.407 630.771,462.751 630.867,463.192C630.914,463.211 630.96,463.232 631.004,463.257C631.143,463.198 631.298,463.17 631.458,463.178C631.926,463.201 632.31,463.528 632.422,463.962C632.843,464.095 633.149,464.487 633.154,464.95C633.197,468.529 633.497,468.495 633.317,472.099C633.288,472.676 632.795,473.122 632.217,473.093C631.912,473.078 631.643,472.933 631.462,472.714C631.321,472.969 631.078,473.157 630.791,473.227L630.779,473.374C630.733,473.93 630.258,474.353 629.7,474.335C629.548,474.33 629.404,474.292 629.276,474.23C629.13,474.301 628.966,474.339 628.794,474.335C628.5,474.328 628.236,474.201 628.049,474C627.929,474.045 627.799,474.068 627.664,474.065C627.293,474.058 626.967,473.858 626.787,473.558C626.631,473.644 626.453,473.691 626.264,473.688C626.045,473.684 625.843,473.613 625.676,473.495C625.517,473.856 625.16,474.108 624.745,474.119C624.243,474.132 623.809,473.789 623.697,473.312C623.605,473.342 623.507,473.36 623.405,473.363C623.315,473.367 623.227,473.358 623.142,473.339L623.065,474.338C623.025,474.863 622.602,475.277 622.076,475.305C621.81,475.319 621.558,475.232 621.363,475.075C621.3,475.386 621.218,475.56 621.17,475.634L620.887,475.934L620.484,476.113L620.075,476.12L619.754,476.009L619.407,475.718L619.144,475.2C619.071,474.994 619.007,474.718 618.953,474.387C618.938,474.388 618.923,474.389 618.909,474.389C618.374,474.398 617.919,474.002 617.852,473.472C617.807,473.117 617.737,472.766 617.657,472.417C617.454,472.716 617.104,472.901 616.721,472.876C616.169,472.841 615.74,472.383 615.74,471.831C615.74,467.45 615.846,467.49 616.395,463.175C616.447,462.77 616.723,462.448 617.084,462.319Z"/>
                </g>
                <g transform="matrix(1,0,0,1,256,181.559)">
                    <path d="M613.242,494.667C613.412,493.644 613.576,492.682 613.732,491.776C613.611,491.571 613.558,491.324 613.6,491.071L613.602,491.064L614.235,487.263C614.497,485.589 614.663,484.336 614.792,483.152C614.805,479 614.915,478.647 615.645,473.741C615.692,473.428 615.873,473.168 616.121,473.01L616.24,471.998L616.244,471.966C616.31,471.398 616.821,470.988 617.391,471.046C617.925,471.101 618.326,471.548 618.333,472.075C618.361,471.905 618.39,471.731 618.419,471.555C618.481,471.181 618.735,470.885 619.065,470.754C619.092,470.613 619.119,470.47 619.146,470.326C619.252,469.77 619.781,469.399 620.34,469.487C620.899,469.576 621.287,470.093 621.215,470.655C621.192,470.836 621.17,471.014 621.147,471.191C621.63,471.308 621.972,471.755 621.945,472.265C621.924,472.668 621.902,473.058 621.882,473.437C622.044,473.357 622.229,473.318 622.423,473.332C622.546,473.342 622.663,473.372 622.771,473.42C622.774,473.406 622.778,473.393 622.781,473.379C622.99,472.584 623.267,472.219 623.404,472.098L623.778,471.878L624.183,471.816L624.459,471.873C624.664,471.709 624.93,471.622 625.211,471.647C625.38,471.663 625.537,471.718 625.672,471.803C625.803,471.338 626.243,471.013 626.743,471.042C627.308,471.075 627.744,471.551 627.729,472.117L627.698,473.212C627.846,472.372 628.006,471.461 628.178,470.465C628.272,469.919 628.775,469.541 629.325,469.601C629.876,469.662 630.284,470.14 630.258,470.693C630.222,471.452 630.187,472.158 630.154,472.82C630.344,472.545 630.659,472.369 631.007,472.366C631.017,470.536 631.013,470.17 631.056,469.491C631.091,468.95 631.533,468.525 632.076,468.511C632.618,468.497 633.081,468.9 633.143,469.439C633.854,475.596 632.824,475.631 633.976,481.774C634.628,485.254 634.684,485.183 634.836,488.668C634.861,489.246 634.412,489.735 633.834,489.761C633.256,489.786 632.767,489.337 632.742,488.759C632.741,488.734 632.74,488.709 632.738,488.685C632.635,488.843 632.489,488.972 632.317,489.055C632.349,489.694 632.385,490.4 632.426,491.189C632.455,491.752 632.034,492.237 631.473,492.287C631.147,492.316 630.842,492.193 630.629,491.976C630.627,492.286 630.624,492.607 630.62,492.94C630.615,493.496 630.176,493.952 629.62,493.977C629.064,494.002 628.585,493.588 628.529,493.034C628.404,491.78 628.295,490.667 628.202,489.653C628.228,490.903 628.272,492.322 628.331,493.977C628.351,494.54 627.922,495.018 627.36,495.059C626.798,495.101 626.304,494.69 626.242,494.13L626.137,493.175C626.105,494.199 626.073,495.289 626.042,496.451C626.027,497.014 625.571,497.464 625.008,497.471C624.522,497.478 624.107,497.152 623.984,496.701C623.889,496.731 623.788,496.747 623.684,496.749C623.111,496.757 622.638,496.303 622.622,495.73C622.621,495.72 622.621,495.71 622.621,495.701C622.605,495.138 622.591,494.59 622.578,494.057C622.383,494.239 622.12,494.347 621.833,494.339C621.798,494.338 621.763,494.335 621.729,494.331C621.714,495.528 621.706,496.858 621.706,498.351C621.706,498.918 621.255,499.382 620.688,499.399C620.121,499.415 619.644,498.978 619.611,498.412C619.572,497.738 619.536,497.1 619.502,496.486L619.416,498.515C619.392,499.083 618.92,499.528 618.352,499.519C617.784,499.51 617.326,499.05 617.321,498.481C617.311,497.493 617.303,496.575 617.298,495.716C617.165,495.767 617.02,495.791 616.869,495.784C616.295,495.754 615.853,495.268 615.876,494.695C615.876,494.687 615.877,494.678 615.877,494.67C615.915,493.726 615.952,492.855 615.991,492.047C615.984,492.046 615.978,492.046 615.972,492.045C615.931,492.041 615.891,492.034 615.852,492.026C615.709,492.837 615.534,493.801 615.307,495.03C615.306,495.036 615.305,495.042 615.303,495.048C615.199,495.613 614.658,495.989 614.091,495.89C613.525,495.79 613.144,495.253 613.239,494.685C613.24,494.679 613.241,494.673 613.242,494.667Z"/>
                </g>
                <g transform="matrix(1,0,0,1,256,181.559)">
                    <path d="M603.55,524.561C604.115,522.858 605.098,519.87 606.89,514.294C606.983,514.005 607.191,513.782 607.449,513.663C607.675,512.317 607.869,511.432 608.03,510.892C608.261,510.114 608.571,509.775 608.732,509.66L609.027,509.506L609.297,509.448L609.537,509.467L610.345,504.099C610.431,503.527 610.965,503.132 611.537,503.217C611.728,503.246 611.899,503.325 612.04,503.438C612.266,502.387 612.507,501.267 612.764,500.071C612.764,500.067 612.765,500.063 612.766,500.058C612.887,499.495 613.44,499.135 614.005,499.252C614.03,499.258 614.055,499.264 614.08,499.271C614.083,499.255 614.09,499.222 614.09,499.221C614.201,498.691 614.694,498.339 615.221,498.392C615.419,498.285 615.653,498.241 615.892,498.281C616.457,498.376 616.84,498.906 616.755,499.472C616.753,499.483 616.751,499.494 616.749,499.506C615.112,510.295 614.714,512.458 613.771,519.759C613.76,520.557 613.755,521.409 613.755,522.324C613.755,522.665 613.592,522.968 613.339,523.16C613.207,524.213 613.065,525.362 612.908,526.63C612.906,526.643 612.905,526.656 612.904,526.669C612.834,527.236 612.323,527.643 611.754,527.583C611.186,527.524 610.77,527.021 610.819,526.452C610.82,526.439 610.822,526.425 610.823,526.412C610.824,526.401 610.825,526.39 610.826,526.379C610.661,526.186 610.566,525.935 610.575,525.663C610.625,524.129 610.674,522.771 610.726,521.551C610.585,521.527 610.456,521.477 610.342,521.405C610.192,522.166 610.055,522.901 609.882,523.839C609.825,524.149 609.637,524.402 609.385,524.552L609.051,526.774L609.045,526.817C608.96,527.381 608.439,527.774 607.874,527.701C607.872,527.701 607.871,527.7 607.87,527.7C607.826,528.119 607.778,528.567 607.726,529.05C607.726,529.054 607.726,529.058 607.725,529.062C607.664,529.635 607.151,530.051 606.577,529.993C606.117,529.946 605.756,529.608 605.66,529.179L605.303,529.245L605.01,529.214L604.769,529.13L604.382,528.853C604.072,529.064 603.661,529.098 603.311,528.918C603.251,528.887 603.196,528.851 603.144,528.811C602.959,528.815 602.77,528.77 602.598,528.671C602.117,528.394 601.935,527.79 602.183,527.294L603.55,524.561Z"/>
                </g>
                <g transform="matrix(1,0,0,1,256,181.559)">
                    <path d="M611.082,505.587L611.536,503.293C611.425,503.08 611.387,502.829 611.443,502.578L611.453,502.535L613.365,494.051L613.371,494.025C613.476,493.556 613.881,493.232 614.339,493.208C614.42,492.948 614.506,492.672 614.597,492.378C614.741,491.912 615.183,491.617 615.654,491.642C615.655,491.635 615.657,491.628 615.658,491.621C615.78,491.065 616.324,490.708 616.883,490.817C617.023,490.844 617.151,490.898 617.263,490.973L617.458,490.794L617.72,490.667L617.974,490.619L618.164,490.64C618.536,489.177 618.731,488.488 618.778,488.384L618.937,488.132L619.099,487.976L619.368,487.826L619.67,487.76L619.939,487.777L620.199,487.863L620.388,488.011C620.562,487.75 620.848,487.578 621.164,487.549C621.249,487.099 621.337,486.631 621.428,486.145C621.431,486.133 621.432,486.122 621.435,486.11C621.541,485.548 622.077,485.175 622.641,485.271C623.205,485.367 623.587,485.898 623.501,486.463C623.499,486.475 623.497,486.486 623.495,486.498C623.4,487.115 623.31,487.702 623.224,488.264C623.357,488.469 623.419,488.722 623.382,488.984C623.381,488.99 623.38,488.996 623.379,489.002C623.128,490.742 622.891,492.374 622.669,493.906C622.812,493.796 622.982,493.724 623.163,493.699C623.474,493.527 623.865,493.519 624.194,493.709C624.679,493.989 624.858,494.602 624.6,495.099C624.419,495.447 624.248,495.778 624.086,496.092C622.818,501.938 622.549,503.268 622.423,503.545L622.235,503.842L621.907,504.101L621.669,504.191L621.435,504.223L621.165,504.182C619.242,517.188 619.07,517.677 618.809,519.54C618.808,519.552 618.806,519.565 618.804,519.578C618.726,520.144 618.208,520.542 617.641,520.474C617.097,520.408 616.699,519.936 616.719,519.397C616.665,519.398 616.611,519.396 616.556,519.389C615.999,519.322 615.594,518.828 615.637,518.269C615.72,517.194 615.796,516.206 615.868,515.291C615.77,515.305 615.667,515.305 615.564,515.29C615.162,515.23 614.846,514.948 614.724,514.586C613.842,519.221 613.386,521.372 613.232,521.798L613.118,522.045L612.92,522.29L612.626,522.482L612.267,522.57L611.916,522.532L611.617,522.394L611.367,522.161L611.187,521.81L611.143,521.238C611.169,520.773 611.31,519.639 611.531,518.069C611.848,515.808 612.331,512.618 612.855,509.234L612.733,509.276L612.498,509.292L612.239,509.25L611.997,509.147L611.805,509.007L611.537,508.631L611.426,508.146C611.412,507.912 611.464,507.434 611.57,506.722C611.198,506.502 610.988,506.064 611.076,505.617L611.082,505.587Z"/>
                </g>
                <g transform="matrix(1,0,0,1,256,181.559)">
                    <path d="M620.656,510.344C620.58,510.168 620.456,510.011 620.288,509.896C619.839,509.587 619.229,509.674 618.884,510.094C617.817,511.394 616.957,512.438 616.226,513.327L616.782,512.18C617.025,511.679 616.833,511.075 616.345,510.805C615.857,510.536 615.244,510.696 614.949,511.169C611.092,517.36 611.178,517.306 608.14,523.936C607.915,524.425 608.099,525.006 608.564,525.277C608.762,525.393 608.984,525.437 609.197,525.415L609.225,525.43C609.556,525.595 609.932,525.57 610.229,525.395C610.156,525.808 610.337,526.241 610.715,526.471C611.139,526.731 611.676,526.653 612.011,526.31C612.138,526.259 612.256,526.183 612.358,526.082L612.485,526.391C612.485,526.391 612.789,526.688 612.789,526.688C612.789,526.688 613.114,526.829 613.114,526.829C613.114,526.829 613.576,526.845 613.576,526.845C613.576,526.845 614.139,526.635 614.139,526.635C614.209,526.6 614.276,526.565 614.34,526.53C614.243,526.919 614.376,527.344 614.709,527.606C615.147,527.949 615.776,527.892 616.144,527.474C616.52,527.047 616.873,526.647 617.204,526.272C617.23,526.562 617.376,526.84 617.63,527.026C617.973,527.276 618.419,527.289 618.767,527.09C618.816,527.149 618.872,527.203 618.935,527.252C619.359,527.577 619.957,527.531 620.326,527.149C620.092,527.607 620.225,528.176 620.654,528.48C620.876,528.638 621.14,528.697 621.392,528.665C621.465,528.824 621.579,528.968 621.731,529.078C622.178,529.399 622.797,529.321 623.149,528.898L623.624,528.329C624.052,528.665 624.667,528.618 625.039,528.219L625.939,527.252C625.939,527.252 625.306,528.281 625.306,528.281C625.018,528.751 625.142,529.364 625.591,529.683C625.652,529.727 625.715,529.762 625.781,529.791C625.836,530.025 625.971,530.241 626.177,530.394C626.613,530.718 627.223,530.655 627.584,530.25L628.119,529.649C628.119,529.649 628.054,529.765 628.054,529.765C627.793,530.234 627.928,530.824 628.367,531.132C628.805,531.441 629.406,531.369 629.759,530.965L630.658,529.936C630.721,530.021 630.797,530.096 630.885,530.161C631.203,530.391 631.609,530.417 631.943,530.261L631.951,530.267C632.39,530.6 633.012,530.536 633.374,530.121L635.402,527.792L635.478,527.971C635.478,527.971 635.698,528.246 635.698,528.246C635.698,528.246 635.885,528.406 635.885,528.406C635.885,528.406 636.137,528.545 636.137,528.545L636.267,528.571C636.162,528.98 636.314,529.423 636.669,529.679C637.09,529.984 637.672,529.933 638.035,529.56L638.288,529.299C638.686,529.484 639.171,529.402 639.487,529.071L641.896,526.541C642.202,526.22 642.264,525.755 642.088,525.376L642.117,525.335C642.43,524.887 642.347,524.274 641.926,523.926C641.698,523.738 641.414,523.662 641.14,523.693C641.331,523.239 641.18,522.708 640.768,522.425C640.565,522.285 640.329,522.226 640.099,522.243C640.217,521.819 640.057,521.355 639.681,521.098C639.314,520.847 638.84,520.859 638.49,521.103C638.428,521.018 638.351,520.941 638.262,520.876C637.811,520.546 637.181,520.629 636.829,521.063L636.797,521.102C636.363,520.817 635.78,520.892 635.434,521.289L634.664,522.169C634.805,521.74 634.656,521.258 634.276,520.988C633.935,520.746 633.495,520.735 633.149,520.932C633.165,520.62 633.04,520.309 632.797,520.094L633.236,519.38C633.518,518.921 633.406,518.323 632.978,517.997C632.549,517.671 631.943,517.723 631.576,518.117L631.182,518.541C631.121,518.329 630.994,518.136 630.806,517.994C630.436,517.715 629.938,517.717 629.575,517.971C629.519,517.726 629.374,517.501 629.153,517.347C629.052,517.277 628.943,517.228 628.831,517.197L628.81,516.967C628.81,516.967 628.701,516.711 628.701,516.711C628.701,516.711 628.556,516.519 628.556,516.519C628.556,516.519 628.189,516.27 628.189,516.27C628.189,516.27 627.861,516.196 627.861,516.196C627.861,516.196 627.52,516.231 627.52,516.231C627.52,516.231 627.289,516.323 627.289,516.323L627.192,516.397C627.324,516.009 627.217,515.573 626.911,515.291L627.789,513.999C628.103,513.536 627.999,512.908 627.552,512.572C627.438,512.487 627.313,512.428 627.184,512.395L627.396,512.116C627.734,511.67 627.662,511.037 627.233,510.678C626.804,510.319 626.169,510.361 625.79,510.772C624.21,512.487 622.847,513.985 621.666,515.297C622.084,514.653 622.524,513.972 622.985,513.253C623.287,512.782 623.167,512.157 622.711,511.833C622.589,511.746 622.455,511.689 622.316,511.661C622.43,511.495 622.512,511.372 622.612,511.223C622.93,510.75 622.811,510.11 622.345,509.782C621.88,509.454 621.238,509.558 620.899,510.016L620.656,510.344Z"/>
                </g>
                <g transform="matrix(1,0,0,1,256,181.559)">
                    <path d="M620.293,498.208C620.258,497.556 620.214,496.955 620.103,496.218C620.037,495.783 620.25,495.369 620.609,495.158C620.323,493.084 620.005,490.652 619.618,487.642C619.547,487.093 619.917,486.583 620.462,486.479C621.006,486.375 621.537,486.714 621.674,487.251L622.975,492.384C622.859,490.933 622.78,489.694 622.514,488.036C622.425,487.478 622.793,486.95 623.348,486.842C623.664,486.78 623.976,486.867 624.209,487.056C624.394,486.847 624.661,486.712 624.957,486.702C624.89,486.083 624.805,485.426 624.686,484.682C624.685,484.675 624.683,484.669 624.682,484.663C624.591,484.095 624.975,483.56 625.542,483.464C626.109,483.367 626.648,483.746 626.749,484.312C626.75,484.319 626.751,484.325 626.752,484.331C626.857,484.916 626.93,485.452 626.988,485.975C627.133,486.14 627.227,486.353 627.244,486.588L627.296,487.294C627.378,487.253 627.465,487.223 627.559,487.204C627.484,486.303 627.406,485.351 627.323,484.342C627.276,483.769 627.699,483.266 628.271,483.212C628.719,483.171 629.128,483.418 629.313,483.802C629.253,482.639 629.192,481.405 629.128,480.09C629.1,479.526 629.525,479.042 630.088,478.995C630.65,478.948 631.149,479.356 631.216,479.916C631.395,481.432 631.559,482.841 631.711,484.158C631.885,483.897 632.173,483.716 632.51,483.692C632.648,483.683 632.782,483.7 632.906,483.74C632.667,481.937 632.469,480.395 632.361,479.438C632.315,479.264 632.272,479.099 632.231,478.94C631.669,478.934 631.208,478.483 631.195,477.917L631.054,472.114C631.041,471.553 631.472,471.081 632.032,471.043C632.592,471.005 633.082,471.415 633.144,471.973C633.147,471.999 633.15,472.025 633.153,472.051C633.323,472.161 633.461,472.32 633.545,472.513C633.946,472.607 634.269,472.933 634.341,473.362C634.439,473.953 634.681,476.042 634.992,478.763C635.044,479 635.102,479.26 635.167,479.548C635.178,479.594 635.189,479.641 635.199,479.688C635.246,479.891 635.23,480.093 635.164,480.275C635.308,481.532 635.461,482.878 635.619,484.243C635.766,484.391 635.87,484.585 635.907,484.807C635.964,485.149 635.967,485.497 635.967,485.845C635.98,486.1 635.993,486.34 636.005,486.566C636.194,486.715 636.332,486.929 636.383,487.183C636.901,489.775 637.246,491.689 637.508,493.279C637.889,493.369 638.201,493.67 638.29,494.074C639.391,499.091 639.503,498.974 640.48,504.056C640.835,505.9 641.03,507.176 641.186,508.233C643.919,515.86 642.727,517.152 645.149,524.97C645.379,525.634 645.514,526.005 645.646,526.521C645.786,527.068 645.469,527.628 644.927,527.787C644.386,527.947 643.815,527.649 643.637,527.113C643.568,526.908 643.502,526.708 643.439,526.511C643.299,526.74 643.073,526.916 642.793,526.985C642.249,527.119 641.696,526.802 641.537,526.265L640.923,524.183L641.087,525.164C641.178,525.707 640.832,526.228 640.296,526.356C639.76,526.483 639.217,526.175 639.053,525.649C638.881,525.099 638.709,524.587 638.537,524.094C638.067,524.117 637.625,523.819 637.484,523.35C637.462,523.277 637.44,523.204 637.418,523.131C637.395,523.083 637.376,523.033 637.361,522.982C637.307,522.797 637.253,522.614 637.2,522.432C637.095,522.513 636.974,522.575 636.839,522.612C636.798,522.623 636.757,522.632 636.717,522.638C636.611,522.974 636.339,523.247 635.976,523.34C635.625,523.429 635.269,523.331 635.017,523.105C635.078,523.355 635.115,523.532 635.124,523.624L635.126,523.886L635.066,524.152L634.95,524.382L634.787,524.572L634.503,524.759L634.267,524.819C635.339,528.092 635.843,529.681 635.948,530.055L636.008,530.478L635.883,530.924L635.711,531.159L635.509,531.32L635.204,531.447L634.891,531.473L634.563,531.397L634.23,531.179L634.077,530.992L633.954,530.737C633.81,530.357 633.112,528.264 632.202,525.397C631.658,525.514 631.116,525.185 630.97,524.646C630.875,524.294 630.781,523.947 630.689,523.602C630.185,523.677 629.69,523.376 629.535,522.876C629.368,522.338 629.207,521.817 629.05,521.312C628.903,521.486 628.7,521.614 628.46,521.664C628.4,521.677 628.34,521.684 628.28,521.686C628.243,521.798 628.188,521.902 628.117,521.996C629.08,526.468 629.428,528.596 629.386,529.053L629.253,529.518L629.103,529.736L628.925,529.897L628.702,530.019L628.442,530.088L627.975,530.046L627.706,529.918L627.435,529.67C627.339,529.551 627.171,529.255 626.987,528.784C626.609,527.817 625.981,525.84 625.224,523.323C625.087,523.503 624.89,523.64 624.654,523.701C624.097,523.844 623.529,523.513 623.38,522.958C623.378,522.951 623.376,522.944 623.374,522.936C623.239,522.432 623.108,521.95 622.982,521.487C622.943,521.412 622.912,521.331 622.891,521.244C622.891,521.242 622.89,521.24 622.89,521.238C622.828,520.983 622.768,520.733 622.71,520.489C620.158,511.166 619.722,510.466 618.055,499.35C618.024,499.14 618.057,498.935 618.139,498.756C618.038,498.229 617.932,497.679 617.821,497.104C617.715,496.551 618.065,496.012 618.613,495.884C619.162,495.757 619.713,496.086 619.862,496.63C619.905,496.788 620.057,497.346 620.293,498.208Z"/>
                </g>
                <g transform="matrix(1,0,0,1,256,181.559)">
                    <path d="M622.113,420.344C622.153,420.312 622.196,420.283 622.242,420.257L622.372,420.19L622.658,420.111L623.035,420.131L623.38,420.284L623.513,420.412C625.121,420.166 626.235,420.639 626.964,421.409C628.044,422.55 628.28,424.541 627.755,426.333C627.223,428.152 625.934,429.673 624.355,429.959C623.271,430.156 621.98,429.837 620.639,428.497C619.812,427.669 619.373,426.852 619.18,426.088C618.856,424.803 619.208,423.626 619.815,422.66C620.584,421.437 621.763,420.583 622.113,420.344ZM622.878,422.383C622.592,422.612 622.224,422.942 621.894,423.352C621.422,423.937 620.991,424.7 621.212,425.575C621.329,426.037 621.621,426.514 622.122,427.015C622.812,427.705 623.422,427.998 623.98,427.897C624.864,427.736 625.446,426.762 625.744,425.744C626.049,424.699 626.072,423.516 625.442,422.851C625.074,422.462 624.475,422.351 623.634,422.519C623.363,422.573 623.096,422.518 622.878,422.383Z" style="fill:rgb(237,236,218);"/>
                </g>
                <g transform="matrix(1,0,0,1,256,181.559)">
                    <path d="M604.153,435.602C603.847,435.728 603.486,435.707 603.187,435.514L602.943,435.335L602.75,435.102L602.61,434.741L602.612,434.339L602.784,433.939L602.94,433.763L603.152,433.614L603.419,433.515L603.665,433.486C603.995,433.479 606.163,433.773 612.196,432.164C618.107,430.588 620.332,428.406 620.88,427.858C621.289,427.449 621.953,427.449 622.362,427.858C622.772,428.267 622.772,428.931 622.362,429.34C621.753,429.95 619.309,432.437 612.736,434.19C607.838,435.496 605.142,435.617 604.153,435.602Z" style="fill:rgb(237,236,218);"/>
                </g>
                <g transform="matrix(1,0,0,1,256,181.559)">
                    <path d="M611.137,459.001C611.283,459.566 611.718,461.362 612.278,464.682C612.817,464.636 613.375,464.604 613.87,464.557C614.249,464.521 614.578,464.5 614.768,464.405C615.285,464.146 615.915,464.356 616.174,464.874C616.433,465.391 616.223,466.021 615.705,466.28C615.426,466.419 615.003,466.529 614.493,466.596C613.642,466.708 612.469,466.724 611.576,466.871C611.301,466.916 611.02,466.85 610.794,466.687C610.568,466.524 610.416,466.278 610.371,466.003C609.592,461.168 609.093,459.692 609.009,459.097L608.988,458.697L609.047,458.363L609.191,458.041L609.436,457.734C610.108,457.063 610.624,456.713 611.078,456.538C611.618,456.33 612.106,456.324 612.676,456.454C612.887,456.503 613.116,456.577 613.38,456.664C613.122,454.489 612.752,451.166 611.638,447.815C610.256,443.657 607.707,439.426 602.611,437.538C602.068,437.336 601.791,436.733 601.992,436.19C602.193,435.648 602.797,435.371 603.339,435.572C609.11,437.711 612.061,442.445 613.627,447.153C615.121,451.647 615.331,456.087 615.665,457.927C615.728,458.273 615.613,458.628 615.359,458.871C615.105,459.115 614.745,459.214 614.402,459.136C613.632,458.961 613.069,458.76 612.608,458.613C612.32,458.521 612.115,458.419 611.887,458.476C611.659,458.534 611.44,458.708 611.137,459.001Z" style="fill:rgb(237,236,218);"/>
                </g>
                <g transform="matrix(1,0,0,1,256,181.559)">
                    <path d="M625.97,429.2C626.14,429.353 626.352,429.754 626.582,430.559L627.31,428.831L627.359,428.88L626.612,430.663C626.307,430.663 626.033,430.533 625.841,430.325C626.114,430.587 626.39,430.615 626.505,430.614L626.493,430.609C626.241,430.593 626.012,430.487 625.839,430.323C625.832,430.316 625.826,430.308 625.819,430.3L625.814,430.298C625.627,430.109 625.513,429.849 625.513,429.563C625.513,429.203 625.694,428.886 625.97,429.2ZM625.841,430.325C625.832,430.316 625.823,430.307 625.814,430.298C625.822,430.306 625.831,430.315 625.839,430.323C625.84,430.324 625.841,430.325 625.841,430.325Z" style="fill:rgb(237,236,218);"/>
                </g>
                <g transform="matrix(1,0,0,1,256,181.559)">
                    <path d="M626.169,430.456C625.755,430.475 625.35,430.246 625.166,429.847C625.057,429.609 625.002,429.448 624.984,429.367L624.958,429.147L624.986,428.883L625.116,428.566L625.297,428.345L625.622,428.138L626.045,428.06L626.349,428.11L626.717,428.293C627.479,428.789 631.724,432.188 646.267,434.841C646.621,434.906 646.917,435.148 647.051,435.482C647.185,435.815 647.139,436.195 646.928,436.486C635.326,452.539 636.335,453.094 635.408,456.802C635.268,457.363 634.698,457.705 634.137,457.565C633.576,457.425 633.234,456.855 633.374,456.294C634.306,452.566 633.293,451.891 644.267,436.595C633.131,434.391 627.829,431.508 626.169,430.456Z" style="fill:rgb(237,236,218);"/>
                </g>
                <g transform="matrix(1,0,0,1,256,181.559)">
                    <path d="M611.688,459.368C611.113,459.436 610.592,459.025 610.524,458.45C610.456,457.876 610.867,457.354 611.441,457.286C616.372,456.702 622.169,457.763 626.996,456.384C627.473,456.247 629.862,455.567 632.441,455.469C634.281,455.399 636.206,455.638 637.682,456.481C638.798,457.119 639.12,457.682 639.144,458.686C639.166,459.621 638.687,461.238 638.449,464.81C638.41,465.387 637.91,465.824 637.333,465.786C636.756,465.747 636.319,465.247 636.357,464.67C636.554,461.718 636.921,460.112 637.026,459.122C637.052,458.883 637.095,458.716 637.03,458.581C636.972,458.46 636.828,458.408 636.642,458.301C635.484,457.64 633.964,457.508 632.521,457.563C630.176,457.653 628.006,458.275 627.571,458.399C622.642,459.807 616.724,458.771 611.688,459.368Z" style="fill:rgb(237,236,218);"/>
                </g>
                <g transform="matrix(1,0,0,1,256,181.559)">
                    <path d="M613.094,467.016C613.083,467.022 613.073,467.027 613.062,467.033C612.544,467.289 611.915,467.075 611.659,466.557L611.562,466.256L611.563,465.905L611.69,465.551L611.935,465.26L612.385,465.024C612.508,464.987 612.718,464.946 613.007,464.914C616.281,464.547 633.708,464.587 636.298,464.535C636.876,464.524 637.355,464.984 637.367,465.562C637.378,466.141 636.918,466.62 636.34,466.631C633.771,466.682 616.487,466.633 613.24,466.997C613.192,467.002 613.139,467.01 613.094,467.016ZM613.573,466.477C613.7,466.198 613.679,465.914 613.538,465.629C613.674,465.905 613.678,466.212 613.573,466.477Z" style="fill:rgb(237,236,218);"/>
                </g>
                <g transform="matrix(1,0,0,1,256,181.559)">
                    <path d="M615.05,468.24C615.348,470.741 615.779,479.144 611.836,497.283C610.58,503.06 605.79,519.334 602.987,526.55C602.211,528.548 601.523,529.895 601.118,530.3C600.708,530.709 600.044,530.709 599.635,530.3C599.226,529.891 599.226,529.227 599.635,528.818C599.807,528.646 600.008,528.213 600.284,527.602C600.8,526.457 601.442,524.766 602.148,522.748C604.931,514.801 608.7,501.842 609.787,496.838C614.592,474.736 612.737,468.261 612.833,467.213L612.912,466.853L613.11,466.506L613.45,466.229L613.854,466.104L614.145,466.107L614.432,466.179C614.565,466.229 614.759,466.333 615.015,466.497C615.502,466.809 615.645,467.458 615.333,467.945C615.256,468.064 615.16,468.163 615.05,468.24Z" style="fill:rgb(237,236,218);"/>
                </g>
                <g transform="matrix(1,0,0,1,256,181.559)">
                    <path d="M632.981,467.118C632.722,466.601 632.932,465.971 633.449,465.712C633.967,465.453 634.597,465.663 634.856,466.181C635.004,466.479 635.264,467.553 635.567,469.246C636.665,475.372 638.831,490.344 641.679,504.162C644.016,515.498 646.766,526.06 649.813,530.123C650.16,530.585 650.066,531.243 649.603,531.59C649.141,531.937 648.483,531.843 648.136,531.38C644.988,527.182 642.041,516.299 639.626,504.586C636.774,490.746 634.603,475.751 633.504,469.616C633.258,468.243 633.101,467.36 632.981,467.118Z" style="fill:rgb(237,236,218);"/>
                </g>
            </g>
        </g>
    </g>
</svg>
