<?xml version="1.0" encoding="UTF-8" standalone="no"?>
<!DOCTYPE svg PUBLIC "-//W3C//DTD SVG 1.1//EN" "http://www.w3.org/Graphics/SVG/1.1/DTD/svg11.dtd">
<svg width="100%" height="100%" viewBox="0 0 67 128" version="1.1" xmlns="http://www.w3.org/2000/svg" xmlns:xlink="http://www.w3.org/1999/xlink" xml:space="preserve" xmlns:serif="http://www.serif.com/" style="fill-rule:evenodd;clip-rule:evenodd;stroke-linejoin:round;stroke-miterlimit:2;">
    <g transform="matrix(1,0,0,1,-761.782,-467.974)">
        <g transform="matrix(1,0,0,1,-256,-181.559)">
            <g transform="matrix(1,0,0,1,108.915,9.18213)">
                <g transform="matrix(1,0,0,1,-4.05125,-18.7123)">
                    <g transform="matrix(1,0,0,1,256,181.559)">
                        <path d="M678.058,590.384C677.542,590.825 675.517,597.126 672.986,601.04C675.774,600.456 682.114,599.128 708.595,601.165"/>
                        <path d="M679.48,591.539C678.953,592.537 677.829,595.641 676.388,598.636C680.885,598.143 689.658,597.871 708.735,599.339C709.744,599.416 710.499,600.298 710.422,601.306C710.344,602.314 709.463,603.07 708.454,602.992C682.357,600.985 676.109,602.258 673.361,602.833C672.638,602.985 671.894,602.687 671.475,602.077C671.057,601.467 671.046,600.666 671.447,600.045C673.417,596.999 675.058,592.46 675.898,590.549C676.285,589.669 676.681,589.15 676.866,588.992C677.634,588.334 678.791,588.424 679.449,589.192C680.034,589.875 680.028,590.865 679.48,591.539Z"/>
                    </g>
                    <g transform="matrix(1,0,0,1,256,181.559)">
                        <path d="M709.634,588.352C719.49,600.672 718.655,601.146 718.661,601.157C712.635,601.525 712.651,598.883 708.941,600.473"/>
                        <path d="M715.455,599.179C714.186,597.299 711.939,594.166 708.203,589.496C707.572,588.707 707.7,587.553 708.489,586.921C709.279,586.289 710.433,586.417 711.065,587.207C717.432,595.167 719.43,598.319 720.052,599.554C720.315,600.077 720.409,600.399 720.451,600.589L720.468,600.733C720.408,600.524 720.319,600.373 720.277,600.293C720.438,600.594 720.509,600.928 720.491,601.258L720.509,601.083L720.468,600.733C720.569,601.085 720.588,601.6 720.164,602.206C720.198,602.156 720.231,602.104 720.261,602.051C720.351,601.889 720.415,601.717 720.453,601.541L720.464,601.515L720.473,601.432C720.467,601.469 720.46,601.505 720.453,601.541L720.164,602.206C719.846,602.662 719.335,602.952 718.773,602.986C716.036,603.153 714.398,602.763 713.147,602.363C711.936,601.975 711.293,601.458 709.663,602.157C708.734,602.555 707.656,602.124 707.257,601.194C706.859,600.265 707.29,599.187 708.22,598.789C710.248,597.919 711.467,598.019 712.72,598.368C713.472,598.577 714.243,598.955 715.455,599.179Z"/>
                    </g>
                    <g transform="matrix(1,0,0,1,256,181.559)">
                        <path d="M674.337,601.747C674.556,601.595 708.388,599.342 716.214,600.646"/>
                        <path d="M674.694,603.544C674.001,603.681 673.259,603.408 672.831,602.79C672.255,601.959 672.462,600.817 673.293,600.241L673.963,599.951C674.062,599.93 674.492,599.875 675.203,599.818C680.977,599.348 709.395,597.652 716.515,598.839C717.513,599.005 718.187,599.95 718.021,600.947C717.855,601.944 716.91,602.619 715.913,602.453C709.722,601.421 687.072,602.671 678.149,603.277C676.361,603.398 674.917,603.524 674.694,603.544Z"/>
                    </g>
                    <g transform="matrix(1,0,0,1,256,181.559)">
                        <path d="M683.235,548.655C674.022,551.726 666.722,570.326 669.566,578.5C673.377,589.456 674.759,588.56 684.146,595.131"/>
                        <path d="M682.656,546.917C683.615,546.597 684.653,547.116 684.973,548.075C685.293,549.035 684.774,550.073 683.814,550.393C679.604,551.796 675.956,556.857 673.561,562.391C671.144,567.975 669.985,574.129 671.296,577.898C674.913,588.298 676.287,587.393 685.197,593.63C686.025,594.21 686.227,595.353 685.647,596.182C685.067,597.01 683.924,597.212 683.096,596.632C673.232,589.727 671.84,590.615 667.835,579.102C666.303,574.696 667.372,567.463 670.198,560.936C673.045,554.359 677.653,548.584 682.656,546.917Z"/>
                    </g>
                    <g transform="matrix(1,0,0,1,256,181.559)">
                        <path d="M702.514,546.99C705.959,540.626 725.72,586.817 706.929,593.08"/>
                        <path d="M703.517,548.524C702.972,548.879 702.254,548.933 701.642,548.602C700.753,548.12 700.422,547.008 700.903,546.118L701.192,545.669L701.578,545.247L702.077,544.89L702.667,544.65L703.639,544.571L704.282,544.708L704.832,544.942C705.621,545.355 706.598,546.274 707.594,547.678C711.461,553.127 716.624,566.699 716.755,577.81C716.85,585.851 714.27,592.565 707.508,594.819C706.549,595.138 705.51,594.619 705.191,593.66C704.871,592.701 705.39,591.662 706.349,591.342C710.896,589.827 712.659,585.501 713.023,580.33C713.633,571.657 710.261,560.6 706.895,553.765C705.924,551.793 704.96,550.182 704.087,549.114C703.917,548.906 703.701,548.693 703.517,548.524Z"/>
                    </g>
                    <g transform="matrix(1,0,0,1,256,181.559)">
                        <path d="M676.086,543.501C673.97,544.003 663.593,557.784 664.781,568.475C667.27,590.877 682.652,592.896 684.146,593.536"/>
                        <path d="M676.672,545.237C676.511,545.385 675.064,546.725 673.948,548.201C670.467,552.807 665.82,561.234 666.602,568.273C667.54,576.712 670.374,582.099 673.583,585.54C678.413,590.721 684.021,591.489 684.868,591.852C685.797,592.25 686.229,593.328 685.83,594.258C685.432,595.187 684.354,595.618 683.425,595.22C682.479,594.815 676.295,593.822 670.903,588.039C667.297,584.172 664.014,578.16 662.96,568.678C662.079,560.749 667.103,551.18 671.025,545.992C672.254,544.366 673.382,543.159 674.182,542.518C674.775,542.043 675.298,541.805 675.663,541.718C676.647,541.485 677.635,542.094 677.869,543.078C678.089,544.006 677.559,544.938 676.672,545.237Z"/>
                    </g>
                    <g transform="matrix(1,0,0,1,256,181.559)">
                        <path d="M672.032,543.411C662.699,547.228 645.356,583.581 681.868,595.359"/>
                        <path d="M671.338,541.715C672.274,541.332 673.345,541.781 673.727,542.717C674.11,543.653 673.661,544.724 672.725,545.107C670.191,546.143 667.125,549.928 664.798,554.869C661.418,562.046 659.706,571.772 664.124,580.078C667.083,585.64 672.789,590.505 682.431,593.615C683.393,593.925 683.922,594.959 683.612,595.921C683.301,596.884 682.268,597.413 681.306,597.102C670.501,593.617 664.205,588.032 660.889,581.799C655.897,572.413 657.663,561.418 661.483,553.308C664.298,547.33 668.272,542.969 671.338,541.715Z"/>
                    </g>
                    <g transform="matrix(1,0,0,1,256,181.559)">
                        <path d="M706.569,542.96C709.397,547.834 716.862,547.176 719.915,570.07C721.534,582.217 718.291,585.819 711.941,592.169"/>
                        <path d="M704.984,543.879C704.477,543.004 704.775,541.882 705.649,541.375C706.524,540.867 707.646,541.165 708.154,542.04C708.903,543.331 710.054,544.15 711.324,545.256C714.852,548.325 719.485,552.989 721.731,569.828C722.601,576.352 722.102,580.576 720.595,584.026C719.109,587.432 716.602,590.099 713.236,593.465C712.521,594.18 711.36,594.18 710.645,593.465C709.93,592.75 709.93,591.589 710.645,590.874C713.629,587.89 715.919,585.58 717.237,582.561C718.535,579.586 718.848,575.936 718.099,570.312C716.07,555.099 712.106,550.793 708.919,548.02C707.312,546.622 705.932,545.512 704.984,543.879Z"/>
                    </g>
                    <g transform="matrix(1,0,0,1,256,181.559)">
                        <path d="M670.705,546.604C669.788,545.688 670.108,547.114 663.187,560.957C666.447,552.518 666.402,552.635 670.249,544.326C668.123,550.022 665.996,555.717 663.87,561.413C666.376,556.097 668.882,550.781 671.388,545.465C670.714,547.801 670.239,550.192 669.566,552.528C669.265,553.569 669.279,553.49 665.693,565.514C666.369,563.51 673.866,540.639 675.261,542.731C675.841,543.601 675.429,543.71 667.743,568.931C668.356,566.98 669.408,565.186 670.021,563.236C673.139,553.316 673.536,553.599 677.084,543.871C676.683,545.55 667.012,586.075 672.983,565.058C673.489,563.278 682.281,532.328 680.501,543.187C679.159,551.373 673.655,574.227 675.489,570.298C677.256,566.512 680.804,539.464 681.868,541.592C682.698,543.253 675.314,603.855 680.501,563.008C680.889,559.951 681.929,545.426 682.779,542.731C683.61,540.102 683.245,544.023 683.691,570.982C684.667,558.049 682.835,558.015 685.058,545.237C685.445,543.008 685.622,546.237 688.931,573.26C688.86,570.964 687.985,542.673 688.247,544.554C690.097,557.812 689.949,557.619 692.576,570.754C693.203,555.918 693.125,556.065 692.804,541.137C695.386,549.794 697.968,558.451 700.55,567.109C699.183,558.831 697.816,550.553 696.449,542.276C704.207,566.277 705.79,573.993 705.79,568.02C705.79,565.868 705.603,565.952 700.777,541.592C703.891,548.807 707.005,556.021 710.118,563.236C708.22,557.54 706.321,551.844 704.423,546.149C707.764,550.629 711.105,555.11 714.447,559.59C712.283,555.274 710.119,550.959 707.955,546.643C710.389,549.674 712.823,552.705 715.257,555.736C713.62,552.541 711.983,549.345 710.346,546.149C713.073,550.542 718.249,555.581 717.636,572.121C716.877,568.627 716.118,565.134 715.358,561.641C718.061,570.29 718.066,570.335 716.725,579.183C716.651,578.55 712.376,542.214 716.725,571.209C717.83,578.575 716.699,582.44 716.497,582.373C715.459,582.027 715.986,581.654 716.269,575.994C715.51,579.715 714.751,583.436 713.991,587.157C713.992,579.596 713.992,572.034 713.993,564.473C712.929,570.363 711.865,576.254 710.802,582.145C711.172,562.532 710.221,562.643 709.663,553.895C709.157,563.245 708.994,563.083 707.156,581.689C707.156,567.44 706.906,567.634 705.79,553.439C705.515,581.963 705.31,583.944 704.878,583.512C703.037,581.67 705.062,581.247 701.233,551.161C702.734,566.67 702.165,566.603 703.739,582.145C701.467,564.535 701.567,564.654 698.955,547.06C700.172,574.148 700.096,574.036 700.55,580.322C698.978,563.032 698.843,563.228 696.449,546.149C696.698,551.991 696.199,557.849 696.449,563.691C696.513,565.188 696.55,565.075 697.816,582.373C695.993,571.057 694.171,559.742 692.348,548.427C694.266,571.169 694.134,571.003 695.31,581.689C693.487,570.146 691.664,558.603 689.842,547.06C690.065,549.85 691.209,564.147 692.804,581.917C692.485,579.936 692.486,580.038 686.88,549.338C689.77,583.374 692.044,585.334 689.158,585.334C689.077,585.334 683.912,553.267 683.463,550.477C684.374,562.02 685.285,573.564 686.197,585.107C684.222,574.779 682.248,564.451 680.273,554.123C680.622,557.911 680.608,561.726 680.957,565.514C681.093,566.991 681.092,566.881 682.779,583.967C680.729,574.095 678.679,564.223 676.628,554.35C677.16,558.892 677.236,563.479 677.767,568.02C677.917,569.297 677.919,569.201 679.818,583.967C677.539,574.399 675.261,564.83 672.983,555.262C673.386,557.899 673.264,560.598 673.666,563.236C673.923,564.918 673.936,564.788 677.312,584.195C674.476,571.152 674.084,571.448 670.021,558.679C671.4,566.179 672.779,573.679 674.158,581.178C671.336,573.83 668.515,566.483 665.693,559.135C668.194,568.757 668.098,568.662 671.616,578.044C669.566,572.121 667.515,566.197 665.465,560.274C666.224,565.286 666.984,570.298 667.743,575.31C664.38,560.386 664.869,553.792 664.326,558.679C664.194,559.862 661.621,564.454 661.364,566.425C660.724,571.329 662.172,570.945 664.553,575.538C662.054,568.873 662.469,568.86 662.275,561.869C663.5,579.012 663.353,580.075 674.122,587.613C667.836,583.643 668.345,583.108 665.237,576.449C672.257,585.419 671.215,586.639 681.412,591.941C676.017,585.615 676.175,585.719 671.844,578.5C675.854,584.868 675.868,584.779 681.64,589.663C678.83,586.549 676.021,583.436 673.211,580.322C677.16,584.043 681.109,587.765 685.058,591.486L678.906,580.322L688.703,592.397L683.386,579.452C686.408,583.815 689.431,588.177 692.453,592.54L688.019,576.905C688.792,578.45 688.733,578.307 695.31,590.802C694.171,585.486 693.031,580.17 691.892,574.855C693.867,580.094 695.841,585.334 697.816,590.574C696.904,585.031 695.993,579.487 695.082,573.943C697.409,582.714 697.287,582.533 700.322,591.258C699.465,581.836 699.647,582.011 698.499,573.488C700.094,579.715 701.689,585.942 703.283,592.169C703.021,582.97 702.522,583.223 701.917,573.943C701.235,563.494 702.891,576.717 705.562,592.169C705.122,582.271 705.262,582.422 704.65,575.538C705.027,580.658 705.403,585.778 705.78,590.899C705.866,590.036 706.74,581.296 708.979,580.55C712.205,579.475 707.361,593.83 706.929,590.802C706.322,586.557 710.469,582.871 711.029,582.373C714.751,579.065 711.556,584.035 708.979,591.03C711.863,585.021 711.389,584.867 713.08,583.74C713.824,583.244 713.255,584.105 710.346,591.713C711.181,589.283 712.017,586.853 712.852,584.423"/>
                        <path d="M660.476,563.238C660.467,562.826 660.457,562.388 660.444,561.919C660.423,561.163 660.864,560.498 661.514,560.201C661.965,559.034 662.353,558.031 662.697,557.147C662.784,556.681 662.865,556.404 662.915,556.303L663.165,555.945C664.912,551.481 665.523,550.173 668.586,543.556C669,542.663 670.046,542.256 670.955,542.635C671.432,542.835 671.782,543.213 671.957,543.662C672.036,543.508 672.113,543.363 672.188,543.225C672.621,542.434 673.031,541.86 673.357,541.531L673.837,541.136L674.335,540.888L674.978,540.765L675.746,540.887L676.28,541.177L676.786,541.715L676.957,542.042C677.172,542.027 677.393,542.05 677.611,542.116C677.754,542.159 677.888,542.218 678.011,542.29C678.364,541.304 678.655,540.579 678.853,540.226L679.376,539.548L679.782,539.266L680.267,539.091L680.99,539.081L681.7,539.368L682.006,539.685L682.217,539.702L682.777,539.947L683.096,540.223L683.246,540.212L683.793,540.339L684.286,540.628L684.676,541.057C684.793,541.234 685.028,541.779 685.116,542.841L685.18,542.83L685.633,542.871L686.022,543L686.505,543.321L686.667,543.515L686.693,543.458L687.162,542.971L687.87,542.667L688.615,542.674L689.192,542.908L689.736,543.425L689.958,543.861L690.062,544.301C690.108,544.629 690.152,544.95 690.196,545.262C690.525,545.327 690.827,545.481 691.071,545.701C691.041,544.357 691.008,542.863 690.972,541.176C690.952,540.259 691.613,539.469 692.52,539.327C693.426,539.184 694.297,539.734 694.559,540.613L694.811,541.455C695.044,540.989 695.474,540.627 696.017,540.495C696.948,540.269 697.897,540.8 698.192,541.712C698.586,542.932 698.969,544.117 699.34,545.269C699.45,545.292 699.557,545.326 699.659,545.369C699.444,544.286 699.218,543.147 698.98,541.948C698.798,541.029 699.339,540.121 700.233,539.843C701.128,539.565 702.088,540.006 702.46,540.866L703.973,544.372C704.678,544.194 705.44,544.449 705.891,545.053L706.379,545.708C706.52,545.469 706.718,545.26 706.965,545.101C707.558,544.72 708.295,544.722 708.874,545.057C709.022,544.857 709.214,544.684 709.445,544.554C710.3,544.07 711.385,544.348 711.903,545.183C714.738,549.75 720.104,554.993 719.467,572.188C719.463,572.306 719.447,572.421 719.422,572.532C719.361,573.591 719.22,574.78 719.011,576.262C719.099,580.261 718.477,582.58 718.223,583.092L717.826,583.652L717.159,584.085L716.599,584.203L716.468,584.185L715.786,587.523C715.598,588.445 714.743,589.074 713.807,588.98C713.666,588.966 713.531,588.936 713.402,588.892C713.023,589.859 712.577,591.008 712.057,592.368C711.7,593.302 710.661,593.777 709.721,593.436C709.394,593.317 709.121,593.115 708.918,592.862C708.7,592.854 708.48,592.808 708.267,592.718L707.948,592.894L707.367,593.044L707.174,593.04C706.896,593.554 706.379,593.924 705.759,593.991C705.262,594.044 704.788,593.894 704.423,593.604C704.175,593.802 703.873,593.937 703.538,593.983C702.623,594.112 701.756,593.538 701.515,592.648C701.29,592.841 701.016,592.982 700.709,593.049C699.914,593.22 699.117,592.848 698.729,592.163C698.594,592.241 698.447,592.302 698.29,592.344C697.714,592.498 697.123,592.36 696.683,592.015C696.486,592.239 696.232,592.417 695.934,592.525C695.361,592.732 694.745,592.637 694.271,592.312C694.369,593.087 693.961,593.854 693.235,594.197C692.425,594.579 691.457,594.32 690.947,593.583L690.467,592.891C690.344,593.331 690.057,593.724 689.638,593.973C688.856,594.436 687.853,594.257 687.28,593.551L686.51,592.603C686.417,592.724 686.306,592.836 686.18,592.934C685.467,593.486 684.458,593.438 683.801,592.819L683.215,592.267C683.163,592.558 683.04,592.838 682.846,593.082C682.3,593.768 681.345,593.971 680.567,593.567C677.314,591.875 675.163,590.589 673.531,589.347C673.398,589.302 673.268,589.24 673.144,589.162C670.482,587.481 668.95,586.379 667.866,585.222C666.242,583.862 665.044,582.614 664.131,581.252C662.853,579.348 662.123,577.202 661.613,574.145C661.257,573.604 660.942,573.162 660.677,572.749C659.604,571.082 659.074,569.815 659.547,566.188C659.643,565.451 660.011,564.382 660.476,563.238ZM670.107,579.084C670.024,578.963 669.954,578.831 669.901,578.687C669.895,578.673 669.89,578.658 669.884,578.644C669.6,577.885 669.339,577.188 669.098,576.543C668.839,576.828 668.489,577.034 668.082,577.111C668.073,577.112 668.065,577.114 668.056,577.115C670.098,579.834 671.32,581.712 672.567,583.259C671.948,582.242 671.223,581.025 670.293,579.476C670.286,579.465 670.28,579.454 670.273,579.442C670.203,579.327 670.148,579.206 670.107,579.084ZM665.037,571.392C664.908,570.748 664.787,570.121 664.671,569.511C664.699,569.823 664.727,570.126 664.756,570.421C664.837,570.726 664.93,571.047 665.037,571.392ZM711.979,559.346C712.125,560.721 712.269,562.025 712.39,563.584C712.559,563.279 712.811,563.031 713.113,562.865C713.099,562.715 713.087,562.569 713.075,562.428C713.017,561.748 712.991,561.161 712.983,560.693C712.982,560.69 712.98,560.688 712.978,560.686L711.979,559.346Z"/>
                    </g>
                    <g transform="matrix(1,0,0,1,256,181.559)">
                        <path d="M670.477,588.524C670.705,588.98 666.042,599.365 665.625,600.294C676.436,603.114 676.514,601.02 687.791,601.51C690.104,601.61 704.782,602.249 716.725,601.054"/>
                        <path d="M668.647,588.432C668.68,587.794 669.046,587.191 669.658,586.885C670.562,586.433 671.663,586.8 672.116,587.705L672.315,588.485L672.166,589.455C671.719,590.98 669.481,596.118 668.189,599.038C676.777,601.009 677.573,599.232 687.871,599.679C690.163,599.779 704.707,600.415 716.543,599.231C717.549,599.131 718.448,599.866 718.548,600.872C718.649,601.878 717.914,602.777 716.907,602.877C704.856,604.082 690.046,603.442 687.712,603.34C676.239,602.842 676.161,604.936 665.162,602.067C664.641,601.93 664.206,601.572 663.973,601.085C663.74,600.599 663.733,600.035 663.954,599.543C664.321,598.725 668.058,590.429 668.647,588.432Z"/>
                    </g>
                    <g transform="matrix(1,0,0,1,256,181.559)">
                        <path d="M673.293,590.096C670.402,594.867 670.64,594.804 668.199,599.687C670.097,596.498 671.996,593.308 673.894,590.119C672.831,593.46 671.768,596.802 670.705,600.143L676.856,591.486C672.812,600.696 672.165,601.078 672.983,601.282C673.768,601.478 673.689,601.026 681.244,591.766C677.457,599.76 674.138,604.549 677.767,601.282C678.527,600.599 685.739,592.485 686.425,591.713L681.412,601.054C684.374,597.713 687.336,594.371 690.298,591.03C685.62,597.813 685.058,597.463 685.058,599.687C685.058,600.638 685.623,599.795 694.119,592.007L689.158,600.826C691.838,597.986 694.517,595.145 697.197,592.305C695.998,594.67 694.8,597.034 693.601,599.399C696.221,596.533 698.841,593.668 701.461,590.802L698.044,598.093C700.07,595.91 702.096,593.728 704.123,591.546C702.96,594.413 701.796,597.28 700.633,600.147L707.156,593.08L704.423,599.459C705.943,597.859 707.464,596.258 708.985,594.657L707.129,600.261L711.317,595.288L711.098,597.227L712.362,593.704C712.981,595.243 713.6,596.782 714.219,598.32"/>
                        <path d="M673.662,588.301C673.988,588.259 674.327,588.305 674.645,588.448C675.294,588.739 675.697,589.368 675.725,590.044C676.296,589.596 677.099,589.517 677.76,589.892C678.557,590.344 678.895,591.313 678.56,592.159C678.96,591.668 679.381,591.151 679.824,590.608C680.41,589.89 681.439,589.722 682.222,590.217C683.005,590.712 683.296,591.713 682.899,592.55C682.772,592.82 682.645,593.085 682.519,593.347C683.788,591.924 684.818,590.763 685.055,590.496C685.672,589.802 686.712,589.679 687.473,590.211C687.71,590.377 687.897,590.589 688.029,590.828L688.926,589.815C689.569,589.09 690.665,588.99 691.427,589.588C691.984,590.024 692.223,590.721 692.097,591.375C692.352,591.142 692.613,590.903 692.881,590.657C693.545,590.048 694.552,590.012 695.258,590.572C695.468,590.739 695.633,590.944 695.749,591.17L695.864,591.048C696.489,590.385 697.505,590.282 698.25,590.806C698.4,590.911 698.53,591.036 698.639,591.174L700.109,589.566C700.72,588.898 701.727,588.776 702.479,589.279C702.763,589.469 702.978,589.725 703.115,590.015C703.707,589.626 704.487,589.606 705.107,590C705.695,590.374 706.006,591.037 705.948,591.703C706.558,591.167 707.459,591.093 708.153,591.543C708.612,591.841 708.899,592.314 708.971,592.825C709.299,592.822 709.629,592.908 709.926,593.085C710.141,593.214 710.321,593.381 710.462,593.573L710.637,593.085C710.894,592.369 711.567,591.887 712.327,591.872C713.088,591.858 713.778,592.315 714.062,593.02L715.919,597.637C716.296,598.575 715.841,599.643 714.903,600.02C713.965,600.398 712.897,599.942 712.519,599.004L712.344,598.57C711.911,598.972 711.294,599.153 710.683,599.011C710.653,599.005 710.624,598.997 710.596,598.989L708.531,601.441C707.965,602.113 707.002,602.288 706.235,601.86C705.871,601.656 705.599,601.343 705.445,600.98C704.843,601.385 704.042,601.403 703.415,600.99C703.188,600.84 703.004,600.647 702.867,600.428L701.979,601.39C701.379,602.041 700.399,602.169 699.651,601.694C698.988,601.274 698.676,600.485 698.847,599.74C698.273,600.019 697.575,599.987 697.019,599.612C696.778,599.449 696.586,599.237 696.45,598.998L694.953,600.635C694.335,601.311 693.313,601.427 692.559,600.906C692.361,600.769 692.198,600.599 692.072,600.408L690.491,602.084C689.856,602.757 688.818,602.851 688.073,602.302C687.558,601.923 687.294,601.32 687.329,600.718C686.851,601.134 686.539,601.38 686.338,601.499L685.588,601.794L684.976,601.822L684.421,601.675L683.907,601.349L683.752,601.177L682.784,602.27C682.167,602.965 681.127,603.089 680.365,602.557C680.097,602.371 679.894,602.125 679.761,601.849C679.383,602.255 679.111,602.538 678.993,602.644C678.325,603.245 677.835,603.615 677.517,603.8L677.038,604.025L676.518,604.143L676.009,604.128L675.592,604.013L674.919,603.561L674.523,602.955L674.477,602.739L674.321,602.852L673.757,603.075L673.145,603.145L672.539,603.06L672.105,602.915L671.659,602.655L671.154,602.101L671.082,601.936C670.689,602.019 670.268,601.973 669.887,601.782C669.612,601.645 669.385,601.447 669.216,601.211C668.666,601.578 667.937,601.632 667.32,601.295C666.455,600.822 666.119,599.75 666.56,598.868C669.035,593.918 668.795,593.983 671.726,589.147C672.138,588.466 672.925,588.15 673.662,588.301Z"/>
                    </g>
                    <g transform="matrix(1,0,0,1,256,181.559)">
                        <path d="M665.935,546.638C664.641,543.189 644.019,579.695 674.74,593.212C684.55,597.529 690.786,597.144 706.541,593.827C719.839,591.027 724.59,575.551 720.983,568.938C718.831,564.995 722.727,563.5 717.296,554.19C716.614,553.021 715.588,550.662 715.452,550.349C714.208,547.489 713.22,548.384 711.458,545.74"/>
                        <path d="M665.653,547.647C665.343,547.991 664.743,548.689 664.296,549.411C659.508,557.147 651.434,581.812 675.162,592.253C684.775,596.483 690.886,596.051 706.325,592.801C713.886,591.209 718.516,585.277 720.284,579.445C721.435,575.649 721.398,571.888 720.063,569.44C719.085,567.648 719.171,566.307 719.274,564.659C719.402,562.604 719.468,559.994 716.39,554.718C715.689,553.515 714.631,551.089 714.491,550.767C713.861,549.318 713.301,549.016 712.639,548.52C712.046,548.076 711.385,547.521 710.586,546.322C710.265,545.84 710.395,545.189 710.876,544.868C711.358,544.547 712.009,544.677 712.33,545.159C713.11,546.33 713.724,546.712 714.276,547.123C715.011,547.671 715.679,548.243 716.413,549.931C716.545,550.235 717.539,552.527 718.201,553.662C721.641,559.558 721.509,562.493 721.366,564.79C721.287,566.043 721.159,567.073 721.903,568.437C723.453,571.279 723.627,575.644 722.29,580.053C720.327,586.53 715.154,593.085 706.757,594.852C690.685,598.236 684.325,598.575 674.318,594.171C648.893,582.985 657.384,556.597 662.514,548.308C663.189,547.216 663.82,546.424 664.31,545.983C664.635,545.692 664.936,545.521 665.178,545.441L665.44,545.377L665.752,545.365L666.21,545.483L666.6,545.761L666.795,546.016L666.917,546.269C667.12,546.811 666.845,547.416 666.304,547.619C666.087,547.7 665.861,547.705 665.653,547.647Z" style="fill:rgb(237,236,218);"/>
                    </g>
                    <g transform="matrix(1,0,0,1,256,181.559)">
                        <path d="M667.98,589.218C667.23,590.719 663.427,597.246 662.093,599.908C678.104,606.203 718.851,603.954 720.675,602.737C722.121,601.774 714.655,594.353 713.762,591.676"/>
                        <path d="M719.636,601.92C719.583,601.801 719.522,601.674 719.458,601.564C719.048,600.851 718.407,599.974 717.688,599.037C715.733,596.486 713.27,593.513 712.768,592.007C712.585,591.458 712.882,590.864 713.431,590.681C713.979,590.499 714.573,590.796 714.756,591.344C715.019,592.133 715.927,593.352 716.961,594.697C718.696,596.95 720.8,599.488 721.54,601.017C721.821,601.596 721.927,602.092 721.905,602.452L721.858,602.755L721.738,603.073L721.531,603.373L721.257,603.609C721.091,603.72 720.724,603.872 720.154,603.991C719.252,604.179 717.644,604.379 715.507,604.559C703.524,605.565 674.632,605.964 661.71,600.883C661.436,600.776 661.22,600.558 661.114,600.283C661.009,600.008 661.024,599.702 661.156,599.438C662.49,596.776 666.292,590.25 667.043,588.749C667.301,588.232 667.931,588.022 668.449,588.28C668.966,588.539 669.176,589.169 668.917,589.686C668.252,591.017 665.187,596.3 663.571,599.336C676.737,603.898 703.887,603.431 715.332,602.47C717.133,602.319 718.818,602.057 719.636,601.92Z" style="fill:rgb(237,236,218);"/>
                    </g>
                </g>
                <g transform="matrix(1,0,0,1,256,181.559)">
                    <path d="M684.274,564.867C684.369,564.627 684.903,563.27 686.588,558.965C686.799,558.426 687.407,558.16 687.946,558.371C688.484,558.582 688.751,559.19 688.54,559.729C686.845,564.059 686.378,565.298 686.199,565.704C686.126,565.869 686.074,565.959 686.033,566.021L685.836,566.26C685.427,566.669 684.763,566.669 684.354,566.26C683.973,565.88 683.947,565.278 684.274,564.867Z"/>
                </g>
                <g transform="matrix(1,0,0,1,256,181.559)">
                    <path d="M664.866,526.506C664.668,527.05 664.065,527.329 663.522,527.131C662.979,526.932 662.699,526.33 662.898,525.787C666.845,514.988 666.164,514.921 668.641,503.774C672.855,484.811 672.764,484.81 673.174,483.173C673.314,482.611 673.883,482.27 674.445,482.41C675.006,482.55 675.347,483.12 675.207,483.681C674.799,485.314 674.89,485.316 670.687,504.229C668.18,515.511 668.862,515.577 664.866,526.506Z"/>
                </g>
                <g transform="matrix(1,0,0,1,256,181.559)">
                    <path d="M665.714,520.429C665.901,519.415 666.096,518.869 666.447,518.034C666.755,517.049 667.082,516.039 667.42,515.04C667.442,514.955 667.462,514.897 667.48,514.859L667.483,514.854C667.957,513.458 668.453,512.087 668.951,510.84C668.816,510.606 668.77,510.32 668.847,510.039C669.293,508.404 669.622,507.124 669.878,506.044C670.479,502.267 670.701,501.154 671.334,497.866C671.561,495.006 672.194,492.247 673.816,486.808C673.944,486.38 674.323,486.091 674.748,486.062C675.044,484.638 675.172,484.409 675.25,483.994C675.329,483.576 675.647,483.261 676.038,483.168C676.061,482.823 676.084,482.469 676.108,482.105C676.109,482.095 676.109,482.085 676.11,482.076C676.148,481.504 676.638,481.068 677.211,481.098C677.313,481.104 677.411,481.124 677.503,481.156C677.669,480.76 678.069,480.492 678.521,480.514C678.741,480.525 678.941,480.603 679.104,480.727C679.264,480.336 679.653,480.065 680.099,480.076C680.665,480.089 681.119,480.549 681.123,481.115C681.123,481.156 681.124,481.197 681.124,481.238C681.315,480.974 681.626,480.804 681.974,480.805C682.537,480.806 682.998,481.251 683.02,481.812L683.06,482.862L683.114,480.516C683.127,479.952 683.583,479.5 684.147,479.492C684.711,479.483 685.18,479.923 685.209,480.486L685.302,482.327L685.303,482.136C685.308,481.571 685.761,481.111 686.326,481.097C686.892,481.084 687.366,481.521 687.398,482.086L687.597,485.634L687.639,483.44C687.649,482.877 688.101,482.423 688.664,482.411C689.227,482.399 689.699,482.833 689.733,483.395C689.738,483.488 689.744,483.58 689.749,483.671C689.894,483.291 690.254,483.014 690.685,482.995C691.066,482.979 691.41,483.169 691.606,483.466C691.785,483.195 692.088,483.01 692.438,482.995C693.015,482.971 693.502,483.418 693.528,483.995L693.529,484.003L693.636,486.366C693.712,486.476 693.768,486.602 693.797,486.738C693.91,486.686 694.033,486.654 694.164,486.646C694.194,486.644 694.223,486.643 694.253,486.643C694.245,485.844 694.245,485.403 694.218,484.86C694.214,484.793 694.211,484.735 694.208,484.687C694.208,484.685 694.208,484.683 694.208,484.681C694.178,484.104 694.62,483.612 695.197,483.58C695.466,483.565 695.718,483.653 695.913,483.811C695.925,483.614 695.942,483.421 695.963,483.208C696.012,482.716 696.125,482.391 696.192,482.275L696.37,482.042L696.633,481.848L696.849,481.762L697.107,481.725L697.425,481.767L697.564,481.827C697.575,481.361 697.892,480.968 698.325,480.845C698.315,480.669 698.305,480.492 698.295,480.314C698.295,480.311 698.295,480.309 698.295,480.306C698.263,479.73 698.703,479.236 699.279,479.201C699.856,479.167 700.351,479.605 700.387,480.182C700.388,480.184 700.388,480.187 700.388,480.189C700.408,480.507 700.423,480.771 700.439,481.099C700.561,483.272 700.67,485.204 700.768,486.923C700.879,487.071 700.951,487.251 700.969,487.449C700.969,487.454 700.97,487.459 700.97,487.463C701.1,488.877 701.222,490.208 701.336,491.461C701.61,491.624 701.806,491.909 701.843,492.249C701.843,492.252 701.844,492.255 701.844,492.258C701.885,492.635 702.381,496.981 702.92,501.7C702.966,501.801 702.998,501.91 703.01,502.026C703.235,504.044 703.407,505.615 703.553,506.935C703.653,507.074 703.719,507.241 703.74,507.423L703.741,507.434L705.197,520.247L705.199,520.268C705.24,520.627 705.094,520.966 704.837,521.184C704.928,522.42 705.044,523.876 705.202,525.696C705.251,526.259 704.845,526.76 704.283,526.827C703.973,526.864 703.677,526.762 703.46,526.568C703.547,527.512 703.641,528.528 703.742,529.627C703.742,529.629 703.742,529.63 703.742,529.631C703.795,530.207 703.372,530.717 702.796,530.771C702.76,530.774 702.724,530.776 702.688,530.775C702.697,530.863 702.706,530.95 702.715,531.039C702.716,531.053 702.718,531.068 702.72,531.083C702.776,531.65 702.369,532.159 701.803,532.227C701.564,532.256 701.334,532.202 701.141,532.088L700.889,532.176L700.599,532.195L700.388,532.157L700.149,532.055L699.863,531.809L699.697,531.521L699.642,531.311C699.631,531.249 699.579,530.857 699.47,530.007C699.296,528.655 699.205,528.027 698.486,523.454C698.339,522.886 698.154,522.316 697.773,521.032C698.227,523.68 698.769,526.867 699.499,531.157C699.592,531.702 699.245,532.226 698.706,532.353C698.448,532.414 698.188,532.373 697.97,532.256C697.991,532.364 698.012,532.473 698.033,532.583C698.034,532.586 698.034,532.59 698.035,532.593C698.145,533.16 697.776,533.708 697.211,533.82C696.645,533.933 696.095,533.567 695.979,533.002C695.979,532.999 695.978,532.995 695.977,532.992C695.946,532.833 695.916,532.679 695.887,532.528C694.971,527.794 694.368,524.7 693.767,521.874L695.559,532.768C695.652,533.331 695.278,533.864 694.718,533.969C694.158,534.073 693.616,533.711 693.499,533.154C693.494,533.127 693.488,533.101 693.483,533.075C693.469,533.079 693.456,533.082 693.442,533.085C692.892,533.209 692.341,532.875 692.198,532.329C691.474,529.58 691.041,527.731 690.691,526.195C690.965,528.125 691.034,528.663 691.18,529.558C691.272,530.12 690.898,530.653 690.338,530.758C689.778,530.862 689.237,530.499 689.12,529.942L688.608,527.492C688.826,529.525 688.878,530.103 688.997,531.057C689.066,531.611 688.688,532.123 688.138,532.219C688.095,532.227 688.053,532.231 688.011,532.234L687.99,532.294L687.842,532.492L687.662,532.643L687.457,532.749L687.202,532.812L686.962,532.813L686.734,532.759C686.627,533.014 686.421,533.222 686.157,533.328C686.026,533.655 685.733,533.906 685.364,533.971C684.831,534.064 684.314,533.736 684.172,533.213C684.067,532.826 683.965,532.452 683.866,532.089C683.722,532.228 683.536,532.326 683.326,532.364C682.774,532.464 682.242,532.111 682.118,531.564C681.879,530.509 681.7,529.694 681.53,528.867C681.525,528.867 681.521,528.866 681.516,528.865C681.396,529.256 681.052,529.558 680.62,529.602C680.049,529.661 679.536,529.249 679.471,528.678C679.471,528.671 679.47,528.664 679.469,528.657C679.424,528.255 679.379,527.86 679.334,527.47C679.299,528.44 679.263,529.448 679.225,530.495C679.205,531.055 678.748,531.5 678.188,531.505C677.628,531.511 677.162,531.075 677.131,530.516C677.017,528.478 676.882,526.046 676.746,523.493C676.49,524.994 676.196,526.71 675.854,528.734C675.762,529.281 675.259,529.661 674.708,529.602C674.241,529.551 673.876,529.2 673.791,528.758L673.742,528.783L673.381,528.823L673.03,528.74L672.768,528.581L672.564,528.358L672.411,528.033C672.402,528.002 672.392,527.956 672.383,527.895C672.183,528.26 671.776,528.485 671.339,528.433C671.249,528.422 671.162,528.4 671.081,528.368C671.065,528.45 671.049,528.532 671.033,528.614C670.927,529.159 670.413,529.527 669.862,529.452C669.311,529.377 668.915,528.885 668.959,528.331C669.046,527.245 669.122,526.245 669.193,525.317C668.992,526.21 668.777,527.168 668.546,528.204C668.424,528.75 667.896,529.103 667.345,529.009C667.206,528.985 667.078,528.935 666.966,528.864C666.835,528.886 666.699,528.883 666.563,528.852C666.018,528.73 665.665,528.201 665.76,527.651C665.776,527.56 665.792,527.468 665.808,527.378C665.543,527.661 665.131,527.785 664.736,527.665C664.196,527.5 663.883,526.938 664.029,526.392C664.186,525.803 664.825,523.407 665.714,520.429ZM684.025,505.965C684.014,506.139 684.004,506.315 683.993,506.495C684.008,506.54 684.019,506.587 684.027,506.635C684.066,506.864 684.153,507.367 684.274,508.079C684.194,507.397 684.111,506.692 684.025,505.965ZM701.954,511.719C701.935,511.552 701.915,511.379 701.895,511.2L701.835,511.192L701.833,511.191C701.857,511.369 701.881,511.545 701.905,511.72C701.922,511.719 701.938,511.719 701.954,511.719Z"/>
                </g>
                <g transform="matrix(1,0,0,1,256,181.559)">
                    <path d="M663.123,464.482C663.119,464.207 663.118,463.916 663.118,463.608C663.118,463.03 663.587,462.56 664.166,462.56C664.34,462.56 664.504,462.603 664.648,462.678C664.761,462.53 664.915,462.412 665.097,462.34C665.125,462.33 665.153,462.32 665.182,462.312C665.237,462.225 665.306,462.146 665.387,462.078C665.653,461.853 666.015,461.775 666.351,461.871C667.044,462.069 667.603,462.199 668.078,462.27C668.656,461.893 669.363,461.55 670.278,461.405C670.847,461.316 671.354,461.342 671.804,461.465C672.259,461.27 672.793,461.05 673.452,460.816C673.781,460.699 674.146,460.754 674.426,460.962C674.707,461.17 674.865,461.503 674.849,461.852C674.785,463.249 674.773,464.912 674.78,466.407C674.899,467.386 674.92,468.355 674.909,469.115C675.019,469.186 675.118,469.279 675.197,469.392C675.967,470.482 676.603,471.34 677.039,471.916C677.229,471.702 677.422,471.554 677.614,471.448C677.97,471.25 678.352,471.172 678.793,471.178C679.353,471.186 680.086,471.412 681.183,471.192C683.218,470.785 683.628,470.652 684.901,470.465C684.791,470.222 684.691,469.993 684.6,469.775C684.515,469.653 684.456,469.511 684.43,469.357C683.312,466.521 683.816,465.751 683.698,462.331C683.679,461.767 684.11,461.288 684.673,461.249C685.218,461.212 685.697,461.598 685.781,462.131C685.812,462.127 685.843,462.124 685.875,462.123C686.362,462.105 686.791,462.425 686.921,462.883C686.942,462.88 686.964,462.877 686.985,462.875C687.104,462.864 687.22,462.873 687.331,462.899C687.51,462.704 687.763,462.577 688.047,462.562C688.358,462.545 688.646,462.666 688.849,462.873C689.014,462.766 689.211,462.705 689.42,462.706C689.606,462.528 689.857,462.418 690.133,462.414C690.239,462.413 690.341,462.428 690.438,462.456C690.526,462.43 690.619,462.416 690.715,462.414C691.275,462.406 691.742,462.84 691.776,463.399L692.068,468.216C692.103,468.793 691.663,469.29 691.085,469.325C690.987,469.331 690.89,469.323 690.798,469.303L690.754,469.956C690.718,470.484 690.294,470.899 689.773,470.931C689.603,471.277 689.249,471.513 688.843,471.516C688.628,471.519 688.426,471.455 688.257,471.345C688.263,471.519 688.268,471.702 688.275,471.894C688.292,472.449 687.875,472.922 687.322,472.972C686.88,473.012 686.474,472.771 686.287,472.393C684.067,472.675 684.049,472.757 681.594,473.248C680.754,473.416 680.08,473.391 679.522,473.34C679.305,473.32 679.108,473.296 678.928,473.282C678.814,473.274 678.714,473.252 678.624,473.284C678.586,473.297 678.572,473.343 678.54,473.39C678.449,473.523 678.365,473.699 678.275,473.923L678.141,474.182L677.908,474.441L677.696,474.578L677.433,474.672L676.973,474.679L676.54,474.507C676.535,474.504 676.53,474.501 676.524,474.497L677.436,478.215L677.444,478.246C677.58,478.802 677.245,479.365 676.692,479.51C676.452,479.573 676.21,479.547 675.999,479.453L675.761,479.597L675.365,479.673L675.139,479.648L675.002,479.598C674.858,479.852 674.608,480.044 674.3,480.107C674.23,480.121 674.161,480.128 674.093,480.128L674.255,481.432C674.325,481.995 673.934,482.511 673.373,482.597C673.02,482.651 672.68,482.522 672.452,482.28L672.268,482.316C672.24,482.318 672.153,482.315 672.018,482.304C671.987,482.324 671.955,482.342 671.921,482.358C671.509,482.558 671.025,482.465 670.716,482.15C670.434,482.117 670.125,482.083 669.812,482.055C669.65,482.266 669.409,482.414 669.127,482.453C668.723,482.51 668.337,482.327 668.119,482.009C668.031,482.016 667.952,482.023 667.887,482.029C667.851,482.095 667.82,482.143 667.796,482.174L667.588,482.382L667.267,482.55L666.857,482.598L666.448,482.48L666.117,482.21L665.913,481.832C665.821,481.547 665.783,479.756 664.918,475.042C664.819,474.917 664.747,474.768 664.714,474.602L664.707,474.57L663.949,470.841C663.686,469.716 663.475,468.878 663.331,467.802L662.854,465.459L662.847,465.423C662.775,465.07 662.889,464.722 663.123,464.482Z"/>
                </g>
                <g transform="matrix(1,0,0,1,256,181.559)">
                    <path d="M671.9,474.765C671.892,474.571 671.884,474.369 671.876,474.158C671.856,473.635 672.222,473.187 672.719,473.089C672.806,473.05 672.899,473.023 672.997,473.008C673.031,473.003 673.066,473 673.1,472.998C673.074,472.615 673.056,472.327 673.045,472.138C673.011,471.596 673.397,471.119 673.934,471.038C674.188,470.999 674.437,471.056 674.641,471.182C674.598,470.752 674.554,470.306 674.507,469.843C674.452,469.291 674.837,468.791 675.385,468.704C675.856,468.628 676.308,468.88 676.501,469.297C676.506,469.296 676.511,469.295 676.515,469.294C676.718,469.254 676.92,469.276 677.1,469.346C677.226,469.249 677.377,469.179 677.544,469.147C678.082,469.045 678.606,469.374 678.75,469.897C678.88,469.808 679.032,469.746 679.198,469.723C679.386,469.696 679.571,469.721 679.737,469.788C679.893,469.621 680.103,469.504 680.345,469.467C680.892,469.384 681.409,469.74 681.527,470.28L681.694,471.045C681.969,471.035 682.229,471.133 682.426,471.306C682.451,471.283 682.477,471.261 682.504,471.24C682.454,470.899 682.576,470.551 682.834,470.315L684.53,468.766C684.662,468.645 684.819,468.563 684.985,468.522C685.136,468.235 685.418,468.022 685.763,467.972C686.335,467.889 686.865,468.284 686.95,468.855C686.95,468.858 686.951,468.86 686.951,468.862C687.296,471.188 687.517,472.789 687.692,474.114L688.557,480.247C688.576,480.386 688.568,480.522 688.535,480.65C688.66,481.561 688.809,482.615 688.993,483.884C688.993,483.887 688.994,483.889 688.994,483.892C689.077,484.463 688.682,484.994 688.111,485.079C688.063,485.086 688.015,485.09 687.968,485.091L687.848,485.572L687.679,485.846L687.475,486.033L687.127,486.192L686.673,486.206L686.436,486.131L686.192,485.979L686.036,485.82L685.895,485.587C685.865,485.521 685.815,485.362 685.757,485.082C685.215,485.153 684.707,484.794 684.595,484.255L684.583,484.195L684.292,484.277L683.909,484.252L683.652,484.152L683.401,483.965L683.149,483.602C683.098,483.495 683.034,483.316 682.967,483.044C682.882,482.702 682.769,482.139 682.597,481.282C682.46,481.278 682.328,481.248 682.207,481.195C682.047,481.395 681.814,481.536 681.542,481.576C680.993,481.658 680.476,481.297 680.363,480.754L680.321,480.555L680.382,480.971C680.463,481.525 680.095,482.045 679.545,482.152C679.482,482.164 679.42,482.171 679.357,482.172C679.404,482.482 679.453,482.809 679.506,483.155C679.591,483.713 679.218,484.238 678.663,484.343C678.442,484.384 678.224,484.353 678.034,484.266C677.946,484.667 677.626,484.994 677.201,485.073C676.937,485.122 676.677,485.067 676.464,484.937C676.588,485.848 676.724,486.798 676.872,487.784C676.874,487.799 676.877,487.813 676.879,487.828C676.963,488.392 676.581,488.92 676.019,489.016C675.457,489.113 674.921,488.742 674.813,488.182L674.805,488.139L674.175,484.875C674.094,484.906 674.007,484.928 673.917,484.938C673.343,485.003 672.825,484.592 672.758,484.019C672.758,484.016 672.757,484.013 672.757,484.01C672.751,483.96 672.746,483.913 672.741,483.865C672.268,479.551 672.103,479.126 671.939,475.659C671.921,475.482 671.902,475.302 671.882,475.117C671.882,475.112 671.881,475.107 671.881,475.103C671.869,474.987 671.876,474.873 671.9,474.765Z"/>
                </g>
                <g transform="matrix(1,0,0,1,256,181.559)">
                    <path d="M673.747,467.029C673.6,466.469 673.936,465.896 674.495,465.749C675.055,465.603 675.628,465.938 675.775,466.498L677.586,473.414C677.732,473.974 677.397,474.547 676.838,474.693C676.278,474.84 675.705,474.505 675.558,473.945L673.747,467.029Z"/>
                </g>
                <g transform="matrix(1,0,0,1,256,181.559)">
                    <path d="M686.635,468.96C686.715,468.535 687.056,468.187 687.507,468.119C688.072,468.032 688.603,468.416 688.698,468.98L688.704,469.014L688.915,470.26C688.881,469.703 688.846,469.113 688.808,468.488C688.775,467.937 689.175,467.455 689.723,467.385C690.27,467.316 690.778,467.683 690.883,468.226C690.914,468.382 690.944,468.538 690.973,468.692C691.503,468.666 691.977,469.046 692.058,469.582C692.058,469.582 692.058,469.583 692.059,469.584C692.113,469.944 692.165,470.288 692.214,470.616C692.353,470.76 692.453,470.946 692.491,471.158C692.566,471.57 692.638,471.97 692.708,472.361C692.729,472.357 692.751,472.353 692.773,472.35C693.276,472.279 693.748,472.577 693.91,473.044L693.946,472.994L694.214,472.797L694.528,472.691L694.857,472.684L695.103,472.747L695.127,472.76L695.083,471.528C695.064,470.983 695.465,470.514 696.006,470.449C696.547,470.385 697.048,470.746 697.157,471.28L697.688,473.873L697.71,472.206C697.717,471.649 698.159,471.195 698.716,471.173C699.214,471.153 699.648,471.485 699.771,471.953L700.193,465.727C700.206,465.537 700.269,465.362 700.368,465.214C700.228,465.005 700.162,464.745 700.202,464.476C700.279,463.956 700.726,463.582 701.237,463.582C701.327,463.564 701.607,463.51 701.752,463.501L702.063,463.512L702.351,463.584L702.573,463.695L702.578,463.699L702.701,463.589L703.026,463.438L703.441,463.408L703.858,463.547L704.201,463.823L704.375,464.079C704.668,464.138 704.967,464.203 705.265,464.274C705.251,464.227 705.236,464.179 705.221,464.131C705.088,463.702 705.242,463.237 705.605,462.973C705.967,462.709 706.458,462.705 706.824,462.962C707.661,463.55 708.149,463.943 708.483,464.192C708.558,464.248 708.649,464.309 708.702,464.344C708.725,464.34 708.749,464.336 708.769,464.332C709.336,464.219 709.889,464.587 710.002,465.154C710.111,465.699 709.777,466.229 709.248,466.372L709.305,466.473L709.398,466.762L709.438,467.076C709.666,473.908 708.786,473.751 707.662,480.477C707.584,480.945 707.205,481.294 706.747,481.346L706.66,482.149C706.599,482.702 706.117,483.112 705.561,483.082C705.092,483.057 704.709,482.726 704.6,482.289C704.599,482.288 704.597,482.287 704.596,482.286C704.431,482.396 704.234,482.461 704.023,482.463C703.864,482.465 703.713,482.431 703.577,482.369C703.472,482.848 703.044,483.198 702.543,483.193C702.373,483.192 702.212,483.149 702.07,483.076C701.881,483.321 701.586,483.48 701.256,483.485C701.095,483.487 700.941,483.454 700.803,483.39C700.703,483.854 700.297,484.201 699.807,484.214C699.698,484.217 699.592,484.203 699.491,484.175C699.322,484.435 699.04,484.617 698.711,484.648C698.222,484.694 697.774,484.397 697.62,483.943C697.601,484.286 697.415,484.589 697.138,484.767C697.87,489.459 698.23,492.061 698.329,493.178C698.373,493.677 698.358,493.973 698.335,494.09L698.219,494.422L698.025,494.679L697.737,494.88L697.329,494.981L697.064,494.959L696.853,494.891L696.605,494.738L696.431,494.557L696.2,494.106C696.074,493.754 695.865,492.937 695.608,491.816C695.516,491.416 695.418,490.975 695.314,490.501C695.16,490.802 694.864,491.024 694.504,491.067C693.939,491.136 693.422,490.739 693.341,490.175C693.339,490.16 693.337,490.145 693.335,490.129C693.155,488.854 693.114,488.121 692.897,486.432L692.753,486.398L692.488,486.25L692.229,485.967C692.168,485.873 692.038,485.574 691.912,484.974C691.841,484.638 691.75,484.162 691.629,483.514C691.607,484.453 691.588,485.392 691.631,486.33C691.655,486.866 691.272,487.33 690.748,487.413C690.749,487.418 690.749,487.423 690.75,487.428C690.813,487.988 690.422,488.498 689.865,488.582C689.307,488.666 688.784,488.294 688.679,487.741C688.581,487.228 688.487,486.732 688.396,486.253C688.228,486.417 688.004,486.526 687.752,486.547C687.185,486.594 686.684,486.18 686.623,485.615C686.519,484.658 685.247,472.865 685.21,470.408C685.205,470.091 685.227,469.872 685.25,469.767L685.412,469.379L685.64,469.13L685.931,468.966L686.359,468.902L686.597,468.943L686.635,468.96Z"/>
                </g>
                <g transform="matrix(1,0,0,1,256,181.559)">
                    <path d="M690.96,471.028L690.861,470.859L690.789,470.606L690.781,470.341L690.846,470.068L690.958,469.852L691.154,469.635L691.455,469.458L691.771,469.385C692.193,469.346 695.66,469.936 699.115,470.152C705.461,470.549 708.162,470.77 708.66,470.868L709.039,470.999L709.359,471.268L709.519,471.545L709.585,471.817L709.556,472.192L709.425,472.493L709.214,472.733L708.909,472.912C708.835,472.941 708.524,473.006 708.015,473.012C707.122,473.021 705.219,472.975 703.045,472.909L703.145,473.099L703.217,473.363L703.206,473.719L703.096,474.019L702.854,474.315L702.527,474.504L702.154,474.565L701.9,474.53L701.618,474.417C701.492,474.349 701.169,474.154 700.542,473.911C700.331,474.277 699.912,474.49 699.475,474.424L696.607,473.986C696.583,474.038 696.555,474.088 696.523,474.137C696.202,474.618 695.551,474.748 695.07,474.427C694.405,473.984 693.975,473.706 693.597,473.527L691.914,473.27C691.891,473.269 691.867,473.268 691.843,473.267C691.752,473.262 691.665,473.246 691.582,473.22L690.864,473.11C690.311,473.026 689.922,472.522 689.979,471.966C690.033,471.45 690.454,471.057 690.96,471.028ZM692.09,470.6C692.061,470.607 692.03,470.623 691.997,470.648L692.09,470.6Z"/>
                </g>
                <g transform="matrix(1,0,0,1,256,181.559)">
                    <path d="M687.141,461.616C687.415,461.567 687.734,461.539 688.103,461.539C688.396,461.539 688.537,461.557 688.563,461.562L688.909,461.697L689.159,461.909L689.369,462.298L689.408,462.672L689.353,462.936L689.256,463.141L689.067,463.369L688.869,463.51L688.415,463.641C688.302,463.651 687.934,463.667 687.513,463.692C687.528,463.773 687.546,463.862 687.566,463.936C687.662,464.295 687.798,464.712 687.925,465.188C688.064,465.712 688.191,466.3 688.253,466.952C688.309,467.527 687.886,468.04 687.311,468.095C686.735,468.151 686.222,467.728 686.167,467.152C686.027,465.702 685.517,464.603 685.409,463.866C685.371,463.609 685.369,463.376 685.397,463.167C685.352,463.068 685.322,462.962 685.31,462.848C685.246,462.273 685.661,461.755 686.235,461.691C686.484,461.663 686.817,461.638 687.141,461.616Z"/>
                </g>
                <g transform="matrix(1,0,0,1,256,181.559)">
                    <path d="M680.087,470.334C680.216,469.867 680.655,469.543 681.149,469.568C681.986,469.609 682.669,469.701 683.195,469.771C683.289,469.548 683.46,469.356 683.693,469.239C684.211,468.98 684.841,469.19 685.099,469.708C685.285,470.078 685.356,470.363 685.371,470.564L685.355,470.899L685.279,471.16L685.115,471.443L684.889,471.666L684.672,471.791C684.504,472.149 684.139,472.392 683.724,472.392L680.367,472.392C679.788,472.392 679.319,471.923 679.319,471.344C679.319,470.863 679.644,470.457 680.087,470.334Z"/>
                </g>
                <g transform="matrix(1,0,0,1,256,181.559)">
                    <path d="M700.099,484.337C700.05,483.76 700.479,483.253 701.056,483.205C701.632,483.157 702.139,483.586 702.187,484.163C702.344,486.036 703.621,501.383 704.646,507.532C706.173,516.697 705.744,516.553 706.508,525.723C706.556,526.3 706.127,526.807 705.551,526.855C704.974,526.903 704.467,526.474 704.419,525.897C703.662,516.813 704.091,516.955 702.578,507.877C701.546,501.682 700.256,486.224 700.099,484.337Z"/>
                </g>
                <g transform="matrix(1,0,0,1,256,181.559)">
                    <path d="M692.658,468.5C692.812,468.507 692.984,468.513 693.162,468.515C694.239,468.527 695.917,468.507 698.469,468.576L698.879,463.168C698.921,462.604 699.404,462.176 699.969,462.2C708.366,462.564 708.191,462.546 709.637,462.633C710.181,462.666 710.61,463.111 710.622,463.656C710.685,466.49 712.368,467.871 708.455,483.059C708.338,483.513 707.933,483.834 707.464,483.845C681.927,484.438 681.927,485.713 665.875,483.414C665.412,483.348 665.049,482.982 664.985,482.518C664.856,481.573 664.106,476.074 663.208,471.249C663.192,471.235 663.177,471.221 663.162,471.206C662.834,470.878 662.769,470.386 662.967,469.993C662.739,468.835 662.504,467.748 662.269,466.81C662.175,466.435 662.296,466.057 662.554,465.805C662.363,464.801 662.12,463.567 661.818,462.044C661.759,461.746 661.832,461.438 662.018,461.198C662.203,460.958 662.484,460.811 662.787,460.794C668.909,460.448 668.787,460.352 674.863,459.711C675.409,459.653 675.907,460.027 676.005,460.568C676.781,464.881 676.804,465.097 677.049,468.764C679.454,468.657 679.877,468.665 682.231,468.776C682.34,465.544 682.323,465.322 682.201,461.429C682.192,461.132 682.309,460.844 682.525,460.639C682.74,460.433 683.032,460.329 683.329,460.352C689.175,460.801 691.01,460.881 691.6,460.999L691.982,461.114L692.31,461.319L692.599,461.692L692.719,462.105C693.158,465.616 692.891,467.539 692.658,468.5ZM665.172,470.359C665.975,474.585 666.675,479.452 666.954,481.45C681.935,483.554 682.501,482.354 706.621,481.769C709.725,469.489 708.9,466.935 708.606,464.674C707.709,464.628 706.381,464.576 700.892,464.338L700.484,469.732C700.441,470.292 699.965,470.719 699.404,470.701C695.771,470.58 693.699,470.637 692.573,470.6C691.916,470.578 691.499,470.504 691.248,470.405L690.954,470.252L690.751,470.088L690.477,469.696L690.378,469.37L690.36,469.084C690.365,468.919 690.401,468.72 690.479,468.487C690.625,468.049 691.087,466.577 690.714,463.019C689.865,462.954 687.836,462.8 684.333,462.531C684.432,465.727 684.425,465.984 684.29,469.909C684.28,470.189 684.159,470.453 683.953,470.643C683.747,470.833 683.474,470.932 683.194,470.919C679.58,470.751 679.772,470.737 676.12,470.905C675.551,470.931 675.065,470.497 675.026,469.928C674.743,465.707 674.759,465.51 674.114,461.899C669.331,462.413 668.793,462.54 664.107,462.817C664.914,466.915 665.222,468.666 665.252,469.506C665.266,469.887 665.229,470.155 665.172,470.359Z"/>
                </g>
                <g transform="matrix(1,0,0,1,256,181.559)">
                    <path d="M662.433,460.407C662.474,460.396 662.515,460.388 662.558,460.381C668.491,459.534 668.582,460.808 674.343,458.848C674.622,458.753 674.928,458.78 675.186,458.922C675.444,459.065 675.631,459.309 675.699,459.596C676.117,461.336 676.531,461.283 677.489,467.548C679.343,467.317 680.558,467.305 681.197,467.327C681.291,466.992 681.316,466.694 681.304,466.22C681.282,465.331 681.157,463.945 681.067,461.149C681.057,460.831 681.192,460.526 681.433,460.32C681.675,460.113 681.997,460.027 682.309,460.086C686.141,460.808 690.929,460.551 691.678,460.512C692.221,460.483 692.695,460.874 692.771,461.412C693.26,464.869 693.198,465.137 693.339,467.892C695.812,467.725 696.784,467.81 697.447,467.98C697.532,467.056 697.632,465.469 697.721,462.579C697.737,462.032 698.172,461.59 698.719,461.564C704.987,461.268 704.886,461.753 711.077,462.144C711.605,462.178 712.026,462.6 712.057,463.129C712.125,464.294 712.484,470.381 711.024,477.68C710.46,480.5 709.843,482.194 709.281,483.217C708.625,484.413 707.966,484.855 707.473,485.055C707.081,485.214 706.755,485.231 706.517,485.236C674.307,485.968 668.314,484.988 665.038,484.457C664.616,484.389 664.278,484.071 664.183,483.654C663.986,482.787 664.103,482.888 662.402,472.684C662.291,472.019 660.711,462.508 660.642,461.318L660.669,460.905L660.779,460.624L660.934,460.415L661.258,460.184L661.573,460.096L662.024,460.141L662.393,460.353L662.433,460.407ZM662.981,462.439C662.971,462.478 662.959,462.517 662.945,462.554C663.389,465.413 664.385,471.834 664.47,472.34C665.706,479.759 665.969,481.67 666.1,482.503C669.574,483.038 676.784,483.815 706.47,483.141C706.675,483.136 706.992,483.03 707.443,482.209C707.943,481.297 708.466,479.78 708.969,477.269C710.144,471.393 710.096,466.332 710.01,464.173C705.163,463.824 704.679,463.432 699.784,463.617C699.63,467.986 699.447,469.032 699.36,469.541C699.31,469.834 699.137,470.093 698.885,470.251C698.633,470.41 698.326,470.454 698.039,470.372C696.892,470.045 696.923,469.695 692.436,470.061C692.155,470.084 691.876,469.993 691.663,469.808C691.45,469.623 691.321,469.359 691.305,469.077C691.109,465.703 691.206,465.486 690.826,462.647C689.232,462.702 686.11,462.741 683.207,462.351C683.389,467.015 683.575,467.096 682.946,468.668L682.771,468.981L682.513,469.233L682.295,469.356L682.002,469.441C681.888,469.46 681.726,469.466 681.477,469.446C680.983,469.408 679.805,469.306 676.762,469.764C676.487,469.806 676.206,469.736 675.982,469.57C675.758,469.404 675.609,469.156 675.569,468.88C674.774,463.448 674.334,462.228 673.981,461.171C669.072,462.695 668.61,461.651 662.981,462.439Z" style="fill:rgb(237,236,218);"/>
                </g>
                <g transform="matrix(1,0,0,1,256,181.559)">
                    <path d="M671.445,484.356C671.514,483.781 672.036,483.371 672.61,483.44C673.184,483.509 673.595,484.031 673.526,484.605C671.548,501.09 670.357,500.806 668.706,512.361C667.452,521.142 667.006,520.989 663.06,528.882C662.801,529.4 662.171,529.61 661.654,529.351C661.136,529.092 660.926,528.462 661.185,527.945C664.98,520.355 665.425,520.508 666.631,512.064C668.279,500.529 669.47,500.812 671.445,484.356Z" style="fill:rgb(237,236,218);"/>
                </g>
                <g transform="matrix(1,0,0,1,256,181.559)">
                    <path d="M700.518,484.604C700.495,484.518 700.483,484.428 700.483,484.334C700.483,483.756 700.952,483.286 701.531,483.286L701.849,483.336L702.173,483.505L702.373,483.709L702.539,484.038C702.564,484.12 702.629,484.562 702.695,485.308C703.083,489.632 704.31,506.184 706.299,517.442C707.115,522.06 708.006,525.765 709.083,527.201C709.43,527.664 709.337,528.321 708.874,528.668C708.411,529.015 707.753,528.921 707.406,528.459C706.227,526.886 705.128,522.865 704.235,517.807C702.235,506.487 700.997,489.843 700.608,485.495C700.571,485.081 700.53,484.716 700.518,484.604ZM700.891,485.164C701.105,485.33 701.326,485.383 701.531,485.383C701.29,485.383 701.068,485.301 700.891,485.164Z" style="fill:rgb(237,236,218);"/>
                </g>
            </g>
        </g>
    </g>
</svg>
