<?xml version="1.0" encoding="UTF-8" standalone="no"?>
<!DOCTYPE svg PUBLIC "-//W3C//DTD SVG 1.1//EN" "http://www.w3.org/Graphics/SVG/1.1/DTD/svg11.dtd">
<svg width="100%" height="100%" viewBox="0 0 67 110" version="1.1" xmlns="http://www.w3.org/2000/svg" xmlns:xlink="http://www.w3.org/1999/xlink" xml:space="preserve" xmlns:serif="http://www.serif.com/" style="fill-rule:evenodd;clip-rule:evenodd;stroke-linejoin:round;stroke-miterlimit:2;">
    <g transform="matrix(1,0,0,1,-350.031,-273.64)">
        <g transform="matrix(1,0,0,1,-256,-181.559)">
            <g id="chess-board" serif:id="chess board">
            </g>
            <g id="black-pawn" serif:id="black pawn" transform="matrix(1,0,0,1,-306.888,-222.407)">
                <g transform="matrix(1,0,0,1,256,181.559)">
                    <path d="M679.48,591.539C678.953,592.537 677.829,595.641 676.388,598.636C680.885,598.143 689.658,597.871 708.735,599.339C709.744,599.416 710.499,600.298 710.422,601.306C710.344,602.314 709.463,603.07 708.454,602.992C682.357,600.985 676.109,602.258 673.361,602.833C672.638,602.985 671.894,602.687 671.475,602.077C671.057,601.467 671.046,600.666 671.447,600.045C673.417,596.999 675.058,592.46 675.898,590.549C676.285,589.669 676.681,589.15 676.866,588.992C677.634,588.334 678.791,588.424 679.449,589.192C680.034,589.875 680.028,590.865 679.48,591.539Z"/>
                </g>
                <g transform="matrix(1,0,0,1,256,181.559)">
                    <path d="M715.455,599.179C714.186,597.299 711.939,594.166 708.203,589.496C707.572,588.707 707.7,587.553 708.489,586.921C709.279,586.289 710.433,586.417 711.065,587.207C717.432,595.167 719.43,598.319 720.052,599.554C720.315,600.077 720.409,600.399 720.451,600.589L720.468,600.733C720.408,600.524 720.319,600.373 720.277,600.293C720.438,600.594 720.509,600.928 720.491,601.258L720.509,601.083L720.468,600.733C720.569,601.085 720.588,601.6 720.164,602.206C720.198,602.156 720.231,602.104 720.261,602.051C720.351,601.889 720.415,601.717 720.453,601.541L720.464,601.515L720.473,601.432C720.467,601.469 720.46,601.505 720.453,601.541L720.164,602.206C719.846,602.662 719.335,602.952 718.773,602.986C716.036,603.153 714.398,602.763 713.147,602.363C711.936,601.975 711.293,601.458 709.663,602.157C708.734,602.555 707.656,602.124 707.257,601.194C706.859,600.265 707.29,599.187 708.22,598.789C710.248,597.919 711.467,598.019 712.72,598.368C713.472,598.577 714.243,598.955 715.455,599.179Z"/>
                </g>
                <g transform="matrix(1,0,0,1,256,181.559)">
                    <path d="M674.694,603.544C674.001,603.681 673.259,603.408 672.831,602.79C672.255,601.959 672.462,600.817 673.293,600.241L673.963,599.951C674.062,599.93 674.492,599.875 675.203,599.818C680.977,599.348 709.395,597.652 716.515,598.839C717.513,599.005 718.187,599.95 718.021,600.947C717.855,601.944 716.91,602.619 715.913,602.453C709.722,601.421 687.072,602.671 678.149,603.277C676.361,603.398 674.917,603.524 674.694,603.544Z"/>
                </g>
                <g transform="matrix(1,0,0,1,256,181.559)">
                    <path d="M682.656,546.917C683.615,546.597 684.653,547.116 684.973,548.075C685.293,549.035 684.774,550.073 683.814,550.393C679.604,551.796 675.956,556.857 673.561,562.391C671.144,567.975 669.985,574.129 671.296,577.898C674.913,588.298 676.287,587.393 685.197,593.63C686.025,594.21 686.227,595.353 685.647,596.182C685.067,597.01 683.924,597.212 683.096,596.632C673.232,589.727 671.84,590.615 667.835,579.102C666.303,574.696 667.372,567.463 670.198,560.936C673.045,554.359 677.653,548.584 682.656,546.917Z"/>
                </g>
                <g transform="matrix(1,0,0,1,256,181.559)">
                    <path d="M701.507,547.971C700.517,547.763 699.883,546.791 700.091,545.801C700.299,544.812 701.271,544.177 702.261,544.385L703.205,544.584C704.194,544.792 704.829,545.764 704.621,546.753C704.413,547.743 703.441,548.378 702.451,548.17L701.507,547.971Z"/>
                </g>
                <g transform="matrix(1,0,0,1,256,181.559)">
                    <path d="M703.517,548.524C702.972,548.879 702.254,548.933 701.642,548.602C700.753,548.12 700.422,547.008 700.903,546.118L701.192,545.669L701.578,545.247L702.077,544.89L702.667,544.65L703.639,544.571L704.282,544.708L704.832,544.942C705.621,545.355 706.598,546.274 707.594,547.678C711.461,553.127 716.624,566.699 716.755,577.81C716.85,585.851 714.27,592.565 707.508,594.819C706.549,595.138 705.51,594.619 705.191,593.66C704.871,592.701 705.39,591.662 706.349,591.342C710.896,589.827 712.659,585.501 713.023,580.33C713.633,571.657 710.261,560.6 706.895,553.765C705.924,551.793 704.96,550.182 704.087,549.114C703.917,548.906 703.701,548.693 703.517,548.524Z"/>
                </g>
                <g transform="matrix(1,0,0,1,256,181.559)">
                    <path d="M675.214,531.582C675.649,530.669 676.744,530.282 677.656,530.718C678.569,531.154 678.956,532.248 678.52,533.161C674.188,542.231 672.601,544.32 671.943,545.198C671.336,546.007 670.187,546.171 669.378,545.564C668.569,544.957 668.404,543.808 669.011,542.999C669.635,542.167 671.11,540.173 675.214,531.582Z"/>
                </g>
                <g transform="matrix(1,0,0,1,256,181.559)">
                    <path d="M702.073,532.248C701.447,531.454 701.582,530.301 702.376,529.674C703.17,529.048 704.323,529.183 704.949,529.977C705.715,530.947 709.302,535.489 713.729,542.682C714.259,543.544 713.99,544.673 713.129,545.203C712.268,545.733 711.138,545.464 710.608,544.603C706.304,537.608 702.818,533.191 702.073,532.248Z"/>
                </g>
                <g transform="matrix(1,0,0,1,256,181.559)">
                    <path d="M671.513,545.228C671.113,545.11 670.751,544.856 670.504,544.482L670.21,543.9L670.115,543.334L670.178,542.83L670.359,542.392L670.635,542.025L670.998,541.735L671.48,541.528L672.031,541.467L672.815,541.671C673.471,541.998 680.762,549.009 691.757,548.195C701.754,547.454 701.184,545.834 710.21,541.321C711.115,540.868 712.216,541.235 712.668,542.14C713.12,543.044 712.753,544.146 711.849,544.598C702.174,549.435 702.742,551.055 692.028,551.849C681.347,552.64 673.223,546.61 671.513,545.228Z"/>
                </g>
                <g transform="matrix(1,0,0,1,256,181.559)">
                    <path d="M675.806,502.263C676.494,501.415 677.336,500.644 678.346,499.971C682.524,497.185 686.482,496.492 689.942,497.096C695.133,498.002 699.273,501.899 701.43,506.563C703.878,511.858 703.703,518.044 700.057,521.893C697.858,524.214 695.734,525.829 693.713,526.877C692.489,528.045 691.137,528.691 689.762,528.94C687.881,529.281 685.849,528.833 683.879,527.786C678.649,525.851 674.88,520.014 673.494,514.337C672.838,511.65 672.711,509.023 673.137,506.91C673.47,505.258 674.145,503.894 675.105,502.934C675.337,502.701 675.571,502.478 675.806,502.263ZM693.737,504.65C692.372,503.941 690.667,503.436 688.573,503.187C688.179,503.498 687.66,503.646 687.127,503.554C685.305,503.24 683.796,503.526 682.619,504.28C680.8,505.446 679.796,507.629 679.485,510.029C679.64,513.942 681.344,518.235 684.739,519.746C687.364,520.914 690.858,520.206 695.313,516.688C698.464,514.201 698.018,510.266 695.908,507.119C695.309,506.227 694.576,505.389 693.737,504.65Z"/>
                </g>
                <g transform="matrix(1,0,0,1,256,181.559)">
                    <path d="M677.959,505.47C678.049,505.053 678.162,504.725 678.283,504.478L678.783,503.749L679.35,503.308L680.193,503.036L681.028,503.093L681.782,503.422L681.804,503.441C682.011,503.29 682.218,503.181 682.415,503.109L683.139,502.953L683.849,502.994L684.679,503.292C684.957,502.799 685.299,502.45 685.639,502.225L686.483,501.859L687.406,501.811L688.228,502.047L688.893,502.454C688.934,502.485 688.975,502.518 689.016,502.554L689.545,502.264L690.083,502.127L690.645,502.128L691.217,502.277L691.854,502.652C691.864,502.66 691.874,502.668 691.884,502.676C692.648,502.159 693.565,501.927 694.482,502.056C695.593,502.213 696.803,502.892 697.632,504.549L697.889,505.229L697.989,505.965L697.902,506.702L697.823,506.907C697.947,507.043 698.069,507.196 698.186,507.368C698.477,507.797 698.75,508.386 698.961,509.092C699.225,509.503 699.47,509.982 699.673,510.515C700.332,512.242 700.603,514.531 700.02,516.395C699.566,517.847 698.865,518.663 698.225,519.068L697.404,519.425L696.493,519.502L695.842,519.345C695.497,519.475 695.147,519.548 694.798,519.573C694.546,519.799 694.282,519.979 694.016,520.115L693.901,520.158C693.667,520.837 693.395,521.364 693.111,521.758C692.854,522.116 692.576,522.392 692.292,522.602L691.759,522.921L691.157,523.131C690.116,523.372 688.892,523.052 687.764,521.907C687.738,521.88 687.711,521.853 687.685,521.825L687.257,521.744L686.803,521.554L686.659,521.603L685.716,521.611C685.618,521.596 685.518,521.577 685.418,521.552L684.788,521.593L684.093,521.465C683.585,521.312 683.036,521.008 682.494,520.528C682.445,520.486 682.397,520.441 682.348,520.395L681.736,520.356L680.951,520.076C679.884,519.555 678.557,518.208 677.591,516.289C676.281,513.686 675.581,510.049 676.858,506.563C677.053,506.033 677.466,505.647 677.959,505.47Z"/>
                </g>
                <g transform="matrix(1,0,0,1,256,181.559)">
                    <path d="M685.953,497.509C691.225,496.96 695.099,498.355 697.758,500.724C702.317,504.787 703.384,511.965 701.455,518.227C699.295,525.24 693.496,530.964 685.293,529.97C671.635,528.314 667.415,514.655 670.756,505.554C671.921,502.382 673.991,499.767 676.83,498.301C679.286,497.034 682.342,496.598 685.953,497.509ZM688.257,501.055C687.775,501.517 687.056,501.699 686.382,501.463C686.144,501.379 685.908,501.303 685.675,501.233C685.222,501.295 684.756,501.374 684.278,501.469C681.38,502.049 679.453,503.316 678.259,504.987C676.395,507.595 676.262,511.062 676.677,514.058C676.696,514.199 676.718,514.342 676.743,514.484C677.231,515.116 677.746,515.805 678.169,516.423C678.801,517.345 679.222,518.18 679.325,518.626C679.545,519.582 679.655,520.323 679.693,520.871C680.717,521.502 682.04,521.955 683.764,522.243C684.761,522.409 685.436,523.354 685.27,524.351C685.118,525.261 684.319,525.902 683.423,525.882C684.152,526.082 684.922,526.233 685.734,526.332C692.01,527.093 696.3,522.514 697.953,517.148C699.456,512.269 698.872,506.625 695.32,503.46C693.633,501.957 691.295,501.07 688.257,501.055Z"/>
                </g>
                <g transform="matrix(1,0,0,1,256,181.559)">
                    <path d="M679.179,527.493C678.202,529.612 675.824,534.71 669.04,544.887C668.479,545.728 667.34,545.956 666.499,545.395C665.658,544.834 665.43,543.696 665.991,542.854C673.059,532.252 675.227,527.302 676.063,525.504C676.43,524.713 676.723,524.311 676.896,524.145L677.297,523.845L677.729,523.664L678.185,523.593L678.658,523.636L679.042,523.763L679.452,524.014L679.853,524.437C679.942,524.56 680.048,524.74 680.164,524.978C680.609,525.886 680.232,526.985 679.324,527.429C679.276,527.453 679.228,527.474 679.179,527.493Z"/>
                </g>
                <g transform="matrix(1,0,0,1,256,181.559)">
                    <path d="M696.685,522.959C697.759,523.824 700.417,526.091 704.39,530.312C704.533,530.464 706.882,533.657 707.874,534.553L707.884,534.561C708.688,535.051 708.996,536.086 708.567,536.944C708.115,537.848 707.014,538.216 706.109,537.763C705.79,537.604 705.12,537.028 704.412,536.208C703.296,534.914 701.833,532.943 701.721,532.824C697.043,527.853 694.763,526.158 693.935,525.469C693.68,525.257 693.511,525.092 693.403,524.967L693.091,524.497L692.895,523.808L692.933,523.206L693.066,522.816L693.337,522.386L694.044,521.826C694.933,521.345 696.046,521.675 696.527,522.565C696.597,522.692 696.649,522.825 696.685,522.959ZM695.86,525.008C695.837,525.022 695.813,525.035 695.789,525.048C695.813,525.035 695.837,525.021 695.86,525.008Z"/>
                </g>
                <g transform="matrix(1,0,0,1,256,181.559)">
                    <path d="M677.322,527.483C676.605,528.421 674.347,531.322 670.053,536.397C665.513,541.762 665.106,542.41 664.758,542.991C664.237,543.858 663.111,544.139 662.244,543.619C661.377,543.099 661.095,541.972 661.615,541.105C661.988,540.485 662.398,539.771 667.256,534.03C672.807,527.469 674.374,525.1 675.123,524.424L675.826,523.946L676.553,523.742L677.288,523.787L677.945,524.034C678.844,524.496 679.199,525.602 678.737,526.501C678.447,527.063 677.906,527.413 677.322,527.483Z"/>
                </g>
                <g transform="matrix(1,0,0,1,256,181.559)">
                    <path d="M661.66,542.835C660.862,542.489 660.401,541.61 660.608,540.734L660.796,540.253L661.106,539.849L661.517,539.545L662.003,539.364L662.586,539.333L663.144,539.483C663.21,539.513 663.566,539.693 664.171,539.987C667.514,541.61 679.119,546.953 690.984,547.844C698.556,548.412 706.265,547.183 711.784,541.664C712.499,540.949 713.66,540.949 714.375,541.664C715.09,542.379 715.09,543.54 714.375,544.255C708.081,550.55 699.347,552.146 690.71,551.498C678.261,550.564 666.078,544.986 662.57,543.283C662.135,543.072 661.757,542.883 661.66,542.835Z"/>
                </g>
                <g transform="matrix(1,0,0,1,256,181.559)">
                    <path d="M713.351,541.155C713.33,541.079 713.304,540.996 713.275,540.924C713.093,540.468 712.775,539.928 712.308,539.276C712.114,539.003 711.894,538.715 711.649,538.408C704.185,529.078 703.319,530.216 694.481,524.657C693.625,524.119 693.368,522.987 693.906,522.131C694.444,521.275 695.576,521.017 696.432,521.555C705.76,527.423 706.633,526.272 714.511,536.119C716.05,538.043 716.743,539.469 716.965,540.482C717.08,541.002 717.091,541.457 717.04,541.855L716.876,542.54L716.57,543.166C716.026,544.021 715.027,544.591 713.814,544.846C712.826,545.054 711.664,545.023 711.04,545.187C710.062,545.444 709.059,544.859 708.802,543.881C708.545,542.903 709.13,541.9 710.108,541.643C710.621,541.508 711.439,541.461 712.284,541.373C712.597,541.341 713.077,541.225 713.351,541.155Z"/>
                </g>
                <g transform="matrix(1,0,0,1,256,181.559)">
                    <path d="M664.713,541.82C664.22,541.2 664.175,540.315 664.64,539.641L669.196,533.034C669.754,532.226 670.849,532.001 671.68,532.523C671.769,532.579 671.852,532.642 671.928,532.71L676.418,527.822C676.838,527.365 677.443,527.167 678.022,527.247L678.779,526.18C678.818,526.125 678.859,526.072 678.904,526.022L679.451,525.509L679.89,525.283L680.295,525.187L681.027,525.245L681.59,525.517L681.825,525.735C682.233,524.919 683.19,524.52 684.066,524.826C684.623,525.02 685.028,525.457 685.202,525.978L685.741,525.863L686.203,525.922L686.631,526.092L686.756,526.183C687.115,525.938 687.561,525.819 688.022,525.877C688.533,525.942 688.971,526.213 689.259,526.599C689.535,526.334 689.895,526.155 690.299,526.105C691.043,526.012 691.75,526.381 692.111,527.005C692.111,526.932 692.111,526.858 692.111,526.784L692.141,526.326L692.265,525.877L692.542,525.408L693.04,524.978L693.618,524.758L694.256,524.744L695.016,525.045L695.406,525.402L695.674,525.832C695.689,525.865 695.707,525.915 695.727,525.98C696.091,526.117 696.414,526.37 696.636,526.724C696.864,527.09 697.076,527.432 697.274,527.753C697.342,527.709 697.413,527.669 697.488,527.633C698.367,527.218 699.418,527.561 699.882,528.416L700.88,530.254C701.044,529.805 701.384,529.423 701.848,529.214C702.671,528.843 703.641,529.128 704.135,529.884L705.011,531.228C705.411,531.251 705.803,531.405 706.121,531.688L708.335,533.656C708.967,533.51 709.656,533.704 710.117,534.219L710.664,534.831C711.066,534.957 711.423,535.22 711.662,535.593L712.452,536.83L714.655,539.292C715.303,540.016 715.273,541.119 714.587,541.807C714.342,542.054 714.042,542.216 713.726,542.293C713.355,542.52 712.93,542.6 712.525,542.545C712.532,542.639 712.537,542.728 712.542,542.812C712.588,543.778 712.45,544.429 712.174,544.976C711.895,545.53 711.456,546.016 710.679,546.534C710.329,546.767 710.082,546.899 709.473,547.05C708.729,547.235 706.971,547.511 701.189,548.845C700.595,548.982 699.99,548.813 699.557,548.427L695.994,550.472C695.144,550.959 694.061,550.692 693.535,549.865C693.34,549.557 693.247,549.213 693.25,548.872C693.001,548.728 692.783,548.523 692.62,548.265C692.615,548.257 692.61,548.248 692.605,548.24L691.403,548.896C690.565,549.353 689.518,549.091 688.994,548.294C688.937,548.208 688.889,548.118 688.848,548.027C688.073,548.375 687.218,548.758 686.264,549.187C685.385,549.582 684.352,549.229 683.898,548.38C683.743,548.091 683.674,547.778 683.681,547.47L683.503,547.55L682.98,547.613L682.395,547.509L681.985,547.307L681.565,546.934L681.239,546.339C680.889,546.409 680.581,546.462 680.322,546.495C679.775,546.564 679.355,546.552 679.086,546.507L678.598,546.37L678.157,546.125L677.657,545.59L677.47,545.205L677.373,544.791L677.376,544.704C677.336,544.664 677.298,544.621 677.261,544.577C676.771,544.837 676.171,544.872 675.631,544.622C675.23,544.437 674.928,544.124 674.749,543.754C674.216,544.145 673.49,544.23 672.859,543.92C671.978,543.487 671.594,542.437 671.989,541.539C671.996,541.524 672.002,541.509 672.009,541.494C671.536,541.663 671,541.637 670.533,541.39C669.607,542.592 668.875,543.518 668.732,543.645C667.611,544.642 666.952,545.189 666.658,545.389L665.885,545.738L665.412,545.782L664.909,545.694L664.403,545.441L663.965,545.003L663.733,544.556L663.627,544.007L663.655,543.601L663.794,543.147C663.87,542.975 664.13,542.559 664.58,541.988C664.622,541.934 664.667,541.878 664.713,541.82ZM685.284,545.497L685.812,545.165C685.663,545.208 685.515,545.25 685.369,545.291C685.34,545.362 685.312,545.43 685.284,545.497ZM708.875,543.277L708.589,543.492C708.62,543.484 708.646,543.477 708.665,543.473C708.735,543.424 708.818,543.36 708.876,543.315C708.875,543.303 708.875,543.291 708.875,543.277Z"/>
                </g>
                <g transform="matrix(1,0,0,1,256,181.559)">
                    <path d="M661.533,540.889C661.601,540.811 661.675,540.738 661.757,540.671C669.295,534.483 675.535,523.791 676.67,522.379C677.304,521.591 678.458,521.466 679.246,522.1C680.034,522.733 680.16,523.887 679.526,524.676C678.491,525.963 673.303,534.684 666.745,541.103C667.357,541.286 668.137,541.524 669.385,541.881C670.325,542.149 670.888,543.107 670.666,544.059C670.445,545.01 669.515,545.62 668.554,545.445C665.15,544.826 665.245,545.255 662.05,543.977C661.112,543.601 660.654,542.534 661.03,541.595C661.143,541.313 661.318,541.075 661.533,540.889Z"/>
                </g>
                <g transform="matrix(1,0,0,1,256,181.559)">
                    <path d="M661.375,542.97C661.36,542.96 661.346,542.95 661.331,542.94C660.495,542.372 660.278,541.231 660.846,540.395C661.127,539.983 661.133,539.99 676.889,523.25C677.555,522.542 678.658,522.478 679.402,523.103C680.146,523.729 680.272,524.827 679.689,525.605C672.032,535.814 670.711,537.832 667.179,540.918C669.332,541.486 672.366,542.534 676.501,544.493C677.415,544.926 677.806,546.019 677.373,546.933C676.94,547.847 675.846,548.237 674.933,547.805C667.313,544.195 663.859,543.94 662.844,543.877C662.226,543.838 661.678,543.491 661.375,542.97Z"/>
                </g>
                <g transform="matrix(1,0,0,1,256,181.559)">
                    <path d="M676.672,545.237C676.511,545.385 675.064,546.725 673.948,548.201C670.467,552.807 665.82,561.234 666.602,568.273C667.54,576.712 670.374,582.099 673.583,585.54C678.413,590.721 684.021,591.489 684.868,591.852C685.797,592.25 686.229,593.328 685.83,594.258C685.432,595.187 684.354,595.618 683.425,595.22C682.479,594.815 676.295,593.822 670.903,588.039C667.297,584.172 664.014,578.16 662.96,568.678C662.079,560.749 667.103,551.18 671.025,545.992C672.254,544.366 673.382,543.159 674.182,542.518C674.775,542.043 675.298,541.805 675.663,541.718C676.647,541.485 677.635,542.094 677.869,543.078C678.089,544.006 677.559,544.938 676.672,545.237Z"/>
                </g>
                <g transform="matrix(1,0,0,1,256,181.559)">
                    <path d="M671.338,541.715C672.274,541.332 673.345,541.781 673.727,542.717C674.11,543.653 673.661,544.724 672.725,545.107C670.191,546.143 667.125,549.928 664.798,554.869C661.418,562.046 659.706,571.772 664.124,580.078C667.083,585.64 672.789,590.505 682.431,593.615C683.393,593.925 683.922,594.959 683.612,595.921C683.301,596.884 682.268,597.413 681.306,597.102C670.501,593.617 664.205,588.032 660.889,581.799C655.897,572.413 657.663,561.418 661.483,553.308C664.298,547.33 668.272,542.969 671.338,541.715Z"/>
                </g>
                <g transform="matrix(1,0,0,1,256,181.559)">
                    <path d="M704.984,543.879C704.477,543.004 704.775,541.882 705.649,541.375C706.524,540.867 707.646,541.165 708.154,542.04C708.903,543.331 710.054,544.15 711.324,545.256C714.852,548.325 719.485,552.989 721.731,569.828C722.601,576.352 722.102,580.576 720.595,584.026C719.109,587.432 716.602,590.099 713.236,593.465C712.521,594.18 711.36,594.18 710.645,593.465C709.93,592.75 709.93,591.589 710.645,590.874C713.629,587.89 715.919,585.58 717.237,582.561C718.535,579.586 718.848,575.936 718.099,570.312C716.07,555.099 712.106,550.793 708.919,548.02C707.312,546.622 705.932,545.512 704.984,543.879Z"/>
                </g>
                <g transform="matrix(1,0,0,1,256,181.559)">
                    <path d="M660.476,563.238C660.467,562.826 660.457,562.388 660.444,561.919C660.423,561.163 660.864,560.498 661.514,560.201C661.965,559.034 662.353,558.031 662.697,557.147C662.784,556.681 662.865,556.404 662.915,556.303L663.165,555.945C664.912,551.481 665.523,550.173 668.586,543.556C669,542.663 670.046,542.256 670.955,542.635C671.432,542.835 671.782,543.213 671.957,543.662C672.036,543.508 672.113,543.363 672.188,543.225C672.621,542.434 673.031,541.86 673.357,541.531L673.837,541.136L674.335,540.888L674.978,540.765L675.746,540.887L676.28,541.177L676.786,541.715L676.957,542.042C677.172,542.027 677.393,542.05 677.611,542.116C677.754,542.159 677.888,542.218 678.011,542.29C678.364,541.304 678.655,540.579 678.853,540.226L679.376,539.548L679.782,539.266L680.267,539.091L680.99,539.081L681.7,539.368L682.006,539.685L682.217,539.702L682.777,539.947L683.096,540.223L683.246,540.212L683.793,540.339L684.286,540.628L684.676,541.057C684.793,541.234 685.028,541.779 685.116,542.841L685.18,542.83L685.633,542.871L686.022,543L686.505,543.321L686.667,543.515L686.693,543.458L687.162,542.971L687.87,542.667L688.615,542.674L689.192,542.908L689.736,543.425L689.958,543.861L690.062,544.301C690.108,544.629 690.152,544.95 690.196,545.262C690.525,545.327 690.827,545.481 691.071,545.701C691.041,544.357 691.008,542.863 690.972,541.176C690.952,540.259 691.613,539.469 692.52,539.327C693.426,539.184 694.297,539.734 694.559,540.613L694.811,541.455C695.044,540.989 695.474,540.627 696.017,540.495C696.948,540.269 697.897,540.8 698.192,541.712C698.586,542.932 698.969,544.117 699.34,545.269C699.45,545.292 699.557,545.326 699.659,545.369C699.444,544.286 699.218,543.147 698.98,541.948C698.798,541.029 699.339,540.121 700.233,539.843C701.128,539.565 702.088,540.006 702.46,540.866L703.973,544.372C704.678,544.194 705.44,544.449 705.891,545.053L706.379,545.708C706.52,545.469 706.718,545.26 706.965,545.101C707.558,544.72 708.295,544.722 708.874,545.057C709.022,544.857 709.214,544.684 709.445,544.554C710.3,544.07 711.385,544.348 711.903,545.183C714.738,549.75 720.104,554.993 719.467,572.188C719.463,572.306 719.447,572.421 719.422,572.532C719.361,573.591 719.22,574.78 719.011,576.262C719.099,580.261 718.477,582.58 718.223,583.092L717.826,583.652L717.159,584.085L716.599,584.203L716.468,584.185L715.786,587.523C715.598,588.445 714.743,589.074 713.807,588.98C713.666,588.966 713.531,588.936 713.402,588.892C713.023,589.859 712.577,591.008 712.057,592.368C711.7,593.302 710.661,593.777 709.721,593.436C709.394,593.317 709.121,593.115 708.918,592.862C708.7,592.854 708.48,592.808 708.267,592.718L707.948,592.894L707.367,593.044L707.174,593.04C706.896,593.554 706.379,593.924 705.759,593.991C705.262,594.044 704.788,593.894 704.423,593.604C704.175,593.802 703.873,593.937 703.538,593.983C702.623,594.112 701.756,593.538 701.515,592.648C701.29,592.841 701.016,592.982 700.709,593.049C699.914,593.22 699.117,592.848 698.729,592.163C698.594,592.241 698.447,592.302 698.29,592.344C697.714,592.498 697.123,592.36 696.683,592.015C696.486,592.239 696.232,592.417 695.934,592.525C695.361,592.732 694.745,592.637 694.271,592.312C694.369,593.087 693.961,593.854 693.235,594.197C692.425,594.579 691.457,594.32 690.947,593.583L690.467,592.891C690.344,593.331 690.057,593.724 689.638,593.973C688.856,594.436 687.853,594.257 687.28,593.551L686.51,592.603C686.417,592.724 686.306,592.836 686.18,592.934C685.467,593.486 684.458,593.438 683.801,592.819L683.215,592.267C683.163,592.558 683.04,592.838 682.846,593.082C682.3,593.768 681.345,593.971 680.567,593.567C677.314,591.875 675.163,590.589 673.531,589.347C673.398,589.302 673.268,589.24 673.144,589.162C670.482,587.481 668.95,586.379 667.866,585.222C666.242,583.862 665.044,582.614 664.131,581.252C662.853,579.348 662.123,577.202 661.613,574.145C661.257,573.604 660.942,573.162 660.677,572.749C659.604,571.082 659.074,569.815 659.547,566.188C659.643,565.451 660.011,564.382 660.476,563.238ZM670.107,579.084C670.024,578.963 669.954,578.831 669.901,578.687C669.895,578.673 669.89,578.658 669.884,578.644C669.6,577.885 669.339,577.188 669.098,576.543C668.839,576.828 668.489,577.034 668.082,577.111C668.073,577.112 668.065,577.114 668.056,577.115C670.098,579.834 671.32,581.712 672.567,583.259C671.948,582.242 671.223,581.025 670.293,579.476C670.286,579.465 670.28,579.454 670.273,579.442C670.203,579.327 670.148,579.206 670.107,579.084ZM665.037,571.392C664.908,570.748 664.787,570.121 664.671,569.511C664.699,569.823 664.727,570.126 664.756,570.421C664.837,570.726 664.93,571.047 665.037,571.392ZM711.979,559.346C712.125,560.721 712.269,562.025 712.39,563.584C712.559,563.279 712.811,563.031 713.113,562.865C713.099,562.715 713.087,562.569 713.075,562.428C713.017,561.748 712.991,561.161 712.983,560.693C712.982,560.69 712.98,560.688 712.978,560.686L711.979,559.346Z"/>
                </g>
                <g transform="matrix(1,0,0,1,256,181.559)">
                    <path d="M668.647,588.432C668.68,587.794 669.046,587.191 669.658,586.885C670.562,586.433 671.663,586.8 672.116,587.705L672.315,588.485L672.166,589.455C671.719,590.98 669.481,596.118 668.189,599.038C676.777,601.009 677.573,599.232 687.871,599.679C690.163,599.779 704.707,600.415 716.543,599.231C717.549,599.131 718.448,599.866 718.548,600.872C718.649,601.878 717.914,602.777 716.907,602.877C704.856,604.082 690.046,603.442 687.712,603.34C676.239,602.842 676.161,604.936 665.162,602.067C664.641,601.93 664.206,601.572 663.973,601.085C663.74,600.599 663.733,600.035 663.954,599.543C664.321,598.725 668.058,590.429 668.647,588.432Z"/>
                </g>
                <g transform="matrix(1,0,0,1,256,181.559)">
                    <path d="M673.662,588.301C673.988,588.259 674.327,588.305 674.645,588.448C675.294,588.739 675.697,589.368 675.725,590.044C676.296,589.596 677.099,589.517 677.76,589.892C678.557,590.344 678.895,591.313 678.56,592.159C678.96,591.668 679.381,591.151 679.824,590.608C680.41,589.89 681.439,589.722 682.222,590.217C683.005,590.712 683.296,591.713 682.899,592.55C682.772,592.82 682.645,593.085 682.519,593.347C683.788,591.924 684.818,590.763 685.055,590.496C685.672,589.802 686.712,589.679 687.473,590.211C687.71,590.377 687.897,590.589 688.029,590.828L688.926,589.815C689.569,589.09 690.665,588.99 691.427,589.588C691.984,590.024 692.223,590.721 692.097,591.375C692.352,591.142 692.613,590.903 692.881,590.657C693.545,590.048 694.552,590.012 695.258,590.572C695.468,590.739 695.633,590.944 695.749,591.17L695.864,591.048C696.489,590.385 697.505,590.282 698.25,590.806C698.4,590.911 698.53,591.036 698.639,591.174L700.109,589.566C700.72,588.898 701.727,588.776 702.479,589.279C702.763,589.469 702.978,589.725 703.115,590.015C703.707,589.626 704.487,589.606 705.107,590C705.695,590.374 706.006,591.037 705.948,591.703C706.558,591.167 707.459,591.093 708.153,591.543C708.612,591.841 708.899,592.314 708.971,592.825C709.299,592.822 709.629,592.908 709.926,593.085C710.141,593.214 710.321,593.381 710.462,593.573L710.637,593.085C710.894,592.369 711.567,591.887 712.327,591.872C713.088,591.858 713.778,592.315 714.062,593.02L715.919,597.637C716.296,598.575 715.841,599.643 714.903,600.02C713.965,600.398 712.897,599.942 712.519,599.004L712.344,598.57C711.911,598.972 711.294,599.153 710.683,599.011C710.653,599.005 710.624,598.997 710.596,598.989L708.531,601.441C707.965,602.113 707.002,602.288 706.235,601.86C705.871,601.656 705.599,601.343 705.445,600.98C704.843,601.385 704.042,601.403 703.415,600.99C703.188,600.84 703.004,600.647 702.867,600.428L701.979,601.39C701.379,602.041 700.399,602.169 699.651,601.694C698.988,601.274 698.676,600.485 698.847,599.74C698.273,600.019 697.575,599.987 697.019,599.612C696.778,599.449 696.586,599.237 696.45,598.998L694.953,600.635C694.335,601.311 693.313,601.427 692.559,600.906C692.361,600.769 692.198,600.599 692.072,600.408L690.491,602.084C689.856,602.757 688.818,602.851 688.073,602.302C687.558,601.923 687.294,601.32 687.329,600.718C686.851,601.134 686.539,601.38 686.338,601.499L685.588,601.794L684.976,601.822L684.421,601.675L683.907,601.349L683.752,601.177L682.784,602.27C682.167,602.965 681.127,603.089 680.365,602.557C680.097,602.371 679.894,602.125 679.761,601.849C679.383,602.255 679.111,602.538 678.993,602.644C678.325,603.245 677.835,603.615 677.517,603.8L677.038,604.025L676.518,604.143L676.009,604.128L675.592,604.013L674.919,603.561L674.523,602.955L674.477,602.739L674.321,602.852L673.757,603.075L673.145,603.145L672.539,603.06L672.105,602.915L671.659,602.655L671.154,602.101L671.082,601.936C670.689,602.019 670.268,601.973 669.887,601.782C669.612,601.645 669.385,601.447 669.216,601.211C668.666,601.578 667.937,601.632 667.32,601.295C666.455,600.822 666.119,599.75 666.56,598.868C669.035,593.918 668.795,593.983 671.726,589.147C672.138,588.466 672.925,588.15 673.662,588.301Z"/>
                </g>
                <g transform="matrix(1,0,0,1,256,181.559)">
                    <path d="M712.784,540.271C713.492,539.823 714.442,539.907 715.059,540.525C715.774,541.24 715.774,542.401 715.059,543.116L714.687,543.412L714.097,543.697C713.424,543.948 711.862,544.289 709.648,544.627C703.902,545.502 693.485,546.465 683.276,546.414C683.085,546.498 682.875,546.55 682.654,546.563C680.945,546.667 668.761,547.339 661.456,543.687C660.59,543.254 660.211,542.223 660.589,541.332C660.967,540.441 661.973,539.998 662.885,540.32C674.58,544.448 699.133,542.523 709.096,541.004C710.802,540.744 712.529,540.333 712.784,540.271Z"/>
                </g>
                <g transform="matrix(1,0,0,1,256,181.559)">
                    <path d="M683.962,496.443C688.829,495.21 693.36,497.061 696.51,499.291C698.808,500.917 700.359,502.749 700.828,503.686C701.558,505.146 702.344,506.153 703,507.071C703.719,508.075 704.294,508.994 704.589,510.157C705.016,511.837 704.865,514.07 703.466,517.956C700.914,525.048 694.596,527.934 688.305,528.443C682.047,528.949 675.87,527.047 673.566,524.831C671.425,522.772 670.137,519.881 669.634,516.706C668.899,512.066 669.843,506.824 672.107,502.841C674.628,498.405 678.748,495.524 683.962,496.443ZM685.136,498.329C684.888,498.584 684.517,498.706 684.145,498.619C684.11,498.611 684.074,498.603 684.039,498.595C683.862,498.648 683.684,498.706 683.506,498.768C683.051,498.929 682.559,498.756 682.296,498.378C678.646,498.291 675.783,500.615 673.929,503.877C671.888,507.468 671.042,512.195 671.704,516.378C672.133,519.084 673.194,521.565 675.019,523.32C677.063,525.286 682.584,526.802 688.136,526.353C693.653,525.907 699.255,523.466 701.494,517.246C702.676,513.962 702.919,512.093 702.558,510.673C702.328,509.77 701.854,509.07 701.296,508.29C700.585,507.297 699.743,506.203 698.953,504.623C698.562,503.841 697.218,502.36 695.299,501.002C692.722,499.178 689.085,497.586 685.136,498.329Z" style="fill:rgb(237,236,218);"/>
                </g>
                <g transform="matrix(1,0,0,1,256,181.559)">
                    <path d="M700.33,523.274C702.488,524.366 709.793,528.339 717.689,539.92C718.296,540.81 718.425,541.636 718.248,542.383C718.081,543.087 717.614,543.754 716.843,544.334C716.042,544.937 714.877,545.471 713.458,545.922C705.922,548.316 690.739,548.551 690.427,548.611C685.153,549.626 673.588,549.4 666.028,546.978C662.53,545.858 659.883,544.216 658.848,542.146C658.652,541.753 658.721,541.279 659.022,540.959C668.684,530.675 671.949,526.065 672.939,524.666C673.273,524.193 673.927,524.081 674.4,524.415C674.872,524.749 674.984,525.404 674.65,525.876C673.666,527.268 670.467,531.795 661.098,541.81C662.131,543.179 664.173,544.183 666.667,544.982C673.907,547.301 684.98,547.524 690.031,546.553C690.339,546.494 705.366,546.293 712.823,543.924C713.975,543.558 714.932,543.148 715.582,542.659C715.898,542.421 716.14,542.187 716.209,541.899C716.267,541.652 716.158,541.396 715.957,541.101C708.048,529.5 700.789,525.846 699.123,525.013C699.04,524.972 698.989,525.107 698.394,524.117C698.097,523.621 698.258,522.976 698.754,522.679C699.25,522.381 699.894,522.542 700.192,523.038C700.246,523.129 700.292,523.208 700.33,523.274Z" style="fill:rgb(237,236,218);"/>
                </g>
                <g transform="matrix(1,0,0,1,256,181.559)">
                    <path d="M665.653,547.647C665.343,547.991 664.743,548.689 664.296,549.411C659.508,557.147 651.434,581.812 675.162,592.253C684.775,596.483 690.886,596.051 706.325,592.801C713.886,591.209 718.516,585.277 720.284,579.445C721.435,575.649 721.398,571.888 720.063,569.44C719.085,567.648 719.171,566.307 719.274,564.659C719.402,562.604 719.468,559.994 716.39,554.718C715.689,553.515 714.631,551.089 714.491,550.767C713.861,549.318 713.301,549.016 712.639,548.52C712.046,548.076 711.385,547.521 710.586,546.322C710.265,545.84 710.395,545.189 710.876,544.868C711.358,544.547 712.009,544.677 712.33,545.159C713.11,546.33 713.724,546.712 714.276,547.123C715.011,547.671 715.679,548.243 716.413,549.931C716.545,550.235 717.539,552.527 718.201,553.662C721.641,559.558 721.509,562.493 721.366,564.79C721.287,566.043 721.159,567.073 721.903,568.437C723.453,571.279 723.627,575.644 722.29,580.053C720.327,586.53 715.154,593.085 706.757,594.852C690.685,598.236 684.325,598.575 674.318,594.171C648.893,582.985 657.384,556.597 662.514,548.308C663.189,547.216 663.82,546.424 664.31,545.983C664.635,545.692 664.936,545.521 665.178,545.441L665.44,545.377L665.752,545.365L666.21,545.483L666.6,545.761L666.795,546.016L666.917,546.269C667.12,546.811 666.845,547.416 666.304,547.619C666.087,547.7 665.861,547.705 665.653,547.647Z" style="fill:rgb(237,236,218);"/>
                </g>
                <g transform="matrix(1,0,0,1,256,181.559)">
                    <path d="M719.636,601.92C719.583,601.801 719.522,601.674 719.458,601.564C719.048,600.851 718.407,599.974 717.688,599.037C715.733,596.486 713.27,593.513 712.768,592.007C712.585,591.458 712.882,590.864 713.431,590.681C713.979,590.499 714.573,590.796 714.756,591.344C715.019,592.133 715.927,593.352 716.961,594.697C718.696,596.95 720.8,599.488 721.54,601.017C721.821,601.596 721.927,602.092 721.905,602.452L721.858,602.755L721.738,603.073L721.531,603.373L721.257,603.609C721.091,603.72 720.724,603.872 720.154,603.991C719.252,604.179 717.644,604.379 715.507,604.559C703.524,605.565 674.632,605.964 661.71,600.883C661.436,600.776 661.22,600.558 661.114,600.283C661.009,600.008 661.024,599.702 661.156,599.438C662.49,596.776 666.292,590.25 667.043,588.749C667.301,588.232 667.931,588.022 668.449,588.28C668.966,588.539 669.176,589.169 668.917,589.686C668.252,591.017 665.187,596.3 663.571,599.336C676.737,603.898 703.887,603.431 715.332,602.47C717.133,602.319 718.818,602.057 719.636,601.92Z" style="fill:rgb(237,236,218);"/>
                </g>
            </g>
        </g>
    </g>
</svg>
