<?xml version="1.0" encoding="UTF-8" standalone="no"?>
<!DOCTYPE svg PUBLIC "-//W3C//DTD SVG 1.1//EN" "http://www.w3.org/Graphics/SVG/1.1/DTD/svg11.dtd">
<svg width="100%" height="100%" viewBox="0 0 67 138" version="1.1" xmlns="http://www.w3.org/2000/svg" xmlns:xlink="http://www.w3.org/1999/xlink" xml:space="preserve" xmlns:serif="http://www.serif.com/" style="fill-rule:evenodd;clip-rule:evenodd;stroke-linejoin:round;stroke-miterlimit:2;">
    <g transform="matrix(1,0,0,1,-337.85,-562.181)">
        <g transform="matrix(1,0,0,1,-256,-181.559)">
            <g id="chess-board" serif:id="chess board">
            </g>
            <g transform="matrix(1,0,0,1,-319.068,94.5729)">
                <g>
                    <g transform="matrix(1,0,0,1,256,181.559)">
                        <path d="M679.48,591.539C678.953,592.537 677.829,595.641 676.388,598.636C680.885,598.143 689.658,597.871 708.735,599.339C709.744,599.416 710.499,600.298 710.422,601.306C710.344,602.314 709.463,603.07 708.454,602.992C682.357,600.985 676.109,602.258 673.361,602.833C672.638,602.985 671.894,602.687 671.475,602.077C671.057,601.467 671.046,600.666 671.447,600.045C673.417,596.999 675.058,592.46 675.898,590.549C676.285,589.669 676.681,589.15 676.866,588.992C677.634,588.334 678.791,588.424 679.449,589.192C680.034,589.875 680.028,590.865 679.48,591.539Z"/>
                    </g>
                    <g transform="matrix(1,0,0,1,256,181.559)">
                        <path d="M715.455,599.179C714.186,597.299 711.939,594.166 708.203,589.496C707.572,588.707 707.7,587.553 708.489,586.921C709.279,586.289 710.433,586.417 711.065,587.207C717.432,595.167 719.43,598.319 720.052,599.554C720.315,600.077 720.409,600.399 720.451,600.589L720.468,600.733C720.408,600.524 720.319,600.373 720.277,600.293C720.438,600.594 720.509,600.928 720.491,601.258L720.509,601.083L720.468,600.733C720.569,601.085 720.588,601.6 720.164,602.206C720.198,602.156 720.231,602.104 720.261,602.051C720.351,601.889 720.415,601.717 720.453,601.541L720.464,601.515L720.473,601.432C720.467,601.469 720.46,601.505 720.453,601.541L720.164,602.206C719.846,602.662 719.335,602.952 718.773,602.986C716.036,603.153 714.398,602.763 713.147,602.363C711.936,601.975 711.293,601.458 709.663,602.157C708.734,602.555 707.656,602.124 707.257,601.194C706.859,600.265 707.29,599.187 708.22,598.789C710.248,597.919 711.467,598.019 712.72,598.368C713.472,598.577 714.243,598.955 715.455,599.179Z"/>
                    </g>
                    <g transform="matrix(1,0,0,1,256,181.559)">
                        <path d="M674.694,603.544C674.001,603.681 673.259,603.408 672.831,602.79C672.255,601.959 672.462,600.817 673.293,600.241L673.963,599.951C674.062,599.93 674.492,599.875 675.203,599.818C680.977,599.348 709.395,597.652 716.515,598.839C717.513,599.005 718.187,599.95 718.021,600.947C717.855,601.944 716.91,602.619 715.913,602.453C709.722,601.421 687.072,602.671 678.149,603.277C676.361,603.398 674.917,603.524 674.694,603.544Z"/>
                    </g>
                    <g transform="matrix(1,0,0,1,256,181.559)">
                        <path d="M682.656,546.917C683.615,546.597 684.653,547.116 684.973,548.075C685.293,549.035 684.774,550.073 683.814,550.393C679.604,551.796 675.956,556.857 673.561,562.391C671.144,567.975 669.985,574.129 671.296,577.898C674.913,588.298 676.287,587.393 685.197,593.63C686.025,594.21 686.227,595.353 685.647,596.182C685.067,597.01 683.924,597.212 683.096,596.632C673.232,589.727 671.84,590.615 667.835,579.102C666.303,574.696 667.372,567.463 670.198,560.936C673.045,554.359 677.653,548.584 682.656,546.917Z"/>
                    </g>
                    <g transform="matrix(1,0,0,1,256,181.559)">
                        <path d="M703.517,548.524C702.972,548.879 702.254,548.933 701.642,548.602C700.753,548.12 700.422,547.008 700.903,546.118L701.192,545.669L701.578,545.247L702.077,544.89L702.667,544.65L703.639,544.571L704.282,544.708L704.832,544.942C705.621,545.355 706.598,546.274 707.594,547.678C711.461,553.127 716.624,566.699 716.755,577.81C716.85,585.851 714.27,592.565 707.508,594.819C706.549,595.138 705.51,594.619 705.191,593.66C704.871,592.701 705.39,591.662 706.349,591.342C710.896,589.827 712.659,585.501 713.023,580.33C713.633,571.657 710.261,560.6 706.895,553.765C705.924,551.793 704.96,550.182 704.087,549.114C703.917,548.906 703.701,548.693 703.517,548.524Z"/>
                    </g>
                    <g transform="matrix(1,0,0,1,256,181.559)">
                        <path d="M676.672,545.237C676.511,545.385 675.064,546.725 673.948,548.201C670.467,552.807 665.82,561.234 666.602,568.273C667.54,576.712 670.374,582.099 673.583,585.54C678.413,590.721 684.021,591.489 684.868,591.852C685.797,592.25 686.229,593.328 685.83,594.258C685.432,595.187 684.354,595.618 683.425,595.22C682.479,594.815 676.295,593.822 670.903,588.039C667.297,584.172 664.014,578.16 662.96,568.678C662.079,560.749 667.103,551.18 671.025,545.992C672.254,544.366 673.382,543.159 674.182,542.518C674.775,542.043 675.298,541.805 675.663,541.718C676.647,541.485 677.635,542.094 677.869,543.078C678.089,544.006 677.559,544.938 676.672,545.237Z"/>
                    </g>
                    <g transform="matrix(1,0,0,1,256,181.559)">
                        <path d="M671.338,541.715C672.274,541.332 673.345,541.781 673.727,542.717C674.11,543.653 673.661,544.724 672.725,545.107C670.191,546.143 667.125,549.928 664.798,554.869C661.418,562.046 659.706,571.772 664.124,580.078C667.083,585.64 672.789,590.505 682.431,593.615C683.393,593.925 683.922,594.959 683.612,595.921C683.301,596.884 682.268,597.413 681.306,597.102C670.501,593.617 664.205,588.032 660.889,581.799C655.897,572.413 657.663,561.418 661.483,553.308C664.298,547.33 668.272,542.969 671.338,541.715Z"/>
                    </g>
                    <g transform="matrix(1,0,0,1,256,181.559)">
                        <path d="M704.984,543.879C704.477,543.004 704.775,541.882 705.649,541.375C706.524,540.867 707.646,541.165 708.154,542.04C708.903,543.331 710.054,544.15 711.324,545.256C714.852,548.325 719.485,552.989 721.731,569.828C722.601,576.352 722.102,580.576 720.595,584.026C719.109,587.432 716.602,590.099 713.236,593.465C712.521,594.18 711.36,594.18 710.645,593.465C709.93,592.75 709.93,591.589 710.645,590.874C713.629,587.89 715.919,585.58 717.237,582.561C718.535,579.586 718.848,575.936 718.099,570.312C716.07,555.099 712.106,550.793 708.919,548.02C707.312,546.622 705.932,545.512 704.984,543.879Z"/>
                    </g>
                    <g transform="matrix(1,0,0,1,256,181.559)">
                        <path d="M660.476,563.238C660.467,562.826 660.457,562.388 660.444,561.919C660.423,561.163 660.864,560.498 661.514,560.201C661.965,559.034 662.353,558.031 662.697,557.147C662.784,556.681 662.865,556.404 662.915,556.303L663.165,555.945C664.912,551.481 665.523,550.173 668.586,543.556C669,542.663 670.046,542.256 670.955,542.635C671.432,542.835 671.782,543.213 671.957,543.662C672.036,543.508 672.113,543.363 672.188,543.225C672.621,542.434 673.031,541.86 673.357,541.531L673.837,541.136L674.335,540.888L674.978,540.765L675.746,540.887L676.28,541.177L676.786,541.715L676.957,542.042C677.172,542.027 677.393,542.05 677.611,542.116C677.754,542.159 677.888,542.218 678.011,542.29C678.364,541.304 678.655,540.579 678.853,540.226L679.376,539.548L679.782,539.266L680.267,539.091L680.99,539.081L681.7,539.368L682.006,539.685L682.217,539.702L682.777,539.947L683.096,540.223L683.246,540.212L683.793,540.339L684.286,540.628L684.676,541.057C684.793,541.234 685.028,541.779 685.116,542.841L685.18,542.83L685.633,542.871L686.022,543L686.505,543.321L686.667,543.515L686.693,543.458L687.162,542.971L687.87,542.667L688.615,542.674L689.192,542.908L689.736,543.425L689.958,543.861L690.062,544.301C690.108,544.629 690.152,544.95 690.196,545.262C690.525,545.327 690.827,545.481 691.071,545.701C691.041,544.357 691.008,542.863 690.972,541.176C690.952,540.259 691.613,539.469 692.52,539.327C693.426,539.184 694.297,539.734 694.559,540.613L694.811,541.455C695.044,540.989 695.474,540.627 696.017,540.495C696.948,540.269 697.897,540.8 698.192,541.712C698.586,542.932 698.969,544.117 699.34,545.269C699.45,545.292 699.557,545.326 699.659,545.369C699.444,544.286 699.218,543.147 698.98,541.948C698.798,541.029 699.339,540.121 700.233,539.843C701.128,539.565 702.088,540.006 702.46,540.866L703.973,544.372C704.678,544.194 705.44,544.449 705.891,545.053L706.379,545.708C706.52,545.469 706.718,545.26 706.965,545.101C707.558,544.72 708.295,544.722 708.874,545.057C709.022,544.857 709.214,544.684 709.445,544.554C710.3,544.07 711.385,544.348 711.903,545.183C714.738,549.75 720.104,554.993 719.467,572.188C719.463,572.306 719.447,572.421 719.422,572.532C719.361,573.591 719.22,574.78 719.011,576.262C719.099,580.261 718.477,582.58 718.223,583.092L717.826,583.652L717.159,584.085L716.599,584.203L716.468,584.185L715.786,587.523C715.598,588.445 714.743,589.074 713.807,588.98C713.666,588.966 713.531,588.936 713.402,588.892C713.023,589.859 712.577,591.008 712.057,592.368C711.7,593.302 710.661,593.777 709.721,593.436C709.394,593.317 709.121,593.115 708.918,592.862C708.7,592.854 708.48,592.808 708.267,592.718L707.948,592.894L707.367,593.044L707.174,593.04C706.896,593.554 706.379,593.924 705.759,593.991C705.262,594.044 704.788,593.894 704.423,593.604C704.175,593.802 703.873,593.937 703.538,593.983C702.623,594.112 701.756,593.538 701.515,592.648C701.29,592.841 701.016,592.982 700.709,593.049C699.914,593.22 699.117,592.848 698.729,592.163C698.594,592.241 698.447,592.302 698.29,592.344C697.714,592.498 697.123,592.36 696.683,592.015C696.486,592.239 696.232,592.417 695.934,592.525C695.361,592.732 694.745,592.637 694.271,592.312C694.369,593.087 693.961,593.854 693.235,594.197C692.425,594.579 691.457,594.32 690.947,593.583L690.467,592.891C690.344,593.331 690.057,593.724 689.638,593.973C688.856,594.436 687.853,594.257 687.28,593.551L686.51,592.603C686.417,592.724 686.306,592.836 686.18,592.934C685.467,593.486 684.458,593.438 683.801,592.819L683.215,592.267C683.163,592.558 683.04,592.838 682.846,593.082C682.3,593.768 681.345,593.971 680.567,593.567C677.314,591.875 675.163,590.589 673.531,589.347C673.398,589.302 673.268,589.24 673.144,589.162C670.482,587.481 668.95,586.379 667.866,585.222C666.242,583.862 665.044,582.614 664.131,581.252C662.853,579.348 662.123,577.202 661.613,574.145C661.257,573.604 660.942,573.162 660.677,572.749C659.604,571.082 659.074,569.815 659.547,566.188C659.643,565.451 660.011,564.382 660.476,563.238ZM670.107,579.084C670.024,578.963 669.954,578.831 669.901,578.687C669.895,578.673 669.89,578.658 669.884,578.644C669.6,577.885 669.339,577.188 669.098,576.543C668.839,576.828 668.489,577.034 668.082,577.111C668.073,577.112 668.065,577.114 668.056,577.115C670.098,579.834 671.32,581.712 672.567,583.259C671.948,582.242 671.223,581.025 670.293,579.476C670.286,579.465 670.28,579.454 670.273,579.442C670.203,579.327 670.148,579.206 670.107,579.084ZM665.037,571.392C664.908,570.748 664.787,570.121 664.671,569.511C664.699,569.823 664.727,570.126 664.756,570.421C664.837,570.726 664.93,571.047 665.037,571.392ZM711.979,559.346C712.125,560.721 712.269,562.025 712.39,563.584C712.559,563.279 712.811,563.031 713.113,562.865C713.099,562.715 713.087,562.569 713.075,562.428C713.017,561.748 712.991,561.161 712.983,560.693C712.982,560.69 712.98,560.688 712.978,560.686L711.979,559.346Z"/>
                    </g>
                    <g transform="matrix(1,0,0,1,256,181.559)">
                        <path d="M668.647,588.432C668.68,587.794 669.046,587.191 669.658,586.885C670.562,586.433 671.663,586.8 672.116,587.705L672.315,588.485L672.166,589.455C671.719,590.98 669.481,596.118 668.189,599.038C676.777,601.009 677.573,599.232 687.871,599.679C690.163,599.779 704.707,600.415 716.543,599.231C717.549,599.131 718.448,599.866 718.548,600.872C718.649,601.878 717.914,602.777 716.907,602.877C704.856,604.082 690.046,603.442 687.712,603.34C676.239,602.842 676.161,604.936 665.162,602.067C664.641,601.93 664.206,601.572 663.973,601.085C663.74,600.599 663.733,600.035 663.954,599.543C664.321,598.725 668.058,590.429 668.647,588.432Z"/>
                    </g>
                    <g transform="matrix(1,0,0,1,256,181.559)">
                        <path d="M673.662,588.301C673.988,588.259 674.327,588.305 674.645,588.448C675.294,588.739 675.697,589.368 675.725,590.044C676.296,589.596 677.099,589.517 677.76,589.892C678.557,590.344 678.895,591.313 678.56,592.159C678.96,591.668 679.381,591.151 679.824,590.608C680.41,589.89 681.439,589.722 682.222,590.217C683.005,590.712 683.296,591.713 682.899,592.55C682.772,592.82 682.645,593.085 682.519,593.347C683.788,591.924 684.818,590.763 685.055,590.496C685.672,589.802 686.712,589.679 687.473,590.211C687.71,590.377 687.897,590.589 688.029,590.828L688.926,589.815C689.569,589.09 690.665,588.99 691.427,589.588C691.984,590.024 692.223,590.721 692.097,591.375C692.352,591.142 692.613,590.903 692.881,590.657C693.545,590.048 694.552,590.012 695.258,590.572C695.468,590.739 695.633,590.944 695.749,591.17L695.864,591.048C696.489,590.385 697.505,590.282 698.25,590.806C698.4,590.911 698.53,591.036 698.639,591.174L700.109,589.566C700.72,588.898 701.727,588.776 702.479,589.279C702.763,589.469 702.978,589.725 703.115,590.015C703.707,589.626 704.487,589.606 705.107,590C705.695,590.374 706.006,591.037 705.948,591.703C706.558,591.167 707.459,591.093 708.153,591.543C708.612,591.841 708.899,592.314 708.971,592.825C709.299,592.822 709.629,592.908 709.926,593.085C710.141,593.214 710.321,593.381 710.462,593.573L710.637,593.085C710.894,592.369 711.567,591.887 712.327,591.872C713.088,591.858 713.778,592.315 714.062,593.02L715.919,597.637C716.296,598.575 715.841,599.643 714.903,600.02C713.965,600.398 712.897,599.942 712.519,599.004L712.344,598.57C711.911,598.972 711.294,599.153 710.683,599.011C710.653,599.005 710.624,598.997 710.596,598.989L708.531,601.441C707.965,602.113 707.002,602.288 706.235,601.86C705.871,601.656 705.599,601.343 705.445,600.98C704.843,601.385 704.042,601.403 703.415,600.99C703.188,600.84 703.004,600.647 702.867,600.428L701.979,601.39C701.379,602.041 700.399,602.169 699.651,601.694C698.988,601.274 698.676,600.485 698.847,599.74C698.273,600.019 697.575,599.987 697.019,599.612C696.778,599.449 696.586,599.237 696.45,598.998L694.953,600.635C694.335,601.311 693.313,601.427 692.559,600.906C692.361,600.769 692.198,600.599 692.072,600.408L690.491,602.084C689.856,602.757 688.818,602.851 688.073,602.302C687.558,601.923 687.294,601.32 687.329,600.718C686.851,601.134 686.539,601.38 686.338,601.499L685.588,601.794L684.976,601.822L684.421,601.675L683.907,601.349L683.752,601.177L682.784,602.27C682.167,602.965 681.127,603.089 680.365,602.557C680.097,602.371 679.894,602.125 679.761,601.849C679.383,602.255 679.111,602.538 678.993,602.644C678.325,603.245 677.835,603.615 677.517,603.8L677.038,604.025L676.518,604.143L676.009,604.128L675.592,604.013L674.919,603.561L674.523,602.955L674.477,602.739L674.321,602.852L673.757,603.075L673.145,603.145L672.539,603.06L672.105,602.915L671.659,602.655L671.154,602.101L671.082,601.936C670.689,602.019 670.268,601.973 669.887,601.782C669.612,601.645 669.385,601.447 669.216,601.211C668.666,601.578 667.937,601.632 667.32,601.295C666.455,600.822 666.119,599.75 666.56,598.868C669.035,593.918 668.795,593.983 671.726,589.147C672.138,588.466 672.925,588.15 673.662,588.301Z"/>
                    </g>
                    <g transform="matrix(1,0,0,1,256,181.559)">
                        <path d="M665.653,547.647C665.343,547.991 664.743,548.689 664.296,549.411C659.508,557.147 651.434,581.812 675.162,592.253C684.775,596.483 690.886,596.051 706.325,592.801C713.886,591.209 718.516,585.277 720.284,579.445C721.435,575.649 721.398,571.888 720.063,569.44C719.085,567.648 719.171,566.307 719.274,564.659C719.402,562.604 719.468,559.994 716.39,554.718C715.689,553.515 714.631,551.089 714.491,550.767C713.861,549.318 713.301,549.016 712.639,548.52C712.046,548.076 711.385,547.521 710.586,546.322C710.265,545.84 710.395,545.189 710.876,544.868C711.358,544.547 712.009,544.677 712.33,545.159C713.11,546.33 713.724,546.712 714.276,547.123C715.011,547.671 715.679,548.243 716.413,549.931C716.545,550.235 717.539,552.527 718.201,553.662C721.641,559.558 721.509,562.493 721.366,564.79C721.287,566.043 721.159,567.073 721.903,568.437C723.453,571.279 723.627,575.644 722.29,580.053C720.327,586.53 715.154,593.085 706.757,594.852C690.685,598.236 684.325,598.575 674.318,594.171C648.893,582.985 657.384,556.597 662.514,548.308C663.189,547.216 663.82,546.424 664.31,545.983C664.635,545.692 664.936,545.521 665.178,545.441L665.44,545.377L665.752,545.365L666.21,545.483L666.6,545.761L666.795,546.016L666.917,546.269C667.12,546.811 666.845,547.416 666.304,547.619C666.087,547.7 665.861,547.705 665.653,547.647Z" style="fill:rgb(237,236,218);"/>
                    </g>
                    <g transform="matrix(1,0,0,1,256,181.559)">
                        <path d="M719.636,601.92C719.583,601.801 719.522,601.674 719.458,601.564C719.048,600.851 718.407,599.974 717.688,599.037C715.733,596.486 713.27,593.513 712.768,592.007C712.585,591.458 712.882,590.864 713.431,590.681C713.979,590.499 714.573,590.796 714.756,591.344C715.019,592.133 715.927,593.352 716.961,594.697C718.696,596.95 720.8,599.488 721.54,601.017C721.821,601.596 721.927,602.092 721.905,602.452L721.858,602.755L721.738,603.073L721.531,603.373L721.257,603.609C721.091,603.72 720.724,603.872 720.154,603.991C719.252,604.179 717.644,604.379 715.507,604.559C703.524,605.565 674.632,605.964 661.71,600.883C661.436,600.776 661.22,600.558 661.114,600.283C661.009,600.008 661.024,599.702 661.156,599.438C662.49,596.776 666.292,590.25 667.043,588.749C667.301,588.232 667.931,588.022 668.449,588.28C668.966,588.539 669.176,589.169 668.917,589.686C668.252,591.017 665.187,596.3 663.571,599.336C676.737,603.898 703.887,603.431 715.332,602.47C717.133,602.319 718.818,602.057 719.636,601.92Z" style="fill:rgb(237,236,218);"/>
                    </g>
                </g>
                <g transform="matrix(1,0,0,1,256,181.559)">
                    <path d="M689.301,497.603C689.302,497.649 689.304,497.769 689.305,497.888C689.315,499.826 688.92,510.189 675.684,536.662C672.049,543.932 669.573,545.446 669.331,545.581C669.038,546.008 668.467,546.163 667.993,545.923C667.477,545.661 667.27,545.03 667.531,544.514C667.65,544.281 667.851,544.059 668.22,543.786C668.95,543.246 670.679,541.984 673.809,535.725C686.734,509.875 687.218,499.791 687.209,497.898C687.207,497.523 687.229,497.33 687.237,497.298C687.377,496.736 687.947,496.395 688.508,496.535C689.001,496.658 689.325,497.114 689.301,497.603Z"/>
                </g>
                <g transform="matrix(1,0,0,1,256,181.559)">
                    <path d="M696.076,496.106C696.123,496.458 696.187,496.888 696.272,497.366C696.928,501.046 698.73,509.174 702.945,524.981C703.257,526.151 705.335,533.95 707.685,539.655C708.636,541.962 709.605,543.923 710.538,544.856C710.947,545.265 710.947,545.929 710.538,546.338C710.129,546.747 709.465,546.747 709.056,546.338C707.994,545.276 706.829,543.079 705.747,540.453C703.355,534.648 701.237,526.711 700.919,525.521C696.678,509.616 694.869,501.437 694.208,497.734C693.884,495.915 693.853,495.032 693.898,494.803L694.009,494.484L694.165,494.257L694.44,494.039L694.708,493.934L695.001,493.905L695.259,493.947L695.578,494.102L695.797,494.306C695.886,494.414 696.066,494.742 696.207,495.262C696.288,495.561 696.231,495.865 696.076,496.106Z"/>
                </g>
                <g transform="matrix(1,0,0,1,256,181.559)">
                    <path d="M689.643,474.683C689.681,474.652 689.722,474.623 689.766,474.596C690.262,474.299 690.906,474.46 691.204,474.956C692.312,476.803 692.261,476.68 692.701,478.88C692.982,480.287 693.027,480.207 693.995,481.296C698.821,486.725 701.101,490.629 701.825,493.393C702.391,495.553 702.065,497.124 701.293,498.27C700.182,499.918 698.012,500.718 695.737,500.984C692.995,501.305 690.148,500.902 689.471,500.827L689.452,500.825C686.865,501.005 684.988,500.879 683.676,500.491C682.603,500.174 681.858,499.676 681.355,499.05C680.615,498.126 680.374,496.875 680.602,495.275C680.879,493.334 681.864,490.776 683.105,487.624C684.524,484.02 686.275,479.601 687.579,474.386C687.719,473.825 688.289,473.483 688.85,473.624C689.34,473.746 689.663,474.197 689.643,474.683ZM689.348,475.921C687.15,484.185 683.932,490.385 682.907,494.439C682.567,495.785 682.431,496.835 682.882,497.582C683.184,498.082 683.762,498.377 684.623,498.573C685.761,498.832 687.315,498.876 689.376,498.729C689.553,498.716 692.585,499.243 695.494,498.902C697.129,498.711 698.756,498.283 699.555,497.098C700.208,496.129 700.204,494.707 699.358,492.626C698.357,490.164 696.204,486.936 692.429,482.689C691.073,481.163 691.039,481.261 690.645,479.291C690.28,477.466 690.326,477.567 689.407,476.034C689.384,475.997 689.365,475.959 689.348,475.921Z"/>
                </g>
                <g transform="matrix(1,0,0,1,256,181.559)">
                    <path d="M688.583,470.511C688.535,470.159 688.666,469.794 688.956,469.556C688.964,469.534 688.972,469.512 688.98,469.491C689.18,468.948 689.783,468.669 690.326,468.869C690.868,469.069 691.147,469.672 690.947,470.215C690.926,470.271 690.906,470.326 690.885,470.381C691.747,471.816 691.777,472.823 691.732,473.258C691.891,473.524 692.22,474.067 692.593,474.641C695.135,478.559 701.386,487.641 701.527,487.803C704.148,490.828 704.992,493.569 704.858,495.878C704.666,499.202 702.436,501.719 700.077,503.088C698.433,504.042 696.728,504.415 695.604,504.228C686.182,502.657 681.394,500.181 679.389,497.235C677.407,494.322 677.915,490.853 679.669,486.993C681.901,482.08 686.159,476.455 688.583,470.511ZM689.612,473.353C687.123,478.565 683.561,483.494 681.577,487.86C680.172,490.953 679.534,493.722 681.122,496.055C682.943,498.73 687.393,500.734 695.949,502.16C696.79,502.3 698.067,501.884 699.291,501.114C701.094,499.98 702.783,498.01 702.776,495.396C702.77,493.581 701.955,491.497 699.943,489.176C699.8,489.011 693.423,479.772 690.834,475.782C690.293,474.947 689.912,474.331 689.771,474.056L689.611,473.603L689.612,473.353Z"/>
                </g>
                <g transform="matrix(1,0,0,1,256,181.559)">
                    <path d="M679.371,490.343C679.741,489.372 680.22,488.352 680.821,487.281C681.523,485.414 682.5,483.286 683.432,481.744C684.205,480.466 685.018,479.586 685.605,479.325C685.829,479.225 686.027,479.168 686.198,479.138L688.601,473.511L688.598,473.496C688.509,473.09 688.669,472.681 688.985,472.439C689.066,471.88 689.183,471.222 689.339,470.407C689.428,469.944 689.816,469.597 690.286,469.56C690.757,469.523 691.194,469.805 691.354,470.249C694.343,478.528 696.197,481.822 696.867,483.008C697.118,483.454 697.23,483.715 697.257,483.832L697.287,484.137L697.218,484.481L697.065,484.733C698.469,486.4 700.475,488.928 701.99,491.222C703.063,492.846 703.884,494.368 704.146,495.417C704.244,495.811 704.311,496.195 704.348,496.569L704.429,496.727L704.492,497.168C704.491,497.363 704.451,497.587 704.36,497.829C704.071,501.258 701.123,503.685 697.173,504.819C694.91,505.469 692.328,505.687 689.826,505.439C689.728,505.442 689.632,505.431 689.539,505.408C688.644,505.306 687.762,505.145 686.909,504.921L686.905,504.924L686.598,504.99L686.33,504.99L685.776,504.836C685.513,504.719 685.221,504.522 684.914,504.259C682.41,503.234 680.358,501.584 679.249,499.305C678.527,497.821 678.199,496.042 678.447,493.959C678.105,492.941 677.913,492.273 677.838,491.885C677.788,491.628 677.778,491.439 677.785,491.316L677.877,490.9L678.038,490.628L678.237,490.436L678.582,490.265L678.933,490.222L679.264,490.287L679.371,490.343ZM696.564,502.813C696.336,502.775 696.114,502.714 695.9,502.628L695.559,502.454L695.24,502.188C695.193,502.19 695.144,502.19 695.093,502.19L694.92,502.172C694.937,502.399 694.928,502.545 694.912,502.623L694.76,502.996L694.51,503.253C695.216,503.148 695.905,503.001 696.564,502.813ZM682.616,492.139L682.888,492.684C682.834,492.448 682.783,492.229 682.737,492.027C682.697,492.067 682.657,492.104 682.616,492.139Z"/>
                </g>
                <g transform="matrix(1,0,0,1,256,181.559)">
                    <path d="M690.206,472.921C690.156,472.998 689.844,473.478 689.503,474.032C687.695,476.975 683.462,484.139 683.001,484.919C679.672,490.552 679.478,493.89 680.12,495.836C680.494,496.969 681.15,497.548 681.427,497.794C681.859,498.179 681.898,498.842 681.514,499.274C681.129,499.706 680.466,499.745 680.034,499.361C679.629,499.001 678.676,498.15 678.129,496.493C677.39,494.251 677.361,490.342 681.196,483.853C681.659,483.07 685.904,475.886 687.717,472.935C688.276,472.025 688.691,471.47 688.756,471.418C689.205,471.053 689.865,471.122 690.23,471.571C690.556,471.973 690.536,472.544 690.206,472.921Z"/>
                </g>
                <g transform="matrix(1,0,0,1,256,181.559)">
                    <path d="M683.318,498.939C683.38,498.364 683.898,497.948 684.473,498.011C685.048,498.074 685.464,498.592 685.401,499.167C683.345,517.997 681.936,517.631 676.222,530.964C668.664,548.599 668.64,548.527 668.434,550.173C668.362,550.747 667.838,551.155 667.264,551.083C666.69,551.011 666.282,550.487 666.354,549.913C666.565,548.221 666.526,548.268 674.296,530.138C679.903,517.055 681.299,517.418 683.318,498.939Z"/>
                </g>
                <g transform="matrix(1,0,0,1,256,181.559)">
                    <path d="M671.121,544.595C671.144,544.449 671.172,544.299 671.205,544.145C671.45,543.029 671.987,541.64 672.706,540.093C673.599,538.171 674.785,535.984 675.984,533.768C676.356,532.712 676.704,531.739 677.029,530.845C677.307,529.9 677.618,528.967 677.964,528.079C680.575,518.45 681.765,516.256 682.387,515.315L682.542,514.697C682.383,508.021 683.016,506.499 683.464,504.409C683.479,503.519 683.509,502.934 683.581,502.541C683.691,501.939 683.902,501.595 684.145,501.356L684.584,501.044C684.749,500.962 684.94,500.899 685.168,500.848C685.372,500.802 685.575,500.819 685.757,500.886C685.917,500.528 686.272,500.276 686.687,500.266C686.871,500.261 687.044,500.303 687.197,500.382C687.15,497.214 687.103,494.358 687.059,491.8C686.733,482.644 686.616,474.799 686.653,473.974L686.714,473.616L686.851,473.346L687.013,473.165L687.213,473.025L687.456,472.932L687.747,472.902L688.001,472.943L688.208,473.028L688.535,473.305L688.674,473.541L688.76,473.898C688.809,474.406 688.936,478.848 689.117,489.343C689.21,492.258 689.323,495.371 689.459,498.473C689.624,498.247 689.878,498.088 690.174,498.051C690.304,497.691 690.627,497.417 691.031,497.367C691.601,497.296 692.122,497.697 692.199,498.266C692.2,498.274 692.201,498.281 692.202,498.289C692.244,498.599 692.338,499.297 692.473,500.28C692.63,500.006 692.908,499.807 693.244,499.762C693.809,499.686 694.331,500.076 694.419,500.64C694.475,501 694.529,501.351 694.582,501.691C694.765,501.755 694.927,501.868 695.05,502.018C695.43,502.132 695.728,502.456 695.788,502.873C695.789,502.879 695.79,502.884 695.79,502.89C695.951,504.001 696.091,504.999 696.215,505.907C696.597,507.135 696.951,508.288 697.282,509.373C697.634,509.482 697.919,509.774 698,510.161L698.003,510.176L699.168,515.762C700.823,521.57 701.685,525.286 702.894,530.281C703.119,530.895 703.298,531.378 703.433,531.775C703.664,532.454 703.784,532.943 703.809,533.376C706.526,540.443 708.897,546.767 709.411,548.136C709.608,548.662 709.355,549.25 708.837,549.469C708.32,549.688 707.722,549.46 707.482,548.952C707.144,548.238 706.825,547.564 706.522,546.927C706.468,546.97 706.41,547.008 706.348,547.04L706.866,548.706C707.033,549.247 706.741,549.824 706.206,550.008C705.67,550.192 705.085,549.918 704.884,549.388C704.711,548.931 704.543,548.486 704.378,548.053C704.255,548.175 704.1,548.268 703.922,548.317C703.37,548.47 702.798,548.152 702.637,547.604C702.633,547.593 702.63,547.581 702.627,547.57C702.13,545.885 701.661,544.283 701.218,542.757L701.596,544.902C701.695,545.461 701.33,545.997 700.774,546.111C700.218,546.225 699.672,545.875 699.543,545.322L698.947,542.75C699.177,544.221 699.43,545.833 699.712,547.619C699.714,547.631 699.717,547.644 699.719,547.657C699.795,548.137 699.531,548.594 699.103,548.781C699.192,549.362 699.283,549.954 699.376,550.557C699.376,550.56 699.377,550.564 699.377,550.567C699.465,551.137 699.076,551.671 698.506,551.762C698.321,551.791 698.139,551.77 697.975,551.709C697.815,551.915 697.579,552.063 697.301,552.105C696.736,552.19 696.206,551.807 696.111,551.243C696.109,551.231 696.107,551.219 696.105,551.207C696.046,550.855 695.987,550.506 695.929,550.162C695.813,550.565 695.46,550.875 695.017,550.916C694.661,550.948 694.331,550.799 694.118,550.544C694.106,551.204 694.096,551.727 694.089,552.114C694.078,552.679 693.623,553.133 693.058,553.143C692.493,553.152 692.023,552.712 691.994,552.148C691.95,551.268 691.907,550.411 691.865,549.577C691.841,550.124 691.397,550.564 690.845,550.578C690.374,550.59 689.966,550.288 689.824,549.862C689.762,550.94 689.701,551.993 689.642,553.01C689.609,553.567 689.147,554.001 688.589,553.998C688.031,553.994 687.574,553.555 687.549,552.998C687.545,552.929 687.542,552.86 687.539,552.791C687.484,552.799 687.427,552.802 687.37,552.8C686.808,552.785 686.359,552.33 686.351,551.768C686.315,549.398 686.272,547.317 686.231,545.456C686.012,547.132 685.779,548.929 685.532,550.86C685.461,551.411 684.972,551.811 684.418,551.772C683.864,551.733 683.436,551.268 683.444,550.712C683.455,549.95 683.465,549.217 683.475,548.511C683.396,548.524 683.315,548.529 683.232,548.524C682.673,548.491 682.24,548.024 682.247,547.464C682.273,545.54 682.299,543.818 682.333,542.254L681.071,548.043C680.955,548.576 680.449,548.931 679.909,548.859C679.659,548.826 679.441,548.707 679.28,548.535C678.985,549.025 678.665,549.26 678.234,549.547L678.03,549.637C677.962,549.953 677.893,550.275 677.823,550.604C677.706,551.149 677.184,551.507 676.634,551.42C676.084,551.333 675.698,550.831 675.755,550.277C675.777,550.063 675.799,549.851 675.82,549.644L675.648,549.655L675.314,549.559L675.044,549.38C674.98,549.378 674.915,549.369 674.85,549.354C674.289,549.223 673.938,548.663 674.066,548.101C674.067,548.097 674.068,548.092 674.069,548.088C674.079,548.043 674.089,547.998 674.1,547.953C673.939,547.73 673.781,547.589 673.607,547.526C673.477,547.479 673.353,547.526 673.237,547.576C673.07,547.65 672.916,547.755 672.773,547.861C672.39,548.143 672.064,548.433 671.834,548.562L671.32,548.742L671.035,548.749L670.7,548.666L670.39,548.478L670.174,548.238L670.031,547.963L669.947,547.626C669.829,546.799 669.968,546.307 670.67,545.258C670.796,545.068 670.946,544.851 671.121,544.595ZM674.62,545.687C674.786,544.973 674.949,544.279 675.109,543.606C675.102,543.541 675.095,543.473 675.089,543.4C674.688,544.21 674.325,544.913 674.019,545.467C674.085,545.482 674.15,545.499 674.216,545.52C674.347,545.561 674.483,545.615 674.62,545.687Z"/>
                </g>
                <g transform="matrix(1,0,0,1,256,181.559)">
                    <path d="M689.615,471.657C689.423,472.019 688.926,472.97 688.482,473.935C687.024,477.104 684.698,482.33 681.936,486.348C681.47,487.026 679.744,489.333 678.594,492.062C678.779,492.046 678.97,492.08 679.147,492.169C679.665,492.427 679.875,493.058 679.616,493.575C678.536,495.735 678.565,498.878 680.283,500.879C680.393,501.006 680.509,501.129 680.633,501.245C681.981,501.934 683.832,502.425 686.303,502.664C686.837,502.716 687.246,503.163 687.25,503.7C687.254,504.236 686.851,504.689 686.318,504.749C683.153,505.1 680.884,504.283 679.351,502.916C677.867,502.09 676.893,501.064 676.291,499.949C675.092,497.731 675.319,495.058 676.165,492.553C677.332,489.1 679.639,485.989 680.209,485.16C682.9,481.245 685.157,476.147 686.578,473.058C687.247,471.603 687.766,470.563 688.06,470.195L688.273,469.97L688.531,469.795L688.814,469.694L689.073,469.669L689.333,469.705L689.581,469.804L689.924,470.096C690.282,470.551 690.203,471.21 689.748,471.568C689.706,471.601 689.661,471.631 689.615,471.657ZM688.534,471.626C688.438,471.565 688.351,471.486 688.276,471.392C688.355,471.492 688.442,471.569 688.534,471.626Z"/>
                </g>
                <g transform="matrix(1,0,0,1,256,181.559)">
                    <path d="M688.053,468.961C688.059,468.698 688.164,468.436 688.367,468.237C688.596,468.013 688.9,467.916 689.196,467.942C689.204,467.933 689.213,467.924 689.222,467.915C689.631,467.506 690.295,467.506 690.704,467.915C692.868,470.078 694.723,474.372 696.614,478.679C698.378,482.695 700.168,486.729 702.451,488.727C705.186,491.12 706.092,493.478 706.048,495.583C706.007,497.561 705.105,499.356 703.916,500.822C702.201,502.938 699.903,504.348 699.073,504.68C690.481,508.117 684.427,505.726 682.546,505.608C679.28,505.404 677.211,504.302 675.999,502.69C674.79,501.081 674.413,498.906 674.695,496.391C675.038,493.343 676.347,489.76 678.047,486.188C681.721,478.473 687.225,470.794 688.053,468.961ZM689.835,470.082C688.654,472.328 683.462,479.693 679.94,487.09C678.349,490.43 677.099,493.774 676.778,496.625C676.564,498.536 676.756,500.208 677.675,501.43C678.591,502.649 680.207,503.362 682.677,503.516C684.454,503.627 690.177,505.981 698.294,502.734C698.983,502.458 700.865,501.257 702.288,499.502C703.192,498.388 703.921,497.042 703.952,495.539C703.986,493.914 703.182,492.152 701.071,490.304C698.609,488.151 696.596,483.851 694.695,479.522C693.104,475.899 691.594,472.257 689.835,470.082ZM688.236,469.578C688.271,469.63 688.31,469.677 688.351,469.719C688.308,469.675 688.269,469.628 688.236,469.578Z" style="fill:rgb(237,236,218);"/>
                </g>
                <g transform="matrix(1,0,0,1,256,181.559)">
                    <path d="M681.104,504.743C681.287,504.195 681.881,503.898 682.43,504.081C682.978,504.263 683.275,504.858 683.093,505.406C682.823,506.216 682.821,507.424 682.708,509.136C682.423,513.488 681.626,520.845 675.684,532.73C669.506,545.085 668.793,544.619 666.385,548.23C666.064,548.712 665.413,548.842 664.932,548.521C664.45,548.2 664.32,547.549 664.641,547.068C667.014,543.508 667.72,543.969 673.809,531.792C679.551,520.307 680.341,513.204 680.617,508.999C680.745,507.044 680.795,505.669 681.104,504.743Z" style="fill:rgb(237,236,218);"/>
                </g>
                <g transform="matrix(1,0,0,1,256,181.559)">
                    <path d="M698.02,505.023C698.03,505.094 698.076,505.441 698.137,505.834C698.7,509.507 701.111,523.523 704.812,533.904C706.346,538.207 708.077,541.882 710.025,543.83C721.254,555.059 720.645,565.423 721.734,568.69C721.917,569.239 721.62,569.833 721.071,570.016C720.523,570.199 719.929,569.902 719.746,569.353C718.694,566.2 719.381,556.15 708.543,545.313C706.435,543.205 704.497,539.264 702.837,534.608C699.085,524.083 696.636,509.876 696.065,506.152C695.974,505.563 695.93,505.211 695.927,505.142L695.935,504.929L696.004,504.676L696.232,504.334C696.641,503.925 697.306,503.925 697.715,504.334C697.906,504.525 698.008,504.772 698.02,505.023Z" style="fill:rgb(237,236,218);"/>
                </g>
                <g transform="matrix(1,0,0,1,256,181.559)">
                    <path d="M697.07,542.071C697.095,542.06 697.121,542.05 697.147,542.041C697.161,542.036 697.174,542.032 697.187,542.028C697.327,541.857 697.521,541.728 697.751,541.672C697.765,541.669 697.778,541.666 697.791,541.663L697.826,541.621C697.325,538.799 697.142,536.328 697.496,534.913C697.529,534.782 697.565,534.668 697.601,534.575L697.739,534.3L697.926,534.071L698.147,533.902L698.437,533.782L698.783,533.749L699.102,533.815L699.342,533.936C699.509,534.045 699.827,534.365 700.078,535.123C700.377,536.021 700.817,537.933 701.503,541.464C701.625,541.598 701.785,541.839 701.926,542.239C702.115,542.777 702.35,543.782 702.624,545.425C702.911,547.146 702.95,547.865 702.928,547.986L702.799,548.339L702.783,548.358C702.999,549.559 703.23,550.855 703.477,552.254C703.503,552.403 703.497,552.552 703.462,552.691C703.623,553.873 703.796,555.251 703.998,556.927C704.063,557.464 703.709,557.962 703.181,558.077C702.653,558.192 702.124,557.887 701.96,557.372C701.775,556.795 701.082,554.623 700.285,551.821L700.18,551.944L699.954,552.109L699.743,552.201L699.309,552.253L698.91,552.147L698.55,551.885C698.406,551.733 698.204,551.391 698.051,550.842C697.873,550.205 697.675,549.137 697.416,547.79C696.239,546.104 695.152,543.713 693.927,538.511C693.795,537.948 694.144,537.384 694.707,537.251C695.27,537.119 695.835,537.468 695.968,538.031C696.345,539.635 696.711,540.959 697.07,542.071Z"/>
                </g>
                <g transform="matrix(1,0,0,1,256,181.559)">
                    <path d="M699.231,543.033C699.401,542.539 699.918,542.237 700.442,542.35C701.007,542.471 701.368,543.029 701.247,543.594L701.126,543.93C701.099,543.989 701.053,544.108 701.005,544.238C701.512,544.186 701.995,544.511 702.126,545.02C702.27,545.58 701.932,546.152 701.372,546.296C700.035,546.64 699.379,546.22 699.064,545.821L698.892,545.549L698.787,545.274L698.73,544.966C698.717,544.837 698.718,544.701 698.731,544.561C698.783,544.018 699.18,543.143 699.231,543.033Z"/>
                </g>
                <g transform="matrix(1,0,0,1,256,181.559)">
                    <path d="M701.06,543.503C701.457,543.924 701.438,544.587 701.017,544.984C700.596,545.381 699.932,545.361 699.535,544.941C698.548,543.893 698.132,543.188 697.969,542.524C697.858,542.074 697.855,541.631 697.928,541.106C698.006,540.536 698.186,539.834 698.329,538.787C698.407,538.214 698.936,537.812 699.509,537.891C700.082,537.969 700.484,538.498 700.406,539.071C700.285,539.96 700.137,540.605 700.045,541.132C699.984,541.481 699.937,541.75 700.004,542.024C700.107,542.443 700.437,542.842 701.06,543.503Z"/>
                </g>
                <g transform="matrix(1,0,0,1,256,181.559)">
                    <path d="M701.631,544.004C702.037,544.416 702.033,545.08 701.621,545.486C701.209,545.892 700.545,545.888 700.138,545.476C698.805,544.123 698.812,544.278 698.351,542.432C698.21,541.871 698.552,541.301 699.113,541.161C699.674,541.021 700.244,541.362 700.384,541.924C700.701,543.192 700.714,543.075 701.631,544.004Z"/>
                </g>
            </g>
            <g id="black-pawn" serif:id="black pawn">
            </g>
        </g>
    </g>
</svg>
