<?xml version="1.0" encoding="UTF-8" standalone="no"?>
<!DOCTYPE svg PUBLIC "-//W3C//DTD SVG 1.1//EN" "http://www.w3.org/Graphics/SVG/1.1/DTD/svg11.dtd">
<svg width="100%" height="100%" viewBox="0 0 76 135" version="1.1" xmlns="http://www.w3.org/2000/svg" xmlns:xlink="http://www.w3.org/1999/xlink" xml:space="preserve" xmlns:serif="http://www.serif.com/" style="fill-rule:evenodd;clip-rule:evenodd;stroke-linejoin:round;stroke-miterlimit:2;">
    <g transform="matrix(1,0,0,1,-690.565,-565.695)">
        <g transform="matrix(1,0,0,1,-256,-181.559)">
            <g transform="matrix(1,0,0,1,125.074,94.8056)">
                <g>
                    <g transform="matrix(1,0,0,1,256,181.559)">
                        <path d="M574.73,590.302C575.235,589.426 576.357,589.125 577.232,589.63C578.108,590.136 578.409,591.257 577.904,592.133C574.87,597.392 574.39,598.232 572.187,601.957C587.639,601.122 588.113,599.342 598.752,600.029C613.23,600.963 630.167,599.613 634.111,600.599C635.092,600.844 635.69,601.839 635.445,602.82C635.199,603.801 634.204,604.399 633.223,604.153C629.352,603.186 612.727,604.602 598.516,603.685C587.295,602.961 587.528,605.047 568.953,605.776C568.282,605.802 567.651,605.46 567.307,604.883C566.964,604.307 566.963,603.588 567.305,603.011C571.139,596.54 571.045,596.688 574.73,590.302Z" style="fill:rgb(237,236,218);"/>
                    </g>
                    <g transform="matrix(1,0,0,1,256,181.559)">
                        <path d="M630.499,587.359C630.549,587.352 630.6,587.348 630.651,587.345C631.661,587.296 632.521,588.077 632.569,589.087L632.503,589.702L632.366,590.022C634.183,592.503 637.313,596.948 638.299,600.894C638.544,601.875 637.947,602.87 636.966,603.115C635.985,603.361 634.989,602.763 634.744,601.782C633.722,597.693 630.063,593.058 628.649,591.147C628.259,590.62 628.004,590.236 627.909,590.049L627.685,589.229L627.752,588.614L627.961,588.126L628.427,587.603L628.95,587.315L629.475,587.202L629.962,587.218C630.082,587.236 630.303,587.298 630.499,587.359ZM628.963,588.723C628.92,588.883 628.899,589.061 628.909,589.263C628.9,589.077 628.919,588.895 628.963,588.723Z" style="fill:rgb(237,236,218);"/>
                    </g>
                    <g transform="matrix(1,0,0,1,256,181.559)">
                        <path d="M574.774,596.112C575.333,595.23 575.995,594.251 577.212,592.504C577.541,592.033 578.073,591.743 578.647,591.721C579.44,591.692 580.218,591.663 580.982,591.637C581.222,591.481 581.475,591.318 581.743,591.145C580.231,591.068 579.131,591.004 578.547,590.97C577.537,590.912 576.765,590.045 576.823,589.036C576.882,588.026 577.748,587.254 578.758,587.312C582.345,587.519 605.605,588.864 623.675,587.573C627.154,587.325 629.217,587.734 630.522,588.661C631.474,589.337 632.126,590.285 632.553,591.617C633.006,593.028 633.197,594.988 633.448,597.623C634.019,597.908 634.419,598.483 634.458,599.156C634.501,599.894 634.1,600.562 633.476,600.887C633.191,601.432 632.639,601.821 631.981,601.868L631.934,601.871L628.348,602.127C628.129,602.143 627.916,602.119 627.716,602.062L626.225,602.13C625.34,602.17 624.566,601.574 624.362,600.736L621.194,600.599C609.295,601.464 589.993,602.776 573.676,603.454C573.002,603.482 572.368,603.138 572.024,602.558C571.747,602.092 571.695,601.534 571.865,601.033C571.814,600.978 571.765,600.919 571.72,600.857C571.152,600.074 571.29,598.984 572.036,598.368C573.157,597.442 574.033,596.717 574.774,596.112ZM578.308,599.58C578.087,599.462 577.892,599.3 577.736,599.103C577.48,599.261 577.214,599.426 576.937,599.598C576.928,599.614 576.919,599.629 576.909,599.645C577.374,599.624 577.84,599.602 578.308,599.58ZM585.84,591.337C585.853,591.383 585.864,591.43 585.873,591.477C586.55,591.457 587.215,591.438 587.869,591.42C587.163,591.393 586.485,591.365 585.84,591.337ZM625.654,591.137L625.873,591.414L626.078,591.843L626.086,591.884L626.425,591.789C627.068,591.608 627.73,591.794 628.183,592.226C628.305,592.231 628.426,592.236 628.547,592.241C628.671,592.246 628.792,592.263 628.908,592.291C628.786,592.027 628.628,591.811 628.401,591.649C627.797,591.22 626.924,591.107 625.654,591.137ZM629.564,595.547C629.433,595.643 629.29,595.723 629.136,595.782C629.285,595.792 629.437,595.803 629.592,595.815C629.583,595.724 629.573,595.635 629.564,595.547ZM584.827,595.176C584.806,595.214 584.785,595.254 584.763,595.295C585.013,595.248 585.274,595.201 585.547,595.153C585.308,595.161 585.068,595.168 584.827,595.176Z" style="fill:rgb(237,236,218);"/>
                    </g>
                    <g transform="matrix(1,0,0,1,256,181.559)">
                        <path d="M590.495,536.149C591.111,535.347 592.262,535.197 593.064,535.814C593.865,536.43 594.016,537.581 593.399,538.383C578.434,557.842 575.407,571.04 576.737,579.784C578.001,588.09 583.254,592.094 584.955,593.395C585.759,594.009 585.912,595.16 585.298,595.963C584.684,596.767 583.533,596.92 582.73,596.306C580.735,594.781 574.597,590.074 573.115,580.335C571.699,571.033 574.572,556.852 590.495,536.149Z" style="fill:rgb(237,236,218);"/>
                    </g>
                    <g transform="matrix(1,0,0,1,256,181.559)">
                        <path d="M610.69,538.545C609.936,538.385 609.335,537.756 609.248,536.948C609.139,535.943 609.867,535.039 610.873,534.93L611.708,535L612.469,535.328C613.029,535.652 613.867,536.354 614.867,537.375C619.824,542.437 629.821,555.979 631.772,561.833C634.813,570.957 634.643,577.473 633.249,582.181C631.15,589.276 626.219,592.352 624.614,594.038C623.916,594.77 622.756,594.798 622.023,594.101C621.291,593.404 621.263,592.243 621.96,591.511C623.379,590.021 627.881,587.411 629.736,581.141C630.979,576.94 631.01,571.134 628.296,562.992C626.452,557.461 616.932,544.721 612.249,539.939C611.665,539.343 610.904,538.718 610.69,538.545Z" style="fill:rgb(237,236,218);"/>
                    </g>
                    <g transform="matrix(1,0,0,1,256,181.559)">
                        <path d="M584.182,553.403C587.316,546.482 587.757,545.673 590.208,540.287C590.233,540.201 590.265,540.115 590.304,540.03L591.447,537.552L591.453,537.538C591.876,536.622 592.959,536.22 593.877,536.639C594.101,536.741 594.294,536.882 594.453,537.051L594.947,537.268L595.168,537.259L595.838,537.45L596.261,537.757C596.725,537.23 597.47,536.998 598.179,537.217C599.111,537.505 599.654,538.474 599.413,539.42C596.936,549.146 596.646,549.681 594.856,558.307C595.105,558.791 595.136,559.381 594.891,559.913C594.531,560.693 594.013,561.425 593.838,561.566L593.1,561.932L592.437,561.97L591.995,561.86L591.594,561.644L591.243,561.32L590.966,560.874L590.838,560.375L590.4,560.585L589.7,560.642L589.043,560.441L588.557,560.071L588.256,559.642L588.068,559.044L588.107,558.367C587.596,558.861 586.821,559.032 586.124,558.74C585.197,558.352 584.756,557.289 585.136,556.358C585.14,556.348 585.144,556.337 585.148,556.327C585.202,556.196 585.255,556.066 585.308,555.937C585.228,555.913 585.149,555.883 585.071,555.847C584.157,555.425 583.755,554.345 584.17,553.428C584.174,553.419 584.178,553.411 584.182,553.403Z" style="fill:rgb(237,236,218);"/>
                    </g>
                    <g transform="matrix(1,0,0,1,256,181.559)">
                        <path d="M588.016,535.408C588.901,534.92 590.017,535.242 590.505,536.127C590.993,537.013 590.671,538.128 589.786,538.616C588.832,539.142 587.366,540.912 585.761,543.495C581.643,550.124 577.133,562.003 579.59,574.901C579.779,575.894 579.126,576.854 578.133,577.044C577.14,577.233 576.18,576.58 575.99,575.587C573.329,561.615 578.188,548.743 582.648,541.562C584.72,538.226 586.785,536.087 588.016,535.408Z" style="fill:rgb(237,236,218);"/>
                    </g>
                    <g transform="matrix(1,0,0,1,256,181.559)">
                        <path d="M581.007,545.15C580.883,544.763 580.886,544.331 581.046,543.923L581.054,543.902L584.023,536.315C584.103,536.11 584.216,535.928 584.354,535.772C584.697,534.945 585.581,534.498 586.435,534.685C586.921,534.12 587.725,533.888 588.463,534.163C589.132,534.412 589.569,535.009 589.645,535.672L589.742,535.729L590.042,536.015L590.277,536.372L590.432,536.81L590.475,537.249L590.385,537.817C590.296,538.138 589.94,539.134 589.034,541.953L589.373,542.075L589.741,542.354L590.055,542.732C590.216,542.978 590.391,543.456 590.567,544.036C590.86,545.004 590.313,546.028 589.346,546.321C589.162,546.377 588.977,546.402 588.795,546.401C588.601,546.844 588.346,547.459 587.98,548.352L588.379,548.186L589.107,548.157L589.58,548.299L589.939,548.511L590.324,548.9L590.371,548.981L590.393,548.939L590.691,548.601L591.075,548.333L591.735,548.13L592.5,548.204L593.146,548.56L593.558,549.047C593.606,549.128 593.671,549.288 593.737,549.522C593.963,547.819 594.171,546.309 594.349,545.135C594.546,543.832 594.718,542.906 594.831,542.516L595.218,541.724L595.665,541.312L596.331,541.041L597.095,541.054L597.732,541.335L598.212,541.819L598.487,542.428C598.499,542.474 598.511,542.548 598.521,542.65C598.678,541.897 598.848,541.045 599.035,540.06C599.217,539.097 600.125,538.448 601.095,538.587C601.809,538.689 602.371,539.192 602.58,539.84C602.801,539.782 603.037,539.765 603.278,539.797C603.412,539.814 603.541,539.846 603.663,539.89C603.805,539.191 603.924,538.686 604.011,538.436L604.232,537.955L604.583,537.525L605.043,537.214L605.57,537.053L606.273,537.084L606.872,537.348L607.291,537.735L607.549,538.165L607.709,538.858L607.778,538.831L608.249,538.793L608.718,538.878L609.382,539.256L609.79,539.777L609.95,540.293C609.968,540.207 609.985,540.123 610.002,540.042C610.156,539.314 610.305,538.783 610.404,538.542L610.798,537.903L611.126,537.618L611.515,537.413L611.981,537.301L612.525,537.324L613.025,537.497L613.392,537.745L613.864,538.374L614.016,538.939C614.186,538.903 614.363,538.891 614.544,538.905C615.528,538.984 616.272,539.828 616.228,540.814C615.901,548.092 616.013,548.665 616.343,554.669C616.413,554.862 616.45,555.07 616.45,555.286L616.45,556.72C616.45,557.713 615.658,558.526 614.665,558.551C614.574,558.554 614.485,558.549 614.397,558.539C614.179,559.32 613.459,559.882 612.619,559.875C611.655,559.867 610.861,559.114 610.804,558.151C610.788,557.87 610.771,557.599 610.754,557.338C610.559,558.246 610.394,558.866 610.258,559.243L609.88,560.012L609.416,560.499L608.951,560.759L608.511,560.873L608.092,560.883L607.682,560.8L607.005,560.418L606.849,560.244C606.754,560.537 606.666,560.726 606.606,560.828L606.225,561.299L605.826,561.574L605.288,561.755L604.618,561.747L604.134,561.581L603.945,561.444C603.781,562.473 603.671,563.168 603.641,563.377C603.502,564.34 602.634,565.026 601.665,564.94C601.411,564.917 601.174,564.844 600.963,564.731L600.808,564.962L600.369,565.294L599.866,565.486L599.321,565.529L598.772,565.409L598.626,565.332C598.51,566.062 598.408,566.623 598.32,567.031C598.163,567.751 597.984,568.172 597.872,568.361L597.439,568.879L596.988,569.164L596.497,569.308L595.919,569.303L595.291,569.079L594.914,568.757C594.811,569.464 594.716,570.089 594.629,570.612C594.473,571.559 594.33,572.219 594.234,572.508L593.862,573.206L593.546,573.515L593.148,573.749L592.653,573.884L592.069,573.867L591.64,573.728L591.307,573.53L591.15,573.353C591.113,573.466 591.077,573.557 591.045,573.627L590.596,574.268L589.941,574.679L589.22,574.793L588.67,574.687L588.245,574.472L587.92,574.193L587.877,574.134L587.641,574.756L587.185,575.315L586.575,575.658L585.968,575.755L585.355,575.647L584.736,575.28L584.31,574.733L584.088,574.108C584.064,574.004 584.041,573.869 584.019,573.706L583.83,573.923L583.434,574.223L582.7,574.475L582.221,574.476L581.717,574.341L581.223,574.035L580.813,573.545L580.553,572.85C580.532,572.744 580.513,572.603 580.499,572.423C580.403,572.438 580.305,572.446 580.206,572.445C579.909,572.606 579.565,572.686 579.205,572.661C578.223,572.592 577.471,571.759 577.503,570.775C577.943,556.905 578.132,553.939 581.007,545.15Z" style="fill:rgb(237,236,218);"/>
                    </g>
                    <g transform="matrix(1,0,0,1,256,181.559)">
                        <path d="M615.4,543.65C616.175,543.354 617.076,543.616 617.563,544.327L618.619,545.869C618.858,546.006 619.07,546.2 619.232,546.445L625.943,556.567L625.958,556.589C626.189,556.937 626.285,557.334 626.26,557.721C626.376,557.871 626.483,558.001 626.579,558.109C626.585,558.117 626.592,558.125 626.6,558.133C627.265,558.54 627.621,559.345 627.422,560.141C627.177,561.122 626.181,561.719 625.2,561.474L624.758,561.307L624.38,561.065C624.088,560.837 623.596,560.294 623.024,559.502C622.627,558.953 622.162,558.262 621.663,557.494C621.397,557.368 621.157,557.177 620.971,556.924C616.635,551.033 616.821,550.988 612.118,545.445C611.464,544.674 611.559,543.517 612.33,542.863C613.101,542.209 614.258,542.304 614.912,543.075C615.081,543.273 615.243,543.465 615.4,543.65Z" style="fill:rgb(237,236,218);"/>
                    </g>
                    <g transform="matrix(1,0,0,1,256,181.559)">
                        <path d="M583.122,540.452C583.931,539.846 585.08,540.01 585.687,540.82C586.293,541.629 586.128,542.778 585.319,543.385C582.835,545.247 580.82,548.533 579.267,552.496C576.808,558.768 575.568,566.723 575.851,573.932C576.036,578.629 576.862,583.007 578.469,586.352C579.439,588.37 580.685,589.999 582.29,591.001C583.147,591.537 583.408,592.669 582.872,593.526C582.336,594.384 581.205,594.645 580.348,594.109C575.259,590.928 572.544,583.067 572.19,574.076C571.887,566.369 573.227,557.864 575.855,551.159C577.693,546.471 580.183,542.655 583.122,540.452Z" style="fill:rgb(237,236,218);"/>
                    </g>
                    <g transform="matrix(1,0,0,1,256,181.559)">
                        <path d="M576.15,585.595C577.351,587.151 578.832,588.566 580.628,589.785C581.464,590.353 581.682,591.494 581.114,592.33C580.546,593.167 579.406,593.385 578.569,592.817C570.142,587.095 567.515,577.755 568.265,568.736C569.005,559.847 573.061,551.333 577.778,547.088C578.462,546.472 579.499,546.46 580.197,547.06C580.896,547.661 581.04,548.687 580.534,549.457C579.657,550.79 575.303,557.432 573.986,568.297C572.798,578.096 576.656,580.693 578.168,582.764C578.764,583.581 578.584,584.728 577.768,585.324C577.283,585.678 576.683,585.759 576.15,585.595Z" style="fill:rgb(237,236,218);"/>
                    </g>
                    <g transform="matrix(1,0,0,1,256,181.559)">
                        <path d="M576.794,569.611C577.005,569.165 577.394,568.805 577.899,568.645C578.356,568.501 578.829,568.545 579.233,568.735C579.185,568.495 579.145,568.281 579.113,568.097C579.011,567.498 579,567.082 579.019,566.894L579.147,566.361L579.374,565.945L579.684,565.612L579.994,565.401L580.477,565.221L580.976,565.18L581.439,565.265L581.89,565.479L582.461,566.046C582.521,566.135 582.61,566.309 582.728,566.577C582.966,566.184 583.351,565.88 583.829,565.754C584.779,565.503 585.758,566.047 586.047,566.987C586.258,567.673 586.465,568.341 586.669,568.99C586.909,568.657 587.262,568.402 587.688,568.29C587.836,568.251 587.984,568.231 588.131,568.229C588.273,567.592 588.752,567.054 589.421,566.865C590.374,566.596 591.367,567.132 591.666,568.075C591.838,568.618 592.551,570.882 593.494,573.803C593.005,571.106 592.626,569.054 592.528,568.519C592.352,567.563 592.952,566.636 593.897,566.407C594.841,566.177 595.801,566.725 596.083,567.655C596.181,567.978 596.444,568.846 596.825,570.077C596.922,569.522 597.274,569.032 597.784,568.767C597.251,565.863 597.166,564.114 596.983,563.216C596.975,563.175 596.966,563.134 596.957,563.095C596.955,563.085 596.953,563.075 596.95,563.065C596.735,562.083 597.353,561.11 598.334,560.887C598.396,560.873 598.457,560.863 598.519,560.855C598.489,560.662 598.459,560.469 598.427,560.276C598.375,559.99 598.322,559.694 598.265,559.388C598.264,559.381 598.263,559.374 598.261,559.366C598.079,558.375 598.732,557.423 599.721,557.235C600.647,557.059 601.544,557.614 601.814,558.496C602.014,558.364 602.242,558.271 602.491,558.225C603.033,558.126 603.564,558.277 603.965,558.597C603.953,557.733 603.93,556.87 603.872,556.01C603.835,555.594 603.796,555.166 603.756,554.725C603.755,554.71 603.753,554.695 603.752,554.68C603.661,553.681 604.391,552.795 605.388,552.692C606.386,552.589 607.281,553.307 607.397,554.304C607.398,554.319 607.4,554.334 607.401,554.348C607.446,554.743 607.481,555.139 607.509,555.535C607.519,555.648 607.529,555.759 607.538,555.87C607.794,555.293 608.34,554.865 609.009,554.789C609.984,554.678 610.873,555.356 611.025,556.325C611.219,557.558 611.398,558.695 611.566,559.751C611.79,559.59 612.053,559.478 612.343,559.431C613.326,559.274 614.255,559.93 614.435,560.909C614.452,560.998 614.468,561.086 614.484,561.174C615.299,561.212 616.012,561.793 616.189,562.622C616.359,563.418 616.516,564.162 616.662,564.859C616.922,564.4 617.378,564.057 617.935,563.958C618.89,563.787 619.813,564.391 620.039,565.335C620.442,567.021 620.789,568.488 621.098,569.793C621.257,569.702 621.433,569.633 621.622,569.593C622.588,569.386 623.544,569.982 623.783,570.94C624.308,573.041 624.742,574.779 625.117,576.28C625.188,576.397 625.246,576.523 625.29,576.658C625.711,577.942 627.484,583.348 630.994,592.561C630.994,592.562 630.995,592.563 630.995,592.564C631.318,593.411 630.971,594.348 630.216,594.794C630.264,594.958 630.313,595.124 630.363,595.292C630.368,595.31 630.374,595.328 630.379,595.346C630.662,596.306 630.121,597.316 629.165,597.613C628.209,597.91 627.192,597.385 626.88,596.433C626.875,596.416 626.869,596.398 626.863,596.38C626.495,595.254 626.167,594.249 625.874,593.339C624.944,593.574 623.989,593.053 623.686,592.142C623.644,592.016 623.602,591.891 623.561,591.767L623.518,591.982L623.13,592.593L622.481,593.039L622.045,593.159L621.616,593.172L621.188,593.084L620.756,592.879L620.161,592.292C620.061,592.146 619.929,591.909 619.792,591.599L619.693,591.716L619.265,591.962L618.74,592.09L618.151,592.047L617.579,591.802L617.132,591.394L616.87,590.938C616.856,590.902 616.794,590.713 616.705,590.375C616.67,590.24 616.635,590.106 616.6,589.974C615.862,589.928 615.199,589.436 614.966,588.695L614.253,586.435L614.324,586.816C614.5,587.757 613.921,588.676 612.995,588.923C612.354,589.093 611.697,588.902 611.248,588.468C611.058,588.622 610.834,588.739 610.585,588.808C609.781,589.03 608.947,588.68 608.53,587.992C608.386,588.166 608.208,588.314 608.005,588.426L607.984,588.823L607.697,589.477L607.369,589.841L607.038,590.067L606.639,590.194C606.721,590.561 606.758,590.714 606.805,590.909C606.97,591.587 606.735,592.273 606.245,592.71C606.394,593.987 606.09,594.571 605.464,595.354L604.858,595.867L604.421,596.045L603.953,596.115L603.475,596.072L602.938,595.879L602.434,595.524L601.993,595.032C601.539,594.424 600.908,593.124 600.193,591.396C600.248,591.885 600.259,592.226 600.248,592.389L600.101,593.039L599.779,593.563L599.314,593.956L598.758,594.178L598.183,594.216L597.748,594.126L597.312,593.918L596.881,593.553L596.463,592.962C596.368,592.797 596.258,592.576 596.135,592.306L595.922,592.449L595.434,592.614L594.937,592.639L594.525,592.555L593.864,592.176L593.436,591.627C593.36,591.487 593.219,591.157 593.033,590.598C592.879,590.137 592.732,589.697 592.592,589.276L592.282,589.494L591.59,589.674L591.15,589.642C591.222,589.951 591.296,590.268 591.372,590.594C591.593,591.537 591.042,592.489 590.114,592.766C589.289,593.014 588.419,592.652 588.002,591.928L587.979,591.975L587.395,592.48L586.973,592.65L586.538,592.712L586.114,592.673L585.663,592.517L585.005,591.991C584.939,591.912 584.849,591.774 584.74,591.583L584.513,591.816L584.112,592.047L583.638,592.182L583.169,592.194L582.773,592.114L582.488,591.961C582.458,592.791 581.865,593.519 581.02,593.689C580.047,593.886 579.094,593.272 578.872,592.304C576.48,581.909 576.473,582.012 574.235,571.662C574.022,570.673 574.651,569.697 575.639,569.484C576.043,569.396 576.446,569.45 576.794,569.611Z" style="fill:rgb(237,236,218);"/>
                    </g>
                    <g transform="matrix(1,0,0,1,256,181.559)">
                        <path d="M613.876,548.392C614.456,548.33 615.026,548.552 615.413,548.971C615.64,548.634 615.98,548.369 616.397,548.242C617.335,547.955 618.332,548.457 618.66,549.381C618.691,549.467 618.721,549.552 618.751,549.636C618.845,549.616 618.94,549.603 619.034,549.597C619.108,549.557 619.185,549.522 619.266,549.492C620.199,549.141 621.242,549.6 621.612,550.526C621.784,550.958 621.912,551.335 622.028,551.702L623,554.459C623.013,554.454 623.026,554.449 623.04,554.444C623.952,554.116 624.962,554.556 625.344,555.447C625.512,555.84 625.599,556.067 625.984,557.011C626.87,556.852 627.754,557.364 628.044,558.235L628.591,559.876C628.689,560.019 628.768,560.179 628.823,560.353L630.47,565.513L630.477,565.535C630.623,565.991 630.58,566.462 630.393,566.864C631.554,571.992 631.317,572.108 631.334,572.521C631.391,573.894 631.388,574.678 631.354,574.998L631.263,575.452L631.086,575.86L631.025,575.938C631.045,576.21 631.059,576.456 631.067,576.68C631.107,577.827 630.983,578.531 630.843,578.928L630.828,578.958C630.852,581.597 630.691,584.02 630.373,585.109C630.293,585.382 630.201,585.607 630.109,585.784L629.723,586.336L629.217,586.734L628.705,586.937L628.038,586.983L627.443,586.83L626.945,586.529L626.516,586.078C626.194,585.643 625.729,584.568 625.289,582.588C625.128,581.863 624.987,581.118 624.863,580.367C624.531,580.236 624.242,580.01 624.035,579.716C623.193,579.788 622.396,579.269 622.135,578.447L621.945,578.359L621.481,578.002L621.028,577.47C620.672,576.965 620.281,576.147 619.918,575.142C619.482,573.935 619.064,572.431 618.722,570.964C618.139,570.827 617.636,570.408 617.417,569.807C612.609,556.609 612.62,556.7 612.225,555.553C611.587,553.706 611.208,551.777 610.571,549.93C610.269,549.055 610.667,548.092 611.498,547.686C612.33,547.28 613.334,547.557 613.839,548.333L613.876,548.392Z" style="fill:rgb(237,236,218);"/>
                    </g>
                    <g transform="matrix(1,0,0,1,256,181.559)">
                        <path d="M618.953,541.786L618.831,541.785L618.476,541.667L618.231,541.484C617.822,541.075 617.822,540.41 618.231,540.001C618.421,539.811 618.666,539.71 618.916,539.696C618.854,539.704 618.789,539.718 618.72,539.739L618.992,539.695C619.254,539.7 619.514,539.802 619.713,540.001C619.577,539.866 619.354,539.688 619.027,539.689L619.276,539.649L619.739,539.738L620.216,540.024L620.568,540.43C630.822,555.811 635.003,559.019 634.552,580.664C634.427,586.662 629.739,590.762 623.276,593.237C614.054,596.767 601.269,597.027 594.575,595.539C590.632,594.663 586.712,594.287 583.143,593.546C579.376,592.765 575.993,591.572 573.32,589.112C569.793,585.867 567.448,580.372 567.283,570.436C567.186,564.586 569.377,558.343 572.081,552.944C576.065,544.991 581.132,538.887 581.264,538.704C581.601,538.234 582.257,538.127 582.727,538.465C583.196,538.803 583.303,539.458 582.965,539.928C582.836,540.108 577.861,546.086 573.955,553.883C571.4,558.985 569.287,564.873 569.379,570.401C569.53,579.506 571.508,584.596 574.74,587.57C577.136,589.775 580.192,590.793 583.569,591.494C587.146,592.236 591.077,592.615 595.029,593.493C601.443,594.918 613.691,594.661 622.526,591.279C628.101,589.145 632.348,585.794 632.456,580.62C632.892,559.704 628.811,556.548 618.953,541.786ZM618.916,539.696C618.954,539.691 618.991,539.689 619.027,539.689L618.992,539.695C618.966,539.694 618.941,539.695 618.916,539.696ZM619.337,541.738C619.358,541.734 619.377,541.729 619.396,541.723L619.337,541.738Z"/>
                    </g>
                    <g transform="matrix(1,0,0,1,256,181.559)">
                        <path d="M638.297,601.496C638.097,601.041 637.724,600.239 637.31,599.563C634.972,595.754 630.162,589.714 629.407,589.148C628.944,588.801 628.85,588.143 629.197,587.68C629.544,587.218 630.202,587.124 630.664,587.471C631.581,588.159 638.189,596.401 639.997,600.071C640.426,600.94 640.583,601.641 640.54,602.042L640.438,602.449L640.272,602.74L640.065,602.958L639.815,603.121C637.6,604.229 632.971,604.685 627.183,604.78C614.222,604.995 595.239,603.585 585.688,605.404C584.627,605.606 584.624,605.532 566.511,605.052C566.17,605.042 565.854,604.867 565.665,604.582C565.476,604.297 565.439,603.938 565.564,603.62C568.766,595.475 568.672,595.528 573.085,587.964C573.377,587.464 574.019,587.295 574.518,587.587C575.018,587.878 575.187,588.52 574.896,589.02C570.832,595.987 570.663,596.371 568.061,602.996C584.258,603.432 584.29,603.536 585.295,603.345C594.929,601.51 614.076,602.901 627.148,602.685C632.054,602.603 636.073,602.327 638.297,601.496Z"/>
                    </g>
                </g>
                <g transform="matrix(1,0,0,1,256,181.559)">
                    <path d="M588.596,524.096C588.761,523.784 588.94,523.446 589.134,523.076C589.177,522.996 589.229,522.923 589.287,522.858C589.77,521.927 590.303,521.072 591.281,519.441C591.346,519.324 591.412,519.208 591.481,519.09C592.988,515.323 594.199,512.76 595.13,511.058C595.538,505.639 595.838,505.08 597.145,498.599C597.245,498.105 597.678,497.759 598.168,497.758C598.505,496.362 598.679,495.685 598.72,495.575L598.879,495.284L599.026,495.129L599.245,494.983L599.579,494.882L599.857,494.887C599.873,494.836 599.889,494.786 599.905,494.734C600.065,494.225 600.584,493.918 601.108,494.021C601.514,494.102 601.822,494.409 601.92,494.79C601.979,494.522 602.039,494.248 602.101,493.969C602.223,493.416 602.764,493.06 603.32,493.166C603.406,493.183 603.488,493.209 603.564,493.244C603.992,491.691 604.276,490.731 604.424,490.228C604.588,489.673 605.171,489.356 605.726,489.52C606.281,489.683 606.598,490.267 606.434,490.821C606.255,491.429 605.876,492.713 605.282,494.912C605.279,494.988 605.268,495.065 605.249,495.141C605.247,495.148 605.245,495.154 605.243,495.161C605.204,495.315 605.138,495.57 605.051,495.909C605.297,495.678 605.651,495.569 606.005,495.65C606.566,495.779 606.918,496.336 606.794,496.898C606.793,496.903 606.792,496.908 606.791,496.913C604.192,508.668 603.395,509.743 603.07,515.54C603.142,515.524 603.216,515.516 603.291,515.515C603.942,512.623 604.912,508.401 606.453,502.343C606.456,502.33 606.459,502.317 606.462,502.304C606.603,501.751 607.161,501.412 607.717,501.542C608.273,501.672 608.622,502.223 608.503,502.782C608.5,502.794 608.497,502.807 608.494,502.821C608.209,504.155 606.341,512.921 605.672,518.92C605.608,519.496 605.554,520.046 605.515,520.56C606.344,517.88 607.66,513.391 609.892,506.18C610.053,505.658 610.589,505.348 611.122,505.467C611.655,505.586 612.007,506.095 611.931,506.636C611.883,506.979 611.718,508.147 611.499,509.719L611.595,509.654L611.908,509.55L612.203,509.538L612.473,509.599L612.716,509.724L612.954,509.945L613.126,510.239L613.207,510.548L613.226,510.872C613.215,511.757 612.583,514.765 611.528,520.255L611.668,520.383L611.906,520.838C612.116,520.532 612.482,520.348 612.876,520.387C613.443,520.444 613.86,520.943 613.816,521.511C613.802,521.69 613.776,522.036 613.739,522.517C613.745,522.517 613.751,522.517 613.757,522.517C614.319,522.542 614.762,523.007 614.758,523.571C614.758,523.618 614.758,523.683 614.759,523.764C614.899,523.313 615.334,522.999 615.826,523.031C616.402,523.068 616.84,523.563 616.806,524.139C616.805,524.142 616.805,524.145 616.805,524.148C616.795,524.318 616.785,524.486 616.775,524.653C617.32,524.693 617.747,525.147 617.747,525.699L617.746,540.594L617.747,540.632C617.747,540.637 617.747,540.803 617.747,540.803L617.747,540.81C617.747,541.261 617.462,541.645 617.062,541.793C617.063,541.831 617.063,541.87 617.064,541.908C617.069,542.446 616.668,542.9 616.134,542.961C615.873,542.991 615.622,542.922 615.42,542.782C615.333,543.758 615.265,544.395 615.228,544.521L615.048,544.928L614.744,545.243L614.397,545.401L614.089,545.434L613.788,545.378L613.558,545.252C613.55,545.323 613.541,545.379 613.532,545.423L613.379,545.805L613.195,546.027L612.994,546.174L612.67,546.294L612.351,546.308L611.958,546.188L611.742,546.042L611.549,545.846C611.493,545.781 611.435,545.699 611.379,545.6L611.205,545.77L610.822,545.941L610.472,545.966L610.134,545.881L609.792,545.651L609.56,545.336L609.515,545.217C609.445,545.716 609.368,546.075 609.285,546.262L609.048,546.632L608.843,546.813L608.642,546.925L608.377,547.002L608.089,547.011L607.827,546.953L607.619,546.856L607.283,546.563L607.061,546.203C606.918,545.907 606.74,545.342 606.541,544.454C606.535,544.429 606.53,544.404 606.524,544.38L606.428,544.533L606.245,544.713L605.987,544.859L605.717,544.925L605.477,544.921C605.334,545.316 604.962,545.602 604.518,545.614C603.947,545.629 603.469,545.184 603.443,544.613C603.442,544.601 603.442,544.588 603.442,544.575C603.431,544.346 603.421,544.124 603.411,543.906C603.387,543.907 603.363,543.907 603.339,543.906C603.111,543.897 602.904,543.816 602.737,543.686L602.455,545.476L602.452,545.498C602.363,546.065 601.833,546.455 601.264,546.372C600.696,546.288 600.301,545.763 600.378,545.193C600.379,545.186 600.38,545.179 600.381,545.172C601.025,540.439 601.539,536.768 601.949,533.901C601.501,535.743 600.947,537.96 600.137,541.201C600.134,541.212 600.131,541.223 600.128,541.235C599.99,541.79 599.432,542.131 598.874,542.001C598.701,541.961 598.547,541.88 598.422,541.77C598.331,541.777 598.238,541.772 598.144,541.753C597.67,541.662 597.332,541.263 597.298,540.803C597.073,541.212 596.595,541.433 596.123,541.314C595.707,541.209 595.412,540.869 595.346,540.47L594.813,542.078C594.64,542.603 594.089,542.902 593.555,542.763C593.02,542.624 592.685,542.094 592.789,541.552C592.943,540.749 593.085,540.006 593.218,539.314C593.186,539.157 593.189,538.991 593.234,538.827C593.237,538.816 593.24,538.806 593.243,538.796C593.331,538.472 593.417,538.155 593.502,537.847C593.596,537.359 593.685,536.899 593.771,536.463L593.479,536.448L593.234,536.356L593.033,536.225L592.86,536.052L592.707,535.814C592.699,535.799 592.692,535.784 592.685,535.767L591.648,538.599L591.644,538.609C591.445,539.151 590.847,539.43 590.304,539.235C590.21,539.201 590.123,539.154 590.046,539.098C589.889,539.135 589.723,539.137 589.558,539.096L589.217,539.24L588.831,539.254L588.506,539.154L588.258,538.989L588.057,538.756L587.928,538.493C587.883,538.366 587.84,538.163 587.821,537.896C587.755,536.962 587.762,536.307 587.91,535.574L587.802,535.493C587.661,535.757 587.542,535.967 587.44,536.127C587.248,536.434 587.085,536.621 586.968,536.726L586.533,536.991L586.288,537.048L585.981,537.043L585.666,536.943L585.412,536.772L585.23,536.563L585.095,536.3L585.022,536.009C585.009,535.919 585.001,535.811 585.001,535.687C585.001,535.329 585.064,534.875 585.177,534.352L584.938,534.263L584.679,534.065L584.491,533.816L584.359,533.5C584.282,533.23 584.264,532.851 584.36,532.385C584.496,531.722 584.882,530.763 585.419,529.676C586.282,527.929 587.537,525.808 588.596,524.096ZM607.865,538.186C607.834,538.345 607.804,538.503 607.774,538.658C607.79,538.807 607.806,538.955 607.822,539.103C607.836,538.802 607.851,538.496 607.865,538.186Z" style="fill:rgb(237,236,218);"/>
                </g>
                <g transform="matrix(1,0,0,1,256,181.559)">
                    <path d="M598.857,481.294C598.889,480.906 598.964,480.225 599.128,479.651C599.765,477.423 598.275,476.333 598.053,476.186C597.963,476.168 597.875,476.138 597.789,476.095C597.272,475.836 597.062,475.206 597.32,474.689L597.474,474.462L597.648,474.305L598.048,474.128L598.386,474.111L598.672,474.174C599.071,474.303 600.356,474.941 601.019,476.433C601.421,477.338 601.615,478.576 601.144,480.226C600.913,481.035 600.971,481.666 600.879,482.07L600.729,482.502L600.527,482.814L600.285,483.049L599.998,483.224C599.721,483.356 599.311,483.444 598.687,483.384C598.552,483.487 598.235,483.73 597.904,483.962C596.667,484.829 593.928,486.4 586.423,488.544C584.199,489.18 581.374,489.838 579.161,491.02C577.265,492.032 575.819,493.437 575.996,495.738C576.053,496.477 576.48,496.895 577.113,497.125C577.709,497.342 578.445,497.421 579.264,497.432C582.844,497.478 587.8,496.211 590.725,496.394C594.786,496.648 597.05,498.028 598.339,499.57C600.287,501.901 600.03,504.72 600.071,505.207C600.119,505.784 599.69,506.291 599.113,506.339C598.537,506.387 598.03,505.958 597.982,505.381C597.95,504.998 598.263,502.748 596.731,500.915C595.699,499.681 593.843,498.689 590.594,498.486C587.696,498.305 582.785,499.573 579.237,499.528C576.206,499.489 574.104,498.471 573.906,495.898C573.704,493.278 574.892,491.418 576.767,490.046C579.233,488.242 582.993,487.344 585.847,486.529C595.325,483.821 596.797,482.126 597.543,481.619L598.098,481.344L598.462,481.278L598.815,481.289C598.828,481.291 598.842,481.292 598.857,481.294ZM598.602,476.147C598.929,476.042 599.097,475.822 599.195,475.626C599.068,475.881 598.851,476.061 598.602,476.147Z" style="fill:rgb(237,236,218);"/>
                </g>
                <g transform="matrix(1,0,0,1,256,181.559)">
                    <path d="M576.341,491.488C576.354,491.404 576.395,491.147 576.444,491.015C576.645,490.472 577.248,490.195 577.791,490.396C577.853,490.419 577.911,490.447 577.966,490.48L578.082,490.3C578.373,489.847 578.958,489.688 579.438,489.932C579.57,489.999 579.682,490.09 579.771,490.198L580.055,489.772C580.361,489.315 580.967,489.171 581.445,489.443C581.56,489.509 581.659,489.593 581.738,489.69C582.072,489.282 582.659,489.185 583.107,489.467C583.115,489.472 583.124,489.477 583.132,489.483C583.349,489.196 583.584,488.882 583.842,488.534C584.165,488.099 584.767,487.982 585.229,488.264C585.436,488.39 585.585,488.578 585.665,488.79C585.856,488.612 586.058,488.424 586.272,488.223C586.645,487.874 587.216,487.844 587.623,488.154C587.624,488.154 587.625,488.155 587.626,488.156C588.72,487.018 589.186,486.636 591.218,485.082C591.621,484.774 592.185,484.798 592.56,485.139C592.778,485.337 592.895,485.609 592.903,485.886C593.217,485.755 593.582,485.783 593.877,485.975C594.562,484.934 594.921,484.41 595.173,484.042C595.486,483.586 596.098,483.451 596.573,483.733C596.758,483.843 596.898,484.002 596.984,484.183C598.411,482.384 599.9,480.666 600.161,480.366C600.221,480.296 600.289,480.237 600.362,480.187C600.375,479.687 600.353,479.079 600.287,478.322C600.25,477.89 600.482,477.479 600.872,477.289C601.262,477.099 601.729,477.169 602.046,477.465C602.047,477.465 602.048,477.466 602.048,477.467L602.111,477.438L602.536,477.435L602.929,477.589L603.173,477.801C603.318,477.689 603.445,477.613 603.551,477.564L603.842,477.464L604.112,477.436L604.457,477.489L604.798,477.663L605.081,477.964L605.252,478.371C605.293,478.543 605.311,478.802 605.266,479.138C605.241,479.331 605.193,479.571 605.126,479.852C605.437,479.653 605.893,479.487 606.594,479.409C607.544,479.303 608.43,479.16 609.273,479.013C609.279,479.01 609.286,479.008 609.293,479.005C609.919,478.747 610.116,478.769 610.415,478.811C610.932,478.721 611.434,478.635 611.928,478.564C614.594,478.181 617.028,478.203 619.932,479.787C620.822,480.272 624.431,481.759 624.913,486.579C624.97,487.154 624.55,487.668 623.974,487.726C623.399,487.783 622.885,487.363 622.827,486.787C622.457,483.087 619.612,482 618.929,481.627C616.499,480.302 614.457,480.319 612.226,480.639C611.89,480.687 611.551,480.742 611.206,480.8C611.06,480.98 610.807,481.208 610.364,481.435C609.844,481.702 608.93,482.035 607.398,482.386C607.182,489.914 607.171,489.857 607.16,490.542C607.151,491.107 606.695,491.564 606.129,491.573C605.832,491.578 605.56,491.458 605.366,491.261C605.301,492.916 605.189,493.705 605.119,493.887L604.985,494.14L604.834,494.312L604.591,494.481L604.349,494.569L603.943,494.582L603.723,494.521L603.48,494.386L603.298,494.215L603.211,494.076C603.176,494.629 603.153,495.001 603.146,495.114C603.112,495.669 602.649,496.101 602.093,496.098C601.822,496.096 601.575,495.991 601.389,495.82C601.086,496.267 600.765,496.645 600.433,496.962C600.317,497.151 600.145,497.298 599.942,497.383C599.331,497.85 598.692,498.14 598.057,498.305C597.872,498.547 597.682,498.803 597.489,499.074C597.173,499.516 596.571,499.643 596.103,499.367C595.747,499.157 595.559,498.768 595.591,498.378C595.356,498.336 595.126,498.283 594.904,498.222C594.762,498.242 594.616,498.233 594.475,498.193C594.188,498.446 593.775,498.529 593.401,498.383C592.947,498.206 592.681,497.744 592.743,497.271C592.67,497.225 592.601,497.18 592.535,497.136C592.385,497.033 592.253,496.932 592.141,496.837C592.007,497.074 591.869,497.32 591.726,497.577C591.461,498.052 590.876,498.245 590.38,498.021C589.884,497.797 589.642,497.231 589.822,496.718L590.247,495.508L589.155,497.232C588.862,497.695 588.263,497.854 587.779,497.598C587.507,497.454 587.324,497.207 587.253,496.929C586.942,497.15 586.522,497.191 586.162,497.003C586.038,496.939 585.932,496.852 585.846,496.751C585.707,496.98 585.561,497.22 585.409,497.472C585.119,497.949 584.505,498.115 584.014,497.85C584.007,497.846 584,497.842 583.993,497.838C583.983,497.855 583.973,497.872 583.963,497.889C583.679,498.368 583.07,498.541 582.577,498.284C582.232,498.104 582.027,497.758 582.014,497.393C581.893,497.646 581.767,497.913 581.634,498.195C581.629,498.206 581.624,498.217 581.619,498.228C581.376,498.745 580.763,498.972 580.241,498.738C579.858,498.565 579.628,498.19 579.623,497.795C579.412,497.825 579.19,497.791 578.988,497.685C578.882,497.629 578.79,497.558 578.713,497.476C578.697,497.503 578.681,497.53 578.664,497.556C578.374,498.036 577.757,498.202 577.265,497.933C577.132,497.86 577.021,497.762 576.934,497.649C576.712,497.69 576.475,497.66 576.26,497.548C575.922,497.373 575.717,497.037 575.696,496.677C575.602,496.66 575.508,496.629 575.419,496.583C574.94,496.342 574.72,495.778 574.909,495.277C576.18,491.913 576.241,491.756 576.341,491.488Z" style="fill:rgb(237,236,218);"/>
                </g>
                <g transform="matrix(1,0,0,1,256,181.559)">
                    <path d="M618.046,502.894C618.008,502.219 617.96,501.535 617.905,500.832C617.606,496.953 617.139,492.54 617.306,486.194C617.122,485.944 617.051,485.615 617.14,485.293C617.261,484.858 617.331,484.563 617.371,484.322C617.389,483.929 617.408,483.53 617.43,483.123C617.432,482.96 617.436,482.772 617.444,482.546C617.447,482.469 617.458,482.393 617.477,482.321C617.494,482.047 617.512,481.77 617.531,481.489C617.56,481.074 617.831,480.715 618.222,480.574C618.614,480.434 619.051,480.538 619.338,480.84C619.62,481.138 620.057,481.583 620.518,482.401L620.706,482.37C620.642,482.156 620.58,481.94 620.518,481.722C620.393,481.278 620.573,480.804 620.961,480.555C621.349,480.306 621.855,480.34 622.206,480.639C623.45,481.698 628.735,486.07 627.99,500.227C627.688,505.969 626.051,509.594 624.002,513.306C622.052,516.838 619.71,520.453 617.884,526.258C617.71,526.81 617.122,527.117 616.57,526.943C616.058,526.783 615.757,526.265 615.854,525.751C615.57,525.906 615.22,525.927 614.909,525.782C614.89,525.773 614.871,525.764 614.852,525.754C614.846,525.767 614.84,525.781 614.834,525.794C614.599,526.307 614,526.541 613.48,526.325C612.959,526.109 612.702,525.52 612.899,524.991C617.297,513.186 617.441,509.852 618.046,502.894ZM622.466,511.745C622.4,511.686 622.342,511.62 622.293,511.547C622.215,511.868 622.132,512.189 622.046,512.511C622.086,512.438 622.127,512.365 622.167,512.293C622.268,512.11 622.368,511.928 622.466,511.745ZM623.222,492.251C623.18,490.998 623.068,489.944 622.859,489.178C622.815,489.019 622.766,488.857 622.712,488.694C622.894,489.793 623.071,490.983 623.222,492.251Z" style="fill:rgb(237,236,218);"/>
                </g>
                <g transform="matrix(1,0,0,1,256,181.559)">
                    <path d="M598.71,537.867C598.513,537.613 598.437,537.273 598.529,536.944C600.714,529.075 602.324,524.2 603.423,521.306C603.285,521.379 603.2,521.418 603.162,521.429L602.871,521.471L602.589,521.435L602.22,521.254L601.977,520.993L601.865,520.764L601.814,520.544L601.853,520.105L602.044,519.753C601.861,519.679 601.698,519.552 601.578,519.378C601.406,519.128 601.357,518.83 601.418,518.556C601.351,518.498 601.291,518.432 601.239,518.357C600.911,517.884 601.025,517.236 601.494,516.904C601.499,516.9 601.505,516.896 601.51,516.892C601.57,516.85 601.629,516.808 601.688,516.766C601.685,516.762 601.682,516.758 601.679,516.754C601.487,516.49 601.436,516.164 601.513,515.87C601.1,515.979 600.646,515.827 600.387,515.458C600.059,514.989 600.168,514.343 600.631,514.007C600.64,514.001 600.649,513.995 600.658,513.988C600.684,513.969 600.711,513.95 600.737,513.932C600.406,513.473 600.499,512.835 600.947,512.49C601.56,512.017 602.13,511.578 602.664,511.168C602.432,511.101 602.221,510.955 602.078,510.737C601.777,510.281 601.88,509.675 602.301,509.341L602.111,509.118L601.99,508.84L601.953,508.581L602,508.242L602.116,507.984C602.149,507.93 602.222,507.837 602.352,507.707L602.349,507.702L602.277,507.47L602.292,507.007L602.476,506.625C602.523,506.56 602.639,506.432 602.81,506.261C603.656,505.414 605.543,504.041 607.754,502.519C605.544,503.811 603.842,504.824 603.442,505.062C603.428,505.071 603.415,505.079 603.404,505.085C602.914,505.377 602.281,505.223 601.979,504.74C601.677,504.256 601.817,503.62 602.294,503.308C602.306,503.3 602.319,503.292 602.332,503.284C602.781,502.99 603.677,502.403 605.01,501.538C604.913,501.151 605.044,500.731 605.363,500.47L605.351,500.475L605.049,500.494L604.66,499.747C604.461,499.852 604.26,499.958 604.056,500.066C604.051,500.069 604.046,500.071 604.041,500.074C603.532,500.343 602.902,500.152 602.628,499.645C602.355,499.138 602.542,498.506 603.046,498.229C603.051,498.226 603.056,498.224 603.061,498.221C604.857,497.234 606.145,496.524 607.215,495.946C606.429,496.264 605.596,496.601 604.714,496.96C604.193,497.171 603.599,496.935 603.366,496.423C603.288,496.254 603.26,496.074 603.275,495.9C602.726,496.027 602.173,495.697 602.026,495.151C601.879,494.6 602.198,494.033 602.744,493.873C603.08,493.775 603.708,493.591 604.619,493.332L603.368,493.524C602.851,493.604 602.356,493.29 602.205,492.789C602.055,492.289 602.297,491.754 602.772,491.536C604.708,490.647 606.164,490.003 607.393,489.505C606.559,489.628 605.604,489.77 604.474,489.939C603.921,490.022 603.401,489.656 603.291,489.107C603.233,488.816 603.302,488.528 603.461,488.302L603.454,488.295L603.317,488.048L603.239,487.727L603.237,487.468C603.246,487.373 603.267,487.255 603.303,487.112L603.486,486.696L603.82,486.324C604.111,486.074 604.65,485.776 605.379,485.481C605.749,485.331 606.176,485.176 606.643,485.018C606.556,484.947 606.48,484.861 606.419,484.764C606.36,484.799 606.321,484.823 606.305,484.833C605.921,485.192 605.319,485.214 604.91,484.865C604.469,484.489 604.417,483.827 604.792,483.387L605.207,483.042C605.671,482.731 606.818,482.073 608.324,481.435C611.208,480.212 615.383,479.12 618.624,480.417C619.087,480.602 619.356,481.087 619.266,481.578C619.213,481.873 619.038,482.121 618.798,482.274C619.007,482.438 619.152,482.68 619.189,482.962C619.259,483.5 618.906,484.004 618.376,484.121C618.237,484.151 617.927,484.22 617.491,484.318C617.862,484.275 618.243,484.232 618.634,484.19C619.18,484.13 619.679,484.502 619.778,485.042C619.878,485.582 619.544,486.107 619.013,486.246L618.249,486.445L619.126,486.404C619.668,486.379 620.14,486.772 620.213,487.31C620.219,487.356 620.222,487.401 620.222,487.446C620.57,487.512 620.876,487.752 621.009,488.107C621.211,488.643 620.945,489.242 620.412,489.451C620.402,489.455 620.392,489.459 620.383,489.462C620.309,489.491 620.236,489.52 620.165,489.548L620.374,489.787L620.503,490.108L620.528,490.409L620.467,490.715L620.458,490.734C620.407,490.98 620.27,491.201 620.072,491.354L620.264,491.721L620.302,491.959L620.28,492.24L620.175,492.537L620.02,492.778C620.017,492.782 620.014,492.785 620.011,492.789C620.104,492.865 620.184,492.958 620.248,493.067C620.292,493.142 620.326,493.22 620.35,493.3C620.509,493.246 620.637,493.212 620.729,493.199L621.045,493.188L621.389,493.269L621.631,493.404L621.87,493.643L622.016,493.922L622.075,494.198L622.065,494.466L621.989,494.737L621.821,495.037C621.762,495.12 621.678,495.221 621.565,495.338C621.275,495.641 620.712,496.125 619.815,496.818C619.718,496.893 619.614,496.972 619.503,497.055C619.552,497.105 619.596,497.162 619.635,497.224C619.83,497.534 619.842,497.909 619.7,498.22C619.953,498.287 620.181,498.449 620.327,498.689C620.531,499.026 620.523,499.434 620.339,499.755C620.479,500.173 620.342,500.649 619.974,500.925C619.446,501.321 618.949,501.693 618.479,502.043L618.5,502.044L618.913,502.202L619.209,502.488L619.378,502.879L619.379,503.316L619.196,503.738C619.112,503.858 618.855,504.125 618.361,504.504C618.343,504.517 618.276,504.564 618.164,504.642C618.181,504.763 618.175,504.886 618.149,505.005C618.257,504.943 618.366,504.879 618.477,504.815C618.963,504.533 619.585,504.684 619.887,505.157C620.061,505.429 620.093,505.752 620.003,506.038C620.056,506.073 620.106,506.113 620.153,506.157C620.326,506.067 620.461,506.002 620.553,505.966L620.984,505.865L621.298,505.893L621.634,506.038L621.832,506.205L621.993,506.433L622.086,506.681L622.114,506.903L622.079,507.199L621.985,507.44C621.931,507.543 621.725,507.813 621.265,508.195C621.137,508.302 620.981,508.427 620.797,508.572C621.017,508.648 621.214,508.798 621.345,509.01C621.636,509.478 621.515,510.091 621.068,510.413C620.817,510.594 620.574,510.769 620.34,510.939C620.482,511.364 620.338,511.849 619.955,512.123C619.944,512.131 619.932,512.139 619.921,512.147C619.063,512.761 618.303,513.305 617.62,513.795C617.649,513.895 617.662,513.998 617.661,514.099C617.669,514.095 617.677,514.091 617.685,514.087C618.171,513.848 618.759,514.017 619.043,514.478C619.326,514.939 619.212,515.541 618.779,515.865C618.52,516.059 618.333,516.207 617.999,516.471C618.029,516.504 618.056,516.54 618.081,516.578C618.317,516.929 618.312,517.371 618.104,517.71L618.137,517.758L618.242,518.084L618.252,518.444L618.158,518.797C618.045,519.076 617.683,519.572 617.081,520.177C615.808,521.456 613.345,523.507 610.878,525.418C611.252,525.577 611.51,525.947 611.514,526.371C611.589,533.757 611.589,533.684 610.826,541.004C610.766,541.579 610.25,541.998 609.674,541.938C609.099,541.878 608.681,541.362 608.741,540.786C608.959,538.692 609.114,537.213 609.222,535.991C608.933,537.08 608.58,538.348 608.146,539.897C606.415,546.08 605.685,548.58 605.591,548.798L605.407,549.092L605.246,549.24L605.017,549.37L604.688,549.446L604.406,549.427L604.082,549.301L603.776,549.024L603.637,548.77L603.573,548.482L603.648,547.906C603.79,547.304 604.211,545.689 604.765,543.591C604.726,543.686 604.689,543.767 604.655,543.833L604.348,544.268L604.126,544.439L603.861,544.553L603.455,544.588L603.031,544.452L602.74,544.207L602.54,543.844C602.508,543.746 602.463,543.505 602.463,543.139C602.462,542.714 602.496,541.98 602.547,541.062C602.225,541.731 601.928,542.302 601.671,542.734C601.357,543.261 601.069,543.617 600.86,543.79L600.463,544.03L599.994,544.114L599.577,544.026L599.23,543.803L599.204,543.769C598.961,543.908 598.663,543.949 598.377,543.861C597.856,543.701 597.544,543.168 597.661,542.635C598.113,540.569 598.43,539.088 598.71,537.867ZM605.001,535.336C604.986,535.375 604.97,535.414 604.955,535.453C604.954,535.469 604.953,535.486 604.952,535.502C604.969,535.446 604.985,535.39 605.001,535.336ZM612.659,490.057C612.812,489.997 612.96,489.939 613.105,489.883C612.792,489.957 612.492,490.032 612.201,490.108C612.351,490.091 612.504,490.074 612.659,490.057ZM607.976,524.899C607.944,524.923 607.91,524.946 607.877,524.97L607.907,525.052C607.915,525.046 607.923,525.04 607.932,525.034C607.947,524.988 607.962,524.943 607.976,524.899ZM605.049,500.494L605.06,500.516L604.895,500.503L605.049,500.494Z" style="fill:rgb(237,236,218);"/>
                </g>
                <g transform="matrix(1,0,0,1,166.676,175.849)">
                    <path d="M663.891,502.073C663.863,502.651 663.371,503.097 662.793,503.068C662.215,503.04 661.769,502.548 661.798,501.97C661.829,501.331 661.286,499.255 662.645,496.874C663.955,494.577 667.105,491.893 674.717,490.136C678.56,489.25 681.615,488.537 683.696,487.528C684.856,486.967 685.688,486.337 686.082,485.455C686.404,484.734 686.416,483.866 686.162,482.79C685.862,481.518 685.197,480.003 684.156,478.163C683.915,477.737 684.001,477.201 684.364,476.871C684.726,476.542 685.268,476.508 685.669,476.788C691.91,481.153 691.989,480.798 694.933,483.742C695.342,484.151 695.342,484.815 694.933,485.224C694.524,485.633 693.86,485.633 693.451,485.224C691.228,483.002 690.685,482.73 687.691,480.717C688.583,483.128 688.615,484.924 687.996,486.31C687.423,487.592 686.295,488.598 684.61,489.415C682.425,490.474 679.224,491.248 675.189,492.179C668.493,493.724 665.618,495.892 664.465,497.912C663.361,499.848 663.917,501.553 663.891,502.073Z"/>
                </g>
                <g transform="matrix(1,0,0,1,166.676,175.849)">
                    <path d="M694.882,483.912C694.982,483.913 695.811,483.918 696.657,483.907C699.3,483.872 703.943,483.906 707.991,485.234C712.112,486.585 715.606,489.248 716.171,494.291C717.934,510.01 714.169,516.051 710.989,521.775C707.98,527.19 705.556,532.307 709.406,545.976C709.563,546.533 709.238,547.112 708.681,547.269C708.125,547.426 707.545,547.101 707.388,546.544C703.285,531.976 705.95,526.528 709.157,520.756C712.192,515.294 715.77,509.526 714.088,494.525C713.505,489.325 708.997,487.354 704.605,486.539C700.821,485.837 697.056,486.01 695.44,486.02C694.853,486.023 694.463,485.977 694.315,485.928C693.765,485.748 693.465,485.156 693.645,484.606C693.816,484.085 694.358,483.788 694.882,483.912Z"/>
                </g>
                <g transform="matrix(1,0,0,1,166.676,175.849)">
                    <path d="M661.988,502.698C661.881,502.13 662.256,501.581 662.824,501.474C663.392,501.367 663.941,501.741 664.048,502.309C664.379,504.062 665.806,504.653 667.622,504.851C669.889,505.099 672.734,504.719 675.46,504.446C677.924,504.198 680.297,504.039 682.134,504.386C683.595,504.662 684.747,505.259 685.482,506.25C686.246,507.28 686.598,508.785 686.192,510.98C685.014,517.34 680.51,523.301 672.085,546.099C671.884,546.642 671.281,546.92 670.738,546.719C670.196,546.519 669.918,545.915 670.118,545.373C678.464,522.788 682.964,516.898 684.131,510.598C684.395,509.168 684.297,508.17 683.799,507.499C683.318,506.851 682.502,506.562 681.522,506.407C679.88,506.147 677.813,506.316 675.669,506.531C672.176,506.882 668.497,507.342 665.924,506.673C663.858,506.136 662.413,504.947 661.988,502.698Z"/>
                </g>
            </g>
        </g>
    </g>
</svg>
