<?xml version="1.0" encoding="UTF-8" standalone="no"?>
<!DOCTYPE svg PUBLIC "-//W3C//DTD SVG 1.1//EN" "http://www.w3.org/Graphics/SVG/1.1/DTD/svg11.dtd">
<svg width="100%" height="100%" viewBox="0 0 76 114" version="1.1" xmlns="http://www.w3.org/2000/svg" xmlns:xlink="http://www.w3.org/1999/xlink" xml:space="preserve" xmlns:serif="http://www.serif.com/" style="fill-rule:evenodd;clip-rule:evenodd;stroke-linejoin:round;stroke-miterlimit:2;">
    <g transform="matrix(1,0,0,1,-543.492,-251.762)">
        <g transform="matrix(1,0,0,1,-256,-181.559)">
            <g transform="matrix(1,0,0,1,-21.9992,-240.809)">
                <g transform="matrix(1,0,0,1,256,181.559)">
                    <path d="M574.73,590.302C575.235,589.426 576.357,589.125 577.232,589.63C578.108,590.136 578.409,591.257 577.904,592.133C574.87,597.392 574.39,598.232 572.187,601.957C587.639,601.122 588.113,599.342 598.752,600.029C613.23,600.963 630.167,599.613 634.111,600.599C635.092,600.844 635.69,601.839 635.445,602.82C635.199,603.801 634.204,604.399 633.223,604.153C629.352,603.186 612.727,604.602 598.516,603.685C587.295,602.961 587.528,605.047 568.953,605.776C568.282,605.802 567.651,605.46 567.307,604.883C566.964,604.307 566.963,603.588 567.305,603.011C571.139,596.54 571.045,596.688 574.73,590.302Z" style="fill:rgb(237,236,218);"/>
                </g>
                <g transform="matrix(1,0,0,1,256,181.559)">
                    <path d="M630.499,587.359C630.549,587.352 630.6,587.348 630.651,587.345C631.661,587.296 632.521,588.077 632.569,589.087L632.503,589.702L632.366,590.022C634.183,592.503 637.313,596.948 638.299,600.894C638.544,601.875 637.947,602.87 636.966,603.115C635.985,603.361 634.989,602.763 634.744,601.782C633.722,597.693 630.063,593.058 628.649,591.147C628.259,590.62 628.004,590.236 627.909,590.049L627.685,589.229L627.752,588.614L627.961,588.126L628.427,587.603L628.95,587.315L629.475,587.202L629.962,587.218C630.082,587.236 630.303,587.298 630.499,587.359ZM628.963,588.723C628.92,588.883 628.899,589.061 628.909,589.263C628.9,589.077 628.919,588.895 628.963,588.723Z" style="fill:rgb(237,236,218);"/>
                </g>
                <g transform="matrix(1,0,0,1,256,181.559)">
                    <path d="M574.774,596.112C575.333,595.23 575.995,594.251 577.212,592.504C577.541,592.033 578.073,591.743 578.647,591.721C579.44,591.692 580.218,591.663 580.982,591.637C581.222,591.481 581.475,591.318 581.743,591.145C580.231,591.068 579.131,591.004 578.547,590.97C577.537,590.912 576.765,590.045 576.823,589.036C576.882,588.026 577.748,587.254 578.758,587.312C582.345,587.519 605.605,588.864 623.675,587.573C627.154,587.325 629.217,587.734 630.522,588.661C631.474,589.337 632.126,590.285 632.553,591.617C633.006,593.028 633.197,594.988 633.448,597.623C634.019,597.908 634.419,598.483 634.458,599.156C634.501,599.894 634.1,600.562 633.476,600.887C633.191,601.432 632.639,601.821 631.981,601.868L631.934,601.871L628.348,602.127C628.129,602.143 627.916,602.119 627.716,602.062L626.225,602.13C625.34,602.17 624.566,601.574 624.362,600.736L621.194,600.599C609.295,601.464 589.993,602.776 573.676,603.454C573.002,603.482 572.368,603.138 572.024,602.558C571.747,602.092 571.695,601.534 571.865,601.033C571.814,600.978 571.765,600.919 571.72,600.857C571.152,600.074 571.29,598.984 572.036,598.368C573.157,597.442 574.033,596.717 574.774,596.112ZM578.308,599.58C578.087,599.462 577.892,599.3 577.736,599.103C577.48,599.261 577.214,599.426 576.937,599.598C576.928,599.614 576.919,599.629 576.909,599.645C577.374,599.624 577.84,599.602 578.308,599.58ZM585.84,591.337C585.853,591.383 585.864,591.43 585.873,591.477C586.55,591.457 587.215,591.438 587.869,591.42C587.163,591.393 586.485,591.365 585.84,591.337ZM625.654,591.137L625.873,591.414L626.078,591.843L626.086,591.884L626.425,591.789C627.068,591.608 627.73,591.794 628.183,592.226C628.305,592.231 628.426,592.236 628.547,592.241C628.671,592.246 628.792,592.263 628.908,592.291C628.786,592.027 628.628,591.811 628.401,591.649C627.797,591.22 626.924,591.107 625.654,591.137ZM629.564,595.547C629.433,595.643 629.29,595.723 629.136,595.782C629.285,595.792 629.437,595.803 629.592,595.815C629.583,595.724 629.573,595.635 629.564,595.547ZM584.827,595.176C584.806,595.214 584.785,595.254 584.763,595.295C585.013,595.248 585.274,595.201 585.547,595.153C585.308,595.161 585.068,595.168 584.827,595.176Z" style="fill:rgb(237,236,218);"/>
                </g>
                <g transform="matrix(1,0,0,1,256,181.559)">
                    <path d="M590.495,536.149C591.111,535.347 592.262,535.197 593.064,535.814C593.865,536.43 594.016,537.581 593.399,538.383C578.434,557.842 575.407,571.04 576.737,579.784C578.001,588.09 583.254,592.094 584.955,593.395C585.759,594.009 585.912,595.16 585.298,595.963C584.684,596.767 583.533,596.92 582.73,596.306C580.735,594.781 574.597,590.074 573.115,580.335C571.699,571.033 574.572,556.852 590.495,536.149Z" style="fill:rgb(237,236,218);"/>
                </g>
                <g transform="matrix(1,0,0,1,256,181.559)">
                    <path d="M610.69,538.545C609.936,538.385 609.335,537.756 609.248,536.948C609.139,535.943 609.867,535.039 610.873,534.93L611.708,535L612.469,535.328C613.029,535.652 613.867,536.354 614.867,537.375C619.824,542.437 629.821,555.979 631.772,561.833C634.813,570.957 634.643,577.473 633.249,582.181C631.15,589.276 626.219,592.352 624.614,594.038C623.916,594.77 622.756,594.798 622.023,594.101C621.291,593.404 621.263,592.243 621.96,591.511C623.379,590.021 627.881,587.411 629.736,581.141C630.979,576.94 631.01,571.134 628.296,562.992C626.452,557.461 616.932,544.721 612.249,539.939C611.665,539.343 610.904,538.718 610.69,538.545Z" style="fill:rgb(237,236,218);"/>
                </g>
                <g transform="matrix(1,0,0,1,256,181.559)">
                    <path d="M580.942,535.135C581.234,535.248 581.597,535.375 581.951,535.463C605.47,541.343 614.779,537.857 619.24,534.033C620.008,533.375 621.165,533.464 621.823,534.232C622.482,535 622.393,536.157 621.625,536.815C616.769,540.977 606.665,545.419 581.063,539.018C579.612,538.655 578.664,538.221 578.096,537.783L577.698,537.428L577.343,536.982L577.069,536.444L576.917,535.848C576.804,535.029 577.092,534 578.018,532.86C579.876,530.575 585.062,526.873 588.999,519.983C589.501,519.105 590.621,518.8 591.499,519.301C592.377,519.803 592.682,520.923 592.18,521.801C588.735,527.83 584.414,531.563 581.934,534.024C581.574,534.381 581.209,534.807 580.942,535.135Z" style="fill:rgb(237,236,218);"/>
                </g>
                <g transform="matrix(1,0,0,1,256,181.559)">
                    <path d="M604.394,521.889C604.202,521.73 604.039,521.53 603.921,521.292L603.708,520.766L603.662,520.085L603.868,519.435L604.333,518.874L605.055,518.521L605.46,518.47L605.911,518.521L606.301,518.663L606.659,518.897L607.06,519.343C607.671,520.152 610.898,524.38 619.337,529.724C619.775,530.002 622.657,531.884 623.888,534.345C624.34,535.25 623.973,536.351 623.068,536.803C622.164,537.256 621.062,536.888 620.61,535.984C619.752,534.267 617.682,533.014 617.376,532.82C609.098,527.577 605.487,523.293 604.394,521.889Z" style="fill:rgb(237,236,218);"/>
                </g>
                <g transform="matrix(1,0,0,1,256,181.559)">
                    <path d="M598.812,494.256C606.668,494.263 611.479,496.345 614.167,499.214C618.023,503.329 617.862,509.257 615.584,514.369C613.346,519.39 609.081,523.474 605.222,524.246C591.491,526.992 582.569,517.141 582.748,507.836C582.869,501.564 586.995,495.327 596.761,493.228C597.617,493.044 598.463,493.491 598.812,494.256ZM594.119,497.845C588.908,499.962 586.49,503.841 586.412,507.906C586.27,515.307 593.583,522.836 604.503,520.652C607.46,520.061 610.522,516.723 612.237,512.877C613.911,509.122 614.326,504.742 611.493,501.719C608.872,498.922 603.762,497.403 595.142,498.066C594.773,498.094 594.421,498.011 594.119,497.845Z" style="fill:rgb(237,236,218);"/>
                </g>
                <g transform="matrix(1,0,0,1,256,181.559)">
                    <path d="M585.103,507.267C584.822,506.469 585.126,505.56 585.871,505.101C585.933,505.062 586.039,504.997 586.181,504.909C585.835,504.751 585.536,504.485 585.338,504.128C584.861,503.264 585.154,502.179 585.999,501.671C586.109,501.605 586.218,501.54 586.326,501.475C586.362,500.906 586.662,500.362 587.181,500.037C587.624,499.758 590.815,497.762 593.263,496.502L593.982,496.084C594.177,495.971 594.385,495.897 594.597,495.862C594.626,495.849 594.654,495.837 594.682,495.825C595.741,495.376 596.597,495.3 597.005,495.381L597.74,495.64L598.127,495.923L598.315,496.148C598.584,496.04 598.865,495.927 599.159,495.809C599.95,495.49 600.839,495.763 601.324,496.43C601.592,496.276 601.829,496.165 602.02,496.101C602.718,495.869 603.236,495.809 603.592,495.823L604.428,496L605.059,496.398L605.477,496.925L605.488,496.954L605.888,497.028C606.108,497.098 606.345,497.205 606.61,497.359L607.108,497.753L607.432,498.181L607.455,498.23C607.775,498.232 608.135,498.274 608.56,498.354L609.205,498.567L609.7,498.882L610.109,499.302L610.434,499.866L610.592,500.405L610.601,500.526C611.022,500.521 611.381,500.58 611.69,500.672L612.239,500.89L612.708,501.183L613.148,501.587L613.458,501.995L613.683,502.49C613.761,502.472 613.842,502.455 613.928,502.438C614.607,502.302 615.094,502.306 615.397,502.36L616.015,502.564L616.502,502.91L616.811,503.288L617.017,503.727L617.115,504.231L617.072,504.816C616.997,505.176 616.707,505.803 616.063,506.633C615.855,506.902 615.6,507.216 615.302,507.577C615.402,508.019 615.339,508.496 615.095,508.912C614.48,509.958 614.024,510.742 613.638,511.388L613.841,511.531L614.272,512.126C614.472,512.526 614.59,512.866 614.651,513.156L614.691,514.075L614.437,514.888L613.995,515.506C613.709,515.807 613.251,516.119 612.577,516.48C612.515,516.974 612.254,517.439 611.819,517.748L605.775,522.033L605.754,522.048C605.181,522.455 604.453,522.485 603.866,522.188L602.377,522.878C601.516,523.276 600.494,522.952 600.02,522.13C599.855,521.844 599.775,521.531 599.775,521.221C598.615,521.718 597.711,522.132 597.509,522.224C596.647,522.612 595.63,522.281 595.163,521.459C595.111,521.368 595.068,521.274 595.033,521.178C594.489,521.394 594.117,521.542 594.083,521.558C593.236,521.952 592.229,521.646 591.744,520.848C591.556,520.539 591.47,520.194 591.478,519.854C590.933,519.797 590.42,519.497 590.111,519C590.047,518.898 589.995,518.793 589.953,518.685C589.164,518.897 588.307,518.559 587.887,517.823C587.405,516.978 587.667,515.904 588.484,515.376C588.516,515.355 588.548,515.334 588.58,515.314C588.059,515.245 587.572,514.954 587.27,514.479C587.107,514.222 587.015,513.938 586.991,513.653C586.468,513.571 585.986,513.265 585.696,512.776C585.339,512.173 585.367,511.446 585.711,510.884C585.557,510.745 585.424,510.577 585.322,510.383C585.055,509.877 585.047,509.3 585.257,508.809C585.239,508.779 585.222,508.749 585.206,508.718C584.964,508.251 584.941,507.728 585.103,507.267Z" style="fill:rgb(237,236,218);"/>
                </g>
                <g transform="matrix(1,0,0,1,256,181.559)">
                    <path d="M594.477,522.202C594.922,521.92 595.396,521.624 595.901,521.311C596.578,520.892 597.433,520.964 598.028,521.452C598.737,521.095 599.619,521.232 600.185,521.834C600.365,522.025 600.495,522.245 600.578,522.477C601.776,521.793 602.618,521.567 603.135,521.526L603.508,521.547L603.858,521.402L604.503,521.343L605.144,521.467C605.334,521.527 605.557,521.62 605.802,521.747C607.23,522.487 609.997,524.857 610.305,525.123C614.688,528.922 617.601,530.673 618.57,531.786L619.085,532.539L619.326,533.258L619.345,533.987L619.144,534.688C618.904,535.214 618.342,535.846 617.202,536.416C609.422,540.306 602.488,539.482 586.845,537.522C586.192,537.951 585.315,537.925 584.684,537.412C584.613,537.354 584.547,537.292 584.487,537.227C584.104,537.173 583.756,537.001 583.485,536.745C583.452,536.778 583.419,536.811 583.386,536.845C582.708,537.523 581.621,537.563 580.894,536.937C580.168,536.31 580.047,535.23 580.618,534.459C581.436,533.354 588.825,523.426 591.483,521.147C592.251,520.489 593.409,520.578 594.067,521.346C594.284,521.6 594.42,521.896 594.477,522.202Z" style="fill:rgb(237,236,218);"/>
                </g>
                <g transform="matrix(1,0,0,1,256,181.559)">
                    <path d="M584.182,553.403C587.316,546.482 587.757,545.673 590.208,540.287C590.233,540.201 590.265,540.115 590.304,540.03L591.447,537.552L591.453,537.538C591.876,536.622 592.959,536.22 593.877,536.639C594.101,536.741 594.294,536.882 594.453,537.051L594.947,537.268L595.168,537.259L595.838,537.45L596.261,537.757C596.725,537.23 597.47,536.998 598.179,537.217C599.111,537.505 599.654,538.474 599.413,539.42C596.936,549.146 596.646,549.681 594.856,558.307C595.105,558.791 595.136,559.381 594.891,559.913C594.531,560.693 594.013,561.425 593.838,561.566L593.1,561.932L592.437,561.97L591.995,561.86L591.594,561.644L591.243,561.32L590.966,560.874L590.838,560.375L590.4,560.585L589.7,560.642L589.043,560.441L588.557,560.071L588.256,559.642L588.068,559.044L588.107,558.367C587.596,558.861 586.821,559.032 586.124,558.74C585.197,558.352 584.756,557.289 585.136,556.358C585.14,556.348 585.144,556.337 585.148,556.327C585.202,556.196 585.255,556.066 585.308,555.937C585.228,555.913 585.149,555.883 585.071,555.847C584.157,555.425 583.755,554.345 584.17,553.428C584.174,553.419 584.178,553.411 584.182,553.403Z" style="fill:rgb(237,236,218);"/>
                </g>
                <g transform="matrix(1,0,0,1,256,181.559)">
                    <path d="M588.016,535.408C588.901,534.92 590.017,535.242 590.505,536.127C590.993,537.013 590.671,538.128 589.786,538.616C588.832,539.142 587.366,540.912 585.761,543.495C581.643,550.124 577.133,562.003 579.59,574.901C579.779,575.894 579.126,576.854 578.133,577.044C577.14,577.233 576.18,576.58 575.99,575.587C573.329,561.615 578.188,548.743 582.648,541.562C584.72,538.226 586.785,536.087 588.016,535.408Z" style="fill:rgb(237,236,218);"/>
                </g>
                <g transform="matrix(1,0,0,1,256,181.559)">
                    <path d="M581.007,545.15C580.883,544.763 580.886,544.331 581.046,543.923L581.054,543.902L584.023,536.315C584.103,536.11 584.216,535.928 584.354,535.772C584.697,534.945 585.581,534.498 586.435,534.685C586.921,534.12 587.725,533.888 588.463,534.163C589.132,534.412 589.569,535.009 589.645,535.672L589.742,535.729L590.042,536.015L590.277,536.372L590.432,536.81L590.475,537.249L590.385,537.817C590.296,538.138 589.94,539.134 589.034,541.953L589.373,542.075L589.741,542.354L590.055,542.732C590.216,542.978 590.391,543.456 590.567,544.036C590.86,545.004 590.313,546.028 589.346,546.321C589.162,546.377 588.977,546.402 588.795,546.401C588.601,546.844 588.346,547.459 587.98,548.352L588.379,548.186L589.107,548.157L589.58,548.299L589.939,548.511L590.324,548.9L590.371,548.981L590.393,548.939L590.691,548.601L591.075,548.333L591.735,548.13L592.5,548.204L593.146,548.56L593.558,549.047C593.606,549.128 593.671,549.288 593.737,549.522C593.963,547.819 594.171,546.309 594.349,545.135C594.546,543.832 594.718,542.906 594.831,542.516L595.218,541.724L595.665,541.312L596.331,541.041L597.095,541.054L597.732,541.335L598.212,541.819L598.487,542.428C598.499,542.474 598.511,542.548 598.521,542.65C598.678,541.897 598.848,541.045 599.035,540.06C599.217,539.097 600.125,538.448 601.095,538.587C601.809,538.689 602.371,539.192 602.58,539.84C602.801,539.782 603.037,539.765 603.278,539.797C603.412,539.814 603.541,539.846 603.663,539.89C603.805,539.191 603.924,538.686 604.011,538.436L604.232,537.955L604.583,537.525L605.043,537.214L605.57,537.053L606.273,537.084L606.872,537.348L607.291,537.735L607.549,538.165L607.709,538.858L607.778,538.831L608.249,538.793L608.718,538.878L609.382,539.256L609.79,539.777L609.95,540.293C609.968,540.207 609.985,540.123 610.002,540.042C610.156,539.314 610.305,538.783 610.404,538.542L610.798,537.903L611.126,537.618L611.515,537.413L611.981,537.301L612.525,537.324L613.025,537.497L613.392,537.745L613.864,538.374L614.016,538.939C614.186,538.903 614.363,538.891 614.544,538.905C615.528,538.984 616.272,539.828 616.228,540.814C615.901,548.092 616.013,548.665 616.343,554.669C616.413,554.862 616.45,555.07 616.45,555.286L616.45,556.72C616.45,557.713 615.658,558.526 614.665,558.551C614.574,558.554 614.485,558.549 614.397,558.539C614.179,559.32 613.459,559.882 612.619,559.875C611.655,559.867 610.861,559.114 610.804,558.151C610.788,557.87 610.771,557.599 610.754,557.338C610.559,558.246 610.394,558.866 610.258,559.243L609.88,560.012L609.416,560.499L608.951,560.759L608.511,560.873L608.092,560.883L607.682,560.8L607.005,560.418L606.849,560.244C606.754,560.537 606.666,560.726 606.606,560.828L606.225,561.299L605.826,561.574L605.288,561.755L604.618,561.747L604.134,561.581L603.945,561.444C603.781,562.473 603.671,563.168 603.641,563.377C603.502,564.34 602.634,565.026 601.665,564.94C601.411,564.917 601.174,564.844 600.963,564.731L600.808,564.962L600.369,565.294L599.866,565.486L599.321,565.529L598.772,565.409L598.626,565.332C598.51,566.062 598.408,566.623 598.32,567.031C598.163,567.751 597.984,568.172 597.872,568.361L597.439,568.879L596.988,569.164L596.497,569.308L595.919,569.303L595.291,569.079L594.914,568.757C594.811,569.464 594.716,570.089 594.629,570.612C594.473,571.559 594.33,572.219 594.234,572.508L593.862,573.206L593.546,573.515L593.148,573.749L592.653,573.884L592.069,573.867L591.64,573.728L591.307,573.53L591.15,573.353C591.113,573.466 591.077,573.557 591.045,573.627L590.596,574.268L589.941,574.679L589.22,574.793L588.67,574.687L588.245,574.472L587.92,574.193L587.877,574.134L587.641,574.756L587.185,575.315L586.575,575.658L585.968,575.755L585.355,575.647L584.736,575.28L584.31,574.733L584.088,574.108C584.064,574.004 584.041,573.869 584.019,573.706L583.83,573.923L583.434,574.223L582.7,574.475L582.221,574.476L581.717,574.341L581.223,574.035L580.813,573.545L580.553,572.85C580.532,572.744 580.513,572.603 580.499,572.423C580.403,572.438 580.305,572.446 580.206,572.445C579.909,572.606 579.565,572.686 579.205,572.661C578.223,572.592 577.471,571.759 577.503,570.775C577.943,556.905 578.132,553.939 581.007,545.15Z" style="fill:rgb(237,236,218);"/>
                </g>
                <g transform="matrix(1,0,0,1,256,181.559)">
                    <path d="M615.4,543.65C616.175,543.354 617.076,543.616 617.563,544.327L618.619,545.869C618.858,546.006 619.07,546.2 619.232,546.445L625.943,556.567L625.958,556.589C626.189,556.937 626.285,557.334 626.26,557.721C626.376,557.871 626.483,558.001 626.579,558.109C626.585,558.117 626.592,558.125 626.6,558.133C627.265,558.54 627.621,559.345 627.422,560.141C627.177,561.122 626.181,561.719 625.2,561.474L624.758,561.307L624.38,561.065C624.088,560.837 623.596,560.294 623.024,559.502C622.627,558.953 622.162,558.262 621.663,557.494C621.397,557.368 621.157,557.177 620.971,556.924C616.635,551.033 616.821,550.988 612.118,545.445C611.464,544.674 611.559,543.517 612.33,542.863C613.101,542.209 614.258,542.304 614.912,543.075C615.081,543.273 615.243,543.465 615.4,543.65Z" style="fill:rgb(237,236,218);"/>
                </g>
                <g transform="matrix(1,0,0,1,256,181.559)">
                    <path d="M583.122,540.452C583.931,539.846 585.08,540.01 585.687,540.82C586.293,541.629 586.128,542.778 585.319,543.385C582.835,545.247 580.82,548.533 579.267,552.496C576.808,558.768 575.568,566.723 575.851,573.932C576.036,578.629 576.862,583.007 578.469,586.352C579.439,588.37 580.685,589.999 582.29,591.001C583.147,591.537 583.408,592.669 582.872,593.526C582.336,594.384 581.205,594.645 580.348,594.109C575.259,590.928 572.544,583.067 572.19,574.076C571.887,566.369 573.227,557.864 575.855,551.159C577.693,546.471 580.183,542.655 583.122,540.452Z" style="fill:rgb(237,236,218);"/>
                </g>
                <g transform="matrix(1,0,0,1,256,181.559)">
                    <path d="M576.15,585.595C577.351,587.151 578.832,588.566 580.628,589.785C581.464,590.353 581.682,591.494 581.114,592.33C580.546,593.167 579.406,593.385 578.569,592.817C570.142,587.095 567.515,577.755 568.265,568.736C569.005,559.847 573.061,551.333 577.778,547.088C578.462,546.472 579.499,546.46 580.197,547.06C580.896,547.661 581.04,548.687 580.534,549.457C579.657,550.79 575.303,557.432 573.986,568.297C572.798,578.096 576.656,580.693 578.168,582.764C578.764,583.581 578.584,584.728 577.768,585.324C577.283,585.678 576.683,585.759 576.15,585.595Z" style="fill:rgb(237,236,218);"/>
                </g>
                <g transform="matrix(1,0,0,1,256,181.559)">
                    <path d="M576.794,569.611C577.005,569.165 577.394,568.805 577.899,568.645C578.356,568.501 578.829,568.545 579.233,568.735C579.185,568.495 579.145,568.281 579.113,568.097C579.011,567.498 579,567.082 579.019,566.894L579.147,566.361L579.374,565.945L579.684,565.612L579.994,565.401L580.477,565.221L580.976,565.18L581.439,565.265L581.89,565.479L582.461,566.046C582.521,566.135 582.61,566.309 582.728,566.577C582.966,566.184 583.351,565.88 583.829,565.754C584.779,565.503 585.758,566.047 586.047,566.987C586.258,567.673 586.465,568.341 586.669,568.99C586.909,568.657 587.262,568.402 587.688,568.29C587.836,568.251 587.984,568.231 588.131,568.229C588.273,567.592 588.752,567.054 589.421,566.865C590.374,566.596 591.367,567.132 591.666,568.075C591.838,568.618 592.551,570.882 593.494,573.803C593.005,571.106 592.626,569.054 592.528,568.519C592.352,567.563 592.952,566.636 593.897,566.407C594.841,566.177 595.801,566.725 596.083,567.655C596.181,567.978 596.444,568.846 596.825,570.077C596.922,569.522 597.274,569.032 597.784,568.767C597.251,565.863 597.166,564.114 596.983,563.216C596.975,563.175 596.966,563.134 596.957,563.095C596.955,563.085 596.953,563.075 596.95,563.065C596.735,562.083 597.353,561.11 598.334,560.887C598.396,560.873 598.457,560.863 598.519,560.855C598.489,560.662 598.459,560.469 598.427,560.276C598.375,559.99 598.322,559.694 598.265,559.388C598.264,559.381 598.263,559.374 598.261,559.366C598.079,558.375 598.732,557.423 599.721,557.235C600.647,557.059 601.544,557.614 601.814,558.496C602.014,558.364 602.242,558.271 602.491,558.225C603.033,558.126 603.564,558.277 603.965,558.597C603.953,557.733 603.93,556.87 603.872,556.01C603.835,555.594 603.796,555.166 603.756,554.725C603.755,554.71 603.753,554.695 603.752,554.68C603.661,553.681 604.391,552.795 605.388,552.692C606.386,552.589 607.281,553.307 607.397,554.304C607.398,554.319 607.4,554.334 607.401,554.348C607.446,554.743 607.481,555.139 607.509,555.535C607.519,555.648 607.529,555.759 607.538,555.87C607.794,555.293 608.34,554.865 609.009,554.789C609.984,554.678 610.873,555.356 611.025,556.325C611.219,557.558 611.398,558.695 611.566,559.751C611.79,559.59 612.053,559.478 612.343,559.431C613.326,559.274 614.255,559.93 614.435,560.909C614.452,560.998 614.468,561.086 614.484,561.174C615.299,561.212 616.012,561.793 616.189,562.622C616.359,563.418 616.516,564.162 616.662,564.859C616.922,564.4 617.378,564.057 617.935,563.958C618.89,563.787 619.813,564.391 620.039,565.335C620.442,567.021 620.789,568.488 621.098,569.793C621.257,569.702 621.433,569.633 621.622,569.593C622.588,569.386 623.544,569.982 623.783,570.94C624.308,573.041 624.742,574.779 625.117,576.28C625.188,576.397 625.246,576.523 625.29,576.658C625.711,577.942 627.484,583.348 630.994,592.561C630.994,592.562 630.995,592.563 630.995,592.564C631.318,593.411 630.971,594.348 630.216,594.794C630.264,594.958 630.313,595.124 630.363,595.292C630.368,595.31 630.374,595.328 630.379,595.346C630.662,596.306 630.121,597.316 629.165,597.613C628.209,597.91 627.192,597.385 626.88,596.433C626.875,596.416 626.869,596.398 626.863,596.38C626.495,595.254 626.167,594.249 625.874,593.339C624.944,593.574 623.989,593.053 623.686,592.142C623.644,592.016 623.602,591.891 623.561,591.767L623.518,591.982L623.13,592.593L622.481,593.039L622.045,593.159L621.616,593.172L621.188,593.084L620.756,592.879L620.161,592.292C620.061,592.146 619.929,591.909 619.792,591.599L619.693,591.716L619.265,591.962L618.74,592.09L618.151,592.047L617.579,591.802L617.132,591.394L616.87,590.938C616.856,590.902 616.794,590.713 616.705,590.375C616.67,590.24 616.635,590.106 616.6,589.974C615.862,589.928 615.199,589.436 614.966,588.695L614.253,586.435L614.324,586.816C614.5,587.757 613.921,588.676 612.995,588.923C612.354,589.093 611.697,588.902 611.248,588.468C611.058,588.622 610.834,588.739 610.585,588.808C609.781,589.03 608.947,588.68 608.53,587.992C608.386,588.166 608.208,588.314 608.005,588.426L607.984,588.823L607.697,589.477L607.369,589.841L607.038,590.067L606.639,590.194C606.721,590.561 606.758,590.714 606.805,590.909C606.97,591.587 606.735,592.273 606.245,592.71C606.394,593.987 606.09,594.571 605.464,595.354L604.858,595.867L604.421,596.045L603.953,596.115L603.475,596.072L602.938,595.879L602.434,595.524L601.993,595.032C601.539,594.424 600.908,593.124 600.193,591.396C600.248,591.885 600.259,592.226 600.248,592.389L600.101,593.039L599.779,593.563L599.314,593.956L598.758,594.178L598.183,594.216L597.748,594.126L597.312,593.918L596.881,593.553L596.463,592.962C596.368,592.797 596.258,592.576 596.135,592.306L595.922,592.449L595.434,592.614L594.937,592.639L594.525,592.555L593.864,592.176L593.436,591.627C593.36,591.487 593.219,591.157 593.033,590.598C592.879,590.137 592.732,589.697 592.592,589.276L592.282,589.494L591.59,589.674L591.15,589.642C591.222,589.951 591.296,590.268 591.372,590.594C591.593,591.537 591.042,592.489 590.114,592.766C589.289,593.014 588.419,592.652 588.002,591.928L587.979,591.975L587.395,592.48L586.973,592.65L586.538,592.712L586.114,592.673L585.663,592.517L585.005,591.991C584.939,591.912 584.849,591.774 584.74,591.583L584.513,591.816L584.112,592.047L583.638,592.182L583.169,592.194L582.773,592.114L582.488,591.961C582.458,592.791 581.865,593.519 581.02,593.689C580.047,593.886 579.094,593.272 578.872,592.304C576.48,581.909 576.473,582.012 574.235,571.662C574.022,570.673 574.651,569.697 575.639,569.484C576.043,569.396 576.446,569.45 576.794,569.611Z" style="fill:rgb(237,236,218);"/>
                </g>
                <g transform="matrix(1,0,0,1,256,181.559)">
                    <path d="M613.876,548.392C614.456,548.33 615.026,548.552 615.413,548.971C615.64,548.634 615.98,548.369 616.397,548.242C617.335,547.955 618.332,548.457 618.66,549.381C618.691,549.467 618.721,549.552 618.751,549.636C618.845,549.616 618.94,549.603 619.034,549.597C619.108,549.557 619.185,549.522 619.266,549.492C620.199,549.141 621.242,549.6 621.612,550.526C621.784,550.958 621.912,551.335 622.028,551.702L623,554.459C623.013,554.454 623.026,554.449 623.04,554.444C623.952,554.116 624.962,554.556 625.344,555.447C625.512,555.84 625.599,556.067 625.984,557.011C626.87,556.852 627.754,557.364 628.044,558.235L628.591,559.876C628.689,560.019 628.768,560.179 628.823,560.353L630.47,565.513L630.477,565.535C630.623,565.991 630.58,566.462 630.393,566.864C631.554,571.992 631.317,572.108 631.334,572.521C631.391,573.894 631.388,574.678 631.354,574.998L631.263,575.452L631.086,575.86L631.025,575.938C631.045,576.21 631.059,576.456 631.067,576.68C631.107,577.827 630.983,578.531 630.843,578.928L630.828,578.958C630.852,581.597 630.691,584.02 630.373,585.109C630.293,585.382 630.201,585.607 630.109,585.784L629.723,586.336L629.217,586.734L628.705,586.937L628.038,586.983L627.443,586.83L626.945,586.529L626.516,586.078C626.194,585.643 625.729,584.568 625.289,582.588C625.128,581.863 624.987,581.118 624.863,580.367C624.531,580.236 624.242,580.01 624.035,579.716C623.193,579.788 622.396,579.269 622.135,578.447L621.945,578.359L621.481,578.002L621.028,577.47C620.672,576.965 620.281,576.147 619.918,575.142C619.482,573.935 619.064,572.431 618.722,570.964C618.139,570.827 617.636,570.408 617.417,569.807C612.609,556.609 612.62,556.7 612.225,555.553C611.587,553.706 611.208,551.777 610.571,549.93C610.269,549.055 610.667,548.092 611.498,547.686C612.33,547.28 613.334,547.557 613.839,548.333L613.876,548.392Z" style="fill:rgb(237,236,218);"/>
                </g>
                <g transform="matrix(1,0,0,1,256,181.559)">
                    <path d="M589.228,495.282C589.31,495.018 589.495,494.787 589.761,494.654C599.245,489.912 608.976,494.767 609.428,494.917C616.654,497.326 619.159,503.807 617.97,510.098C616.804,516.268 612.036,522.233 604.733,523.798C597.138,525.426 591.746,524.089 588.178,521.344C582.761,517.176 581.464,509.661 583.169,503.61C584.201,499.945 586.33,496.846 589.228,495.282ZM592.418,495.782C592.329,496.136 592.057,496.433 591.681,496.538C588.473,497.427 586.22,500.507 585.186,504.178C583.699,509.459 584.729,516.046 589.456,519.682C592.65,522.14 597.495,523.206 604.294,521.749C610.708,520.374 614.886,515.127 615.91,509.709C616.911,504.414 614.848,498.933 608.765,496.906C608.377,496.776 600.551,492.758 592.418,495.782Z"/>
                </g>
                <g transform="matrix(1,0,0,1,256,181.559)">
                    <path d="M588.63,521.776C588.223,523.123 586.624,526.815 580.503,532.596C579.193,533.833 578.41,534.687 577.965,535.287C577.88,535.403 577.802,535.528 577.741,535.634C577.762,535.655 577.783,535.677 577.805,535.699C578.521,536.453 579.634,538.32 588.122,540.301C598.034,542.613 613.552,540.829 620.135,537.472C620.903,537.08 621.541,536.67 622.013,536.236C622.417,535.866 622.699,535.503 622.747,535.101C622.789,534.745 622.61,534.397 622.277,534.023C620.791,532.351 618.246,530.609 615.711,528.721C613.012,526.711 610.33,524.541 608.758,522.182C608.437,521.701 608.567,521.05 609.048,520.729C609.53,520.408 610.181,520.538 610.502,521.02C611.957,523.202 614.466,525.18 616.963,527.04C619.626,529.023 622.283,530.873 623.844,532.63C624.535,533.407 624.832,534.189 624.848,534.937C624.863,535.656 624.62,536.366 624.107,537.045C623.498,537.85 622.469,538.634 621.087,539.339C614.21,542.846 598.002,544.758 587.646,542.342C579.267,540.387 577.413,538.412 576.538,537.426C576.405,537.276 576.325,537.149 576.217,537.077L575.942,536.854L575.72,536.569L575.579,536.246L575.519,535.89C575.503,535.567 575.585,535.048 576.115,534.272C576.573,533.602 577.452,532.594 579.063,531.072C586.297,524.241 586.592,521.181 586.749,520.629L586.857,520.356L587.002,520.145L587.265,519.925L587.531,519.811L587.822,519.772L588.179,519.834L588.527,520.031L588.776,520.287C589.147,520.73 589.089,521.392 588.646,521.763C588.641,521.768 588.635,521.772 588.63,521.776Z"/>
                </g>
                <g transform="matrix(1,0,0,1,256,181.559)">
                    <path d="M616.977,539.645C616.977,539.645 618.097,540.398 618.494,540.993C628.746,556.372 635.003,559.021 634.552,580.664C634.427,586.662 629.739,590.762 623.276,593.237C614.054,596.767 601.269,597.027 594.575,595.539C590.63,594.663 586.805,594.282 583.342,593.537C579.684,592.749 576.42,591.553 573.785,589.088C570.323,585.849 567.903,580.374 567.285,570.484C566.748,561.889 571.438,552.756 575.574,546.674C578.389,542.536 580.974,539.809 581.47,539.503C581.962,539.198 582.608,539.351 582.913,539.843C583.217,540.335 583.064,540.981 582.572,541.286C582.123,541.563 579.859,544.101 577.307,547.853C573.394,553.608 568.869,562.22 569.377,570.353C569.947,579.471 572.025,584.571 575.217,587.557C577.573,589.761 580.512,590.784 583.783,591.487C587.25,592.234 591.08,592.615 595.029,593.493C601.443,594.918 613.691,594.661 622.526,591.279C628.101,589.145 632.348,585.794 632.456,580.62C632.894,559.61 626.703,557.086 616.749,542.156C616.572,541.889 616.198,541.649 615.986,541.505C615.77,541.358 615.629,541.247 615.603,541.22C615.194,540.811 615.194,540.147 615.603,539.738C615.977,539.363 616.566,539.332 616.977,539.645Z"/>
                </g>
                <g transform="matrix(1,0,0,1,256,181.559)">
                    <path d="M638.297,601.496C638.097,601.041 637.724,600.239 637.31,599.563C634.972,595.754 630.162,589.714 629.407,589.148C628.944,588.801 628.85,588.143 629.197,587.68C629.544,587.218 630.202,587.124 630.664,587.471C631.581,588.159 638.189,596.401 639.997,600.071C640.426,600.94 640.583,601.641 640.54,602.042L640.438,602.449L640.272,602.74L640.065,602.958L639.815,603.121C637.6,604.229 632.971,604.685 627.183,604.78C614.222,604.995 595.239,603.585 585.688,605.404C584.627,605.606 584.624,605.532 566.511,605.052C566.17,605.042 565.854,604.867 565.665,604.582C565.476,604.297 565.439,603.938 565.564,603.62C568.766,595.475 568.672,595.528 573.085,587.964C573.377,587.464 574.019,587.295 574.518,587.587C575.018,587.878 575.187,588.52 574.896,589.02C570.832,595.987 570.663,596.371 568.061,602.996C584.258,603.432 584.29,603.536 585.295,603.345C594.929,601.51 614.076,602.901 627.148,602.685C632.054,602.603 636.073,602.327 638.297,601.496Z"/>
                </g>
            </g>
        </g>
    </g>
</svg>
