<?xml version="1.0" encoding="UTF-8" standalone="no"?>
<!DOCTYPE svg PUBLIC "-//W3C//DTD SVG 1.1//EN" "http://www.w3.org/Graphics/SVG/1.1/DTD/svg11.dtd">
<svg width="100%" height="100%" viewBox="0 0 76 169" version="1.1" xmlns="http://www.w3.org/2000/svg" xmlns:xlink="http://www.w3.org/1999/xlink" xml:space="preserve" xmlns:serif="http://www.serif.com/" style="fill-rule:evenodd;clip-rule:evenodd;stroke-linejoin:round;stroke-miterlimit:2;">
    <g transform="matrix(1,0,0,1,-766.072,-289.971)">
        <g transform="matrix(1,0,0,1,-256,-181.559)">
            <g transform="matrix(1,0,0,1,276.8,-132.374)">
                <g transform="matrix(1,0,0,1,256,181.559)">
                    <path d="M507.67,436.803C507.966,436.84 508.453,436.933 508.903,437.166C509.769,437.616 511.049,438.72 512.545,441.713C514.144,444.911 513.782,445.063 515.304,451.189C515.38,451.388 515.456,451.587 515.532,451.788C515.71,450.914 515.919,450.254 516.122,449.951L516.433,449.607L516.816,449.396L517.254,449.333L517.675,449.429C517.823,449.492 518.031,449.639 518.239,449.924C518.277,449.832 518.308,449.755 518.333,449.693L518.339,449.675C518.456,449.209 518.877,448.879 519.364,448.882C519.873,448.886 520.306,449.255 520.39,449.758C520.418,449.925 520.445,450.091 520.472,450.257C520.668,450.023 520.884,449.827 521.119,449.67L521.405,449.509L521.675,449.413L521.965,449.371L522.3,449.4L522.628,449.518L522.899,449.702L523.134,449.955C523.173,450.007 523.213,450.065 523.252,450.131C523.343,448.96 523.534,447.969 523.832,447.269C524.16,446.498 524.64,446.015 525.185,445.797L525.476,445.723L525.79,445.732L526.064,445.815L526.27,445.934L526.582,446.259C526.666,446.383 526.761,446.574 526.844,446.835C526.962,447.203 527.077,447.813 527.189,448.591L527.395,448.439L527.698,448.33L528.173,448.336L528.567,448.513L528.861,448.811L529.094,449.325C529.152,449.527 529.207,449.856 529.259,450.347L529.648,450.367L529.98,450.506L530.24,450.719L530.431,450.989L530.542,451.273C530.78,451.131 531.074,451.084 531.36,451.163C531.888,451.31 532.214,451.838 532.108,452.375C532.02,452.822 531.232,456.816 531.099,459.539C531.083,459.862 531.096,460.232 531.116,460.55C531.748,460.179 532.318,460.053 532.807,460.065C533.599,460.083 534.246,460.45 534.725,461.007C535.228,461.591 535.529,462.397 535.599,463.108C535.657,463.688 535.556,464.209 535.368,464.563L535.076,464.96L534.862,465.136L534.605,465.275L534.321,465.361L534.031,465.388L533.501,465.299C533.263,465.22 533.054,465.136 532.871,465.048C532.287,465.516 531.401,465.754 529.783,465.956C529.699,465.967 529.617,465.973 529.535,465.976L529.493,466.09L529.257,466.391L529.045,466.536C528.941,466.729 528.776,466.892 528.561,466.99C528.04,467.23 527.422,467.006 527.176,466.487L527.165,466.464L526.943,465.995C526.931,465.977 526.92,465.958 526.908,465.939C526.616,465.779 526.405,465.484 526.367,465.129C526.359,465.045 526.345,464.919 526.328,464.754C526.327,464.75 526.325,464.747 526.323,464.743C526.199,465.012 525.963,465.223 525.667,465.31C525.678,465.414 525.689,465.518 525.7,465.623C525.752,466.126 525.439,466.586 524.971,466.732C524.977,466.855 524.984,466.98 524.99,467.105C525.019,467.662 524.607,468.144 524.052,468.202C523.498,468.26 522.995,467.873 522.908,467.322C522.604,465.392 522.143,463.49 521.786,461.569C521.878,463.04 521.906,464.108 521.913,464.731L521.928,464.761C522.098,465.107 522.059,465.501 521.861,465.801L521.778,466.018L521.525,466.309L521.294,466.449L521.075,466.518L520.757,466.531L520.463,466.454L520.284,466.354C520.376,466.841 520.112,467.334 519.643,467.521C519.417,467.611 519.177,467.617 518.959,467.553C518.897,467.888 518.674,468.184 518.341,468.327C517.842,468.54 517.263,468.338 517.006,467.86L516.986,467.824C516.924,467.866 516.856,467.902 516.783,467.931C516.285,468.126 515.721,467.916 515.472,467.443L515.095,466.728C514.738,466.845 514.355,466.76 514.084,466.526C514.009,466.575 513.927,466.614 513.839,466.644C513.514,466.751 513.167,466.692 512.902,466.503C512.8,466.571 512.685,466.621 512.559,466.651C512.008,466.779 511.455,466.447 511.309,465.9C511.116,465.179 510.729,464.573 510.488,464.126C510.315,463.805 510.199,463.528 510.152,463.316L510.119,462.896L510.198,462.529L510.37,462.217L510.618,461.97C510.711,461.9 510.845,461.827 511.03,461.774C511.119,461.698 511.223,461.636 511.337,461.592C511.691,461.457 512.079,461.527 512.361,461.75C512.67,461.782 512.865,461.707 513.136,461.635C513.428,461.558 513.772,461.468 514.257,461.405C514.36,461.277 514.494,461.172 514.653,461.102C514.691,460.333 514.794,458.364 514.969,456.308C514.577,455.135 514.095,453.823 513.603,452.535C513.522,452.445 513.456,452.339 513.41,452.221L510.947,445.952L510.938,445.93C510.728,445.395 510.987,444.791 511.519,444.575C511.523,444.574 511.528,444.572 511.532,444.57C511.328,444.024 511.061,443.433 510.67,442.651C508.793,438.895 507.644,438.903 507.219,438.869L506.9,438.811L506.669,438.715L506.418,438.529L506.207,438.246L506.113,438.002L506.074,437.696C506.074,437.118 506.544,436.648 507.122,436.648C507.323,436.648 507.511,436.705 507.67,436.803ZM508.145,437.468C508.162,437.541 508.17,437.618 508.17,437.696C508.17,437.612 508.161,437.537 508.145,437.468ZM521.321,456.368C521.342,455.549 521.405,454.8 521.487,454.137C521.452,453.875 521.422,453.633 521.396,453.412C521.331,453.768 521.283,454.149 521.247,454.547C521.225,454.796 521.209,455.051 521.196,455.31C521.241,455.672 521.282,456.024 521.321,456.368ZM531.589,463.386L531.583,463.159C531.592,463.048 531.61,462.933 531.639,462.811C531.644,462.787 531.651,462.763 531.657,462.738C531.542,462.826 531.432,462.894 531.33,462.947L530.976,463.083L530.62,463.129L530.234,463.076L529.881,462.918L529.609,462.696L529.59,462.671C529.586,462.969 529.583,463.276 529.579,463.591C529.579,463.595 529.579,463.599 529.579,463.604C529.578,463.697 529.565,463.788 529.541,463.874C530.168,463.796 530.653,463.729 531.036,463.632C531.262,463.574 531.437,463.521 531.565,463.408C531.573,463.401 531.581,463.394 531.589,463.386ZM525.769,459.271C525.824,459.294 525.876,459.321 525.927,459.352C525.885,458.427 525.856,457.457 525.852,456.492C525.7,454.364 525.523,452.205 525.329,450.479C525.325,450.534 525.322,450.59 525.318,450.647C525.175,453.169 525.453,456.505 525.769,459.271ZM517.229,454.677C517.226,454.703 517.224,454.73 517.221,454.757C517.216,454.885 517.212,455.008 517.208,455.128L517.282,455.279C517.281,455.226 517.28,455.175 517.28,455.123C517.262,454.966 517.246,454.818 517.229,454.677Z" style="fill:rgb(237,236,218);"/>
                </g>
                <g transform="matrix(1,0,0,1,256,181.559)">
                    <path d="M518.513,433.131C518.525,432.968 518.537,432.823 518.551,432.693C518.678,431.47 518.905,431.243 519.135,430.943L519.465,430.62L519.914,430.413L520.23,430.367L520.533,430.384C520.685,430.406 520.87,430.453 521.093,430.545C521.691,430.794 522.796,431.526 524.85,433.425C526.467,434.384 526.817,434.903 528.409,435.997C528.389,435.846 528.402,435.688 528.453,435.534C528.633,434.988 529.219,434.688 529.766,434.863C529.773,434.865 529.78,434.867 529.786,434.869C530.726,435.168 531.433,435.416 532.012,435.65C533.831,436.308 536.452,437.301 538.907,438.403C538.96,438.427 539.01,438.455 539.057,438.486C539.388,438.462 539.723,438.595 539.947,438.87C540.304,439.31 540.248,439.953 539.82,440.324C535.776,443.828 533.566,449.265 532.551,452.396C532.344,453.135 532.123,453.9 531.891,454.677C531.888,454.69 531.884,454.702 531.88,454.715C531.717,455.262 531.146,455.578 530.596,455.426C530.292,455.341 530.056,455.131 529.93,454.867C529.507,456.709 529.229,458.182 529.155,458.576C529.154,458.579 529.154,458.583 529.153,458.586C529.046,459.153 528.502,459.527 527.934,459.423C527.913,459.419 527.893,459.414 527.872,459.409L527.791,459.671L527.586,460.004C527.234,460.464 526.576,460.551 526.117,460.2C525.94,460.065 525.819,459.885 525.756,459.689C525.547,459.93 525.231,460.073 524.889,460.049C524.316,460.008 523.883,459.515 523.917,458.942C523.917,458.934 523.918,458.925 523.918,458.916C523.953,458.172 523.796,454.761 524.578,451.03C524.632,450.376 524.681,449.794 524.725,449.276C524.712,449.284 524.7,449.292 524.687,449.3C524.437,449.449 524.15,449.483 523.888,449.416C524.085,449.876 523.929,450.423 523.497,450.706C523.065,450.988 522.501,450.91 522.159,450.545C522.107,450.601 522.047,450.652 521.981,450.697C521.575,450.971 521.046,450.923 520.696,450.61C520.649,450.895 520.484,451.16 520.222,451.325C519.758,451.619 519.147,451.505 518.82,451.064C518.771,450.999 518.723,450.934 518.676,450.87C518.607,450.939 518.528,451 518.439,451.049C518.245,451.158 518.03,451.198 517.823,451.177C517.959,451.437 518.099,451.708 518.245,451.992C518.247,451.995 518.248,451.997 518.249,451.999C518.513,452.513 518.312,453.143 517.8,453.409C517.287,453.675 516.656,453.477 516.388,452.965C516.387,452.963 516.386,452.96 516.385,452.958C516.029,452.279 515.709,451.672 515.418,451.124C514.968,451.281 514.456,451.113 514.19,450.698C510.429,444.802 506.801,439.592 506.138,438.64C505.94,438.356 505.895,437.993 506.018,437.669C506.141,437.346 506.415,437.104 506.751,437.022C512.998,435.51 516.494,434.159 518.513,433.131ZM509.14,439.295C509.219,439.201 509.315,439.12 509.428,439.056C509.63,438.942 509.854,438.902 510.068,438.928C510.108,438.718 510.212,438.522 510.369,438.371C510.363,438.334 510.359,438.297 510.357,438.26C509.836,438.402 509.292,438.546 508.724,438.692C508.852,438.877 508.991,439.078 509.14,439.295ZM527.367,456.681C527.667,455.031 528.009,453.15 528.304,451.331L528.301,451.332L527.996,451.299L527.579,451.084L527.302,450.729L527.21,450.459L527.177,450.032C527.177,449.787 527.179,449.552 527.182,449.326C527.079,449.636 526.986,449.948 526.901,450.259C526.859,453.52 527.107,455.465 527.367,456.681ZM530.305,439.012C530.202,439.363 530.104,439.695 530.01,440.012C530.018,440.019 530.027,440.026 530.035,440.033C530.196,439.723 530.363,439.401 530.537,439.066C530.455,439.047 530.378,439.029 530.305,439.012ZM524.869,447.546C524.874,447.493 524.878,447.442 524.882,447.391C524.828,447.363 524.776,447.329 524.727,447.291C524.774,447.375 524.822,447.46 524.869,447.546ZM525.214,443.626C525.227,443.593 525.242,443.561 525.258,443.53C525.16,443.381 525.064,443.234 524.969,443.089C525.049,443.265 525.13,443.444 525.214,443.626Z" style="fill:rgb(237,236,218);"/>
                </g>
                <g transform="matrix(1,0,0,1,154.452,183.453)">
                    <path d="M620.409,424.836C620.373,424.187 620.532,423.379 621.02,422.403C621.706,421.03 622.605,420.53 623.41,420.459C623.92,420.415 624.446,420.562 624.933,420.858C625.03,420.886 625.123,420.921 625.212,420.963C625.364,421.034 625.508,421.13 625.642,421.249C626.011,421.425 626.37,421.718 626.688,422.175C626.7,422.189 626.711,422.203 626.723,422.217C626.909,422.451 627.044,422.71 627.131,422.986C627.548,423.96 627.437,424.841 626.999,425.555C626.936,425.952 626.815,426.333 626.626,426.676C626.471,426.957 626.273,427.221 626.026,427.454C625.741,427.824 625.372,428.171 624.907,428.481C624.684,428.629 624.471,428.721 624.272,428.773L623.904,428.828L623.525,428.799L623.169,428.685L622.947,428.556L622.739,428.495L622.563,428.394C622.257,428.347 621.988,428.264 621.753,428.155C621.578,428.087 621.428,428 621.3,427.903L621.155,427.767C621.114,427.73 621.074,427.692 621.034,427.654L621.012,427.632L621.007,427.625C620.968,427.585 620.931,427.544 620.896,427.502C620.347,426.845 620.198,425.857 620.409,424.836Z"/>
                </g>
                <g transform="matrix(1,0,0,1,154.452,183.453)">
                    <path d="M605.329,433.538C605.408,433.545 605.666,433.565 605.88,433.555C606.526,433.525 607.398,433.383 608.408,433.16C612.903,432.169 620.052,429.611 622.269,427.394C622.678,426.985 623.342,426.985 623.751,427.394C624.16,427.803 624.16,428.467 623.751,428.876C622.633,429.995 620.396,431.229 617.809,432.318C614.063,433.893 609.584,435.199 606.964,435.554C606.068,435.676 605.357,435.682 604.907,435.592L604.41,435.431L604.052,435.192C603.622,434.805 603.588,434.142 603.975,433.712C604.326,433.323 604.904,433.258 605.329,433.538Z"/>
                </g>
                <g transform="matrix(1,0,0,1,154.452,183.453)">
                    <path d="M623.639,427.261C623.95,426.773 624.598,426.628 625.086,426.938C625.574,427.249 625.719,427.897 625.408,428.385C625.302,428.553 625.44,428.697 625.587,428.863C626.026,429.359 626.797,429.827 627.755,430.295C632.841,432.781 642.872,434.776 644.005,435.002C644.572,435.116 644.94,435.668 644.827,436.236C644.713,436.803 644.161,437.171 643.594,437.058C642.425,436.824 632.082,434.744 626.834,432.178C625.279,431.418 624.149,430.572 623.651,429.762C623.14,428.933 623.109,428.094 623.639,427.261Z"/>
                </g>
                <g transform="matrix(1,0,0,1,154.452,183.453)">
                    <path d="M605.134,435.871C604.601,436.066 604.007,435.8 603.798,435.27C603.587,434.731 603.853,434.122 604.391,433.911C604.945,433.693 605.573,433.726 606.239,434.05C606.885,434.365 607.612,435.003 608.333,435.853C610.776,438.732 613.374,444.136 613.444,444.294C616.368,450.98 616.137,450.916 616.686,458.055C616.731,458.632 616.298,459.136 615.722,459.18C615.145,459.225 614.641,458.792 614.596,458.216C614.074,451.43 614.303,451.489 611.523,445.134C611.458,444.986 609.027,439.911 606.735,437.209C606.305,436.704 605.89,436.285 605.493,436.032C605.411,435.98 605.331,435.936 605.253,435.904C605.216,435.89 605.155,435.875 605.134,435.871Z"/>
                </g>
                <g transform="matrix(1,0,0,1,154.452,183.453)">
                    <path d="M644.39,437.673C643.444,438.892 639.837,443.579 637.641,446.93C636.606,448.509 635.79,449.849 635.596,450.528C634.466,454.486 634.74,453.14 634.215,457.339C634.143,457.913 633.619,458.321 633.045,458.249C632.471,458.177 632.063,457.653 632.135,457.079C632.684,452.685 632.398,454.093 633.581,449.953C633.804,449.17 634.696,447.6 635.888,445.781C638.541,441.733 642.652,436.342 643.198,435.837L643.575,435.593L644.01,435.521L644.244,435.558L644.506,435.669L644.738,435.859L644.895,436.08L644.986,436.319L645.018,436.574L644.966,436.909L644.786,437.287C644.687,437.455 644.549,437.585 644.39,437.673Z"/>
                </g>
                <g transform="matrix(1,0,0,1,-76.2188,-15.3087)">
                    <g transform="matrix(1,0,0,1,256,181.559)">
                        <path d="M574.73,590.302C575.235,589.426 576.357,589.125 577.232,589.63C578.108,590.136 578.409,591.257 577.904,592.133C574.87,597.392 574.39,598.232 572.187,601.957C587.639,601.122 588.113,599.342 598.752,600.029C613.23,600.963 630.167,599.613 634.111,600.599C635.092,600.844 635.69,601.839 635.445,602.82C635.199,603.801 634.204,604.399 633.223,604.153C629.352,603.186 612.727,604.602 598.516,603.685C587.295,602.961 587.528,605.047 568.953,605.776C568.282,605.802 567.651,605.46 567.307,604.883C566.964,604.307 566.963,603.588 567.305,603.011C571.139,596.54 571.045,596.688 574.73,590.302Z" style="fill:rgb(237,236,218);"/>
                    </g>
                    <g transform="matrix(1,0,0,1,256,181.559)">
                        <path d="M630.499,587.359C630.549,587.352 630.6,587.348 630.651,587.345C631.661,587.296 632.521,588.077 632.569,589.087L632.503,589.702L632.366,590.022C634.183,592.503 637.313,596.948 638.299,600.894C638.544,601.875 637.947,602.87 636.966,603.115C635.985,603.361 634.989,602.763 634.744,601.782C633.722,597.693 630.063,593.058 628.649,591.147C628.259,590.62 628.004,590.236 627.909,590.049L627.685,589.229L627.752,588.614L627.961,588.126L628.427,587.603L628.95,587.315L629.475,587.202L629.962,587.218C630.082,587.236 630.303,587.298 630.499,587.359ZM628.963,588.723C628.92,588.883 628.899,589.061 628.909,589.263C628.9,589.077 628.919,588.895 628.963,588.723Z" style="fill:rgb(237,236,218);"/>
                    </g>
                    <g transform="matrix(1,0,0,1,256,181.559)">
                        <path d="M574.774,596.112C575.333,595.23 575.995,594.251 577.212,592.504C577.541,592.033 578.073,591.743 578.647,591.721C579.44,591.692 580.218,591.663 580.982,591.637C581.222,591.481 581.475,591.318 581.743,591.145C580.231,591.068 579.131,591.004 578.547,590.97C577.537,590.912 576.765,590.045 576.823,589.036C576.882,588.026 577.748,587.254 578.758,587.312C582.345,587.519 605.605,588.864 623.675,587.573C627.154,587.325 629.217,587.734 630.522,588.661C631.474,589.337 632.126,590.285 632.553,591.617C633.006,593.028 633.197,594.988 633.448,597.623C634.019,597.908 634.419,598.483 634.458,599.156C634.501,599.894 634.1,600.562 633.476,600.887C633.191,601.432 632.639,601.821 631.981,601.868L631.934,601.871L628.348,602.127C628.129,602.143 627.916,602.119 627.716,602.062L626.225,602.13C625.34,602.17 624.566,601.574 624.362,600.736L621.194,600.599C609.295,601.464 589.993,602.776 573.676,603.454C573.002,603.482 572.368,603.138 572.024,602.558C571.747,602.092 571.695,601.534 571.865,601.033C571.814,600.978 571.765,600.919 571.72,600.857C571.152,600.074 571.29,598.984 572.036,598.368C573.157,597.442 574.033,596.717 574.774,596.112ZM578.308,599.58C578.087,599.462 577.892,599.3 577.736,599.103C577.48,599.261 577.214,599.426 576.937,599.598C576.928,599.614 576.919,599.629 576.909,599.645C577.374,599.624 577.84,599.602 578.308,599.58ZM585.84,591.337C585.853,591.383 585.864,591.43 585.873,591.477C586.55,591.457 587.215,591.438 587.869,591.42C587.163,591.393 586.485,591.365 585.84,591.337ZM625.654,591.137L625.873,591.414L626.078,591.843L626.086,591.884L626.425,591.789C627.068,591.608 627.73,591.794 628.183,592.226C628.305,592.231 628.426,592.236 628.547,592.241C628.671,592.246 628.792,592.263 628.908,592.291C628.786,592.027 628.628,591.811 628.401,591.649C627.797,591.22 626.924,591.107 625.654,591.137ZM629.564,595.547C629.433,595.643 629.29,595.723 629.136,595.782C629.285,595.792 629.437,595.803 629.592,595.815C629.583,595.724 629.573,595.635 629.564,595.547ZM584.827,595.176C584.806,595.214 584.785,595.254 584.763,595.295C585.013,595.248 585.274,595.201 585.547,595.153C585.308,595.161 585.068,595.168 584.827,595.176Z" style="fill:rgb(237,236,218);"/>
                    </g>
                    <g transform="matrix(1,0,0,1,256,181.559)">
                        <path d="M590.495,536.149C591.111,535.347 592.262,535.197 593.064,535.814C593.865,536.43 594.016,537.581 593.399,538.383C578.434,557.842 575.407,571.04 576.737,579.784C578.001,588.09 583.254,592.094 584.955,593.395C585.759,594.009 585.912,595.16 585.298,595.963C584.684,596.767 583.533,596.92 582.73,596.306C580.735,594.781 574.597,590.074 573.115,580.335C571.699,571.033 574.572,556.852 590.495,536.149Z" style="fill:rgb(237,236,218);"/>
                    </g>
                    <g transform="matrix(1,0,0,1,256,181.559)">
                        <path d="M610.69,538.545C609.936,538.385 609.335,537.756 609.248,536.948C609.139,535.943 609.867,535.039 610.873,534.93L611.708,535L612.469,535.328C613.029,535.652 613.867,536.354 614.867,537.375C619.824,542.437 629.821,555.979 631.772,561.833C634.813,570.957 634.643,577.473 633.249,582.181C631.15,589.276 626.219,592.352 624.614,594.038C623.916,594.77 622.756,594.798 622.023,594.101C621.291,593.404 621.263,592.243 621.96,591.511C623.379,590.021 627.881,587.411 629.736,581.141C630.979,576.94 631.01,571.134 628.296,562.992C626.452,557.461 616.932,544.721 612.249,539.939C611.665,539.343 610.904,538.718 610.69,538.545Z" style="fill:rgb(237,236,218);"/>
                    </g>
                    <g transform="matrix(1,0,0,1,256,181.559)">
                        <path d="M584.182,553.403C587.316,546.482 587.757,545.673 590.208,540.287C590.233,540.201 590.265,540.115 590.304,540.03L591.447,537.552L591.453,537.538C591.876,536.622 592.959,536.22 593.877,536.639C594.101,536.741 594.294,536.882 594.453,537.051L594.947,537.268L595.168,537.259L595.838,537.45L596.261,537.757C596.725,537.23 597.47,536.998 598.179,537.217C599.111,537.505 599.654,538.474 599.413,539.42C596.936,549.146 596.646,549.681 594.856,558.307C595.105,558.791 595.136,559.381 594.891,559.913C594.531,560.693 594.013,561.425 593.838,561.566L593.1,561.932L592.437,561.97L591.995,561.86L591.594,561.644L591.243,561.32L590.966,560.874L590.838,560.375L590.4,560.585L589.7,560.642L589.043,560.441L588.557,560.071L588.256,559.642L588.068,559.044L588.107,558.367C587.596,558.861 586.821,559.032 586.124,558.74C585.197,558.352 584.756,557.289 585.136,556.358C585.14,556.348 585.144,556.337 585.148,556.327C585.202,556.196 585.255,556.066 585.308,555.937C585.228,555.913 585.149,555.883 585.071,555.847C584.157,555.425 583.755,554.345 584.17,553.428C584.174,553.419 584.178,553.411 584.182,553.403Z" style="fill:rgb(237,236,218);"/>
                    </g>
                    <g transform="matrix(1,0,0,1,256,181.559)">
                        <path d="M588.016,535.408C588.901,534.92 590.017,535.242 590.505,536.127C590.993,537.013 590.671,538.128 589.786,538.616C588.832,539.142 587.366,540.912 585.761,543.495C581.643,550.124 577.133,562.003 579.59,574.901C579.779,575.894 579.126,576.854 578.133,577.044C577.14,577.233 576.18,576.58 575.99,575.587C573.329,561.615 578.188,548.743 582.648,541.562C584.72,538.226 586.785,536.087 588.016,535.408Z" style="fill:rgb(237,236,218);"/>
                    </g>
                    <g transform="matrix(1,0,0,1,256,181.559)">
                        <path d="M581.007,545.15C580.883,544.763 580.886,544.331 581.046,543.923L581.054,543.902L584.023,536.315C584.103,536.11 584.216,535.928 584.354,535.772C584.697,534.945 585.581,534.498 586.435,534.685C586.921,534.12 587.725,533.888 588.463,534.163C589.132,534.412 589.569,535.009 589.645,535.672L589.742,535.729L590.042,536.015L590.277,536.372L590.432,536.81L590.475,537.249L590.385,537.817C590.296,538.138 589.94,539.134 589.034,541.953L589.373,542.075L589.741,542.354L590.055,542.732C590.216,542.978 590.391,543.456 590.567,544.036C590.86,545.004 590.313,546.028 589.346,546.321C589.162,546.377 588.977,546.402 588.795,546.401C588.601,546.844 588.346,547.459 587.98,548.352L588.379,548.186L589.107,548.157L589.58,548.299L589.939,548.511L590.324,548.9L590.371,548.981L590.393,548.939L590.691,548.601L591.075,548.333L591.735,548.13L592.5,548.204L593.146,548.56L593.558,549.047C593.606,549.128 593.671,549.288 593.737,549.522C593.963,547.819 594.171,546.309 594.349,545.135C594.546,543.832 594.718,542.906 594.831,542.516L595.218,541.724L595.665,541.312L596.331,541.041L597.095,541.054L597.732,541.335L598.212,541.819L598.487,542.428C598.499,542.474 598.511,542.548 598.521,542.65C598.678,541.897 598.848,541.045 599.035,540.06C599.217,539.097 600.125,538.448 601.095,538.587C601.809,538.689 602.371,539.192 602.58,539.84C602.801,539.782 603.037,539.765 603.278,539.797C603.412,539.814 603.541,539.846 603.663,539.89C603.805,539.191 603.924,538.686 604.011,538.436L604.232,537.955L604.583,537.525L605.043,537.214L605.57,537.053L606.273,537.084L606.872,537.348L607.291,537.735L607.549,538.165L607.709,538.858L607.778,538.831L608.249,538.793L608.718,538.878L609.382,539.256L609.79,539.777L609.95,540.293C609.968,540.207 609.985,540.123 610.002,540.042C610.156,539.314 610.305,538.783 610.404,538.542L610.798,537.903L611.126,537.618L611.515,537.413L611.981,537.301L612.525,537.324L613.025,537.497L613.392,537.745L613.864,538.374L614.016,538.939C614.186,538.903 614.363,538.891 614.544,538.905C615.528,538.984 616.272,539.828 616.228,540.814C615.901,548.092 616.013,548.665 616.343,554.669C616.413,554.862 616.45,555.07 616.45,555.286L616.45,556.72C616.45,557.713 615.658,558.526 614.665,558.551C614.574,558.554 614.485,558.549 614.397,558.539C614.179,559.32 613.459,559.882 612.619,559.875C611.655,559.867 610.861,559.114 610.804,558.151C610.788,557.87 610.771,557.599 610.754,557.338C610.559,558.246 610.394,558.866 610.258,559.243L609.88,560.012L609.416,560.499L608.951,560.759L608.511,560.873L608.092,560.883L607.682,560.8L607.005,560.418L606.849,560.244C606.754,560.537 606.666,560.726 606.606,560.828L606.225,561.299L605.826,561.574L605.288,561.755L604.618,561.747L604.134,561.581L603.945,561.444C603.781,562.473 603.671,563.168 603.641,563.377C603.502,564.34 602.634,565.026 601.665,564.94C601.411,564.917 601.174,564.844 600.963,564.731L600.808,564.962L600.369,565.294L599.866,565.486L599.321,565.529L598.772,565.409L598.626,565.332C598.51,566.062 598.408,566.623 598.32,567.031C598.163,567.751 597.984,568.172 597.872,568.361L597.439,568.879L596.988,569.164L596.497,569.308L595.919,569.303L595.291,569.079L594.914,568.757C594.811,569.464 594.716,570.089 594.629,570.612C594.473,571.559 594.33,572.219 594.234,572.508L593.862,573.206L593.546,573.515L593.148,573.749L592.653,573.884L592.069,573.867L591.64,573.728L591.307,573.53L591.15,573.353C591.113,573.466 591.077,573.557 591.045,573.627L590.596,574.268L589.941,574.679L589.22,574.793L588.67,574.687L588.245,574.472L587.92,574.193L587.877,574.134L587.641,574.756L587.185,575.315L586.575,575.658L585.968,575.755L585.355,575.647L584.736,575.28L584.31,574.733L584.088,574.108C584.064,574.004 584.041,573.869 584.019,573.706L583.83,573.923L583.434,574.223L582.7,574.475L582.221,574.476L581.717,574.341L581.223,574.035L580.813,573.545L580.553,572.85C580.532,572.744 580.513,572.603 580.499,572.423C580.403,572.438 580.305,572.446 580.206,572.445C579.909,572.606 579.565,572.686 579.205,572.661C578.223,572.592 577.471,571.759 577.503,570.775C577.943,556.905 578.132,553.939 581.007,545.15Z" style="fill:rgb(237,236,218);"/>
                    </g>
                    <g transform="matrix(1,0,0,1,256,181.559)">
                        <path d="M615.4,543.65C616.175,543.354 617.076,543.616 617.563,544.327L618.619,545.869C618.858,546.006 619.07,546.2 619.232,546.445L625.943,556.567L625.958,556.589C626.189,556.937 626.285,557.334 626.26,557.721C626.376,557.871 626.483,558.001 626.579,558.109C626.585,558.117 626.592,558.125 626.6,558.133C627.265,558.54 627.621,559.345 627.422,560.141C627.177,561.122 626.181,561.719 625.2,561.474L624.758,561.307L624.38,561.065C624.088,560.837 623.596,560.294 623.024,559.502C622.627,558.953 622.162,558.262 621.663,557.494C621.397,557.368 621.157,557.177 620.971,556.924C616.635,551.033 616.821,550.988 612.118,545.445C611.464,544.674 611.559,543.517 612.33,542.863C613.101,542.209 614.258,542.304 614.912,543.075C615.081,543.273 615.243,543.465 615.4,543.65Z" style="fill:rgb(237,236,218);"/>
                    </g>
                    <g transform="matrix(1,0,0,1,256,181.559)">
                        <path d="M583.122,540.452C583.931,539.846 585.08,540.01 585.687,540.82C586.293,541.629 586.128,542.778 585.319,543.385C582.835,545.247 580.82,548.533 579.267,552.496C576.808,558.768 575.568,566.723 575.851,573.932C576.036,578.629 576.862,583.007 578.469,586.352C579.439,588.37 580.685,589.999 582.29,591.001C583.147,591.537 583.408,592.669 582.872,593.526C582.336,594.384 581.205,594.645 580.348,594.109C575.259,590.928 572.544,583.067 572.19,574.076C571.887,566.369 573.227,557.864 575.855,551.159C577.693,546.471 580.183,542.655 583.122,540.452Z" style="fill:rgb(237,236,218);"/>
                    </g>
                    <g transform="matrix(1,0,0,1,256,181.559)">
                        <path d="M576.15,585.595C577.351,587.151 578.832,588.566 580.628,589.785C581.464,590.353 581.682,591.494 581.114,592.33C580.546,593.167 579.406,593.385 578.569,592.817C570.142,587.095 567.515,577.755 568.265,568.736C569.005,559.847 573.061,551.333 577.778,547.088C578.462,546.472 579.499,546.46 580.197,547.06C580.896,547.661 581.04,548.687 580.534,549.457C579.657,550.79 575.303,557.432 573.986,568.297C572.798,578.096 576.656,580.693 578.168,582.764C578.764,583.581 578.584,584.728 577.768,585.324C577.283,585.678 576.683,585.759 576.15,585.595Z" style="fill:rgb(237,236,218);"/>
                    </g>
                    <g transform="matrix(1,0,0,1,256,181.559)">
                        <path d="M576.794,569.611C577.005,569.165 577.394,568.805 577.899,568.645C578.356,568.501 578.829,568.545 579.233,568.735C579.185,568.495 579.145,568.281 579.113,568.097C579.011,567.498 579,567.082 579.019,566.894L579.147,566.361L579.374,565.945L579.684,565.612L579.994,565.401L580.477,565.221L580.976,565.18L581.439,565.265L581.89,565.479L582.461,566.046C582.521,566.135 582.61,566.309 582.728,566.577C582.966,566.184 583.351,565.88 583.829,565.754C584.779,565.503 585.758,566.047 586.047,566.987C586.258,567.673 586.465,568.341 586.669,568.99C586.909,568.657 587.262,568.402 587.688,568.29C587.836,568.251 587.984,568.231 588.131,568.229C588.273,567.592 588.752,567.054 589.421,566.865C590.374,566.596 591.367,567.132 591.666,568.075C591.838,568.618 592.551,570.882 593.494,573.803C593.005,571.106 592.626,569.054 592.528,568.519C592.352,567.563 592.952,566.636 593.897,566.407C594.841,566.177 595.801,566.725 596.083,567.655C596.181,567.978 596.444,568.846 596.825,570.077C596.922,569.522 597.274,569.032 597.784,568.767C597.251,565.863 597.166,564.114 596.983,563.216C596.975,563.175 596.966,563.134 596.957,563.095C596.955,563.085 596.953,563.075 596.95,563.065C596.735,562.083 597.353,561.11 598.334,560.887C598.396,560.873 598.457,560.863 598.519,560.855C598.489,560.662 598.459,560.469 598.427,560.276C598.375,559.99 598.322,559.694 598.265,559.388C598.264,559.381 598.263,559.374 598.261,559.366C598.079,558.375 598.732,557.423 599.721,557.235C600.647,557.059 601.544,557.614 601.814,558.496C602.014,558.364 602.242,558.271 602.491,558.225C603.033,558.126 603.564,558.277 603.965,558.597C603.953,557.733 603.93,556.87 603.872,556.01C603.835,555.594 603.796,555.166 603.756,554.725C603.755,554.71 603.753,554.695 603.752,554.68C603.661,553.681 604.391,552.795 605.388,552.692C606.386,552.589 607.281,553.307 607.397,554.304C607.398,554.319 607.4,554.334 607.401,554.348C607.446,554.743 607.481,555.139 607.509,555.535C607.519,555.648 607.529,555.759 607.538,555.87C607.794,555.293 608.34,554.865 609.009,554.789C609.984,554.678 610.873,555.356 611.025,556.325C611.219,557.558 611.398,558.695 611.566,559.751C611.79,559.59 612.053,559.478 612.343,559.431C613.326,559.274 614.255,559.93 614.435,560.909C614.452,560.998 614.468,561.086 614.484,561.174C615.299,561.212 616.012,561.793 616.189,562.622C616.359,563.418 616.516,564.162 616.662,564.859C616.922,564.4 617.378,564.057 617.935,563.958C618.89,563.787 619.813,564.391 620.039,565.335C620.442,567.021 620.789,568.488 621.098,569.793C621.257,569.702 621.433,569.633 621.622,569.593C622.588,569.386 623.544,569.982 623.783,570.94C624.308,573.041 624.742,574.779 625.117,576.28C625.188,576.397 625.246,576.523 625.29,576.658C625.711,577.942 627.484,583.348 630.994,592.561C630.994,592.562 630.995,592.563 630.995,592.564C631.318,593.411 630.971,594.348 630.216,594.794C630.264,594.958 630.313,595.124 630.363,595.292C630.368,595.31 630.374,595.328 630.379,595.346C630.662,596.306 630.121,597.316 629.165,597.613C628.209,597.91 627.192,597.385 626.88,596.433C626.875,596.416 626.869,596.398 626.863,596.38C626.495,595.254 626.167,594.249 625.874,593.339C624.944,593.574 623.989,593.053 623.686,592.142C623.644,592.016 623.602,591.891 623.561,591.767L623.518,591.982L623.13,592.593L622.481,593.039L622.045,593.159L621.616,593.172L621.188,593.084L620.756,592.879L620.161,592.292C620.061,592.146 619.929,591.909 619.792,591.599L619.693,591.716L619.265,591.962L618.74,592.09L618.151,592.047L617.579,591.802L617.132,591.394L616.87,590.938C616.856,590.902 616.794,590.713 616.705,590.375C616.67,590.24 616.635,590.106 616.6,589.974C615.862,589.928 615.199,589.436 614.966,588.695L614.253,586.435L614.324,586.816C614.5,587.757 613.921,588.676 612.995,588.923C612.354,589.093 611.697,588.902 611.248,588.468C611.058,588.622 610.834,588.739 610.585,588.808C609.781,589.03 608.947,588.68 608.53,587.992C608.386,588.166 608.208,588.314 608.005,588.426L607.984,588.823L607.697,589.477L607.369,589.841L607.038,590.067L606.639,590.194C606.721,590.561 606.758,590.714 606.805,590.909C606.97,591.587 606.735,592.273 606.245,592.71C606.394,593.987 606.09,594.571 605.464,595.354L604.858,595.867L604.421,596.045L603.953,596.115L603.475,596.072L602.938,595.879L602.434,595.524L601.993,595.032C601.539,594.424 600.908,593.124 600.193,591.396C600.248,591.885 600.259,592.226 600.248,592.389L600.101,593.039L599.779,593.563L599.314,593.956L598.758,594.178L598.183,594.216L597.748,594.126L597.312,593.918L596.881,593.553L596.463,592.962C596.368,592.797 596.258,592.576 596.135,592.306L595.922,592.449L595.434,592.614L594.937,592.639L594.525,592.555L593.864,592.176L593.436,591.627C593.36,591.487 593.219,591.157 593.033,590.598C592.879,590.137 592.732,589.697 592.592,589.276L592.282,589.494L591.59,589.674L591.15,589.642C591.222,589.951 591.296,590.268 591.372,590.594C591.593,591.537 591.042,592.489 590.114,592.766C589.289,593.014 588.419,592.652 588.002,591.928L587.979,591.975L587.395,592.48L586.973,592.65L586.538,592.712L586.114,592.673L585.663,592.517L585.005,591.991C584.939,591.912 584.849,591.774 584.74,591.583L584.513,591.816L584.112,592.047L583.638,592.182L583.169,592.194L582.773,592.114L582.488,591.961C582.458,592.791 581.865,593.519 581.02,593.689C580.047,593.886 579.094,593.272 578.872,592.304C576.48,581.909 576.473,582.012 574.235,571.662C574.022,570.673 574.651,569.697 575.639,569.484C576.043,569.396 576.446,569.45 576.794,569.611Z" style="fill:rgb(237,236,218);"/>
                    </g>
                    <g transform="matrix(1,0,0,1,256,181.559)">
                        <path d="M613.876,548.392C614.456,548.33 615.026,548.552 615.413,548.971C615.64,548.634 615.98,548.369 616.397,548.242C617.335,547.955 618.332,548.457 618.66,549.381C618.691,549.467 618.721,549.552 618.751,549.636C618.845,549.616 618.94,549.603 619.034,549.597C619.108,549.557 619.185,549.522 619.266,549.492C620.199,549.141 621.242,549.6 621.612,550.526C621.784,550.958 621.912,551.335 622.028,551.702L623,554.459C623.013,554.454 623.026,554.449 623.04,554.444C623.952,554.116 624.962,554.556 625.344,555.447C625.512,555.84 625.599,556.067 625.984,557.011C626.87,556.852 627.754,557.364 628.044,558.235L628.591,559.876C628.689,560.019 628.768,560.179 628.823,560.353L630.47,565.513L630.477,565.535C630.623,565.991 630.58,566.462 630.393,566.864C631.554,571.992 631.317,572.108 631.334,572.521C631.391,573.894 631.388,574.678 631.354,574.998L631.263,575.452L631.086,575.86L631.025,575.938C631.045,576.21 631.059,576.456 631.067,576.68C631.107,577.827 630.983,578.531 630.843,578.928L630.828,578.958C630.852,581.597 630.691,584.02 630.373,585.109C630.293,585.382 630.201,585.607 630.109,585.784L629.723,586.336L629.217,586.734L628.705,586.937L628.038,586.983L627.443,586.83L626.945,586.529L626.516,586.078C626.194,585.643 625.729,584.568 625.289,582.588C625.128,581.863 624.987,581.118 624.863,580.367C624.531,580.236 624.242,580.01 624.035,579.716C623.193,579.788 622.396,579.269 622.135,578.447L621.945,578.359L621.481,578.002L621.028,577.47C620.672,576.965 620.281,576.147 619.918,575.142C619.482,573.935 619.064,572.431 618.722,570.964C618.139,570.827 617.636,570.408 617.417,569.807C612.609,556.609 612.62,556.7 612.225,555.553C611.587,553.706 611.208,551.777 610.571,549.93C610.269,549.055 610.667,548.092 611.498,547.686C612.33,547.28 613.334,547.557 613.839,548.333L613.876,548.392Z" style="fill:rgb(237,236,218);"/>
                    </g>
                    <g transform="matrix(1,0,0,1,256,181.559)">
                        <path d="M616.091,540.448C615.932,540.067 616.007,539.611 616.317,539.301C616.726,538.892 617.39,538.892 617.799,539.301L617.942,539.479L618.069,539.747C618.124,539.91 618.229,540.596 618.494,540.993C628.746,556.372 635.003,559.021 634.552,580.664C634.427,586.662 629.739,590.762 623.276,593.237C614.054,596.767 601.269,597.027 594.575,595.539C590.63,594.663 586.805,594.282 583.342,593.537C579.684,592.749 576.42,591.553 573.785,589.088C570.323,585.849 567.903,580.374 567.285,570.484C566.655,560.407 571.085,552.481 574.221,548.374C575.646,546.509 576.842,545.41 577.23,545.171C577.722,544.866 578.369,545.019 578.673,545.511C578.977,546.003 578.824,546.649 578.332,546.954C578.011,547.152 577.066,548.103 575.887,549.647C572.949,553.493 568.787,560.914 569.377,570.353C569.947,579.471 572.025,584.571 575.217,587.557C577.573,589.761 580.512,590.784 583.783,591.487C587.25,592.234 591.08,592.615 595.029,593.493C601.443,594.918 613.691,594.661 622.526,591.279C628.101,589.145 632.348,585.794 632.456,580.62C632.894,559.61 626.703,557.086 616.749,542.156C616.409,541.645 616.138,540.628 616.091,540.448Z"/>
                    </g>
                    <g transform="matrix(1,0,0,1,256,181.559)">
                        <path d="M638.297,601.496C638.097,601.041 637.724,600.239 637.31,599.563C634.972,595.754 630.162,589.714 629.407,589.148C628.944,588.801 628.85,588.143 629.197,587.68C629.544,587.218 630.202,587.124 630.664,587.471C631.581,588.159 638.189,596.401 639.997,600.071C640.426,600.94 640.583,601.641 640.54,602.042L640.438,602.449L640.272,602.74L640.065,602.958L639.815,603.121C637.6,604.229 632.971,604.685 627.183,604.78C614.222,604.995 595.239,603.585 585.688,605.404C584.627,605.606 584.624,605.532 566.511,605.052C566.17,605.042 565.854,604.867 565.665,604.582C565.476,604.297 565.439,603.938 565.564,603.62C568.766,595.475 568.672,595.528 573.085,587.964C573.377,587.464 574.019,587.295 574.518,587.587C575.018,587.878 575.187,588.52 574.896,589.02C570.832,595.987 570.663,596.371 568.061,602.996C584.258,603.432 584.29,603.536 585.295,603.345C594.929,601.51 614.076,602.901 627.148,602.685C632.054,602.603 636.073,602.327 638.297,601.496Z"/>
                    </g>
                </g>
                <g transform="matrix(1,0,0,1,256,181.559)">
                    <path d="M500.611,534.701C500.46,534.432 500.43,534.1 500.554,533.794C501.009,532.672 501.424,531.721 501.726,531.048L501.742,530.964C501.768,530.876 501.837,530.743 501.963,530.385C502.046,530.121 502.131,529.85 502.219,529.573C502.31,529.257 502.416,528.866 502.537,528.379C502.572,528.242 502.632,528.117 502.711,528.01C502.822,527.659 502.936,527.3 503.052,526.93C503.056,526.917 503.06,526.904 503.064,526.891C503.105,526.762 503.168,526.648 503.247,526.549C503.026,526.311 502.921,525.976 502.985,525.638C503.131,524.871 503.276,524.213 503.423,523.632C503.424,523.57 503.43,523.508 503.441,523.445C503.683,522.156 503.697,522.176 507.848,507.65C511.617,494.457 511.484,494.497 511.828,493.362C511.979,492.864 512.471,492.553 512.985,492.629C513.132,492.651 513.268,492.702 513.387,492.777C513.403,492.754 513.419,492.732 513.436,492.71C513.622,491.8 513.765,491.158 513.87,490.746C514.013,490.187 514.167,489.899 514.233,489.811L514.42,489.618L514.691,489.458L514.917,489.395L515.189,489.385L515.462,489.448L515.687,489.565L515.94,489.807L516.084,490.067L516.169,490.482C516.182,490.694 516.161,491.151 516.103,491.793C515.979,493.158 515.696,495.476 515.361,498.041C515.405,498.181 515.42,498.332 515.4,498.486C515.399,498.495 515.398,498.504 515.397,498.514C515.255,499.637 515.125,500.662 515.003,501.605L515.168,501.606L515.496,501.725L515.747,501.921L515.921,502.161C515.979,502.27 516.086,502.604 516.098,503.147C516.104,503.466 516.097,503.918 516.077,504.474C516.113,504.592 516.129,504.718 516.12,504.849C516.119,504.863 516.117,504.877 516.116,504.891C516.097,505.176 516.079,505.452 516.06,505.721L516.139,505.747L516.337,505.88L516.503,506.059L516.629,506.282L516.67,506.416C517.05,506.517 517.355,506.829 517.43,507.239C517.499,507.612 517.74,508.928 518.077,510.708C518.2,510.403 518.465,510.16 518.809,510.079C519.363,509.947 519.92,510.283 520.064,510.833L520.194,511.331C520.335,511.168 520.526,511.047 520.75,510.995C521.285,510.871 521.824,511.18 521.988,511.704C522.018,511.801 522.048,511.897 522.077,511.992C522.207,511.86 522.374,511.762 522.566,511.713C522.901,511.629 523.24,511.716 523.489,511.921L523.324,511.101C523.214,510.554 523.552,510.017 524.092,509.879C524.633,509.741 525.187,510.051 525.352,510.584C525.358,510.604 525.365,510.624 525.371,510.644C525.378,510.636 525.384,510.627 525.391,510.619C525.386,510.419 525.382,510.222 525.377,510.028C525.01,509.875 524.746,509.519 524.731,509.096C524.647,506.701 524.572,504.661 524.505,502.919C524.307,503.21 523.967,503.395 523.59,503.378C523.012,503.352 522.564,502.861 522.591,502.283C523.11,490.865 522.739,490.805 523.663,488.033C523.748,487.778 523.834,487.589 523.902,487.479L524.073,487.256L524.329,487.058L524.656,486.937L524.905,486.937C525.05,486.163 525.176,485.387 525.244,484.603C525.293,484.046 525.77,483.626 526.328,483.647C526.887,483.668 527.33,484.124 527.336,484.683C527.343,485.321 527.351,486.131 527.359,487.071C527.547,487.19 527.695,487.368 527.776,487.579C527.832,487.559 527.89,487.544 527.949,487.534L528.057,487.26L528.247,487.031L528.534,486.842L528.77,486.768L529.042,486.753L529.336,486.817L529.56,486.932L529.872,487.258L530.009,487.574C530.032,487.656 530.059,487.789 530.081,487.974C530.131,488.388 530.178,489.231 530.233,490.503C530.299,490.488 530.368,490.479 530.438,490.477C530.594,490.473 530.743,490.502 530.878,490.56C530.987,490.114 531.382,489.78 531.86,489.764C532.149,489.754 532.416,489.862 532.612,490.047C532.8,489.816 533.084,489.668 533.404,489.661C533.972,489.65 534.446,490.094 534.472,490.661L534.487,491.006L534.505,491.007L534.779,491.103L534.982,491.239L535.19,491.477L535.304,491.71C535.341,491.813 535.394,492.109 535.424,492.668C535.489,493.906 535.617,497.011 536.37,503.478L536.626,505.524C537.028,505.601 537.363,505.911 537.453,506.335C538.676,512.094 538.59,512.019 539.852,517.808C539.946,518.239 539.76,518.67 539.408,518.904C539.514,519.32 539.625,519.758 539.742,520.221C539.823,520.54 539.747,520.864 539.562,521.11C540.839,525.293 541.63,527.642 542.148,529.039C542.39,529.611 542.686,530.31 543.055,531.181C543.276,531.702 543.043,532.304 542.529,532.542C542.015,532.779 541.406,532.565 541.153,532.059C541.117,531.988 541.079,531.912 541.038,531.827C540.996,531.808 540.955,531.786 540.916,531.761C540.903,531.765 540.89,531.769 540.877,531.774C540.781,531.804 540.683,531.82 540.587,531.822C540.621,532.302 540.32,532.757 539.841,532.9C539.289,533.065 538.708,532.754 538.539,532.203C538.538,532.198 538.536,532.193 538.535,532.188C538.491,532.045 538.447,531.903 538.404,531.761C538.284,531.868 538.137,531.949 537.97,531.993C537.415,532.137 536.848,531.809 536.696,531.256C536.693,531.247 536.691,531.237 536.688,531.228C536.531,530.655 536.38,530.106 536.235,529.578C535.757,529.605 535.307,529.3 535.17,528.821C534.768,527.419 534.393,526.112 534.044,524.895L534.034,524.896C534.044,525.029 534.053,525.163 534.062,525.299C534.09,525.698 533.889,526.065 533.566,526.264L533.944,528.232C534.051,528.788 533.696,529.329 533.143,529.452C532.667,529.559 532.192,529.323 531.98,528.905C531.843,529.066 531.655,529.188 531.434,529.243C530.903,529.375 530.362,529.076 530.189,528.56C530.064,528.685 529.906,528.779 529.724,528.829C529.459,528.901 529.188,528.865 528.962,528.746C528.917,529.162 528.625,529.524 528.202,529.643C527.789,529.759 527.36,529.609 527.104,529.292C526.97,529.458 526.783,529.585 526.562,529.645C526.023,529.791 525.464,529.489 525.292,528.957C524.733,527.238 524.393,526.223 523.938,524.83C524.063,525.794 524.087,526.071 524.162,526.526C524.253,527.079 523.893,527.605 523.346,527.722C523.274,527.737 523.202,527.744 523.131,527.745L522.981,527.857L522.706,527.974L522.108,528.05L521.629,527.982L521.338,527.824L520.955,527.934L520.564,527.929L520.153,527.759L519.81,527.42C519.722,527.294 519.612,527.091 519.503,526.809C519.393,526.528 519.267,526.13 519.129,525.639C519.199,526.591 519.236,527.249 519.223,527.469L519.121,527.914L518.994,528.126L518.799,528.321L518.412,528.507L518.168,528.537L517.934,528.513L517.615,528.386L517.426,528.212C517.561,531.212 517.656,533.404 517.65,533.721L517.59,534.08L517.433,534.374L517.251,534.56L517.04,534.691L516.8,534.769L516.53,534.786L516.115,534.671L515.804,534.425L515.656,534.2L515.554,533.855C515.509,533.526 515.304,530.259 514.841,522.215C514.766,523.133 514.712,523.778 514.691,524.031C514.676,524.209 514.618,524.374 514.526,524.515C514.516,524.642 514.505,524.769 514.495,524.897C514.489,525.455 514.486,525.778 514.485,525.785C514.35,527.097 514.226,528.307 514.112,529.418C513.634,534.848 513.191,539.148 513.11,539.732L513.027,540.062L512.867,540.325L512.59,540.56L512.153,540.7L511.875,540.687L511.62,540.607L511.359,540.435L511.167,540.204L511.036,539.88L511.011,539.645C511.011,539.466 511.231,537.053 511.811,531.325C512.002,529.218 512.209,526.853 512.407,524.42C512.333,524.275 512.292,524.11 512.293,523.936C512.306,522.102 512.327,520.439 512.355,518.934C512.093,520.325 511.786,521.948 511.415,523.933C511.313,524.479 510.802,524.85 510.251,524.779C510.137,524.765 510.029,524.732 509.931,524.685C509.916,524.684 509.9,524.683 509.885,524.682C509.357,524.636 508.947,524.203 508.929,523.673C508.916,523.293 508.898,522.914 508.877,522.534C508.836,522.407 508.819,522.27 508.83,522.13L508.843,521.954C508.814,521.473 508.781,520.991 508.749,520.509C508.103,522.522 507.625,523.748 506.276,527.41C506.136,527.79 505.797,528.043 505.417,528.088C505.146,528.751 504.901,529.339 504.684,529.856C504.723,530.049 504.707,530.255 504.629,530.45C504.136,531.682 503.913,532.244 503.613,532.806C502.363,536.595 501.291,539.805 501.179,540.023L500.934,540.339L500.733,540.478L500.479,540.574L500.184,540.6L499.846,540.525L499.612,540.393L499.384,540.16L499.212,539.765L499.191,539.506L499.223,539.278C499.281,539.017 499.692,537.651 500.611,534.701Z" style="fill:rgb(237,236,218);"/>
                </g>
                <g transform="matrix(1,0,0,1,256,181.559)">
                    <path d="M514.958,474.981C514.971,474.331 514.985,473.645 515.001,472.915C514.889,472.736 514.83,472.521 514.844,472.294L515.138,467.488C515.124,467.456 515.111,467.423 515.099,467.389C514.961,466.975 515.096,466.535 515.407,466.265L515.621,465.963L515.904,465.776L515.935,465.767L515.967,465.435L515.968,465.427C516.014,464.95 516.374,464.578 516.824,464.497C516.967,463.693 517.126,462.797 517.304,461.779C517.4,461.228 517.913,460.85 518.468,460.92C518.639,460.942 518.796,461.004 518.93,461.096C519.011,460.541 519.514,460.148 520.072,460.203C520.631,460.259 521.047,460.747 521.014,461.309C521.012,461.339 521.008,461.402 521.003,461.497C521.163,461.433 521.342,461.407 521.526,461.43C522.097,461.502 522.503,462.021 522.436,462.592C522.435,462.598 522.434,462.603 522.434,462.609C522.424,462.691 522.414,462.772 522.405,462.853C522.861,462.893 523.225,463.222 523.33,463.646C523.474,463.584 523.634,463.554 523.801,463.564C523.819,463.565 523.836,463.567 523.854,463.569C523.874,463.323 523.895,463.074 523.916,462.82C523.917,462.81 523.918,462.8 523.918,462.79C523.966,462.219 524.463,461.792 525.035,461.832C525.066,461.834 525.097,461.838 525.128,461.842C525.34,461.623 525.645,461.499 525.971,461.527C526.341,461.56 526.651,461.781 526.811,462.09L527.053,462.1L527.348,462.209L527.395,462.246C527.458,461.722 527.524,461.177 527.593,460.61C527.66,460.055 528.151,459.651 528.709,459.691C529.217,459.728 529.617,460.122 529.674,460.615C529.895,460.783 530.048,461.036 530.082,461.329L530.249,461.078L530.613,460.816L531.01,460.728L531.327,460.769L531.569,460.872L531.776,461.03L531.969,461.283L532.15,461.824C532.264,462.361 532.453,463.718 532.733,466.121C533.986,476.897 533.319,476.884 534.467,487.641C534.496,487.919 534.415,488.184 534.257,488.39L534.363,489.36L534.364,489.372C534.392,489.623 534.328,489.864 534.199,490.06C534.276,490.601 534.362,491.198 534.459,491.868C534.46,491.873 534.461,491.879 534.462,491.884C534.544,492.454 534.152,492.983 533.583,493.07C533.571,493.072 533.56,493.074 533.548,493.075C533.492,493.55 533.116,493.939 532.622,493.994C532.419,494.016 532.223,493.979 532.052,493.896C532.175,495.647 532.332,497.682 532.53,500.083C532.531,500.09 532.532,500.097 532.532,500.104C532.558,500.42 532.441,500.716 532.234,500.926C532.347,502.324 532.479,503.898 532.634,505.708C532.682,506.267 532.281,506.765 531.724,506.837C531.168,506.909 530.653,506.53 530.557,505.977C529.791,501.58 529.275,498.623 528.887,496.158C528.958,500.084 529.079,504.969 529.273,511.065C529.29,511.621 528.871,512.094 528.317,512.143C528.065,512.165 527.825,512.096 527.631,511.962C527.666,512.934 527.703,513.987 527.743,515.139C527.763,515.698 527.341,516.174 526.784,516.221C526.226,516.268 525.73,515.868 525.657,515.314L525.4,513.374L525.501,517.084C525.516,517.64 525.094,518.112 524.54,518.158C524.159,518.19 523.806,518.012 523.598,517.72C523.541,517.734 523.482,517.745 523.421,517.75C522.857,517.798 522.357,517.39 522.291,516.828C522.182,515.904 522.08,515.041 521.984,514.23C521.856,514.379 521.686,514.491 521.493,514.549C521.555,516.257 521.577,517.049 521.553,517.236L521.456,517.584L521.31,517.816L521.027,518.056L520.703,518.178L520.423,518.195L520.17,518.145L519.853,517.977L519.644,517.761C519.607,517.71 519.489,517.458 519.393,517.036C519.238,517.379 518.902,517.626 518.501,517.65C518.326,517.66 518.159,517.627 518.01,517.56C517.974,518.03 517.947,518.335 517.93,518.489L517.828,518.916L517.687,519.146L517.513,519.318L517.244,519.47L516.983,519.533L516.737,519.531L516.506,519.475L516.202,519.301L515.987,519.059L515.848,518.734L515.816,518.485C515.801,518.048 515.993,514.168 516.287,508.614C516.095,508.787 515.84,508.89 515.562,508.884C514.996,508.872 514.541,508.413 514.536,507.846C514.527,506.925 514.486,502.305 514.518,497.334C514.356,497.294 514.209,497.217 514.087,497.113C514.043,497.299 513.998,497.488 513.953,497.679C513.834,498.18 513.369,498.521 512.855,498.483C512.341,498.444 511.932,498.038 511.889,497.525C511.74,495.744 511.266,490.264 514.767,475.381C514.803,475.231 514.869,475.096 514.958,474.981ZM520.537,487.621C520.545,487.618 520.553,487.614 520.562,487.61C520.561,487.537 520.56,487.465 520.56,487.393C520.552,487.468 520.544,487.544 520.537,487.621ZM515.539,466.167C515.608,466.125 515.682,466.09 515.762,466.063C515.693,466.086 515.615,466.119 515.539,466.167ZM515.378,466.306C515.355,466.333 515.333,466.363 515.315,466.395L515.378,466.306Z" style="fill:rgb(237,236,218);"/>
                </g>
                <g transform="matrix(1,0,0,1,154.452,183.453)">
                    <path d="M610.46,459.32C610.418,459.218 610.392,459.108 610.385,458.993C610.347,458.416 610.785,457.916 611.362,457.879C632.709,456.487 635.227,456.648 637.068,457.109L637.562,457.292L637.981,457.624L638.237,458.01C638.292,458.124 638.343,458.259 638.385,458.422C638.558,459.101 638.551,460.624 638.081,464.211C638.009,464.759 637.523,465.157 636.972,465.12C625.257,464.339 623.682,464.288 612.121,465.77C611.837,465.807 611.55,465.725 611.327,465.544C611.105,465.363 610.966,465.099 610.943,464.814C610.672,461.403 610.818,461.583 610.414,459.968C610.358,459.744 610.379,459.519 610.46,459.32ZM612.555,459.902C612.82,461.027 612.786,461.283 612.95,463.551C623.403,462.228 625.468,462.258 636.126,462.963C636.321,461.365 636.406,460.314 636.406,459.618C636.406,459.429 636.388,459.234 636.371,459.097C634.606,458.697 631.701,458.661 612.555,459.902Z"/>
                </g>
                <g transform="matrix(1.10123,0,0,0.983884,92.0763,190.962)">
                    <path d="M615.289,465.587C615.467,465.033 616.013,464.746 616.507,464.945C617.002,465.144 617.258,465.755 617.08,466.308C616.755,467.321 616.677,469.149 616.477,471.975C615.984,478.936 614.921,491.654 608.916,512.67C605.629,524.177 605.091,527.749 604.839,529.312C604.704,530.153 604.616,530.524 604.367,531.024C604.11,531.537 603.53,531.72 603.071,531.433C602.613,531.146 602.449,530.496 602.705,529.983C602.857,529.68 602.883,529.445 602.966,528.934C603.222,527.345 603.763,523.713 607.103,512.021C613.037,491.253 614.093,478.686 614.579,471.807C614.799,468.701 614.931,466.699 615.289,465.587Z"/>
                </g>
                <g transform="matrix(1,0,0,1,154.452,183.453)">
                    <path d="M635.282,464.762C635.291,464.912 635.304,465.115 635.321,465.338C635.718,470.705 638.212,497.373 641.976,514.505C642.93,518.846 643.962,522.567 645.067,525.149C645.716,526.665 646.344,527.767 647.044,528.258C647.517,528.59 647.632,529.244 647.3,529.717C646.968,530.191 646.314,530.306 645.841,529.974C644.924,529.332 643.99,527.961 643.14,525.974C641.995,523.301 640.917,519.45 639.929,514.954C636.142,497.72 633.63,470.892 633.23,465.493C633.185,464.888 633.169,464.522 633.173,464.432L633.222,464.141L633.345,463.881L633.509,463.686L633.786,463.5L634.055,463.419L634.382,463.417L634.655,463.498L634.9,463.653L635.122,463.914L635.216,464.114L635.287,464.452C635.301,464.558 635.299,464.662 635.282,464.762Z"/>
                </g>
                <g transform="matrix(1,0,0,1,256,181.559)">
                    <path d="M522.73,424.493C522.818,424.457 522.913,424.432 523.012,424.421C523.587,424.357 524.106,424.772 524.17,425.347C524.333,426.814 523.859,427.777 523.262,428.318C522.539,429.469 521.606,429.357 521.099,429.069C520.657,428.817 520.228,428.187 520.092,427.449C520.073,427.349 520.06,427.248 520.052,427.147C520.026,426.945 520.022,426.723 520.046,426.48C520.234,424.597 521.556,424.162 522.461,424.399C522.551,424.422 522.641,424.453 522.73,424.493Z" style="fill:rgb(237,236,218);"/>
                </g>
            </g>
        </g>
    </g>
</svg>
