<?xml version="1.0" encoding="UTF-8" standalone="no"?>
<!DOCTYPE svg PUBLIC "-//W3C//DTD SVG 1.1//EN" "http://www.w3.org/Graphics/SVG/1.1/DTD/svg11.dtd">
<svg width="100%" height="100%" viewBox="0 0 76 128" version="1.1" xmlns="http://www.w3.org/2000/svg" xmlns:xlink="http://www.w3.org/1999/xlink" xml:space="preserve" xmlns:serif="http://www.serif.com/" style="fill-rule:evenodd;clip-rule:evenodd;stroke-linejoin:round;stroke-miterlimit:2;">
    <g transform="matrix(1,0,0,1,-788.784,-517.762)">
        <g transform="matrix(1,0,0,1,-256,-181.559)">
            <g transform="matrix(1,0,0,1,253.165,49.4662)">
                <g transform="matrix(1,0,0,1,-29.872,-9.79299)">
                    <g transform="matrix(1,0,0,1,256,181.559)">
                        <path d="M574.73,590.302C575.235,589.426 576.357,589.125 577.232,589.63C578.108,590.136 578.409,591.257 577.904,592.133C574.87,597.392 574.39,598.232 572.187,601.957C587.639,601.122 588.113,599.342 598.752,600.029C613.23,600.963 630.167,599.613 634.111,600.599C635.092,600.844 635.69,601.839 635.445,602.82C635.199,603.801 634.204,604.399 633.223,604.153C629.352,603.186 612.727,604.602 598.516,603.685C587.295,602.961 587.528,605.047 568.953,605.776C568.282,605.802 567.651,605.46 567.307,604.883C566.964,604.307 566.963,603.588 567.305,603.011C571.139,596.54 571.045,596.688 574.73,590.302Z" style="fill:rgb(237,236,218);"/>
                    </g>
                    <g transform="matrix(1,0,0,1,256,181.559)">
                        <path d="M630.499,587.359C630.549,587.352 630.6,587.348 630.651,587.345C631.661,587.296 632.521,588.077 632.569,589.087L632.503,589.702L632.366,590.022C634.183,592.503 637.313,596.948 638.299,600.894C638.544,601.875 637.947,602.87 636.966,603.115C635.985,603.361 634.989,602.763 634.744,601.782C633.722,597.693 630.063,593.058 628.649,591.147C628.259,590.62 628.004,590.236 627.909,590.049L627.685,589.229L627.752,588.614L627.961,588.126L628.427,587.603L628.95,587.315L629.475,587.202L629.962,587.218C630.082,587.236 630.303,587.298 630.499,587.359ZM628.963,588.723C628.92,588.883 628.899,589.061 628.909,589.263C628.9,589.077 628.919,588.895 628.963,588.723Z" style="fill:rgb(237,236,218);"/>
                    </g>
                    <g transform="matrix(1,0,0,1,256,181.559)">
                        <path d="M574.774,596.112C575.333,595.23 575.995,594.251 577.212,592.504C577.541,592.033 578.073,591.743 578.647,591.721C579.44,591.692 580.218,591.663 580.982,591.637C581.222,591.481 581.475,591.318 581.743,591.145C580.231,591.068 579.131,591.004 578.547,590.97C577.537,590.912 576.765,590.045 576.823,589.036C576.882,588.026 577.748,587.254 578.758,587.312C582.345,587.519 605.605,588.864 623.675,587.573C627.154,587.325 629.217,587.734 630.522,588.661C631.474,589.337 632.126,590.285 632.553,591.617C633.006,593.028 633.197,594.988 633.448,597.623C634.019,597.908 634.419,598.483 634.458,599.156C634.501,599.894 634.1,600.562 633.476,600.887C633.191,601.432 632.639,601.821 631.981,601.868L631.934,601.871L628.348,602.127C628.129,602.143 627.916,602.119 627.716,602.062L626.225,602.13C625.34,602.17 624.566,601.574 624.362,600.736L621.194,600.599C609.295,601.464 589.993,602.776 573.676,603.454C573.002,603.482 572.368,603.138 572.024,602.558C571.747,602.092 571.695,601.534 571.865,601.033C571.814,600.978 571.765,600.919 571.72,600.857C571.152,600.074 571.29,598.984 572.036,598.368C573.157,597.442 574.033,596.717 574.774,596.112ZM578.308,599.58C578.087,599.462 577.892,599.3 577.736,599.103C577.48,599.261 577.214,599.426 576.937,599.598C576.928,599.614 576.919,599.629 576.909,599.645C577.374,599.624 577.84,599.602 578.308,599.58ZM585.84,591.337C585.853,591.383 585.864,591.43 585.873,591.477C586.55,591.457 587.215,591.438 587.869,591.42C587.163,591.393 586.485,591.365 585.84,591.337ZM625.654,591.137L625.873,591.414L626.078,591.843L626.086,591.884L626.425,591.789C627.068,591.608 627.73,591.794 628.183,592.226C628.305,592.231 628.426,592.236 628.547,592.241C628.671,592.246 628.792,592.263 628.908,592.291C628.786,592.027 628.628,591.811 628.401,591.649C627.797,591.22 626.924,591.107 625.654,591.137ZM629.564,595.547C629.433,595.643 629.29,595.723 629.136,595.782C629.285,595.792 629.437,595.803 629.592,595.815C629.583,595.724 629.573,595.635 629.564,595.547ZM584.827,595.176C584.806,595.214 584.785,595.254 584.763,595.295C585.013,595.248 585.274,595.201 585.547,595.153C585.308,595.161 585.068,595.168 584.827,595.176Z" style="fill:rgb(237,236,218);"/>
                    </g>
                    <g transform="matrix(1,0,0,1,256,181.559)">
                        <path d="M590.495,536.149C591.111,535.347 592.262,535.197 593.064,535.814C593.865,536.43 594.016,537.581 593.399,538.383C578.434,557.842 575.407,571.04 576.737,579.784C578.001,588.09 583.254,592.094 584.955,593.395C585.759,594.009 585.912,595.16 585.298,595.963C584.684,596.767 583.533,596.92 582.73,596.306C580.735,594.781 574.597,590.074 573.115,580.335C571.699,571.033 574.572,556.852 590.495,536.149Z" style="fill:rgb(237,236,218);"/>
                    </g>
                    <g transform="matrix(1,0,0,1,256,181.559)">
                        <path d="M610.69,538.545C609.936,538.385 609.335,537.756 609.248,536.948C609.139,535.943 609.867,535.039 610.873,534.93L611.708,535L612.469,535.328C613.029,535.652 613.867,536.354 614.867,537.375C619.824,542.437 629.821,555.979 631.772,561.833C634.813,570.957 634.643,577.473 633.249,582.181C631.15,589.276 626.219,592.352 624.614,594.038C623.916,594.77 622.756,594.798 622.023,594.101C621.291,593.404 621.263,592.243 621.96,591.511C623.379,590.021 627.881,587.411 629.736,581.141C630.979,576.94 631.01,571.134 628.296,562.992C626.452,557.461 616.932,544.721 612.249,539.939C611.665,539.343 610.904,538.718 610.69,538.545Z" style="fill:rgb(237,236,218);"/>
                    </g>
                    <g transform="matrix(1,0,0,1,256,181.559)">
                        <path d="M584.182,553.403C587.316,546.482 587.757,545.673 590.208,540.287C590.233,540.201 590.265,540.115 590.304,540.03L591.447,537.552L591.453,537.538C591.876,536.622 592.959,536.22 593.877,536.639C594.101,536.741 594.294,536.882 594.453,537.051L594.947,537.268L595.168,537.259L595.838,537.45L596.261,537.757C596.725,537.23 597.47,536.998 598.179,537.217C599.111,537.505 599.654,538.474 599.413,539.42C596.936,549.146 596.646,549.681 594.856,558.307C595.105,558.791 595.136,559.381 594.891,559.913C594.531,560.693 594.013,561.425 593.838,561.566L593.1,561.932L592.437,561.97L591.995,561.86L591.594,561.644L591.243,561.32L590.966,560.874L590.838,560.375L590.4,560.585L589.7,560.642L589.043,560.441L588.557,560.071L588.256,559.642L588.068,559.044L588.107,558.367C587.596,558.861 586.821,559.032 586.124,558.74C585.197,558.352 584.756,557.289 585.136,556.358C585.14,556.348 585.144,556.337 585.148,556.327C585.202,556.196 585.255,556.066 585.308,555.937C585.228,555.913 585.149,555.883 585.071,555.847C584.157,555.425 583.755,554.345 584.17,553.428C584.174,553.419 584.178,553.411 584.182,553.403Z" style="fill:rgb(237,236,218);"/>
                    </g>
                    <g transform="matrix(1,0,0,1,256,181.559)">
                        <path d="M588.016,535.408C588.901,534.92 590.017,535.242 590.505,536.127C590.993,537.013 590.671,538.128 589.786,538.616C588.832,539.142 587.366,540.912 585.761,543.495C581.643,550.124 577.133,562.003 579.59,574.901C579.779,575.894 579.126,576.854 578.133,577.044C577.14,577.233 576.18,576.58 575.99,575.587C573.329,561.615 578.188,548.743 582.648,541.562C584.72,538.226 586.785,536.087 588.016,535.408Z" style="fill:rgb(237,236,218);"/>
                    </g>
                    <g transform="matrix(1,0,0,1,256,181.559)">
                        <path d="M581.007,545.15C580.883,544.763 580.886,544.331 581.046,543.923L581.054,543.902L584.023,536.315C584.103,536.11 584.216,535.928 584.354,535.772C584.697,534.945 585.581,534.498 586.435,534.685C586.921,534.12 587.725,533.888 588.463,534.163C589.132,534.412 589.569,535.009 589.645,535.672L589.742,535.729L590.042,536.015L590.277,536.372L590.432,536.81L590.475,537.249L590.385,537.817C590.296,538.138 589.94,539.134 589.034,541.953L589.373,542.075L589.741,542.354L590.055,542.732C590.216,542.978 590.391,543.456 590.567,544.036C590.86,545.004 590.313,546.028 589.346,546.321C589.162,546.377 588.977,546.402 588.795,546.401C588.601,546.844 588.346,547.459 587.98,548.352L588.379,548.186L589.107,548.157L589.58,548.299L589.939,548.511L590.324,548.9L590.371,548.981L590.393,548.939L590.691,548.601L591.075,548.333L591.735,548.13L592.5,548.204L593.146,548.56L593.558,549.047C593.606,549.128 593.671,549.288 593.737,549.522C593.963,547.819 594.171,546.309 594.349,545.135C594.546,543.832 594.718,542.906 594.831,542.516L595.218,541.724L595.665,541.312L596.331,541.041L597.095,541.054L597.732,541.335L598.212,541.819L598.487,542.428C598.499,542.474 598.511,542.548 598.521,542.65C598.678,541.897 598.848,541.045 599.035,540.06C599.217,539.097 600.125,538.448 601.095,538.587C601.809,538.689 602.371,539.192 602.58,539.84C602.801,539.782 603.037,539.765 603.278,539.797C603.412,539.814 603.541,539.846 603.663,539.89C603.805,539.191 603.924,538.686 604.011,538.436L604.232,537.955L604.583,537.525L605.043,537.214L605.57,537.053L606.273,537.084L606.872,537.348L607.291,537.735L607.549,538.165L607.709,538.858L607.778,538.831L608.249,538.793L608.718,538.878L609.382,539.256L609.79,539.777L609.95,540.293C609.968,540.207 609.985,540.123 610.002,540.042C610.156,539.314 610.305,538.783 610.404,538.542L610.798,537.903L611.126,537.618L611.515,537.413L611.981,537.301L612.525,537.324L613.025,537.497L613.392,537.745L613.864,538.374L614.016,538.939C614.186,538.903 614.363,538.891 614.544,538.905C615.528,538.984 616.272,539.828 616.228,540.814C615.901,548.092 616.013,548.665 616.343,554.669C616.413,554.862 616.45,555.07 616.45,555.286L616.45,556.72C616.45,557.713 615.658,558.526 614.665,558.551C614.574,558.554 614.485,558.549 614.397,558.539C614.179,559.32 613.459,559.882 612.619,559.875C611.655,559.867 610.861,559.114 610.804,558.151C610.788,557.87 610.771,557.599 610.754,557.338C610.559,558.246 610.394,558.866 610.258,559.243L609.88,560.012L609.416,560.499L608.951,560.759L608.511,560.873L608.092,560.883L607.682,560.8L607.005,560.418L606.849,560.244C606.754,560.537 606.666,560.726 606.606,560.828L606.225,561.299L605.826,561.574L605.288,561.755L604.618,561.747L604.134,561.581L603.945,561.444C603.781,562.473 603.671,563.168 603.641,563.377C603.502,564.34 602.634,565.026 601.665,564.94C601.411,564.917 601.174,564.844 600.963,564.731L600.808,564.962L600.369,565.294L599.866,565.486L599.321,565.529L598.772,565.409L598.626,565.332C598.51,566.062 598.408,566.623 598.32,567.031C598.163,567.751 597.984,568.172 597.872,568.361L597.439,568.879L596.988,569.164L596.497,569.308L595.919,569.303L595.291,569.079L594.914,568.757C594.811,569.464 594.716,570.089 594.629,570.612C594.473,571.559 594.33,572.219 594.234,572.508L593.862,573.206L593.546,573.515L593.148,573.749L592.653,573.884L592.069,573.867L591.64,573.728L591.307,573.53L591.15,573.353C591.113,573.466 591.077,573.557 591.045,573.627L590.596,574.268L589.941,574.679L589.22,574.793L588.67,574.687L588.245,574.472L587.92,574.193L587.877,574.134L587.641,574.756L587.185,575.315L586.575,575.658L585.968,575.755L585.355,575.647L584.736,575.28L584.31,574.733L584.088,574.108C584.064,574.004 584.041,573.869 584.019,573.706L583.83,573.923L583.434,574.223L582.7,574.475L582.221,574.476L581.717,574.341L581.223,574.035L580.813,573.545L580.553,572.85C580.532,572.744 580.513,572.603 580.499,572.423C580.403,572.438 580.305,572.446 580.206,572.445C579.909,572.606 579.565,572.686 579.205,572.661C578.223,572.592 577.471,571.759 577.503,570.775C577.943,556.905 578.132,553.939 581.007,545.15ZM589.734,538.577C589.737,538.573 589.738,538.572 589.738,538.572C589.738,538.572 589.738,538.572 589.734,538.577Z" style="fill:rgb(237,236,218);"/>
                    </g>
                    <g transform="matrix(1,0,0,1,256,181.559)">
                        <path d="M615.4,543.65C616.175,543.354 617.076,543.616 617.563,544.327L618.619,545.869C618.858,546.006 619.07,546.2 619.232,546.445L625.943,556.567L625.958,556.589C626.189,556.937 626.285,557.334 626.26,557.721C626.376,557.871 626.483,558.001 626.579,558.109C626.585,558.117 626.592,558.125 626.6,558.133C627.265,558.54 627.621,559.345 627.422,560.141C627.177,561.122 626.181,561.719 625.2,561.474L624.758,561.307L624.38,561.065C624.088,560.837 623.596,560.294 623.024,559.502C622.627,558.953 622.162,558.262 621.663,557.494C621.397,557.368 621.157,557.177 620.971,556.924C616.635,551.033 616.821,550.988 612.118,545.445C611.464,544.674 611.559,543.517 612.33,542.863C613.101,542.209 614.258,542.304 614.912,543.075C615.081,543.273 615.243,543.465 615.4,543.65Z" style="fill:rgb(237,236,218);"/>
                    </g>
                    <g transform="matrix(1,0,0,1,256,181.559)">
                        <path d="M583.122,540.452C583.931,539.846 585.08,540.01 585.687,540.82C586.293,541.629 586.128,542.778 585.319,543.385C582.835,545.247 580.82,548.533 579.267,552.496C576.808,558.768 575.568,566.723 575.851,573.932C576.036,578.629 576.862,583.007 578.469,586.352C579.439,588.37 580.685,589.999 582.29,591.001C583.147,591.537 583.408,592.669 582.872,593.526C582.336,594.384 581.205,594.645 580.348,594.109C575.259,590.928 572.544,583.067 572.19,574.076C571.887,566.369 573.227,557.864 575.855,551.159C577.693,546.471 580.183,542.655 583.122,540.452Z" style="fill:rgb(237,236,218);"/>
                    </g>
                    <g transform="matrix(1,0,0,1,256,181.559)">
                        <path d="M576.15,585.595C577.351,587.151 578.832,588.566 580.628,589.785C581.464,590.353 581.682,591.494 581.114,592.33C580.546,593.167 579.406,593.385 578.569,592.817C570.142,587.095 567.515,577.755 568.265,568.736C569.005,559.847 573.061,551.333 577.778,547.088C578.462,546.472 579.499,546.46 580.197,547.06C580.896,547.661 581.04,548.687 580.534,549.457C579.657,550.79 575.303,557.432 573.986,568.297C572.798,578.096 576.656,580.693 578.168,582.764C578.764,583.581 578.584,584.728 577.768,585.324C577.283,585.678 576.683,585.759 576.15,585.595Z" style="fill:rgb(237,236,218);"/>
                    </g>
                    <g transform="matrix(1,0,0,1,256,181.559)">
                        <path d="M576.794,569.611C577.005,569.165 577.394,568.805 577.899,568.645C578.356,568.501 578.829,568.545 579.233,568.735C579.185,568.495 579.145,568.281 579.113,568.097C579.011,567.498 579,567.082 579.019,566.894L579.147,566.361L579.374,565.945L579.684,565.612L579.994,565.401L580.477,565.221L580.976,565.18L581.439,565.265L581.89,565.479L582.461,566.046C582.521,566.135 582.61,566.309 582.728,566.577C582.966,566.184 583.351,565.88 583.829,565.754C584.779,565.503 585.758,566.047 586.047,566.987C586.258,567.673 586.465,568.341 586.669,568.99C586.909,568.657 587.262,568.402 587.688,568.29C587.836,568.251 587.984,568.231 588.131,568.229C588.273,567.592 588.752,567.054 589.421,566.865C590.374,566.596 591.367,567.132 591.666,568.075C591.838,568.618 592.551,570.882 593.494,573.803C593.005,571.106 592.626,569.054 592.528,568.519C592.352,567.563 592.952,566.636 593.897,566.407C594.841,566.177 595.801,566.725 596.083,567.655C596.181,567.978 596.444,568.846 596.825,570.077C596.922,569.522 597.274,569.032 597.784,568.767C597.251,565.863 597.166,564.114 596.983,563.216C596.975,563.175 596.966,563.134 596.957,563.095C596.955,563.085 596.953,563.075 596.95,563.065C596.735,562.083 597.353,561.11 598.334,560.887C598.396,560.873 598.457,560.863 598.519,560.855C598.489,560.662 598.459,560.469 598.427,560.276C598.375,559.99 598.322,559.694 598.265,559.388C598.264,559.381 598.263,559.374 598.261,559.366C598.079,558.375 598.732,557.423 599.721,557.235C600.647,557.059 601.544,557.614 601.814,558.496C602.014,558.364 602.242,558.271 602.491,558.225C603.033,558.126 603.564,558.277 603.965,558.597C603.953,557.733 603.93,556.87 603.872,556.01C603.835,555.594 603.796,555.166 603.756,554.725C603.755,554.71 603.753,554.695 603.752,554.68C603.661,553.681 604.391,552.795 605.388,552.692C606.386,552.589 607.281,553.307 607.397,554.304C607.398,554.319 607.4,554.334 607.401,554.348C607.446,554.743 607.481,555.139 607.509,555.535C607.519,555.648 607.529,555.759 607.538,555.87C607.794,555.293 608.34,554.865 609.009,554.789C609.984,554.678 610.873,555.356 611.025,556.325C611.219,557.558 611.398,558.695 611.566,559.751C611.79,559.59 612.053,559.478 612.343,559.431C613.326,559.274 614.255,559.93 614.435,560.909C614.452,560.998 614.468,561.086 614.484,561.174C615.299,561.212 616.012,561.793 616.189,562.622C616.359,563.418 616.516,564.162 616.662,564.859C616.922,564.4 617.378,564.057 617.935,563.958C618.89,563.787 619.813,564.391 620.039,565.335C620.442,567.021 620.789,568.488 621.098,569.793C621.257,569.702 621.433,569.633 621.622,569.593C622.588,569.386 623.544,569.982 623.783,570.94C624.308,573.041 624.742,574.779 625.117,576.28C625.188,576.397 625.246,576.523 625.29,576.658C625.711,577.942 627.484,583.348 630.994,592.561C630.994,592.562 630.995,592.563 630.995,592.564C631.318,593.411 630.971,594.348 630.216,594.794C630.264,594.958 630.313,595.124 630.363,595.292C630.368,595.31 630.374,595.328 630.379,595.346C630.662,596.306 630.121,597.316 629.165,597.613C628.209,597.91 627.192,597.385 626.88,596.433C626.875,596.416 626.869,596.398 626.863,596.38C626.495,595.254 626.167,594.249 625.874,593.339C624.944,593.574 623.989,593.053 623.686,592.142C623.644,592.016 623.602,591.891 623.561,591.767L623.518,591.982L623.13,592.593L622.481,593.039L622.045,593.159L621.616,593.172L621.188,593.084L620.756,592.879L620.161,592.292C620.061,592.146 619.929,591.909 619.792,591.599L619.693,591.716L619.265,591.962L618.74,592.09L618.151,592.047L617.579,591.802L617.132,591.394L616.87,590.938C616.856,590.902 616.794,590.713 616.705,590.375C616.67,590.24 616.635,590.106 616.6,589.974C615.862,589.928 615.199,589.436 614.966,588.695L614.253,586.435L614.324,586.816C614.5,587.757 613.921,588.676 612.995,588.923C612.354,589.093 611.697,588.902 611.248,588.468C611.058,588.622 610.834,588.739 610.585,588.808C609.781,589.03 608.947,588.68 608.53,587.992C608.386,588.166 608.208,588.314 608.005,588.426L607.984,588.823L607.697,589.477L607.369,589.841L607.038,590.067L606.639,590.194C606.721,590.561 606.758,590.714 606.805,590.909C606.97,591.587 606.735,592.273 606.245,592.71C606.394,593.987 606.09,594.571 605.464,595.354L604.858,595.867L604.421,596.045L603.953,596.115L603.475,596.072L602.938,595.879L602.434,595.524L601.993,595.032C601.539,594.424 600.908,593.124 600.193,591.396C600.248,591.885 600.259,592.226 600.248,592.389L600.101,593.039L599.779,593.563L599.314,593.956L598.758,594.178L598.183,594.216L597.748,594.126L597.312,593.918L596.881,593.553L596.463,592.962C596.368,592.797 596.258,592.576 596.135,592.306L595.922,592.449L595.434,592.614L594.937,592.639L594.525,592.555L593.864,592.176L593.436,591.627C593.36,591.487 593.219,591.157 593.033,590.598C592.879,590.137 592.732,589.697 592.592,589.276L592.282,589.494L591.59,589.674L591.15,589.642C591.222,589.951 591.296,590.268 591.372,590.594C591.593,591.537 591.042,592.489 590.114,592.766C589.289,593.014 588.419,592.652 588.002,591.928L587.979,591.975L587.395,592.48L586.973,592.65L586.538,592.712L586.114,592.673L585.663,592.517L585.005,591.991C584.939,591.912 584.849,591.774 584.74,591.583L584.513,591.816L584.112,592.047L583.638,592.182L583.169,592.194L582.773,592.114L582.488,591.961C582.458,592.791 581.865,593.519 581.02,593.689C580.047,593.886 579.094,593.272 578.872,592.304C576.48,581.909 576.473,582.012 574.235,571.662C574.022,570.673 574.651,569.697 575.639,569.484C576.043,569.396 576.446,569.45 576.794,569.611Z" style="fill:rgb(237,236,218);"/>
                    </g>
                    <g transform="matrix(1,0,0,1,256,181.559)">
                        <path d="M613.876,548.392C614.456,548.33 615.026,548.552 615.413,548.971C615.64,548.634 615.98,548.369 616.397,548.242C617.335,547.955 618.332,548.457 618.66,549.381C618.691,549.467 618.721,549.552 618.751,549.636C618.845,549.616 618.94,549.603 619.034,549.597C619.108,549.557 619.185,549.522 619.266,549.492C620.199,549.141 621.242,549.6 621.612,550.526C621.784,550.958 621.912,551.335 622.028,551.702L623,554.459C623.013,554.454 623.026,554.449 623.04,554.444C623.952,554.116 624.962,554.556 625.344,555.447C625.512,555.84 625.599,556.067 625.984,557.011C626.87,556.852 627.754,557.364 628.044,558.235L628.591,559.876C628.689,560.019 628.768,560.179 628.823,560.353L630.47,565.513L630.477,565.535C630.623,565.991 630.58,566.462 630.393,566.864C631.554,571.992 631.317,572.108 631.334,572.521C631.391,573.894 631.388,574.678 631.354,574.998L631.263,575.452L631.086,575.86L631.025,575.938C631.045,576.21 631.059,576.456 631.067,576.68C631.107,577.827 630.983,578.531 630.843,578.928L630.828,578.958C630.852,581.597 630.691,584.02 630.373,585.109C630.293,585.382 630.201,585.607 630.109,585.784L629.723,586.336L629.217,586.734L628.705,586.937L628.038,586.983L627.443,586.83L626.945,586.529L626.516,586.078C626.194,585.643 625.729,584.568 625.289,582.588C625.128,581.863 624.987,581.118 624.863,580.367C624.531,580.236 624.242,580.01 624.035,579.716C623.193,579.788 622.396,579.269 622.135,578.447L621.945,578.359L621.481,578.002L621.028,577.47C620.672,576.965 620.281,576.147 619.918,575.142C619.482,573.935 619.064,572.431 618.722,570.964C618.139,570.827 617.636,570.408 617.417,569.807C612.609,556.609 612.62,556.7 612.225,555.553C611.587,553.706 611.208,551.777 610.571,549.93C610.269,549.055 610.667,548.092 611.498,547.686C612.33,547.28 613.334,547.557 613.839,548.333L613.876,548.392Z" style="fill:rgb(237,236,218);"/>
                    </g>
                    <g transform="matrix(1,0,0,1,256,181.559)">
                        <path d="M578.62,544.242C577.439,544.973 567.46,556.479 568.331,570.419C569.816,594.177 581.645,591.592 594.802,594.516C605.725,596.944 633.524,594.61 633.504,580.642C633.47,557.182 625.911,555.243 619.788,545.501C617.763,542.28 619.733,543.105 619.139,543.688" style="fill:rgb(237,236,218);"/>
                        <path d="M620.164,544.006C620.292,544.277 620.464,544.608 620.675,544.943C626.892,554.834 634.518,556.822 634.552,580.64C634.561,586.65 629.898,590.76 623.409,593.238C614.166,596.768 601.268,597.027 594.575,595.539C590.63,594.663 586.805,594.282 583.342,593.537C579.684,592.749 576.42,591.553 573.785,589.088C570.323,585.849 567.903,580.374 567.285,570.484C566.657,560.437 571.483,551.612 574.865,546.967C576.4,544.858 577.683,543.59 578.069,543.351C578.561,543.047 579.208,543.199 579.512,543.691C579.816,544.183 579.664,544.83 579.172,545.134C578.849,545.333 577.839,546.442 576.559,548.201C573.372,552.579 568.785,560.884 569.377,570.353C569.947,579.471 572.025,584.571 575.217,587.557C577.573,589.761 580.512,590.784 583.783,591.487C587.25,592.234 591.08,592.615 595.029,593.493C601.443,594.918 613.804,594.662 622.661,591.28C628.24,589.15 632.463,585.81 632.456,580.643C632.423,557.542 624.93,555.652 618.9,546.059C618.198,544.942 617.927,544.226 617.843,543.806L617.801,543.33L617.861,542.964L618.039,542.596L618.392,542.266L618.851,542.105L619.268,542.124L619.622,542.261L619.887,542.461L620.09,542.709L620.235,543.013L620.302,543.373L620.264,543.765L620.164,544.006Z"/>
                    </g>
                    <g transform="matrix(1,0,0,1,256,181.559)">
                        <path d="M638.297,601.496C638.097,601.041 637.724,600.239 637.31,599.563C634.972,595.754 630.162,589.714 629.407,589.148C628.944,588.801 628.85,588.143 629.197,587.68C629.544,587.218 630.202,587.124 630.664,587.471C631.581,588.159 638.189,596.401 639.997,600.071C640.426,600.94 640.583,601.641 640.54,602.042L640.438,602.449L640.272,602.74L640.065,602.958L639.815,603.121C637.6,604.229 632.971,604.685 627.183,604.78C614.222,604.995 595.239,603.585 585.688,605.404C584.627,605.606 584.624,605.532 566.511,605.052C566.17,605.042 565.854,604.867 565.665,604.582C565.476,604.297 565.439,603.938 565.564,603.62C568.766,595.475 568.672,595.528 573.085,587.964C573.377,587.464 574.019,587.295 574.518,587.587C575.018,587.878 575.187,588.52 574.896,589.02C570.832,595.987 570.663,596.371 568.061,602.996C584.258,603.432 584.29,603.536 585.295,603.345C594.929,601.51 614.076,602.901 627.148,602.685C632.054,602.603 636.073,602.327 638.297,601.496Z"/>
                    </g>
                </g>
                <g transform="matrix(1,0,0,1,256,181.559)">
                    <path d="M548.595,536.517C548.57,536.344 548.588,536.163 548.656,535.99L549.225,534.524C549.031,534.267 548.957,533.925 549.054,533.595C551.178,526.35 552.086,524.446 553.554,520.223C553.292,519.991 553.153,519.632 553.217,519.262C553.219,519.251 553.221,519.239 553.223,519.228C553.351,518.481 553.605,517.007 554.055,514.818C554.258,513.173 554.516,512.144 555.194,509.12C555.235,508.937 555.322,508.775 555.439,508.645C556.518,504.171 558.065,498.368 560.262,491.265C560.428,490.73 560.985,490.42 561.527,490.561C561.949,490.67 562.247,491.024 562.302,491.435C562.53,491.199 562.864,491.074 563.209,491.125C563.474,491.164 563.702,491.299 563.862,491.49L563.921,491.451L564.161,491.391L564.442,491.391L564.849,491.535L565.17,491.836L565.3,492.113C565.403,491.647 565.512,491.16 565.625,490.651C565.747,490.107 566.273,489.753 566.823,489.846C567.177,489.906 567.461,490.138 567.601,490.443C567.736,489.927 568.238,489.594 568.767,489.671C569.298,489.749 569.685,490.217 569.662,490.753C569.66,490.813 569.655,490.896 569.649,491C569.84,490.627 570.244,490.392 570.683,490.435C571.237,490.489 571.653,490.966 571.629,491.523C571.573,492.834 571.516,494.085 571.467,495.256C571.468,495.257 571.468,495.258 571.469,495.258C571.637,494.058 571.822,492.746 572.024,491.33C572.1,490.799 572.564,490.411 573.1,490.431C573.637,490.451 574.071,490.872 574.107,491.408C574.236,493.318 574.352,494.955 574.454,496.329C574.648,494.575 574.908,492.288 575.27,489.3C575.337,488.746 575.827,488.341 576.384,488.38C576.639,488.398 576.866,488.506 577.038,488.671C577.24,488.476 577.52,488.363 577.822,488.379C578.331,488.408 578.738,488.795 578.803,489.286C578.91,489.25 579.025,489.232 579.143,489.233C579.709,489.239 580.168,489.692 580.18,490.257C580.181,490.279 580.181,490.301 580.182,490.322C580.358,490.179 580.582,490.092 580.827,490.088C581.391,490.079 581.861,490.519 581.889,491.083L581.906,491.411C581.946,490.977 581.984,490.542 582.021,490.107C582.053,489.735 582.276,489.423 582.586,489.263C582.602,489.191 582.615,489.126 582.623,489.054C582.685,488.497 583.173,488.087 583.732,488.123C584.291,488.16 584.723,488.629 584.712,489.189C584.665,491.637 584.718,493.246 584.822,494.584L584.999,494.666L585.265,494.969L585.363,495.195L585.405,495.42C585.408,495.461 585.402,495.656 585.358,496.004C585.316,496.344 585.244,496.918 585.164,497.729C585.337,499.159 585.522,500.845 585.652,503.57C586.036,511.64 586.403,514.019 587.239,518.567C587.481,518.729 587.655,518.99 587.696,519.301L588.632,526.362L588.637,526.398C588.676,526.695 588.587,526.98 588.412,527.196C588.475,527.834 588.55,528.594 588.64,529.502C588.64,529.505 588.64,529.508 588.641,529.511C588.692,530.03 588.356,530.498 587.868,530.627L587.963,531.097L588.874,535.272L588.878,535.291C588.952,535.629 588.854,535.964 588.642,536.206C588.604,536.631 588.308,537.005 587.875,537.124C587.831,537.136 587.787,537.145 587.743,537.151L587.864,537.917C587.934,538.364 587.71,538.795 587.327,539.002L587.588,540.049C587.719,540.571 587.433,541.107 586.927,541.289C586.677,541.379 586.414,541.368 586.183,541.276L586.208,541.371L586.217,541.403C586.363,541.956 586.038,542.525 585.488,542.68C584.937,542.835 584.363,542.519 584.199,541.971C584.196,541.96 584.193,541.95 584.19,541.939C583.576,539.887 583.063,538.224 582.62,536.805C582.73,537.7 582.8,538.348 582.835,538.797C582.891,539.526 582.823,539.916 582.77,540.056L582.549,540.417L582.382,540.566L582.148,540.694L581.777,540.769L581.319,540.678L580.934,540.401C580.845,540.304 580.706,540.097 580.569,539.788C580.148,538.841 579.549,535.934 578.926,532.395C578.943,532.593 578.96,532.794 578.977,532.998C578.978,533.01 578.979,533.021 578.98,533.033C579.027,533.603 578.609,534.106 578.04,534.163C577.471,534.22 576.961,533.81 576.894,533.242L576.891,533.207L576.868,533.011C576.595,535.803 576.409,536.296 576.099,537.153C575.972,537.506 575.811,537.759 575.673,537.904L575.377,538.137L575.067,538.26L574.594,538.275L574.192,538.125L573.986,537.972L573.785,537.747C573.699,537.628 573.603,537.458 573.511,537.223C573.26,536.582 572.96,535.12 572.593,532.379L572.488,532.316L572.277,532.101L572.153,531.885L572.04,531.377C572.009,531.031 571.996,530.241 572.006,528.915C571.989,528.902 571.973,528.889 571.957,528.875C571.78,532.261 571.745,533.904 571.681,534.881C571.619,535.823 571.525,536.24 571.307,536.823L571.11,537.168L570.866,537.389L570.563,537.528L570.183,537.564L569.903,537.502L569.611,537.341L569.353,537.058L569.182,536.685C569.069,536.334 568.935,535.426 568.796,534.165C568.73,534.46 568.66,534.663 568.599,534.788L568.372,535.122L567.995,535.389L567.554,535.482L567.118,535.394L566.788,535.18L566.56,534.898C566.423,534.671 566.244,534.094 566.113,533.252C565.981,532.401 565.856,531.215 565.747,529.882C565.704,529.762 565.682,529.632 565.686,529.497C565.689,529.403 565.692,529.308 565.694,529.213C565.682,529.056 565.671,528.897 565.659,528.736C565.313,530.751 564.855,532.32 564.397,532.909L564.146,533.175L563.911,533.344L563.657,533.461L563.348,533.529L563.009,533.519L562.686,533.426L562.3,533.181L562.031,532.886C561.804,532.577 561.545,532.006 561.349,531.024C561.214,530.348 561.095,529.432 561.007,528.212C560.991,528.14 560.983,528.066 560.983,527.99C560.983,527.948 560.983,527.906 560.983,527.865C560.938,527.174 560.904,526.394 560.881,525.512C560.745,526.057 560.608,526.582 560.472,527.073C559.789,531.088 559.17,534.879 558.927,535.656C558.757,536.2 558.601,536.517 558.511,536.641L558.214,536.929L557.914,537.068L557.687,537.108L557.434,537.096L557.192,537.024L556.995,536.914L556.695,536.595L556.534,536.177C556.438,535.712 556.55,533.632 556.647,530.147C556.452,530.642 556.299,530.964 556.156,531.21C555.611,533.759 555.082,536.043 554.71,536.795L554.515,537.117L554.265,537.376L553.956,537.552L553.651,537.623L553.402,537.617L553.161,537.557L552.922,537.435L552.684,537.223L552.47,536.845C552.428,536.726 552.373,536.474 552.329,536.131C552.29,535.822 552.25,535.412 552.213,534.971C552.121,534.941 552.035,534.899 551.957,534.847C551.832,535.054 551.698,535.278 551.555,535.52L551.43,536.147C551.404,536.274 551.357,536.391 551.293,536.495C551.176,536.794 550.93,537.016 550.637,537.111C550.595,537.184 550.554,537.258 550.511,537.333C550.247,537.8 549.672,537.992 549.18,537.777C548.693,537.565 548.443,537.024 548.595,536.517ZM575.018,530.314C574.861,530.14 574.762,529.913 574.751,529.661C574.713,528.809 574.677,528.003 574.644,527.237C574.55,528.348 574.464,529.307 574.39,530.053C574.529,531.245 574.658,532.248 574.778,533.087C574.85,532.374 574.928,531.474 575.018,530.314ZM561.369,510.22C561.396,510.03 561.424,509.838 561.455,509.645C561.202,510.701 560.938,511.789 560.629,513.042C560.608,513.279 560.588,513.52 560.569,513.766C560.853,512.508 561.108,511.368 561.369,510.22ZM584.613,530.719L584.425,529.52C584.37,529.175 584.492,528.839 584.726,528.61C584.577,528.615 584.433,528.588 584.302,528.536C584.338,529.225 584.376,529.948 584.416,530.704C584.482,530.703 584.548,530.708 584.613,530.719Z" style="fill:rgb(237,236,218);"/>
                </g>
                <g transform="matrix(1,0,0,1,256,181.559)">
                    <path d="M549.454,471.097C549.46,471.09 549.466,471.084 549.472,471.077C549.698,470.844 550.02,470.729 550.343,470.766C552.302,470.988 553.201,471 554.262,470.921C554.396,470.809 554.561,470.729 554.745,470.695C554.996,470.649 555.244,470.697 555.451,470.814C556.145,470.747 557,470.667 558.197,470.59C558.481,470.571 558.76,470.67 558.97,470.862C559.181,471.053 559.304,471.323 559.312,471.607C559.409,475.205 559.428,475.905 559.628,478.263C559.651,478.255 559.675,478.247 559.7,478.24C560.15,478.116 560.616,478.305 560.859,478.682C560.969,478.332 561.259,478.051 561.64,477.969C562.182,477.853 562.721,478.179 562.87,478.713C562.937,478.955 563.002,479.188 563.064,479.411C563.185,479.328 563.326,479.269 563.48,479.243C563.832,479.183 564.176,479.307 564.409,479.548C564.449,479.534 564.489,479.522 564.531,479.512C564.845,479.439 565.161,479.516 565.402,479.699C565.541,479.562 565.72,479.463 565.925,479.421C565.993,479.407 566.062,479.4 566.129,479.399C566.267,479.109 566.536,478.887 566.874,478.821C567.43,478.711 567.972,479.064 568.098,479.617L568.263,480.344C568.782,480.297 569.263,480.64 569.38,481.155C569.56,481.942 569.62,481.964 571.296,488.929C571.508,489.089 571.661,489.328 571.703,489.611L572.131,492.433C572.215,492.988 571.846,493.511 571.295,493.618C570.744,493.726 570.206,493.379 570.075,492.833C570.02,492.6 569.965,492.371 569.912,492.149C569.892,492.154 569.872,492.159 569.852,492.163C569.293,492.277 568.745,491.924 568.619,491.368L568.61,491.325L568.53,490.972C568.387,491.174 568.173,491.326 567.915,491.387C567.836,491.405 567.757,491.414 567.679,491.415C567.604,491.811 567.303,492.145 566.887,492.242C566.592,492.311 566.296,492.248 566.062,492.09C565.949,492.191 565.812,492.269 565.656,492.314C565.376,492.395 565.09,492.354 564.855,492.222L564.836,492.239L564.528,492.366L564.203,492.391L563.841,492.295L563.841,492.294C563.789,492.7 563.501,493.053 563.087,493.17C562.965,493.205 562.842,493.216 562.723,493.207C562.607,493.335 562.459,493.436 562.284,493.496C562.148,493.543 562.008,493.559 561.872,493.55C561.875,493.571 561.876,493.592 561.878,493.614C561.893,493.788 561.894,493.925 561.887,494.014L561.812,494.364L561.571,494.741L561.384,494.892L561.13,495.01L560.864,495.057L560.619,495.04L560.295,494.923L560.055,494.743C559.974,494.664 559.786,494.414 559.567,493.876C559.434,493.549 559.248,493.056 558.995,492.354C558.819,492.347 558.648,492.295 558.499,492.206C558.374,492.366 558.202,492.492 557.995,492.56C557.574,492.697 557.125,492.554 556.858,492.226C556.72,492.395 556.529,492.522 556.302,492.58C555.746,492.72 555.18,492.387 555.032,491.832C555.03,491.824 555.028,491.817 555.026,491.809C554.965,491.577 554.907,491.361 554.854,491.158C554.843,491.17 554.831,491.181 554.82,491.193C554.613,491.399 554.437,491.529 554.307,491.596L553.989,491.708L553.677,491.728L553.425,491.681L553.19,491.578L552.969,491.411L552.792,491.187C552.762,491.198 552.731,491.207 552.699,491.215C552.18,491.339 551.651,491.055 551.469,490.554C550.954,489.136 550.501,487.924 547.745,472.076C547.646,471.507 548.028,470.963 548.598,470.864C548.916,470.809 549.225,470.903 549.454,471.097Z" style="fill:rgb(237,236,218);"/>
                </g>
                <g transform="matrix(1,0,0,1,256,181.559)">
                    <path d="M567.954,479.209C567.622,477.647 567.169,474.46 568.134,471.565L568.264,471.271L568.451,471.007L568.678,470.791L568.925,470.63C569.279,470.439 569.767,470.349 570.333,470.389C570.76,470.42 571.299,470.546 571.825,470.699C571.907,470.682 571.992,470.675 572.08,470.679C572.367,470.691 572.622,470.817 572.804,471.013C573.181,471.145 573.494,471.265 573.671,471.334C573.689,471.333 573.707,471.332 573.725,471.331L574.155,471.357L574.58,471.495L574.947,471.737C575.257,472.005 575.508,472.429 575.633,473.01C575.912,474.301 575.525,476.757 575.262,478.819C575.741,478.674 576.254,478.68 576.734,478.885C576.994,478.601 577.402,478.472 577.796,478.585C579.902,479.187 580.476,479.703 581.713,479.735C581.904,479.479 582.211,479.314 582.553,479.314C582.759,479.314 582.952,479.374 583.114,479.477C583.145,479.268 583.146,479.011 583.131,478.704C583.13,478.695 583.272,477.575 583.55,476.292C583.825,475.023 584.233,473.595 584.66,472.918C584.795,472.704 584.939,472.539 585.079,472.42L585.3,472.263L585.591,472.134L585.886,472.079L586.2,472.094L586.493,472.181L586.738,472.316C586.954,472.464 587.125,472.649 587.281,472.853C587.353,472.947 587.378,473.088 587.517,473.145C587.728,473.232 588.047,473.172 588.61,473.022C588.944,472.933 589.654,472.694 592.926,473.274C593.469,473.37 593.845,473.871 593.785,474.419C592.681,484.614 592.775,484.572 592.223,487.888C592,489.227 591.588,489.898 591.091,490.262C590.727,490.53 590.288,490.672 589.722,490.696C589.504,490.705 589.258,490.694 588.98,490.673C588.752,491.113 588.242,491.338 587.758,491.198C587.333,491.076 587.041,490.705 587.004,490.283C586.97,490.252 586.938,490.219 586.909,490.184C586.841,490.167 586.776,490.143 586.714,490.113C586.517,490.462 586.131,490.675 585.716,490.641C585.669,490.638 585.622,490.63 585.576,490.62C585.378,490.804 585.111,490.911 584.824,490.901C584.292,490.882 583.859,490.467 583.817,489.937C583.805,489.785 583.793,489.638 583.781,489.494C583.588,489.639 583.344,489.718 583.087,489.702C583.032,489.699 582.978,489.691 582.926,489.68L582.914,489.844C582.874,490.395 582.413,490.82 581.861,490.816C581.308,490.812 580.854,490.379 580.822,489.828L580.815,489.699L580.566,489.757L580.516,489.753C580.417,489.901 580.28,490.023 580.119,490.105L580.176,490.694C580.229,491.248 579.84,491.747 579.29,491.83C578.781,491.907 578.298,491.604 578.139,491.127C577.979,491.317 577.751,491.451 577.486,491.489C577.444,491.495 577.401,491.499 577.359,491.5C577.404,492.212 577.458,493.034 577.524,494.018C577.525,494.032 577.527,494.045 577.527,494.058C577.56,494.537 577.265,494.963 576.834,495.116C576.836,495.157 576.839,495.198 576.842,495.239C576.842,495.244 576.843,495.248 576.843,495.253C576.883,495.828 576.452,496.327 575.878,496.371C575.611,496.391 575.36,496.31 575.163,496.16C574.996,496.324 574.773,496.433 574.522,496.455C574.068,496.495 573.657,496.24 573.477,495.849C573.462,495.851 573.448,495.853 573.433,495.855C572.864,495.918 572.349,495.512 572.278,494.943C572.277,494.933 572.276,494.923 572.275,494.914C572.249,494.712 572.225,494.514 572.201,494.322C571.688,494.32 571.25,493.944 571.171,493.437C571.113,493.451 571.052,493.461 570.991,493.465C570.422,493.501 569.929,493.077 569.88,492.509C569.612,489.429 569.421,487.73 569.358,486.181C569.033,486.024 568.798,485.704 568.767,485.32C568.712,484.628 568.481,483.959 568.425,483.267C568.364,482.506 568.328,481.853 568.31,481.288C568.138,481.288 567.964,481.286 567.792,481.286C567.608,481.287 567.314,481.325 567.238,481.335C566.826,481.682 566.209,481.662 565.822,481.274C565.413,480.865 565.413,480.201 565.822,479.792C566.115,479.499 566.544,479.304 567.069,479.232C567.338,479.196 567.648,479.202 567.954,479.209ZM585.516,477.128C585.695,476.449 585.909,475.695 586.167,474.842C586.174,474.82 586.181,474.798 586.189,474.777C586.173,474.763 586.156,474.749 586.141,474.734C586.093,474.858 586.048,474.983 586.012,475.1C585.818,475.742 585.648,476.48 585.516,477.128ZM590.118,487.752C590.022,488.02 589.919,488.301 589.808,488.597C589.823,488.591 589.837,488.583 589.851,488.573C589.918,488.523 589.937,488.426 589.978,488.306C590.032,488.15 590.077,487.967 590.118,487.752ZM575.683,480.936C575.687,480.986 575.692,481.037 575.697,481.087C575.783,481.056 575.874,481.035 575.969,481.028C576.027,481.023 576.084,481.023 576.14,481.027C576.178,481.024 576.216,481.023 576.254,481.024C576.141,480.958 576.027,480.888 575.915,480.816C575.84,480.768 575.773,480.863 575.706,480.915C575.698,480.921 575.69,480.928 575.683,480.936Z" style="fill:rgb(237,236,218);"/>
                </g>
                <g transform="matrix(1,0,0,1,256,181.559)">
                    <path d="M569.423,488.757C569.69,488.377 569.926,488.13 570.121,487.985L570.493,487.774L570.82,487.686L571.233,487.691L571.617,487.819L571.955,488.06L572.26,488.443C572.427,488.716 572.592,489.139 572.754,489.685C573.051,490.681 573.39,492.182 574.037,493.831C574.406,494.771 574.767,495.449 575.137,495.9C575.349,496.159 575.529,496.335 575.737,496.366C575.875,496.387 576.001,496.314 576.134,496.226C576.417,496.036 576.684,495.739 576.949,495.381C577.934,494.05 578.787,491.957 579.426,490.21C580.092,488.392 580.576,486.912 580.719,486.707L580.899,486.504L581.081,486.374L581.358,486.265L581.62,486.236L582.03,486.325L582.234,486.443L582.266,486.475C583.06,485.445 584.001,484.658 584.877,484.029C585.47,483.603 586.027,483.254 586.468,482.951C586.692,482.796 586.976,482.551 587.016,482.516C587.049,482.445 587.095,482.319 587.04,482.188C586.969,482.021 586.779,481.89 586.468,481.754C586.146,481.612 585.737,481.496 585.222,481.413L585.218,481.424L584.964,481.754L584.676,481.941L584.34,482.039C584.239,482.054 584.091,482.062 583.882,482.053C583.407,482.033 582.363,481.923 580.209,481.935C580.197,482.03 580.173,482.125 580.134,482.217C579.91,482.751 579.295,483.002 578.762,482.778L576.753,481.935C576.352,481.767 576.102,481.371 576.11,480.947L576.07,480.858L576.046,480.613L576.077,480.38L576.154,480.169L576.292,479.958L576.626,479.696L577.011,479.586C577.143,479.57 577.548,479.529 578.115,479.475C578.28,479.335 578.491,479.245 578.724,479.231C581.601,479.047 581.923,479.085 584.111,478.957C584.591,478.922 584.98,478.897 585.221,478.888C585.233,478.888 585.244,478.887 585.255,478.887C585.686,478.873 586.065,479.121 586.238,479.489C586.664,479.588 587.017,479.706 587.31,479.834C588.291,480.265 588.749,480.846 588.972,481.375C589.347,482.267 589.055,483.126 588.877,483.482C588.752,483.732 588.526,484.007 588.188,484.283C587.87,484.544 587.425,484.834 586.911,485.175C586.188,485.655 585.299,486.254 584.507,487.082C584.745,487.281 584.891,487.583 584.883,487.913C584.755,493.02 584.763,492.948 584.193,498.008C584.132,498.547 583.67,498.951 583.128,498.939C582.586,498.927 582.142,498.503 582.106,497.962C582.082,497.616 581.973,495.988 581.79,494.108L581.769,494.113L581.462,494.112L581.151,494.022L580.897,493.864L580.72,493.685L580.545,493.393L580.49,493.216C580.226,493.824 579.95,494.414 579.67,494.944C579.009,496.197 578.256,497.25 577.485,497.835C576.755,498.389 575.985,498.584 575.216,498.398C574.238,498.16 573.078,497.125 572.086,494.597C571.504,493.115 571.156,491.748 570.873,490.73C570.869,490.715 570.864,490.699 570.86,490.684C570.861,490.727 570.859,490.771 570.855,490.815C570.022,498.977 569.392,499.535 568.898,500.112L568.64,500.343L568.387,500.469L568.027,500.529L567.73,500.485L567.396,500.319L567.179,500.106L566.989,499.721L566.94,499.306C566.941,499.12 566.982,498.781 567.039,498.304C566.888,498.122 566.797,497.888 566.797,497.635C566.797,497.343 566.83,485.019 566.984,482.313C567.018,481.724 567.149,481.383 567.189,481.317L567.36,481.102L567.615,480.92L567.958,480.814L568.348,480.836L568.636,480.956L568.883,481.161L569.055,481.426L569.137,481.676C569.208,482.001 569.308,484.025 569.423,488.757Z" style="fill:rgb(237,236,218);"/>
                </g>
                <g transform="matrix(1,0,0,1,140.035,190.149)">
                    <path d="M664.866,526.506C664.668,527.05 664.065,527.329 663.522,527.131C662.979,526.932 662.699,526.33 662.898,525.787C666.845,514.988 666.164,514.921 668.641,503.774C672.855,484.811 672.764,484.81 673.174,483.173C673.314,482.611 673.883,482.27 674.445,482.41C675.006,482.55 675.347,483.12 675.207,483.681C674.799,485.314 674.89,485.316 670.687,504.229C668.18,515.511 668.862,515.577 664.866,526.506Z"/>
                </g>
                <g transform="matrix(1,0,0,1,140.035,190.149)">
                    <path d="M700.099,484.337C700.05,483.76 700.479,483.253 701.056,483.205C701.632,483.157 702.139,483.586 702.187,484.163C702.344,486.036 703.621,501.383 704.646,507.532C706.173,516.697 705.744,516.553 706.508,525.723C706.556,526.3 706.127,526.807 705.551,526.855C704.974,526.903 704.467,526.474 704.419,525.897C703.662,516.813 704.091,516.955 702.578,507.877C701.546,501.682 700.256,486.224 700.099,484.337Z"/>
                </g>
                <g transform="matrix(1,0,0,1,140.035,190.149)">
                    <path d="M692.658,468.5C692.812,468.507 692.984,468.513 693.162,468.515C694.239,468.527 695.917,468.507 698.469,468.576L698.879,463.168C698.921,462.604 699.404,462.176 699.969,462.2C708.366,462.564 708.191,462.546 709.637,462.633C710.181,462.666 710.61,463.111 710.622,463.656C710.685,466.49 712.368,467.871 708.455,483.059C708.338,483.513 707.933,483.834 707.464,483.845C681.927,484.438 681.927,485.713 665.875,483.414C665.412,483.348 665.049,482.982 664.985,482.518C664.856,481.573 664.106,476.074 663.208,471.249C663.192,471.235 663.177,471.221 663.162,471.206C662.834,470.878 662.769,470.386 662.967,469.993C662.739,468.835 662.504,467.748 662.269,466.81C662.175,466.435 662.296,466.057 662.554,465.805C662.363,464.801 662.12,463.567 661.818,462.044C661.759,461.746 661.832,461.438 662.018,461.198C662.203,460.958 662.484,460.811 662.787,460.794C668.909,460.448 668.787,460.352 674.863,459.711C675.409,459.653 675.907,460.027 676.005,460.568C676.781,464.881 676.804,465.097 677.049,468.764C679.454,468.657 679.877,468.665 682.231,468.776C682.34,465.544 682.323,465.322 682.201,461.429C682.192,461.132 682.309,460.844 682.525,460.639C682.74,460.433 683.032,460.329 683.329,460.352C689.175,460.801 691.01,460.881 691.6,460.999L691.982,461.114L692.31,461.319L692.599,461.692L692.719,462.105C693.158,465.616 692.891,467.539 692.658,468.5ZM665.172,470.359C665.975,474.585 666.675,479.452 666.954,481.45C681.935,483.554 682.501,482.354 706.621,481.769C709.725,469.489 708.9,466.935 708.606,464.674C707.709,464.628 706.381,464.576 700.892,464.338L700.484,469.732C700.441,470.292 699.965,470.719 699.404,470.701C695.771,470.58 693.699,470.637 692.573,470.6C691.916,470.578 691.499,470.504 691.248,470.405L690.954,470.252L690.751,470.088L690.477,469.696L690.378,469.37L690.36,469.084C690.365,468.919 690.401,468.72 690.479,468.487C690.625,468.049 691.087,466.577 690.714,463.019C689.865,462.954 687.836,462.8 684.333,462.531C684.432,465.727 684.425,465.984 684.29,469.909C684.28,470.189 684.159,470.453 683.953,470.643C683.747,470.833 683.474,470.932 683.194,470.919C679.58,470.751 679.772,470.737 676.12,470.905C675.551,470.931 675.065,470.497 675.026,469.928C674.743,465.707 674.759,465.51 674.114,461.899C669.331,462.413 668.793,462.54 664.107,462.817C664.914,466.915 665.222,468.666 665.252,469.506C665.266,469.887 665.229,470.155 665.172,470.359Z"/>
                </g>
            </g>
        </g>
    </g>
</svg>
